<svg xmlns="http://www.w3.org/2000/svg" viewBox="0 0 67.22 228.08"><defs><style>.cls-1{fill:#00cbce;}</style></defs><title>decoder_puntillado</title><g id="Capa_2" data-name="Capa 2"><g id="Capa_1-2" data-name="Capa 1"><path class="cls-1" d="M67.22,89a2.44,2.44,0,0,0-2.55.85A2.71,2.71,0,0,0,65,93.44a2.55,2.55,0,0,0,2.18.4Z"/><path class="cls-1" d="M67.22,77.1a2.38,2.38,0,0,0-1.83.93,2.72,2.72,0,0,0,.38,3.58,2.47,2.47,0,0,0,1.45.48Z"/><path class="cls-1" d="M67.22,65.53a1.69,1.69,0,0,0-.74.52,2.63,2.63,0,0,0,.17,3.8,2.49,2.49,0,0,0,.57.33Z"/><path class="cls-1" d="M67.22,101.13a2.52,2.52,0,0,0-3.3.52,2.17,2.17,0,0,0,.16,3.27,2.23,2.23,0,0,0,3.14.15Z"/><path class="cls-1" d="M63.16,116.83a2.31,2.31,0,0,0,3.36-.24,2.46,2.46,0,0,0-.16-3.5,2.49,2.49,0,0,0-3.4.37A2.31,2.31,0,0,0,63.16,116.83Z"/><path class="cls-1" d="M67.22,54.44a.68.68,0,0,0-.12.12,2.33,2.33,0,0,0,.12,3.2Z"/><path class="cls-1" d="M59.56,87a2.43,2.43,0,0,0,3.34-.39,2.15,2.15,0,0,0-.4-3.28,2.18,2.18,0,0,0-3.21.24A2.5,2.5,0,0,0,59.56,87Z"/><path class="cls-1" d="M58.72,98.75A2.46,2.46,0,0,0,62,98.38a2.18,2.18,0,0,0-.39-3.31,2.12,2.12,0,0,0-3.23.34A2.46,2.46,0,0,0,58.72,98.75Z"/><path class="cls-1" d="M60.2,75.11a2.39,2.39,0,0,0,3.27-.18c.86-1.08,1.21-2.11-.16-3.3a2,2,0,0,0-3.24.12A2.46,2.46,0,0,0,60.2,75.11Z"/><path class="cls-1" d="M67.22,143.08a.52.52,0,0,0-.11.1,2.37,2.37,0,0,0,.09,3.47h0Z"/><path class="cls-1" d="M58,110.51a2.34,2.34,0,0,0,3.31-.38,2.08,2.08,0,0,0-.38-3.17,2.1,2.1,0,0,0-3.08.15A2.37,2.37,0,0,0,58,110.51Z"/><path class="cls-1" d="M61.18,63.43a2.32,2.32,0,0,0,3.3-.41,2.06,2.06,0,0,0-.32-3.1,2.09,2.09,0,0,0-3.09,0A2.36,2.36,0,0,0,61.18,63.43Z"/><path class="cls-1" d="M62.2,125.4a2.33,2.33,0,1,0,3.61,2.94,2.35,2.35,0,0,0-.35-3.25A2.39,2.39,0,0,0,62.2,125.4Z"/><path class="cls-1" d="M62.25,51.45A2.27,2.27,0,0,0,65.17,48a2.27,2.27,0,0,0-2.92,3.46Z"/><path class="cls-1" d="M57.2,122.15a2.13,2.13,0,0,0,3.1-.4A2.17,2.17,0,1,0,56.92,119,2.13,2.13,0,0,0,57.2,122.15Z"/><path class="cls-1" d="M61.75,140.28a2.13,2.13,0,0,0,3.1-.37,2.17,2.17,0,1,0-3.37-2.74A2.13,2.13,0,0,0,61.75,140.28Z"/><path class="cls-1" d="M55.09,68.7a2.16,2.16,0,1,0-.22-3.08A2.16,2.16,0,0,0,55.09,68.7Z"/><path class="cls-1" d="M52.56,104.17a2.27,2.27,0,0,0,3-.41,2,2,0,0,0-.4-3,2.06,2.06,0,0,0-3.06.36A2.43,2.43,0,0,0,52.56,104.17Z"/><path class="cls-1" d="M53.22,92.3A2.17,2.17,0,1,0,53,89.17,2.17,2.17,0,0,0,53.22,92.3Z"/><path class="cls-1" d="M54.12,80.61a2.17,2.17,0,1,0-.27-3.12A2.17,2.17,0,0,0,54.12,80.61Z"/><path class="cls-1" d="M63,39.64a2.24,2.24,0,0,0,3.05-.41,2.14,2.14,0,0,0-3.37-2.65A2.25,2.25,0,0,0,63,39.64Z"/><path class="cls-1" d="M67.22,154.48a2.12,2.12,0,0,0-1,.71,2.25,2.25,0,0,0,.27,3.07,2,2,0,0,0,.78.37Z"/><path class="cls-1" d="M51.71,115.85a2.11,2.11,0,1,0-.34-3A2.17,2.17,0,0,0,51.71,115.85Z"/><path class="cls-1" d="M55.85,56.86a2.3,2.3,0,0,0,3-.36,2,2,0,0,0-.29-2.88,2,2,0,0,0-3,.2A2.29,2.29,0,0,0,55.85,56.86Z"/><path class="cls-1" d="M56.33,133.82a2.14,2.14,0,1,0-.3-3A2.2,2.2,0,0,0,56.33,133.82Z"/><path class="cls-1" d="M61.16,152a1.82,1.82,0,0,0,2.77-.31,1.87,1.87,0,0,0-.18-2.92A1.83,1.83,0,0,0,61,149C60.09,150.14,60.15,151.15,61.16,152Z"/><path class="cls-1" d="M56.67,42.13A1.89,1.89,0,0,0,56.82,45a1.86,1.86,0,0,0,2.75-.22,2,2,0,1,0-2.9-2.67Z"/><path class="cls-1" d="M55.61,145.7a1.9,1.9,0,0,0,2.77-.31,2,2,0,1,0-3.09-2.46A1.9,1.9,0,0,0,55.61,145.7Z"/><path class="cls-1" d="M51,127.52a1.87,1.87,0,0,0,2.76-.2,2,2,0,0,0-.08-3,2,2,0,0,0-2.8.26A1.9,1.9,0,0,0,51,127.52Z"/><path class="cls-1" d="M48,85.79a1.89,1.89,0,0,0,2.83-.18A2,2,0,1,0,47.9,83,1.9,1.9,0,0,0,48,85.79Z"/><path class="cls-1" d="M47.18,97.57A2,2,0,1,0,47,94.71,2,2,0,0,0,47.18,97.57Z"/><path class="cls-1" d="M49.67,62.29A2.06,2.06,0,0,0,52.51,62a2,2,0,1,0-3-2.5A2,2,0,0,0,49.67,62.29Z"/><path class="cls-1" d="M48.51,71.23a2,2,0,1,0,2.78-.3A2,2,0,0,0,48.51,71.23Z"/><path class="cls-1" d="M67.22,25.91a2,2,0,0,0-.75-1.24,2,2,0,1,0,.3,2.86,2.15,2.15,0,0,0,.45-1Z"/><path class="cls-1" d="M46.24,109.45a2.05,2.05,0,0,0,2.79-.38,2,2,0,0,0-3.1-2.42A2.06,2.06,0,0,0,46.24,109.45Z"/><path class="cls-1" d="M67.22,166.6a1.82,1.82,0,0,0-1.76.7,2,2,0,0,0,.24,2.8,1.92,1.92,0,0,0,1.52.39Z"/><path class="cls-1" d="M57.5,30.25a1.93,1.93,0,1,0,2.84,2.59A1.72,1.72,0,0,0,60,30.17,1.7,1.7,0,0,0,57.5,30.25Z"/><path class="cls-1" d="M50.34,47.53a1.93,1.93,0,1,0,2.85,2.57,1.75,1.75,0,0,0-.26-2.62C52,46.74,51,46.73,50.34,47.53Z"/><path class="cls-1" d="M60.32,163.66a2,2,0,0,0,2.72-.34,1.92,1.92,0,0,0-2.89-2.53A2,2,0,0,0,60.32,163.66Z"/><path class="cls-1" d="M50.2,139.23a2,2,0,0,0,2.72-.33A1.92,1.92,0,0,0,50,136.36,2,2,0,0,0,50.2,139.23Z"/><path class="cls-1" d="M45.47,121.18a1.91,1.91,0,1,0-.22-2.67A2,2,0,0,0,45.47,121.18Z"/><path class="cls-1" d="M54.85,157.26a1.65,1.65,0,0,0,2.54-.33,1.78,1.78,0,1,0-2.78-2.22A1.65,1.65,0,0,0,54.85,157.26Z"/><path class="cls-1" d="M42.5,76.79c-.82,1-.78,1.86.12,2.6a1.6,1.6,0,0,0,2.52-.22A1.68,1.68,0,0,0,45,76.51,1.66,1.66,0,0,0,42.5,76.79Z"/><path class="cls-1" d="M67.22,12.89l0,0a1.67,1.67,0,0,0-2.56.41,1.6,1.6,0,0,0,.22,2.52,1.57,1.57,0,0,0,2.38-.12Z"/><path class="cls-1" d="M41.7,91.15a1.84,1.84,0,1,0-.19-2.61A1.81,1.81,0,0,0,41.7,91.15Z"/><path class="cls-1" d="M51.42,38.62A1.73,1.73,0,0,0,54,38.26a1.9,1.9,0,0,0-.22-2.57,1.92,1.92,0,0,0-2.62.44A1.72,1.72,0,0,0,51.42,38.62Z"/><path class="cls-1" d="M40.72,100.5a1.81,1.81,0,1,0,2.6-.31A1.78,1.78,0,0,0,40.72,100.5Z"/><path class="cls-1" d="M43.37,67.62a1.81,1.81,0,1,0-.31-2.52A1.76,1.76,0,0,0,43.37,67.62Z"/><path class="cls-1" d="M61.06,21.08a1.78,1.78,0,1,0-2.53.23A1.84,1.84,0,0,0,61.06,21.08Z"/><path class="cls-1" d="M44.73,132.84a1.79,1.79,0,1,0-.26-2.53A1.76,1.76,0,0,0,44.73,132.84Z"/><path class="cls-1" d="M40.15,114.65a1.84,1.84,0,0,0,2.53-.25,1.77,1.77,0,0,0-2.7-2.29A1.85,1.85,0,0,0,40.15,114.65Z"/><path class="cls-1" d="M49.4,150.8a1.83,1.83,0,0,0,2.53-.28,1.77,1.77,0,0,0-2.73-2.26A1.85,1.85,0,0,0,49.4,150.8Z"/><path class="cls-1" d="M67.22,178.94s0,0-.07-.05a1.57,1.57,0,0,0-2.45.27,1.77,1.77,0,0,0,2.52,2.46Z"/><path class="cls-1" d="M59.54,175.2a1.94,1.94,0,0,0,2.46-.26,1.59,1.59,0,0,0-.11-2.29c-1-.88-1.74-.88-2.48,0C58.56,173.26,59,174.73,59.54,175.2Z"/><path class="cls-1" d="M47.79,43.64a1.55,1.55,0,0,0-.31-2.34,1.52,1.52,0,0,0-2.41.15,1.94,1.94,0,0,0,.2,2.52A1.91,1.91,0,0,0,47.79,43.64Z"/><path class="cls-1" d="M54.73,26.62a1.72,1.72,0,1,0-2.46.19A1.77,1.77,0,0,0,54.73,26.62Z"/><path class="cls-1" d="M44,53.36a1.78,1.78,0,0,0,2.66,2.35A1.78,1.78,0,1,0,44,53.36Z"/><path class="cls-1" d="M39.51,72.84a1.68,1.68,0,1,0-2.37.21A1.69,1.69,0,0,0,39.51,72.84Z"/><path class="cls-1" d="M67.22,1a1.55,1.55,0,0,0-1.61.47A1.83,1.83,0,0,0,65.74,4a1.68,1.68,0,0,0,1.48.31Z"/><path class="cls-1" d="M39,124a1.71,1.71,0,1,0,2.62,2.2,1.69,1.69,0,0,0-.28-2.35A1.64,1.64,0,0,0,39,124Z"/><path class="cls-1" d="M44,144.58a1.81,1.81,0,0,0,2.43-.25,1.66,1.66,0,0,0-.24-2.36,1.64,1.64,0,0,0-2.34.12A1.79,1.79,0,0,0,44,144.58Z"/><path class="cls-1" d="M36.1,82.28a1.72,1.72,0,1,0,2.65,2.17,1.68,1.68,0,0,0-.3-2.28A1.66,1.66,0,0,0,36.1,82.28Z"/><path class="cls-1" d="M54.21,169a1.68,1.68,0,1,0-.29-2.37A1.68,1.68,0,0,0,54.21,169Z"/><path class="cls-1" d="M35.55,96.6a1.67,1.67,0,1,0-.21-2.38A1.67,1.67,0,0,0,35.55,96.6Z"/><path class="cls-1" d="M40.44,60.89a1.55,1.55,0,0,0-.08-2.35,1.53,1.53,0,0,0-2.32.31,1.58,1.58,0,1,0,2.4,2Z"/><path class="cls-1" d="M34.57,106A1.58,1.58,0,1,0,37,108a1.56,1.56,0,0,0-.07-2.36A1.54,1.54,0,0,0,34.57,106Z"/><path class="cls-1" d="M61.76,9.28a1.53,1.53,0,0,0-.09-2.41,1.53,1.53,0,0,0-2.26.3,1.48,1.48,0,0,0,.13,2.29A1.47,1.47,0,0,0,61.76,9.28Z"/><path class="cls-1" d="M48.34,31.77a1.5,1.5,0,0,0-.14-2.33,1.49,1.49,0,0,0-2.24.25,1.58,1.58,0,1,0,2.38,2.08Z"/><path class="cls-1" d="M48.69,162.65a1.54,1.54,0,0,0,2.22-.24,1.59,1.59,0,0,0-.1-2.36,1.56,1.56,0,0,0-2.26.26A1.54,1.54,0,0,0,48.69,162.65Z"/><path class="cls-1" d="M38.55,138.21a1.57,1.57,0,0,0,2.26-.24,1.67,1.67,0,0,0-.1-2.32,1.7,1.7,0,0,0-2.25.22A1.59,1.59,0,0,0,38.55,138.21Z"/><path class="cls-1" d="M41.19,49a1.67,1.67,0,0,0-.12-2.32,1.72,1.72,0,0,0-2.24.22A1.58,1.58,0,1,0,41.19,49Z"/><path class="cls-1" d="M43,154a1.57,1.57,0,0,0,2.42,2,1.45,1.45,0,0,0-.22-2.21A1.43,1.43,0,0,0,43,154Z"/><path class="cls-1" d="M55.5,14.49a1.44,1.44,0,0,0-.29-2.2,1.43,1.43,0,0,0-2.14.21,1.57,1.57,0,1,0,2.43,2Z"/><path class="cls-1" d="M32.38,89.84a1.6,1.6,0,0,0-.22-2.14,1.53,1.53,0,1,0-1.91,2.39A1.6,1.6,0,0,0,32.38,89.84Z"/><path class="cls-1" d="M36.22,119.87a1.57,1.57,0,1,0-2.2.21A1.58,1.58,0,0,0,36.22,119.87Z"/><path class="cls-1" d="M64.4,193.35a1.72,1.72,0,0,0,2.2-.31,1.44,1.44,0,0,0-.25-2.09,1.36,1.36,0,0,0-2.08.06A1.68,1.68,0,0,0,64.4,193.35Z"/><path class="cls-1" d="M58.94,186.9a1.71,1.71,0,0,0,2.2-.26,1.48,1.48,0,0,0-.27-2.17,1.35,1.35,0,0,0-2,.08A1.69,1.69,0,0,0,58.94,186.9Z"/><path class="cls-1" d="M33.31,78.08A1.44,1.44,0,0,0,33.07,76a1.36,1.36,0,0,0-2.08.06,1.67,1.67,0,0,0,.13,2.34A1.71,1.71,0,0,0,33.31,78.08Z"/><path class="cls-1" d="M31.56,101.74a1.3,1.3,0,0,0-.28-2.07,1.36,1.36,0,0,0-2,0,1.66,1.66,0,0,0,.06,2.35A1.58,1.58,0,0,0,31.56,101.74Z"/><path class="cls-1" d="M34,66.2a1.31,1.31,0,0,0-.3-2.07,1.36,1.36,0,0,0-1.95,0,1.67,1.67,0,0,0,.08,2.36A1.59,1.59,0,0,0,34,66.2Z"/><path class="cls-1" d="M42.05,37.22a1.31,1.31,0,0,0-.3-2.07,1.37,1.37,0,0,0-2,0,1.67,1.67,0,0,0,.08,2.36A1.59,1.59,0,0,0,42.05,37.22Z"/><path class="cls-1" d="M53.39,180.55a1.49,1.49,0,1,0-.15-2.12A1.51,1.51,0,0,0,53.39,180.55Z"/><path class="cls-1" d="M37.8,149.76a1.21,1.21,0,0,0,2-.21c.68-.84.65-1.46-.12-2.07s-1.37-.49-2,.35A1.19,1.19,0,0,0,37.8,149.76Z"/><path class="cls-1" d="M33.15,129.6c-.67.8-.65,1.4.08,2a1.22,1.22,0,0,0,2-.19c.67-.83.64-1.47-.09-2.07A1.24,1.24,0,0,0,33.15,129.6Z"/><path class="cls-1" d="M49.05,20c.69-.84.67-1.47-.06-2.08s-1.37-.55-2.05.29a1.21,1.21,0,0,0,.18,2A1.2,1.2,0,0,0,49.05,20Z"/><path class="cls-1" d="M34.75,54.47a1.39,1.39,0,0,0-.11-2.09,1.45,1.45,0,0,0-1.94.24,1.38,1.38,0,1,0,2,1.85Z"/><path class="cls-1" d="M47.94,174.21a1.28,1.28,0,0,0,2-.29,1.38,1.38,0,0,0-.15-2,1.42,1.42,0,0,0-2,.29A1.28,1.28,0,0,0,47.94,174.21Z"/><path class="cls-1" d="M30.61,113.35a1.41,1.41,0,0,0-.18-2,1.44,1.44,0,0,0-2,.31,1.39,1.39,0,1,0,2.18,1.7Z"/><path class="cls-1" d="M56.28,2.6a1.65,1.65,0,0,0-.14-2,1.62,1.62,0,0,0-2,.3,1.32,1.32,0,0,0,.16,2A1.33,1.33,0,0,0,56.28,2.6Z"/><path class="cls-1" d="M42.6,165.79a1.49,1.49,0,0,0,0,2,1.46,1.46,0,0,0,2-.13,1.52,1.52,0,0,0-.06-2.08A1.56,1.56,0,0,0,42.6,165.79Z"/><path class="cls-1" d="M42.64,25.36a1.55,1.55,0,0,0-.06-2,1.58,1.58,0,0,0-2,.18,1.38,1.38,0,1,0,2.06,1.84Z"/><path class="cls-1" d="M34.54,143.21a1.38,1.38,0,1,0-2.12-1.77,1.38,1.38,0,1,0,2.12,1.77Z"/><path class="cls-1" d="M29.74,125a1.16,1.16,0,0,0-.31-1.8,1.14,1.14,0,0,0-1.88.17A1.37,1.37,0,1,0,29.74,125Z"/><path class="cls-1" d="M26.78,83.34a1.16,1.16,0,0,0-.3-1.8,1.14,1.14,0,0,0-1.88.16,1.37,1.37,0,1,0,2.18,1.64Z"/><path class="cls-1" d="M27.54,71.75a1.35,1.35,0,1,0-1.86.2A1.4,1.4,0,0,0,27.54,71.75Z"/><path class="cls-1" d="M26,95.17a1.17,1.17,0,0,0-.28-1.77,1.22,1.22,0,0,0-1.85.17A1.33,1.33,0,1,0,26,95.17Z"/><path class="cls-1" d="M49.8,8a1.24,1.24,0,0,0-.32-1.84,1.18,1.18,0,0,0-1.78.2,1.38,1.38,0,0,0,.18,1.93A1.4,1.4,0,0,0,49.8,8Z"/><path class="cls-1" d="M35.44,42.65a1.36,1.36,0,1,0-1.92.19A1.39,1.39,0,0,0,35.44,42.65Z"/><path class="cls-1" d="M37.16,161.61a1.41,1.41,0,0,0,1.92-.32,1.17,1.17,0,0,0-.27-1.77,1.21,1.21,0,0,0-1.85.16A1.39,1.39,0,0,0,37.16,161.61Z"/><path class="cls-1" d="M28.27,59.79c.41-.58.57-1.21-.23-1.74a1.11,1.11,0,0,0-1.79.15,1.3,1.3,0,0,0,.2,1.87A1.25,1.25,0,0,0,28.27,59.79Z"/><path class="cls-1" d="M52.67,192.12a1.29,1.29,0,0,0,1.83-.21c.54-.62.46-1.25-.47-2a1,1,0,0,0-1.5.33A1.32,1.32,0,0,0,52.67,192.12Z"/><path class="cls-1" d="M36.29,30.83c.42-.59.58-1.21-.22-1.76a1.1,1.1,0,0,0-1.77.14,1.29,1.29,0,0,0,.17,1.87A1.24,1.24,0,0,0,36.29,30.83Z"/><path class="cls-1" d="M58,196.69a1.3,1.3,0,0,0,.18,1.88,1.26,1.26,0,0,0,1.82-.26c.41-.59.57-1.21-.22-1.76A1.11,1.11,0,0,0,58,196.69Z"/><path class="cls-1" d="M25.05,106.91a1.13,1.13,0,0,0-.26-1.82,1.09,1.09,0,0,0-1.72.18,1.29,1.29,0,0,0,.16,1.87A1.24,1.24,0,0,0,25.05,106.91Z"/><path class="cls-1" d="M63.46,203a1.35,1.35,0,0,0,.19,1.86,1.32,1.32,0,0,0,1.85-.23,1.27,1.27,0,0,0-.18-1.78A1.33,1.33,0,0,0,63.46,203Z"/><path class="cls-1" d="M43.41,13.48a1.15,1.15,0,0,0-.1-1.71,1.16,1.16,0,0,0-1.76.22,1.1,1.1,0,0,0,.1,1.71A1.14,1.14,0,0,0,43.41,13.48Z"/><path class="cls-1" d="M28.81,136.83a1.15,1.15,0,0,0-.1-1.77c-.56-.33-1.2-.5-1.68.21a1.13,1.13,0,0,0,.09,1.77A1.09,1.09,0,0,0,28.81,136.83Z"/><path class="cls-1" d="M33.34,155a1.12,1.12,0,0,0,0-1.76,1.07,1.07,0,0,0-1.67.1,1.18,1.18,0,0,0,0,1.79A1.15,1.15,0,0,0,33.34,155Z"/><path class="cls-1" d="M24.13,118.86A1.12,1.12,0,0,0,24,117.1a1.08,1.08,0,0,0-1.67.15,1.2,1.2,0,1,0,1.76,1.61Z"/><path class="cls-1" d="M49,183.93c-.55-.35-1.19-.54-1.69.17a1.14,1.14,0,0,0,.06,1.77,1.09,1.09,0,0,0,1.7-.18A1.14,1.14,0,0,0,49,183.93Z"/><path class="cls-1" d="M29,48.09a1.08,1.08,0,0,0-.13-1.64,1.1,1.1,0,0,0-1.71.1,1.18,1.18,0,0,0,.16,1.77A1.16,1.16,0,0,0,29,48.09Z"/><path class="cls-1" d="M41.92,179.46a1.17,1.17,0,0,0,1.7-.27c.43-.54.5-1.1-.15-1.5s-1.12-.72-1.66,0A1.21,1.21,0,0,0,41.92,179.46Z"/><path class="cls-1" d="M21.14,77.14A1.06,1.06,0,0,0,21,75.58a1.07,1.07,0,0,0-1.64.13,1.15,1.15,0,1,0,1.8,1.43Z"/><path class="cls-1" d="M20.26,88.88a1.06,1.06,0,0,0-.13-1.58,1,1,0,0,0-1.62.07A1.1,1.1,0,0,0,18.62,89,1.14,1.14,0,0,0,20.26,88.88Z"/><path class="cls-1" d="M23.26,130.48a1,1,0,0,0-.3-1.59,1.07,1.07,0,0,0-1.59.25,1.16,1.16,0,0,0,.25,1.61A1.1,1.1,0,0,0,23.26,130.48Z"/><path class="cls-1" d="M19.4,100.56a1.05,1.05,0,0,0-.26-1.63,1,1,0,0,0-1.53.18,1.1,1.1,0,0,0,.16,1.65A1.14,1.14,0,0,0,19.4,100.56Z"/><path class="cls-1" d="M38,173a1.06,1.06,0,0,0-.25-1.63,1,1,0,0,0-1.53.16,1.11,1.11,0,0,0,.15,1.66A1.15,1.15,0,0,0,38,173Z"/><path class="cls-1" d="M29.91,36.33a1.07,1.07,0,0,0-.25-1.64,1,1,0,0,0-1.53.18,1.09,1.09,0,0,0,.16,1.65A1.13,1.13,0,0,0,29.91,36.33Z"/><path class="cls-1" d="M27.9,148.52a1,1,0,0,0-.14-1.53,1.06,1.06,0,0,0-1.65.08,1.14,1.14,0,0,0,.14,1.63A1.1,1.1,0,0,0,27.9,148.52Z"/><path class="cls-1" d="M21.91,65.24a1,1,0,0,0-.31-1.58,1,1,0,0,0-1.55.22,1.13,1.13,0,0,0,.22,1.63A1.1,1.1,0,0,0,21.91,65.24Z"/><path class="cls-1" d="M37.09,19a1.07,1.07,0,0,0-.3-1.62,1,1,0,0,0-1.52.21,1.1,1.1,0,0,0,.19,1.65A1.14,1.14,0,0,0,37.09,19Z"/><path class="cls-1" d="M22.85,53.37a.91.91,0,0,0-.18-1.49.88.88,0,0,0-1.39-.07,1.16,1.16,0,0,0-.05,1.73A1.06,1.06,0,0,0,22.85,53.37Z"/><path class="cls-1" d="M18.52,112.34a1,1,0,0,0-.05-1.55c-.43-.33-1-.47-1.37.14s-.6,1,0,1.52A.89.89,0,0,0,18.52,112.34Z"/><path class="cls-1" d="M57.52,208.65a1,1,0,0,0,0,1.47A.94.94,0,0,0,59,210a1,1,0,0,0,0-1.5A.93.93,0,0,0,57.52,208.65Z"/><path class="cls-1" d="M32.41,166.47c.52-.49.31-1-.17-1.41a.92.92,0,0,0-1.46.26c-.38.54-.42,1,.12,1.42S32,167.09,32.41,166.47Z"/><path class="cls-1" d="M48.06,197.2a1,1,0,1,0-1.62-1.15.9.9,0,0,0,.19,1.43C47.19,197.9,47.64,197.72,48.06,197.2Z"/><path class="cls-1" d="M22.4,142c.34-.36.2-.93-.27-1.31a.94.94,0,0,0-1.42.22.92.92,0,0,0,.08,1.45C21.33,142.76,21.81,142.64,22.4,142Z"/><path class="cls-1" d="M52.13,203.74a1,1,0,0,0,1.45-.22.94.94,0,0,0-.06-1.43,1,1,0,0,0-1.49.19A1,1,0,0,0,52.13,203.74Z"/><path class="cls-1" d="M30.65,24.21A1,1,0,1,0,29.11,23a.91.91,0,0,0,.1,1.45C29.74,24.84,30.2,24.72,30.65,24.21Z"/><path class="cls-1" d="M23.51,41.45A.92.92,0,0,0,23.42,40a1.08,1.08,0,1,0,.09,1.42Z"/><path class="cls-1" d="M62.87,214.87a.9.9,0,0,0,.1,1.44.92.92,0,0,0,1.44-.19,1,1,0,1,0-1.54-1.25Z"/><path class="cls-1" d="M44.08,1.8A1,1,0,0,0,44,.33a1,1,0,0,0-1.54.1,1,1,0,0,0,.13,1.48A1,1,0,0,0,44.08,1.8Z"/><path class="cls-1" d="M17.62,124a.9.9,0,0,0-.12-1.38,1,1,0,1,0-1.26,1.5A.9.9,0,0,0,17.62,124Z"/><path class="cls-1" d="M27,160.26c.45-.48.27-.92-.11-1.32s-.93-.5-1.35,0a1,1,0,0,0,.08,1.46A1,1,0,0,0,27,160.26Z"/><path class="cls-1" d="M42.48,190.92c.41-.52.19-.94-.33-1.38a.84.84,0,0,0-1.24.22,1,1,0,1,0,1.57,1.16Z"/><path class="cls-1" d="M14.65,82.36a.82.82,0,0,0-.24-1.24c-.46-.39-.91-.4-1.42.17a1,1,0,0,0,.23,1.36A1,1,0,0,0,14.65,82.36Z"/><path class="cls-1" d="M15.65,70.5a.82.82,0,0,0-.23-1.24.87.87,0,0,0-1.38.11,1,1,0,0,0,.18,1.41A1,1,0,0,0,15.65,70.5Z"/><path class="cls-1" d="M37.85,6.86a.83.83,0,0,0-.24-1.24.87.87,0,0,0-1.38.13,1,1,0,1,0,1.62,1.11Z"/><path class="cls-1" d="M37.17,184.6c.38-.48.23-.9-.26-1.27a.76.76,0,0,0-1.22.11.91.91,0,0,0,.11,1.38A.93.93,0,0,0,37.17,184.6Z"/><path class="cls-1" d="M16.33,58.67c.38-.5.2-.9-.31-1.3a.76.76,0,0,0-1.19.16.95.95,0,1,0,1.5,1.14Z"/><path class="cls-1" d="M13,105.91c.38-.5.2-.9-.33-1.31a.75.75,0,0,0-1.17.18.94.94,0,1,0,1.5,1.13Z"/><path class="cls-1" d="M13.82,94.29a.95.95,0,1,0-1.53-1.12.95.95,0,1,0,1.53,1.12Z"/><path class="cls-1" d="M24.22,29.79a.84.84,0,0,0,0-1.23.88.88,0,0,0-1.32.05.87.87,0,0,0,.07,1.22A.83.83,0,0,0,24.22,29.79Z"/><path class="cls-1" d="M31.47,178.27c.38-.46.41-.87-.06-1.23s-.86-.18-1.21.26-.35.82.13,1.14S31.13,178.7,31.47,178.27Z"/><path class="cls-1" d="M16.79,135.71a.74.74,0,0,0,0-1.21c-.46-.39-.86-.25-1.22.2s-.41.77.07,1.16S16.44,136.22,16.79,135.71Z"/><path class="cls-1" d="M31.38,12.38c.38-.46.39-.88-.08-1.23s-.86-.16-1.21.27-.33.82.15,1.14S31,12.8,31.38,12.38Z"/><path class="cls-1" d="M21.38,153.83c.38-.47.38-.88-.1-1.23s-.86-.14-1.21.29-.3.83.16,1.13S21,154.25,21.38,153.83Z"/><path class="cls-1" d="M12,117.54a.8.8,0,1,0-1.23-1,.8.8,0,1,0,1.23,1Z"/><path class="cls-1" d="M17,47a.81.81,0,0,0,.08-1.21.75.75,0,0,0-1.14,0c-.41.47-.47.9-.07,1.27A.74.74,0,0,0,17,47Z"/><path class="cls-1" d="M8.33,87.66c.36-.42.13-.7-.18-1s-.72-.45-1.07,0a.78.78,0,0,0,.06,1.14C7.56,88.2,8,88.08,8.33,87.66Z"/><path class="cls-1" d="M18,35.14c.36-.43.12-.71-.19-1s-.72-.46-1.07,0a.77.77,0,0,0,.07,1.14C17.19,35.68,17.61,35.56,18,35.14Z"/><path class="cls-1" d="M16,147.33c.31-.32-.08-.6-.41-.87s-.68-.33-1,.1a.77.77,0,0,0,.07,1.13C15.07,148,15.5,147.91,16,147.33Z"/><path class="cls-1" d="M25.94,171.94c.36-.41.17-.71-.26-1.06-.26-.2-.6-.42-1,.08a.79.79,0,1,0,1.23,1Z"/><path class="cls-1" d="M11.39,129.24c.32-.32,0-.62-.34-.91s-.67-.38-1,.06a.78.78,0,0,0,.09,1.2C10.53,129.88,11,129.76,11.39,129.24Z"/><path class="cls-1" d="M9,75.89c.41-.44.21-.75-.34-1.21-.2-.17-.55-.25-.88.23A.76.76,0,0,0,7.88,76,.78.78,0,0,0,9,75.89Z"/><path class="cls-1" d="M25,17.78c.41-.46.13-.76-.12-1-.44-.35-.76-.47-1.09,0a.77.77,0,0,0,.08,1.2A.78.78,0,0,0,25,17.78Z"/><path class="cls-1" d="M52.32,215.31a.7.7,0,0,0-.08-1,.69.69,0,0,0-1,.07.74.74,0,1,0,1.12,1Z"/><path class="cls-1" d="M9.74,64.24a.69.69,0,0,0,0-1,.63.63,0,0,0-1,0,.8.8,0,0,0,.09,1.1A.72.72,0,0,0,9.74,64.24Z"/><path class="cls-1" d="M41.43,202.75a.71.71,0,0,0,0-1,.63.63,0,0,0-1,0,.78.78,0,0,0,.09,1.09A.73.73,0,0,0,41.43,202.75Z"/><path class="cls-1" d="M47,209a.69.69,0,0,0-.07-1,.62.62,0,0,0-1,.09.79.79,0,0,0,.1,1A.71.71,0,0,0,47,209Z"/><path class="cls-1" d="M20.41,165.54a.75.75,0,0,0-.19-1,.61.61,0,0,0-.93.14.73.73,0,0,0,.18,1.09A.7.7,0,0,0,20.41,165.54Z"/><path class="cls-1" d="M7.26,99.5a.7.7,0,0,0,0-1,.63.63,0,0,0-1,0,.8.8,0,0,0,.09,1.11A.72.72,0,0,0,7.26,99.5Z"/><path class="cls-1" d="M57.9,221.53a.64.64,0,0,0-.08-.95.65.65,0,0,0-1,0,.77.77,0,0,0,.06,1.07A.8.8,0,0,0,57.9,221.53Z"/><path class="cls-1" d="M63.43,227.83a.64.64,0,0,0,0-1,.65.65,0,0,0-1,0,.78.78,0,0,0,.05,1.09A.8.8,0,0,0,63.43,227.83Z"/><path class="cls-1" d="M10.24,141c.27-.32.34-.61,0-.91s-.65-.16-.9.18-.33.61,0,.9S10,141.3,10.24,141Z"/><path class="cls-1" d="M6.46,111.25c.27-.34.3-.63-.07-.91s-.64-.1-.9.21-.29.63.17,1C5.94,111.74,6.2,111.57,6.46,111.25Z"/><path class="cls-1" d="M30.45,189.84c.25-.31.37-.6,0-.92s-.63-.19-.9.14-.37.6-.09.84S30.18,190.18,30.45,189.84Z"/><path class="cls-1" d="M18.53,23.21c.26-.33.33-.61,0-.91s-.65-.16-.9.17-.33.62,0,.91S18.27,23.54,18.53,23.21Z"/><path class="cls-1" d="M5.52,123a.47.47,0,0,0-.07-.75c-.28-.24-.56-.34-.84,0a.59.59,0,1,0,.91.74Z"/><path class="cls-1" d="M2.57,81.32c.27-.33.13-.59-.16-.81a.47.47,0,0,0-.75.08.61.61,0,0,0,.05.87A.6.6,0,0,0,2.57,81.32Z"/><path class="cls-1" d="M24.85,183.59a.48.48,0,0,0,0-.75c-.27-.23-.54-.36-.83,0a.62.62,0,0,0,0,.88A.6.6,0,0,0,24.85,183.59Z"/><path class="cls-1" d="M11.33,40.51c.27-.34.13-.59-.16-.82a.48.48,0,0,0-.75.09.6.6,0,0,0,.05.87A.61.61,0,0,0,11.33,40.51Z"/><path class="cls-1" d="M14.73,159.17c.34-.34.16-.59-.12-.82a.47.47,0,0,0-.75.05.56.56,0,0,0,0,.86A.55.55,0,0,0,14.73,159.17Z"/><path class="cls-1" d="M25.57,6.07c.25-.31.31-.56,0-.81s-.53-.39-.83-.06a.58.58,0,0,0,0,.87A.56.56,0,0,0,25.57,6.07Z"/><path class="cls-1" d="M10.63,52.42a.59.59,0,0,0-.06-.87.6.6,0,0,0-.94,0,.65.65,0,1,0,1,.84Z"/><path class="cls-1" d="M36,196.22a.58.58,0,0,0,0-.87.6.6,0,0,0-.94,0,.62.62,0,0,0,0,1A.62.62,0,0,0,36,196.22Z"/><path class="cls-1" d="M9.47,152.77c.34-.34,0-.52-.2-.68s-.42-.37-.63,0a.66.66,0,0,0,0,.81A.64.64,0,0,0,9.47,152.77Z"/><path class="cls-1" d="M1.81,92.84c.17-.17-.07-.35-.26-.51s-.42-.39-.65-.1-.31.63,0,.87S1.47,93.17,1.81,92.84Z"/><path class="cls-1" d="M12.18,28.75c.34-.27.09-.47-.09-.63s-.44-.47-.71-.08a.65.65,0,0,0,0,.85A.71.71,0,0,0,12.18,28.75Z"/><path class="cls-1" d="M3.5,69.47c.22-.28-.06-.46-.26-.61s-.42-.35-.63,0-.23.6,0,.81A.59.59,0,0,0,3.5,69.47Z"/><path class="cls-1" d="M4.15,57.72c.34-.27.08-.46-.09-.62s-.44-.47-.71-.08a.64.64,0,0,0,0,.82A.64.64,0,0,0,4.15,57.72Z"/><path class="cls-1" d="M1,104.81c.33-.28.07-.47-.11-.62s-.44-.47-.7-.07a.64.64,0,0,0,0,.82A.65.65,0,0,0,1,104.81Z"/><path class="cls-1" d="M19.42,11.39c.22-.28-.06-.46-.26-.61s-.43-.35-.64,0-.23.6,0,.81A.6.6,0,0,0,19.42,11.39Z"/><path class="cls-1" d="M4.66,134.62c.28-.28,0-.46-.17-.61s-.4-.35-.6-.15-.32.65-.08.88S4.42,134.88,4.66,134.62Z"/><path class="cls-1" d="M19.61,177.15c.27-.28,0-.46-.19-.61s-.41-.35-.59-.14-.31.66-.07.89S19.38,177.41,19.61,177.15Z"/></g></g></svg>