<svg xmlns="http://www.w3.org/2000/svg" viewBox="0 0 67.22 228.08"><defs><style>.cls-1{fill:#00cbce;}</style></defs><title>decoizq_puntillado</title><g id="Capa_2" data-name="Capa 2"><g id="Capa_1-2" data-name="Capa 1"><path class="cls-1" d="M0,139.07a2.47,2.47,0,0,0,2.55-.85,2.72,2.72,0,0,0-.38-3.59,2.59,2.59,0,0,0-2.17-.4Z"/><path class="cls-1" d="M0,151a2.42,2.42,0,0,0,1.83-.93,2.71,2.71,0,0,0-.39-3.58A2.38,2.38,0,0,0,0,146Z"/><path class="cls-1" d="M0,162.55A1.69,1.69,0,0,0,.74,162a2.64,2.64,0,0,0-.17-3.8A2.3,2.3,0,0,0,0,157.9Z"/><path class="cls-1" d="M0,127a2.53,2.53,0,0,0,3.3-.53,2.18,2.18,0,0,0-.16-3.27A2.25,2.25,0,0,0,0,123Z"/><path class="cls-1" d="M4.06,111.24a2.32,2.32,0,0,0-3.37.25A2.45,2.45,0,0,0,.85,115a2.49,2.49,0,0,0,3.4-.37A2.3,2.3,0,0,0,4.06,111.24Z"/><path class="cls-1" d="M0,173.64l.12-.12a2.34,2.34,0,0,0-.12-3.2Z"/><path class="cls-1" d="M7.65,141.05a2.41,2.41,0,0,0-3.33.39,2.14,2.14,0,0,0,.39,3.28,2.19,2.19,0,0,0,3.21-.24A2.49,2.49,0,0,0,7.65,141.05Z"/><path class="cls-1" d="M8.5,129.32a2.46,2.46,0,0,0-3.27.38A2.18,2.18,0,0,0,5.61,133a2.14,2.14,0,0,0,3.24-.35A2.47,2.47,0,0,0,8.5,129.32Z"/><path class="cls-1" d="M7,153a2.38,2.38,0,0,0-3.27.17c-.85,1.08-1.2,2.12.17,3.3a2,2,0,0,0,3.24-.12A2.46,2.46,0,0,0,7,153Z"/><path class="cls-1" d="M0,85a.94.94,0,0,1,.1-.1A2.37,2.37,0,0,0,0,81.43H0Z"/><path class="cls-1" d="M9.25,117.56A2.33,2.33,0,0,0,6,118a2.07,2.07,0,0,0,.37,3.16A2.09,2.09,0,0,0,9.4,121,2.37,2.37,0,0,0,9.25,117.56Z"/><path class="cls-1" d="M6,164.64a2.34,2.34,0,0,0-3.31.42,2.06,2.06,0,0,0,.33,3.1,2.08,2.08,0,0,0,3.08,0A2.36,2.36,0,0,0,6,164.64Z"/><path class="cls-1" d="M5,102.67a2.37,2.37,0,0,0-.35-3.32,2.39,2.39,0,0,0-3.26.38A2.39,2.39,0,0,0,1.75,103,2.39,2.39,0,0,0,5,102.67Z"/><path class="cls-1" d="M5,176.62a2.19,2.19,0,0,0-3.1.3,2.19,2.19,0,0,0,.19,3.16,2.11,2.11,0,0,0,3.11-.31A2.12,2.12,0,0,0,5,176.62Z"/><path class="cls-1" d="M10,105.93a2.13,2.13,0,0,0-3.1.39A2.17,2.17,0,1,0,10.29,109,2.12,2.12,0,0,0,10,105.93Z"/><path class="cls-1" d="M5.47,87.79a2.13,2.13,0,0,0-3.1.38,2.21,2.21,0,0,0,.28,3.17,2.2,2.2,0,0,0,3.08-.44A2.13,2.13,0,0,0,5.47,87.79Z"/><path class="cls-1" d="M12.13,159.37a2.16,2.16,0,1,0,.22,3.08A2.17,2.17,0,0,0,12.13,159.37Z"/><path class="cls-1" d="M14.66,123.9a2.28,2.28,0,0,0-3.05.41,2,2,0,0,0,.39,3,2.07,2.07,0,0,0,3.07-.37A2.43,2.43,0,0,0,14.66,123.9Z"/><path class="cls-1" d="M14,135.78a2.17,2.17,0,1,0,.22,3.12A2.17,2.17,0,0,0,14,135.78Z"/><path class="cls-1" d="M13.1,147.47a2.17,2.17,0,1,0,.26,3.12A2.16,2.16,0,0,0,13.1,147.47Z"/><path class="cls-1" d="M4.17,188.43a2.24,2.24,0,0,0-3,.42,2,2,0,0,0,.41,3,2,2,0,0,0,3-.31A2.25,2.25,0,0,0,4.17,188.43Z"/><path class="cls-1" d="M0,73.6a2.21,2.21,0,0,0,1-.71,2.24,2.24,0,0,0-.27-3.07A1.86,1.86,0,0,0,0,69.44Z"/><path class="cls-1" d="M15.5,112.23a2.11,2.11,0,1,0,.35,3A2.16,2.16,0,0,0,15.5,112.23Z"/><path class="cls-1" d="M11.36,171.22a2.3,2.3,0,0,0-3,.35,2,2,0,0,0,.29,2.88,2,2,0,0,0,3-.19A2.27,2.27,0,0,0,11.36,171.22Z"/><path class="cls-1" d="M10.88,94.26a2.13,2.13,0,1,0,.3,3A2.17,2.17,0,0,0,10.88,94.26Z"/><path class="cls-1" d="M6.06,76.1a1.83,1.83,0,0,0-2.78.31,1.87,1.87,0,0,0,.19,2.92A1.84,1.84,0,0,0,6.23,79C7.13,77.93,7.07,76.92,6.06,76.1Z"/><path class="cls-1" d="M10.55,186a1.89,1.89,0,0,0-.16-2.9,1.87,1.87,0,0,0-2.75.22,2,2,0,0,0,.1,3A2,2,0,0,0,10.55,186Z"/><path class="cls-1" d="M11.61,82.38a1.9,1.9,0,0,0-2.77.31A2,2,0,0,0,9,85.61a2,2,0,0,0,2.9-.46A1.91,1.91,0,0,0,11.61,82.38Z"/><path class="cls-1" d="M16.21,100.56a1.87,1.87,0,0,0-2.75.19,2,2,0,0,0,.07,3,2,2,0,0,0,2.81-.26A1.9,1.9,0,0,0,16.21,100.56Z"/><path class="cls-1" d="M19.21,142.29a1.87,1.87,0,0,0-2.82.18,2,2,0,1,0,2.92,2.65A1.88,1.88,0,0,0,19.21,142.29Z"/><path class="cls-1" d="M20,130.5a2,2,0,1,0,.23,2.86A2,2,0,0,0,20,130.5Z"/><path class="cls-1" d="M17.55,165.79a2,2,0,0,0-2.84.33,2.13,2.13,0,0,0,.18,2.83,2.12,2.12,0,0,0,2.87-.34A2,2,0,0,0,17.55,165.79Z"/><path class="cls-1" d="M18.71,156.85a2,2,0,1,0-2.79.3A2,2,0,0,0,18.71,156.85Z"/><path class="cls-1" d="M0,202.17a2,2,0,0,0,.74,1.23,2,2,0,0,0,2.79-.32,2,2,0,0,0-.29-2.79,2,2,0,0,0-2.79.25,2.08,2.08,0,0,0-.45,1Z"/><path class="cls-1" d="M21,118.63a2,2,0,0,0-2.79.38,1.86,1.86,0,0,0,.38,2.72,1.88,1.88,0,0,0,2.73-.31A2,2,0,0,0,21,118.63Z"/><path class="cls-1" d="M0,61.47a1.81,1.81,0,0,0,1.76-.69A2.05,2.05,0,0,0,1.51,58,1.94,1.94,0,0,0,0,57.59Z"/><path class="cls-1" d="M9.72,197.82a2,2,0,0,0-.13-2.94,2,2,0,0,0-2.72.36,1.73,1.73,0,0,0,.33,2.67A1.71,1.71,0,0,0,9.72,197.82Z"/><path class="cls-1" d="M16.88,180.55a2,2,0,0,0-.06-2.88A2,2,0,0,0,14,178a1.74,1.74,0,0,0,.26,2.61A1.75,1.75,0,0,0,16.88,180.55Z"/><path class="cls-1" d="M6.9,64.41a2,2,0,0,0-2.72.34,1.73,1.73,0,0,0,.3,2.68,1.73,1.73,0,0,0,2.59-.14A2,2,0,0,0,6.9,64.41Z"/><path class="cls-1" d="M17,88.84a2,2,0,0,0-2.72.33,1.72,1.72,0,0,0,.3,2.67,1.71,1.71,0,0,0,2.58-.12A2,2,0,0,0,17,88.84Z"/><path class="cls-1" d="M21.75,106.9a1.92,1.92,0,1,0,.21,2.66A2,2,0,0,0,21.75,106.9Z"/><path class="cls-1" d="M12.36,70.82a1.63,1.63,0,0,0-2.53.33,1.69,1.69,0,0,0,.19,2.6,1.72,1.72,0,0,0,2.58-.39A1.63,1.63,0,0,0,12.36,70.82Z"/><path class="cls-1" d="M24.71,151.28c.83-1,.79-1.85-.11-2.6a1.6,1.6,0,0,0-2.52.22c-.83,1-.79,1.93.12,2.66A1.65,1.65,0,0,0,24.71,151.28Z"/><path class="cls-1" d="M0,215.19l0,0a1.66,1.66,0,0,0,2.56-.4,1.6,1.6,0,0,0-.22-2.52,1.56,1.56,0,0,0-2.38.12Z"/><path class="cls-1" d="M25.51,136.92a1.84,1.84,0,1,0,.19,2.61A1.8,1.8,0,0,0,25.51,136.92Z"/><path class="cls-1" d="M15.79,189.46a1.72,1.72,0,0,0-2.55.35,1.9,1.9,0,0,0,.22,2.58,1.92,1.92,0,0,0,2.61-.44A1.7,1.7,0,0,0,15.79,189.46Z"/><path class="cls-1" d="M26.49,127.57a1.81,1.81,0,1,0-2.59.32A1.77,1.77,0,0,0,26.49,127.57Z"/><path class="cls-1" d="M23.85,160.45a1.81,1.81,0,1,0,.3,2.52A1.77,1.77,0,0,0,23.85,160.45Z"/><path class="cls-1" d="M6.15,207a1.85,1.85,0,0,0,.15,2.65,1.87,1.87,0,0,0,2.38-2.88A1.84,1.84,0,0,0,6.15,207Z"/><path class="cls-1" d="M22.48,95.23a1.79,1.79,0,1,0,.27,2.54A1.77,1.77,0,0,0,22.48,95.23Z"/><path class="cls-1" d="M27.07,113.42a1.86,1.86,0,0,0-2.54.25,1.57,1.57,0,0,0,.24,2.45,1.57,1.57,0,0,0,2.46-.15A1.85,1.85,0,0,0,27.07,113.42Z"/><path class="cls-1" d="M17.82,77.27a1.84,1.84,0,0,0-2.53.29A1.57,1.57,0,0,0,15.56,80a1.58,1.58,0,0,0,2.46-.2A1.85,1.85,0,0,0,17.82,77.27Z"/><path class="cls-1" d="M0,49.13l.06.06a1.57,1.57,0,0,0,2.45-.28,1.84,1.84,0,0,0-.28-2.53A1.85,1.85,0,0,0,0,46.45Z"/><path class="cls-1" d="M7.68,52.88a1.94,1.94,0,0,0-2.47.26,1.59,1.59,0,0,0,.11,2.28c1,.88,1.75.89,2.48,0C8.65,54.81,8.22,53.34,7.68,52.88Z"/><path class="cls-1" d="M19.42,184.44a1.56,1.56,0,0,0,.31,2.34,1.53,1.53,0,0,0,2.42-.16,1.93,1.93,0,0,0-.21-2.51A1.9,1.9,0,0,0,19.42,184.44Z"/><path class="cls-1" d="M12.49,201.46a1.72,1.72,0,1,0,2.64,2.19,1.72,1.72,0,1,0-2.64-2.19Z"/><path class="cls-1" d="M23.2,174.72a1.77,1.77,0,0,0-.18-2.47,1.78,1.78,0,1,0,.18,2.47Z"/><path class="cls-1" d="M27.71,155.23a1.68,1.68,0,1,0,2.37-.21A1.69,1.69,0,0,0,27.71,155.23Z"/><path class="cls-1" d="M0,227.06a1.56,1.56,0,0,0,1.6-.48,1.81,1.81,0,0,0-.13-2.5A1.67,1.67,0,0,0,0,223.77Z"/><path class="cls-1" d="M28.18,104.08a1.71,1.71,0,1,0-2.62-2.2,1.67,1.67,0,0,0,.28,2.35A1.63,1.63,0,0,0,28.18,104.08Z"/><path class="cls-1" d="M23.18,83.49a1.81,1.81,0,0,0-2.44.26A1.71,1.71,0,0,0,23.33,86,1.82,1.82,0,0,0,23.18,83.49Z"/><path class="cls-1" d="M31.11,145.8a1.72,1.72,0,1,0-2.64-2.18,1.72,1.72,0,0,0,2.64,2.18Z"/><path class="cls-1" d="M13,59.05a1.68,1.68,0,1,0,.28,2.37A1.69,1.69,0,0,0,13,59.05Z"/><path class="cls-1" d="M31.67,131.47a1.68,1.68,0,1,0,.21,2.38A1.7,1.7,0,0,0,31.67,131.47Z"/><path class="cls-1" d="M26.77,167.18a1.55,1.55,0,0,0,.08,2.35,1.53,1.53,0,0,0,2.33-.31,1.58,1.58,0,1,0-2.41-2Z"/><path class="cls-1" d="M32.65,122.11a1.58,1.58,0,1,0-2.39-2.06,1.55,1.55,0,0,0,.06,2.35A1.53,1.53,0,0,0,32.65,122.11Z"/><path class="cls-1" d="M5.46,218.79a1.54,1.54,0,0,0,.08,2.42,1.54,1.54,0,0,0,2.26-.3,1.48,1.48,0,0,0-.13-2.29A1.46,1.46,0,0,0,5.46,218.79Z"/><path class="cls-1" d="M18.88,196.3a1.51,1.51,0,0,0,.13,2.34,1.48,1.48,0,0,0,2.24-.26,1.58,1.58,0,1,0-2.37-2.08Z"/><path class="cls-1" d="M18.52,65.42a1.53,1.53,0,0,0-2.22.25A1.57,1.57,0,0,0,16.41,68a1.55,1.55,0,0,0,2.25-.26A1.53,1.53,0,0,0,18.52,65.42Z"/><path class="cls-1" d="M28.66,89.87a1.57,1.57,0,0,0-2.26.23,1.58,1.58,0,1,0,2.35,2.11A1.57,1.57,0,0,0,28.66,89.87Z"/><path class="cls-1" d="M26,179a1.68,1.68,0,0,0,.11,2.33,1.72,1.72,0,0,0,2.24-.23,1.59,1.59,0,0,0-.09-2.34A1.57,1.57,0,0,0,26,179Z"/><path class="cls-1" d="M24.18,74.08A1.6,1.6,0,0,0,24,71.87a1.58,1.58,0,0,0-2.2.22,1.57,1.57,0,1,0,2.42,2Z"/><path class="cls-1" d="M11.72,213.59a1.44,1.44,0,0,0,.29,2.2,1.43,1.43,0,0,0,2.13-.21,1.57,1.57,0,1,0-2.42-2Z"/><path class="cls-1" d="M34.84,138.24A1.53,1.53,0,1,0,37,138,1.59,1.59,0,0,0,34.84,138.24Z"/><path class="cls-1" d="M31,108.21a1.58,1.58,0,1,0,2.2-.21A1.58,1.58,0,0,0,31,108.21Z"/><path class="cls-1" d="M2.81,34.72A1.72,1.72,0,0,0,.62,35a1.45,1.45,0,0,0,.24,2.1,1.37,1.37,0,0,0,2.08-.06A1.68,1.68,0,0,0,2.81,34.72Z"/><path class="cls-1" d="M8.27,41.17a1.72,1.72,0,0,0-2.2.27,1.47,1.47,0,0,0,.28,2.16,1.34,1.34,0,0,0,2-.08A1.69,1.69,0,0,0,8.27,41.17Z"/><path class="cls-1" d="M33.9,150a1.46,1.46,0,0,0,.25,2.1,1.37,1.37,0,0,0,2.08-.06,1.7,1.7,0,0,0-.13-2.35A1.73,1.73,0,0,0,33.9,150Z"/><path class="cls-1" d="M35.65,126.33a1.32,1.32,0,0,0,.29,2.08,1.38,1.38,0,0,0,2,0,1.68,1.68,0,0,0-.06-2.36A1.59,1.59,0,0,0,35.65,126.33Z"/><path class="cls-1" d="M33.19,161.88A1.32,1.32,0,0,0,33.5,164a1.36,1.36,0,0,0,2,0,1.67,1.67,0,0,0-.08-2.35A1.6,1.6,0,0,0,33.19,161.88Z"/><path class="cls-1" d="M25.16,190.85a1.32,1.32,0,0,0,.3,2.08,1.36,1.36,0,0,0,1.95,0,1.66,1.66,0,0,0-.07-2.35A1.59,1.59,0,0,0,25.16,190.85Z"/><path class="cls-1" d="M13.82,47.52A1.49,1.49,0,1,0,14,49.64,1.51,1.51,0,0,0,13.82,47.52Z"/><path class="cls-1" d="M29.42,78.31a1.22,1.22,0,0,0-2,.22c-.68.84-.64,1.46.12,2.07s1.37.49,2.05-.35A1.21,1.21,0,0,0,29.42,78.31Z"/><path class="cls-1" d="M34.07,98.48c.67-.81.65-1.4-.08-2a1.22,1.22,0,0,0-2,.19c-.68.82-.65,1.47.09,2.07A1.25,1.25,0,0,0,34.07,98.48Z"/><path class="cls-1" d="M18.17,208.12c-.69.84-.68,1.46,0,2.07s1.37.55,2.05-.29a1.21,1.21,0,0,0-.17-2A1.2,1.2,0,0,0,18.17,208.12Z"/><path class="cls-1" d="M32.47,173.6a1.4,1.4,0,0,0,.11,2.1,1.46,1.46,0,0,0,1.94-.25,1.38,1.38,0,1,0-2.05-1.85Z"/><path class="cls-1" d="M19.28,53.86a1.28,1.28,0,0,0-2,.29,1.39,1.39,0,0,0,.15,2,1.43,1.43,0,0,0,2-.29A1.29,1.29,0,0,0,19.28,53.86Z"/><path class="cls-1" d="M36.61,114.72a1.43,1.43,0,0,0,.17,2,1.45,1.45,0,0,0,2-.32,1.28,1.28,0,0,0-.17-2A1.29,1.29,0,0,0,36.61,114.72Z"/><path class="cls-1" d="M10.94,225.47a1.68,1.68,0,0,0,.13,2,1.64,1.64,0,0,0,2-.3,1.38,1.38,0,1,0-2.18-1.7Z"/><path class="cls-1" d="M24.62,62.28a1.48,1.48,0,0,0,0-2,1.46,1.46,0,0,0-2,.12,1.55,1.55,0,0,0,.07,2.09A1.56,1.56,0,0,0,24.62,62.28Z"/><path class="cls-1" d="M24.57,202.72a1.56,1.56,0,0,0,.06,2,1.59,1.59,0,0,0,2-.19,1.48,1.48,0,0,0-.05-2A1.47,1.47,0,0,0,24.57,202.72Z"/><path class="cls-1" d="M32.68,84.87a1.53,1.53,0,0,0,.11,2,1.57,1.57,0,0,0,2-.24,1.38,1.38,0,1,0-2.11-1.77Z"/><path class="cls-1" d="M37.48,103.05a1.17,1.17,0,0,0,.31,1.81,1.14,1.14,0,0,0,1.87-.18,1.46,1.46,0,0,0-.19-2A1.48,1.48,0,0,0,37.48,103.05Z"/><path class="cls-1" d="M40.44,144.74a1.16,1.16,0,0,0,.29,1.8c.75.6,1.32.55,1.88-.16a1.36,1.36,0,1,0-2.17-1.64Z"/><path class="cls-1" d="M39.68,156.32a1.41,1.41,0,0,0,.13,1.87,1.35,1.35,0,1,0-.13-1.87Z"/><path class="cls-1" d="M41.19,132.91a1.18,1.18,0,0,0,.28,1.77,1.23,1.23,0,0,0,1.86-.17,1.34,1.34,0,1,0-2.14-1.6Z"/><path class="cls-1" d="M17.41,220.07a1.25,1.25,0,0,0,.32,1.84,1.18,1.18,0,0,0,1.78-.2,1.39,1.39,0,0,0-.17-1.94A1.41,1.41,0,0,0,17.41,220.07Z"/><path class="cls-1" d="M31.77,185.42a1.37,1.37,0,1,0,1.93-.19A1.41,1.41,0,0,0,31.77,185.42Z"/><path class="cls-1" d="M30.05,66.46a1.41,1.41,0,0,0-1.92.33,1.18,1.18,0,0,0,.27,1.77,1.23,1.23,0,0,0,1.86-.16A1.41,1.41,0,0,0,30.05,66.46Z"/><path class="cls-1" d="M39,168.28c-.41.59-.57,1.22.22,1.75a1.11,1.11,0,0,0,1.79-.15,1.29,1.29,0,0,0-.2-1.87A1.24,1.24,0,0,0,39,168.28Z"/><path class="cls-1" d="M14.54,36a1.28,1.28,0,0,0-1.83.21c-.53.61-.45,1.25.47,2a1,1,0,0,0,1.51-.33A1.32,1.32,0,0,0,14.54,36Z"/><path class="cls-1" d="M30.92,197.25c-.42.58-.58,1.21.22,1.76a1.12,1.12,0,0,0,1.78-.14,1.3,1.3,0,0,0-.18-1.88A1.25,1.25,0,0,0,30.92,197.25Z"/><path class="cls-1" d="M9.27,31.38a1.3,1.3,0,0,0-.18-1.87,1.25,1.25,0,0,0-1.82.25c-.42.59-.57,1.22.22,1.76A1.11,1.11,0,0,0,9.27,31.38Z"/><path class="cls-1" d="M42.17,121.17a1.11,1.11,0,0,0,.26,1.81,1.08,1.08,0,0,0,1.71-.17,1.3,1.3,0,0,0-.15-1.88A1.24,1.24,0,0,0,42.17,121.17Z"/><path class="cls-1" d="M3.75,25.07a1.33,1.33,0,0,0-.19-1.85,1.3,1.3,0,0,0-1.84.22,1.27,1.27,0,0,0,.18,1.78A1.3,1.3,0,0,0,3.75,25.07Z"/><path class="cls-1" d="M23.8,214.6a1.14,1.14,0,0,0,.11,1.7,1.16,1.16,0,0,0,1.76-.22,1.1,1.1,0,0,0-.1-1.7A1.15,1.15,0,0,0,23.8,214.6Z"/><path class="cls-1" d="M38.4,91.25A1.14,1.14,0,0,0,38.5,93c.56.34,1.21.5,1.69-.21a1.13,1.13,0,0,0-.1-1.77A1.09,1.09,0,0,0,38.4,91.25Z"/><path class="cls-1" d="M33.88,73.05a1.13,1.13,0,0,0,0,1.76,1.09,1.09,0,0,0,1.68-.09,1.17,1.17,0,0,0,0-1.79A1.14,1.14,0,0,0,33.88,73.05Z"/><path class="cls-1" d="M43.09,109.22a1.12,1.12,0,0,0,.08,1.75,1.07,1.07,0,0,0,1.67-.15,1.16,1.16,0,0,0,0-1.78A1.14,1.14,0,0,0,43.09,109.22Z"/><path class="cls-1" d="M18.26,44.15c.55.34,1.2.54,1.69-.17a1.14,1.14,0,0,0-.06-1.78,1.08,1.08,0,0,0-1.69.18A1.16,1.16,0,0,0,18.26,44.15Z"/><path class="cls-1" d="M38.17,180A1.2,1.2,0,0,0,40,181.52,1.2,1.2,0,1,0,38.17,180Z"/><path class="cls-1" d="M25.29,48.62a1.17,1.17,0,0,0-1.7.26c-.42.55-.5,1.11.16,1.51s1.11.72,1.66,0A1.2,1.2,0,0,0,25.29,48.62Z"/><path class="cls-1" d="M46.08,150.93a1.15,1.15,0,0,0,1.79,1.44,1.15,1.15,0,1,0-1.79-1.44Z"/><path class="cls-1" d="M47,139.2a1,1,0,0,0,.13,1.57,1,1,0,0,0,1.61-.06,1.11,1.11,0,0,0-.11-1.66A1.13,1.13,0,0,0,47,139.2Z"/><path class="cls-1" d="M44,97.6a1,1,0,0,0,.3,1.58,1.05,1.05,0,0,0,1.58-.25,1.14,1.14,0,0,0-.25-1.61A1.1,1.1,0,0,0,44,97.6Z"/><path class="cls-1" d="M47.82,127.51a1.07,1.07,0,0,0,.25,1.64A1,1,0,0,0,49.6,129a1.1,1.1,0,0,0-.16-1.65A1.13,1.13,0,0,0,47.82,127.51Z"/><path class="cls-1" d="M29.2,55.11a1.07,1.07,0,0,0,.24,1.64A1,1,0,0,0,31,56.58a1.1,1.1,0,0,0-.15-1.65A1.14,1.14,0,0,0,29.2,55.11Z"/><path class="cls-1" d="M37.3,191.75a1.07,1.07,0,0,0,.26,1.63,1,1,0,0,0,1.53-.18,1.1,1.1,0,0,0-.16-1.65A1.15,1.15,0,0,0,37.3,191.75Z"/><path class="cls-1" d="M39.32,79.55a1,1,0,0,0,.13,1.54A1.07,1.07,0,0,0,41.11,81,1.16,1.16,0,0,0,41,79.37,1.11,1.11,0,0,0,39.32,79.55Z"/><path class="cls-1" d="M45.31,162.83a1,1,0,0,0,.3,1.59,1.05,1.05,0,0,0,1.56-.22,1.15,1.15,0,0,0-.22-1.64A1.11,1.11,0,0,0,45.31,162.83Z"/><path class="cls-1" d="M30.12,209a1.07,1.07,0,0,0,.3,1.62,1,1,0,0,0,1.53-.21,1.09,1.09,0,0,0-.19-1.64A1.15,1.15,0,0,0,30.12,209Z"/><path class="cls-1" d="M44.36,174.71a.91.91,0,0,0,.18,1.48.87.87,0,0,0,1.4.07,1.16,1.16,0,0,0,.05-1.73A1.08,1.08,0,0,0,44.36,174.71Z"/><path class="cls-1" d="M48.7,115.74a.94.94,0,0,0,0,1.54c.42.33,1,.47,1.36-.14s.6-1,0-1.51A.89.89,0,0,0,48.7,115.74Z"/><path class="cls-1" d="M9.7,19.43a1,1,0,0,0,0-1.48,1,1,0,0,0-1.46.1,1,1,0,0,0,0,1.51A1,1,0,0,0,9.7,19.43Z"/><path class="cls-1" d="M34.81,61.6c-.52.5-.31,1,.17,1.42a.92.92,0,0,0,1.45-.26c.39-.55.42-1-.11-1.42S35.26,61,34.81,61.6Z"/><path class="cls-1" d="M19.16,30.87A1,1,0,1,0,20.77,32a.91.91,0,0,0-.18-1.44C20,30.18,19.57,30.36,19.16,30.87Z"/><path class="cls-1" d="M44.82,86.13c-.34.35-.2.92.27,1.31a.94.94,0,0,0,1.41-.22.91.91,0,0,0-.08-1.45C45.89,85.32,45.41,85.43,44.82,86.13Z"/><path class="cls-1" d="M15.08,24.33a1,1,0,0,0-1.45.22A.93.93,0,0,0,13.7,26a1,1,0,0,0,1.48-.18A1,1,0,0,0,15.08,24.33Z"/><path class="cls-1" d="M36.57,203.86a1,1,0,1,0,1.53,1.26.91.91,0,0,0-.09-1.45A.93.93,0,0,0,36.57,203.86Z"/><path class="cls-1" d="M43.71,186.62a.94.94,0,0,0,.08,1.43,1.08,1.08,0,0,0,1.35-1.68A.94.94,0,0,0,43.71,186.62Z"/><path class="cls-1" d="M4.35,13.21a.91.91,0,0,0-.11-1.45A.92.92,0,0,0,2.8,12a.94.94,0,0,0,.06,1.43A1,1,0,0,0,4.35,13.21Z"/><path class="cls-1" d="M23.13,226.28a1.05,1.05,0,1,0,1.6,1.36,1,1,0,0,0-1.6-1.36Z"/><path class="cls-1" d="M49.6,104a.9.9,0,0,0,.11,1.38A1,1,0,1,0,51,103.92.9.9,0,0,0,49.6,104Z"/><path class="cls-1" d="M40.18,67.82c-.45.47-.28.91.11,1.32s.92.5,1.35,0a1,1,0,0,0-.08-1.45A.94.94,0,0,0,40.18,67.82Z"/><path class="cls-1" d="M24.73,37.16c-.4.51-.19.94.33,1.37a.84.84,0,0,0,1.25-.22,1,1,0,1,0-1.58-1.15Z"/><path class="cls-1" d="M52.56,145.72A.83.83,0,0,0,52.8,147c.47.38.91.39,1.42-.18a1,1,0,1,0-1.66-1.06Z"/><path class="cls-1" d="M51.56,157.58a.83.83,0,0,0,.24,1.24.88.88,0,0,0,1.38-.12,1,1,0,1,0-1.62-1.12Z"/><path class="cls-1" d="M29.37,221.22a.83.83,0,0,0,.24,1.24.88.88,0,0,0,1.38-.13,1,1,0,1,0-1.62-1.11Z"/><path class="cls-1" d="M30.05,43.48c-.38.48-.24.89.26,1.27a.75.75,0,0,0,1.21-.11.94.94,0,1,0-1.47-1.16Z"/><path class="cls-1" d="M50.89,169.41c-.38.49-.2.9.31,1.29a.74.74,0,0,0,1.18-.16.91.91,0,0,0-.13-1.38A.92.92,0,0,0,50.89,169.41Z"/><path class="cls-1" d="M54.21,122.17c-.38.5-.19.9.33,1.3a.74.74,0,0,0,1.17-.18.9.9,0,0,0-.13-1.37A.92.92,0,0,0,54.21,122.17Z"/><path class="cls-1" d="M53.4,133.79a.94.94,0,1,0,1.52,1.11.94.94,0,1,0-1.52-1.11Z"/><path class="cls-1" d="M43,198.29a.82.82,0,0,0,0,1.22.89.89,0,1,0,1.25-1.27A.85.85,0,0,0,43,198.29Z"/><path class="cls-1" d="M35.74,49.81c-.37.45-.4.87.07,1.23s.85.18,1.21-.26.35-.82-.13-1.14S36.09,49.38,35.74,49.81Z"/><path class="cls-1" d="M50.43,92.37a.73.73,0,0,0,0,1.21c.45.38.85.25,1.22-.21s.4-.77-.08-1.15S50.77,91.86,50.43,92.37Z"/><path class="cls-1" d="M35.84,215.7c-.38.46-.39.87.08,1.23s.86.16,1.21-.28.33-.82-.15-1.14S36.18,215.28,35.84,215.7Z"/><path class="cls-1" d="M45.84,74.25a.75.75,0,0,0,.09,1.23c.5.37.86.14,1.21-.3s.31-.82-.15-1.13S46.18,73.83,45.84,74.25Z"/><path class="cls-1" d="M55.21,110.54a.79.79,0,1,0,1.22,1,.8.8,0,1,0-1.22-1Z"/><path class="cls-1" d="M50.22,181.1a.8.8,0,0,0-.08,1.21.74.74,0,0,0,1.14,0c.4-.46.47-.89.06-1.27A.74.74,0,0,0,50.22,181.1Z"/><path class="cls-1" d="M58.88,140.41c-.36.43-.13.7.19,1s.71.46,1.07,0a.77.77,0,0,0-.06-1.13C59.66,139.87,59.24,140,58.88,140.41Z"/><path class="cls-1" d="M49.25,192.94c-.37.43-.12.7.19,1s.72.45,1.07,0a.79.79,0,1,0-1.26-.93Z"/><path class="cls-1" d="M51.23,80.75c-.3.32.09.6.41.87s.69.33,1-.1a.77.77,0,0,0-.07-1.14C52.14,80,51.71,80.16,51.23,80.75Z"/><path class="cls-1" d="M41.28,56.14c-.36.41-.18.7.26,1.06.25.2.6.41,1-.09a.78.78,0,0,0,0-1.14C42.06,55.61,41.64,55.73,41.28,56.14Z"/><path class="cls-1" d="M55.83,98.84c-.33.31,0,.62.34.9s.67.39,1,0,.35-.88-.09-1.2S56.27,98.31,55.83,98.84Z"/><path class="cls-1" d="M58.21,152.19c-.42.43-.22.75.34,1.2.19.18.55.26.88-.22a.77.77,0,0,0-.1-1.13A.75.75,0,0,0,58.21,152.19Z"/><path class="cls-1" d="M42.27,210.29c-.41.47-.14.76.11,1,.44.35.77.47,1.09,0s.35-.88-.08-1.2A.78.78,0,0,0,42.27,210.29Z"/><path class="cls-1" d="M14.9,12.76a.74.74,0,0,0,1.12,1A.77.77,0,0,0,16,12.67.76.76,0,0,0,14.9,12.76Z"/><path class="cls-1" d="M57.47,163.83a.7.7,0,0,0,0,1,.63.63,0,0,0,1,0,.78.78,0,0,0-.09-1.09A.73.73,0,0,0,57.47,163.83Z"/><path class="cls-1" d="M25.79,25.33a.69.69,0,0,0,0,1,.63.63,0,0,0,1,0,.8.8,0,0,0-.09-1.1A.72.72,0,0,0,25.79,25.33Z"/><path class="cls-1" d="M20.21,19.07a.69.69,0,0,0,.07,1,.62.62,0,0,0,1-.08.79.79,0,0,0-.1-1.05A.72.72,0,0,0,20.21,19.07Z"/><path class="cls-1" d="M46.8,62.54a.75.75,0,0,0,.2,1.05.62.62,0,0,0,.93-.14.73.73,0,0,0-.18-1.09A.71.71,0,0,0,46.8,62.54Z"/><path class="cls-1" d="M60,128.57a.69.69,0,0,0,0,1,.63.63,0,0,0,1,0,.8.8,0,0,0-.09-1.1A.72.72,0,0,0,60,128.57Z"/><path class="cls-1" d="M9.32,6.55a.64.64,0,0,0,.08,1,.64.64,0,0,0,1,0,.78.78,0,0,0-.06-1.06A.78.78,0,0,0,9.32,6.55Z"/><path class="cls-1" d="M3.78.25a.64.64,0,0,0,0,1,.66.66,0,0,0,1,0A.79.79,0,0,0,4.8.13.8.8,0,0,0,3.78.25Z"/><path class="cls-1" d="M57,87.1c-.26.33-.33.62,0,.92s.65.15.89-.18.34-.61,0-.91S57.23,86.77,57,87.1Z"/><path class="cls-1" d="M60.76,116.82c-.27.34-.3.63.07.91s.64.1.89-.2.29-.64-.16-1C61.27,116.33,61,116.5,60.76,116.82Z"/><path class="cls-1" d="M36.77,38.23c-.25.32-.38.61,0,.92s.63.2.91-.13.36-.61.09-.84C37.32,37.81,37,37.89,36.77,38.23Z"/><path class="cls-1" d="M48.69,204.86c-.26.33-.34.62,0,.92s.65.15.89-.18a.55.55,0,0,0,0-.91C49.22,204.4,49,204.54,48.69,204.86Z"/><path class="cls-1" d="M61.7,105.06a.47.47,0,0,0,.07.75c.28.23.55.34.83,0a.58.58,0,0,0-.05-.86A.55.55,0,0,0,61.7,105.06Z"/><path class="cls-1" d="M64.64,146.75c-.27.34-.13.59.17.82a.48.48,0,0,0,.75-.09.6.6,0,0,0-.06-.87A.61.61,0,0,0,64.64,146.75Z"/><path class="cls-1" d="M42.37,44.48a.47.47,0,0,0,0,.76c.26.23.54.35.83,0a.61.61,0,0,0,0-.87A.59.59,0,0,0,42.37,44.48Z"/><path class="cls-1" d="M55.89,187.57c-.28.33-.13.59.16.81a.48.48,0,0,0,.75-.08.59.59,0,1,0-.91-.73Z"/><path class="cls-1" d="M52.48,68.91c-.34.34-.16.59.12.82a.48.48,0,0,0,.76-.06.56.56,0,0,0,0-.86A.56.56,0,0,0,52.48,68.91Z"/><path class="cls-1" d="M41.65,222c-.25.3-.32.55,0,.8s.53.39.83.06a.56.56,0,0,0,0-.86A.56.56,0,0,0,41.65,222Z"/><path class="cls-1" d="M56.59,175.65a.59.59,0,0,0,0,.87.6.6,0,0,0,.94,0,.65.65,0,1,0-1-.84Z"/><path class="cls-1" d="M31.23,31.85a.59.59,0,0,0,0,.87.6.6,0,0,0,.94,0,.63.63,0,0,0,0-1A.62.62,0,0,0,31.23,31.85Z"/><path class="cls-1" d="M57.75,75.31c-.35.34,0,.52.19.68s.43.37.64,0a.65.65,0,0,0,0-.81A.6.6,0,0,0,57.75,75.31Z"/><path class="cls-1" d="M65.4,135.23c-.16.18.08.36.27.51s.42.4.65.1a.58.58,0,0,0,0-.87C66,134.77,65.75,134.91,65.4,135.23Z"/><path class="cls-1" d="M55,199.33c-.34.27-.08.46.09.62s.44.47.71.08a.63.63,0,0,0,0-.85A.71.71,0,0,0,55,199.33Z"/><path class="cls-1" d="M63.71,158.6c-.22.29.06.47.26.61s.43.35.64,0,.23-.59,0-.8A.59.59,0,0,0,63.71,158.6Z"/><path class="cls-1" d="M63.07,170.35c-.35.27-.08.47.09.62s.44.48.71.09a.65.65,0,0,0,0-.83A.64.64,0,0,0,63.07,170.35Z"/><path class="cls-1" d="M66.26,123.27c-.32.27-.07.46.11.62s.44.46.71.06a.63.63,0,0,0,0-.81A.64.64,0,0,0,66.26,123.27Z"/><path class="cls-1" d="M47.8,216.68c-.22.29.06.47.26.61s.43.35.63,0,.23-.59,0-.8S48,216.41,47.8,216.68Z"/><path class="cls-1" d="M62.55,93.45c-.28.29,0,.46.18.62s.4.35.6.14.31-.65.08-.88S62.8,93.2,62.55,93.45Z"/><path class="cls-1" d="M47.6,50.92c-.26.29,0,.46.2.62s.4.35.59.14.31-.67.07-.9S47.84,50.66,47.6,50.92Z"/></g></g></svg>