<svg xmlns="http://www.w3.org/2000/svg" xmlns:xlink="http://www.w3.org/1999/xlink" viewBox="0 0 24.84 183.52"><defs><style>.cls-1,.cls-10,.cls-11,.cls-12,.cls-13,.cls-14,.cls-15,.cls-16,.cls-17,.cls-18,.cls-19,.cls-2,.cls-20,.cls-21,.cls-22,.cls-23,.cls-24,.cls-25,.cls-26,.cls-27,.cls-28,.cls-29,.cls-3,.cls-30,.cls-31,.cls-32,.cls-33,.cls-34,.cls-35,.cls-36,.cls-37,.cls-38,.cls-39,.cls-4,.cls-40,.cls-41,.cls-42,.cls-43,.cls-44,.cls-45,.cls-46,.cls-47,.cls-48,.cls-49,.cls-5,.cls-50,.cls-51,.cls-52,.cls-53,.cls-54,.cls-55,.cls-56,.cls-57,.cls-58,.cls-59,.cls-6,.cls-60,.cls-61,.cls-62,.cls-63,.cls-64,.cls-65,.cls-66,.cls-67,.cls-68,.cls-69,.cls-7,.cls-70,.cls-71,.cls-72,.cls-73,.cls-74,.cls-75,.cls-76,.cls-77,.cls-78,.cls-79,.cls-8,.cls-80,.cls-81,.cls-82,.cls-83,.cls-9{fill-rule:evenodd;}.cls-1{fill:url(#Degradado_sin_nombre_5);}.cls-2{fill:url(#Degradado_sin_nombre_5-2);}.cls-3{fill:url(#Degradado_sin_nombre_5-3);}.cls-4{fill:url(#Degradado_sin_nombre_5-4);}.cls-5{fill:url(#Degradado_sin_nombre_5-5);}.cls-6{fill:url(#Degradado_sin_nombre_5-6);}.cls-7{fill:url(#Degradado_sin_nombre_5-7);}.cls-8{fill:url(#Degradado_sin_nombre_5-8);}.cls-9{fill:url(#Degradado_sin_nombre_5-9);}.cls-10{fill:url(#Degradado_sin_nombre_5-10);}.cls-11{fill:url(#Degradado_sin_nombre_5-11);}.cls-12{fill:url(#Degradado_sin_nombre_5-12);}.cls-13{fill:url(#Degradado_sin_nombre_5-13);}.cls-14{fill:url(#Degradado_sin_nombre_5-14);}.cls-15{fill:url(#Degradado_sin_nombre_5-15);}.cls-16{fill:url(#Degradado_sin_nombre_5-16);}.cls-17{fill:url(#Degradado_sin_nombre_5-17);}.cls-18{fill:url(#Degradado_sin_nombre_5-18);}.cls-19{fill:url(#Degradado_sin_nombre_5-19);}.cls-20{fill:url(#Degradado_sin_nombre_5-20);}.cls-21{fill:url(#Degradado_sin_nombre_5-21);}.cls-22{fill:url(#Degradado_sin_nombre_5-22);}.cls-23{fill:url(#Degradado_sin_nombre_5-23);}.cls-24{fill:url(#Degradado_sin_nombre_5-24);}.cls-25{fill:url(#Degradado_sin_nombre_5-25);}.cls-26{fill:url(#Degradado_sin_nombre_5-26);}.cls-27{fill:url(#Degradado_sin_nombre_5-27);}.cls-28{fill:url(#Degradado_sin_nombre_5-28);}.cls-29{fill:url(#Degradado_sin_nombre_5-29);}.cls-30{fill:url(#Degradado_sin_nombre_5-30);}.cls-31{fill:url(#Degradado_sin_nombre_5-31);}.cls-32{fill:url(#Degradado_sin_nombre_5-32);}.cls-33{fill:url(#Degradado_sin_nombre_5-33);}.cls-34{fill:url(#Degradado_sin_nombre_5-34);}.cls-35{fill:url(#Degradado_sin_nombre_5-35);}.cls-36{fill:url(#Degradado_sin_nombre_5-36);}.cls-37{fill:url(#Degradado_sin_nombre_5-37);}.cls-38{fill:url(#Degradado_sin_nombre_5-38);}.cls-39{fill:url(#Degradado_sin_nombre_5-39);}.cls-40{fill:url(#Degradado_sin_nombre_5-40);}.cls-41{fill:url(#Degradado_sin_nombre_5-41);}.cls-42{fill:url(#Degradado_sin_nombre_5-42);}.cls-43{fill:url(#Degradado_sin_nombre_5-43);}.cls-44{fill:url(#Degradado_sin_nombre_5-44);}.cls-45{fill:url(#Degradado_sin_nombre_5-45);}.cls-46{fill:url(#Degradado_sin_nombre_5-46);}.cls-47{fill:url(#Degradado_sin_nombre_5-47);}.cls-48{fill:url(#Degradado_sin_nombre_5-48);}.cls-49{fill:url(#Degradado_sin_nombre_5-49);}.cls-50{fill:url(#Degradado_sin_nombre_5-50);}.cls-51{fill:url(#Degradado_sin_nombre_5-51);}.cls-52{fill:url(#Degradado_sin_nombre_5-52);}.cls-53{fill:url(#Degradado_sin_nombre_5-53);}.cls-54{fill:url(#Degradado_sin_nombre_5-54);}.cls-55{fill:url(#Degradado_sin_nombre_5-55);}.cls-56{fill:url(#Degradado_sin_nombre_5-56);}.cls-57{fill:url(#Degradado_sin_nombre_5-57);}.cls-58{fill:url(#Degradado_sin_nombre_5-58);}.cls-59{fill:url(#Degradado_sin_nombre_5-59);}.cls-60{fill:url(#Degradado_sin_nombre_5-60);}.cls-61{fill:url(#Degradado_sin_nombre_5-61);}.cls-62{fill:url(#Degradado_sin_nombre_5-62);}.cls-63{fill:url(#Degradado_sin_nombre_5-63);}.cls-64{fill:url(#Degradado_sin_nombre_5-64);}.cls-65{fill:url(#Degradado_sin_nombre_5-65);}.cls-66{fill:url(#Degradado_sin_nombre_5-66);}.cls-67{fill:url(#Degradado_sin_nombre_5-67);}.cls-68{fill:url(#Degradado_sin_nombre_5-68);}.cls-69{fill:url(#Degradado_sin_nombre_5-69);}.cls-70{fill:url(#Degradado_sin_nombre_5-70);}.cls-71{fill:url(#Degradado_sin_nombre_5-71);}.cls-72{fill:url(#Degradado_sin_nombre_5-72);}.cls-73{fill:url(#Degradado_sin_nombre_5-73);}.cls-74{fill:url(#Degradado_sin_nombre_5-74);}.cls-75{fill:url(#Degradado_sin_nombre_5-75);}.cls-76{fill:url(#Degradado_sin_nombre_5-76);}.cls-77{fill:url(#Degradado_sin_nombre_5-77);}.cls-78{fill:url(#Degradado_sin_nombre_5-78);}.cls-79{fill:url(#Degradado_sin_nombre_5-79);}.cls-80{fill:url(#Degradado_sin_nombre_5-80);}.cls-81{fill:url(#Degradado_sin_nombre_5-81);}.cls-82{fill:url(#Degradado_sin_nombre_5-82);}.cls-83{fill:url(#Degradado_sin_nombre_5-83);}</style><linearGradient id="Degradado_sin_nombre_5" x1="4884.78" y1="-4857.59" x2="4893.3" y2="-4857.59" gradientTransform="matrix(0, 1, 1, 0, 4874.11, -4874.11)" gradientUnits="userSpaceOnUse"><stop offset="0" stop-color="#04c2cb"/><stop offset="1" stop-color="#4b0bcf"/></linearGradient><linearGradient id="Degradado_sin_nombre_5-2" x1="4884.78" y1="-4853.72" x2="4893.3" y2="-4853.72" xlink:href="#Degradado_sin_nombre_5"/><linearGradient id="Degradado_sin_nombre_5-3" x1="4884.78" y1="-4849.85" x2="4893.3" y2="-4849.85" xlink:href="#Degradado_sin_nombre_5"/><linearGradient id="Degradado_sin_nombre_5-4" x1="4884.78" y1="-4869.1" x2="4893.3" y2="-4869.1" xlink:href="#Degradado_sin_nombre_5"/><linearGradient id="Degradado_sin_nombre_5-5" x1="4884.78" y1="-4865.28" x2="4893.3" y2="-4865.28" xlink:href="#Degradado_sin_nombre_5"/><linearGradient id="Degradado_sin_nombre_5-6" x1="4884.78" y1="-4873" x2="4893.3" y2="-4873" xlink:href="#Degradado_sin_nombre_5"/><linearGradient id="Degradado_sin_nombre_5-7" x1="4874.11" y1="-4853.72" x2="4882.79" y2="-4853.72" xlink:href="#Degradado_sin_nombre_5"/><linearGradient id="Degradado_sin_nombre_5-8" x1="4874.11" y1="-4849.85" x2="4882.79" y2="-4849.85" xlink:href="#Degradado_sin_nombre_5"/><linearGradient id="Degradado_sin_nombre_5-9" x1="4874.11" y1="-4861.56" x2="4882.79" y2="-4861.56" xlink:href="#Degradado_sin_nombre_5"/><linearGradient id="Degradado_sin_nombre_5-10" x1="4874.11" y1="-4857.69" x2="4882.79" y2="-4857.69" xlink:href="#Degradado_sin_nombre_5"/><linearGradient id="Degradado_sin_nombre_5-11" x1="4895.46" y1="-4861.41" x2="4904.03" y2="-4861.41" xlink:href="#Degradado_sin_nombre_5"/><linearGradient id="Degradado_sin_nombre_5-12" x1="4895.46" y1="-4857.59" x2="4904.03" y2="-4857.59" xlink:href="#Degradado_sin_nombre_5"/><linearGradient id="Degradado_sin_nombre_5-13" x1="4895.46" y1="-4853.72" x2="4904.03" y2="-4853.72" xlink:href="#Degradado_sin_nombre_5"/><linearGradient id="Degradado_sin_nombre_5-14" x1="4895.46" y1="-4849.85" x2="4904.03" y2="-4849.85" xlink:href="#Degradado_sin_nombre_5"/><linearGradient id="Degradado_sin_nombre_5-15" x1="4895.46" y1="-4865.28" x2="4904.03" y2="-4865.28" xlink:href="#Degradado_sin_nombre_5"/><linearGradient id="Degradado_sin_nombre_5-16" x1="4884.78" y1="-4861.41" x2="4893.3" y2="-4861.41" xlink:href="#Degradado_sin_nombre_5"/><linearGradient id="Degradado_sin_nombre_5-17" x1="4917.84" y1="-4857.75" x2="4926.36" y2="-4857.75" xlink:href="#Degradado_sin_nombre_5"/><linearGradient id="Degradado_sin_nombre_5-18" x1="4917.84" y1="-4853.88" x2="4926.36" y2="-4853.88" xlink:href="#Degradado_sin_nombre_5"/><linearGradient id="Degradado_sin_nombre_5-19" x1="4917.84" y1="-4850" x2="4926.36" y2="-4850" xlink:href="#Degradado_sin_nombre_5"/><linearGradient id="Degradado_sin_nombre_5-20" x1="4917.84" y1="-4869.25" x2="4926.36" y2="-4869.25" xlink:href="#Degradado_sin_nombre_5"/><linearGradient id="Degradado_sin_nombre_5-21" x1="4917.84" y1="-4865.44" x2="4926.36" y2="-4865.44" xlink:href="#Degradado_sin_nombre_5"/><linearGradient id="Degradado_sin_nombre_5-22" x1="4917.84" y1="-4873.15" x2="4926.36" y2="-4873.15" xlink:href="#Degradado_sin_nombre_5"/><linearGradient id="Degradado_sin_nombre_5-23" x1="4907.17" y1="-4857.75" x2="4915.85" y2="-4857.75" xlink:href="#Degradado_sin_nombre_5"/><linearGradient id="Degradado_sin_nombre_5-24" x1="4907.17" y1="-4853.88" x2="4915.85" y2="-4853.88" xlink:href="#Degradado_sin_nombre_5"/><linearGradient id="Degradado_sin_nombre_5-25" x1="4907.17" y1="-4850" x2="4915.85" y2="-4850" xlink:href="#Degradado_sin_nombre_5"/><linearGradient id="Degradado_sin_nombre_5-26" x1="4928.52" y1="-4861.56" x2="4937.09" y2="-4861.56" xlink:href="#Degradado_sin_nombre_5"/><linearGradient id="Degradado_sin_nombre_5-27" x1="4928.52" y1="-4857.75" x2="4937.09" y2="-4857.75" xlink:href="#Degradado_sin_nombre_5"/><linearGradient id="Degradado_sin_nombre_5-28" x1="4928.52" y1="-4853.88" x2="4937.09" y2="-4853.88" xlink:href="#Degradado_sin_nombre_5"/><linearGradient id="Degradado_sin_nombre_5-29" x1="4928.52" y1="-4850" x2="4937.09" y2="-4850" xlink:href="#Degradado_sin_nombre_5"/><linearGradient id="Degradado_sin_nombre_5-30" x1="4928.52" y1="-4865.44" x2="4937.09" y2="-4865.44" xlink:href="#Degradado_sin_nombre_5"/><linearGradient id="Degradado_sin_nombre_5-31" x1="4917.84" y1="-4861.56" x2="4926.36" y2="-4861.56" xlink:href="#Degradado_sin_nombre_5"/><linearGradient id="Degradado_sin_nombre_5-32" x1="4950.9" y1="-4857.9" x2="4959.42" y2="-4857.9" xlink:href="#Degradado_sin_nombre_5"/><linearGradient id="Degradado_sin_nombre_5-33" x1="4950.9" y1="-4854.03" x2="4959.42" y2="-4854.03" xlink:href="#Degradado_sin_nombre_5"/><linearGradient id="Degradado_sin_nombre_5-34" x1="4950.9" y1="-4850.15" x2="4959.42" y2="-4850.15" xlink:href="#Degradado_sin_nombre_5"/><linearGradient id="Degradado_sin_nombre_5-35" x1="4950.9" y1="-4869.41" x2="4959.42" y2="-4869.41" xlink:href="#Degradado_sin_nombre_5"/><linearGradient id="Degradado_sin_nombre_5-36" x1="4950.9" y1="-4865.59" x2="4959.42" y2="-4865.59" xlink:href="#Degradado_sin_nombre_5"/><linearGradient id="Degradado_sin_nombre_5-37" x1="4950.9" y1="-4873.3" x2="4959.42" y2="-4873.3" xlink:href="#Degradado_sin_nombre_5"/><linearGradient id="Degradado_sin_nombre_5-38" x1="4940.23" y1="-4857.9" x2="4948.91" y2="-4857.9" xlink:href="#Degradado_sin_nombre_5"/><linearGradient id="Degradado_sin_nombre_5-39" x1="4940.23" y1="-4861.56" x2="4948.91" y2="-4861.56" xlink:href="#Degradado_sin_nombre_5"/><linearGradient id="Degradado_sin_nombre_5-40" x1="4940.23" y1="-4854.03" x2="4948.91" y2="-4854.03" xlink:href="#Degradado_sin_nombre_5"/><linearGradient id="Degradado_sin_nombre_5-41" x1="4940.23" y1="-4850.15" x2="4948.91" y2="-4850.15" xlink:href="#Degradado_sin_nombre_5"/><linearGradient id="Degradado_sin_nombre_5-42" x1="4961.58" y1="-4861.72" x2="4970.15" y2="-4861.72" xlink:href="#Degradado_sin_nombre_5"/><linearGradient id="Degradado_sin_nombre_5-43" x1="4961.58" y1="-4857.9" x2="4970.15" y2="-4857.9" xlink:href="#Degradado_sin_nombre_5"/><linearGradient id="Degradado_sin_nombre_5-44" x1="4961.58" y1="-4854.03" x2="4970.15" y2="-4854.03" xlink:href="#Degradado_sin_nombre_5"/><linearGradient id="Degradado_sin_nombre_5-45" x1="4961.58" y1="-4850.15" x2="4970.15" y2="-4850.15" xlink:href="#Degradado_sin_nombre_5"/><linearGradient id="Degradado_sin_nombre_5-46" x1="4961.58" y1="-4865.59" x2="4970.15" y2="-4865.59" xlink:href="#Degradado_sin_nombre_5"/><linearGradient id="Degradado_sin_nombre_5-47" x1="4950.9" y1="-4861.72" x2="4959.42" y2="-4861.72" xlink:href="#Degradado_sin_nombre_5"/><linearGradient id="Degradado_sin_nombre_5-48" x1="4983.96" y1="-4858.05" x2="4992.48" y2="-4858.05" xlink:href="#Degradado_sin_nombre_5"/><linearGradient id="Degradado_sin_nombre_5-49" x1="4983.96" y1="-4854.18" x2="4992.48" y2="-4854.18" xlink:href="#Degradado_sin_nombre_5"/><linearGradient id="Degradado_sin_nombre_5-50" x1="4983.96" y1="-4850.31" x2="4992.48" y2="-4850.31" xlink:href="#Degradado_sin_nombre_5"/><linearGradient id="Degradado_sin_nombre_5-51" x1="4983.96" y1="-4869.56" x2="4992.48" y2="-4869.56" xlink:href="#Degradado_sin_nombre_5"/><linearGradient id="Degradado_sin_nombre_5-52" x1="4983.96" y1="-4865.74" x2="4992.48" y2="-4865.74" xlink:href="#Degradado_sin_nombre_5"/><linearGradient id="Degradado_sin_nombre_5-53" x1="4983.96" y1="-4873.46" x2="4992.48" y2="-4873.46" xlink:href="#Degradado_sin_nombre_5"/><linearGradient id="Degradado_sin_nombre_5-54" x1="4973.29" y1="-4858.05" x2="4981.97" y2="-4858.05" xlink:href="#Degradado_sin_nombre_5"/><linearGradient id="Degradado_sin_nombre_5-55" x1="4973.29" y1="-4854.18" x2="4981.97" y2="-4854.18" xlink:href="#Degradado_sin_nombre_5"/><linearGradient id="Degradado_sin_nombre_5-56" x1="4973.29" y1="-4850.31" x2="4981.97" y2="-4850.31" xlink:href="#Degradado_sin_nombre_5"/><linearGradient id="Degradado_sin_nombre_5-57" x1="4994.64" y1="-4861.87" x2="5003.21" y2="-4861.87" xlink:href="#Degradado_sin_nombre_5"/><linearGradient id="Degradado_sin_nombre_5-58" x1="4994.64" y1="-4858.05" x2="5003.21" y2="-4858.05" xlink:href="#Degradado_sin_nombre_5"/><linearGradient id="Degradado_sin_nombre_5-59" x1="4994.64" y1="-4854.18" x2="5003.21" y2="-4854.18" xlink:href="#Degradado_sin_nombre_5"/><linearGradient id="Degradado_sin_nombre_5-60" x1="4994.64" y1="-4850.31" x2="5003.21" y2="-4850.31" xlink:href="#Degradado_sin_nombre_5"/><linearGradient id="Degradado_sin_nombre_5-61" x1="4994.64" y1="-4865.74" x2="5003.21" y2="-4865.74" xlink:href="#Degradado_sin_nombre_5"/><linearGradient id="Degradado_sin_nombre_5-62" x1="4983.96" y1="-4861.87" x2="4992.48" y2="-4861.87" xlink:href="#Degradado_sin_nombre_5"/><linearGradient id="Degradado_sin_nombre_5-63" x1="5038.43" y1="-4858.05" x2="5046.95" y2="-4858.05" xlink:href="#Degradado_sin_nombre_5"/><linearGradient id="Degradado_sin_nombre_5-64" x1="5038.43" y1="-4854.18" x2="5046.95" y2="-4854.18" xlink:href="#Degradado_sin_nombre_5"/><linearGradient id="Degradado_sin_nombre_5-65" x1="5038.43" y1="-4850.31" x2="5046.95" y2="-4850.31" xlink:href="#Degradado_sin_nombre_5"/><linearGradient id="Degradado_sin_nombre_5-66" x1="5049.11" y1="-4854.18" x2="5057.63" y2="-4854.18" xlink:href="#Degradado_sin_nombre_5"/><linearGradient id="Degradado_sin_nombre_5-67" x1="5049.11" y1="-4850.31" x2="5057.63" y2="-4850.31" xlink:href="#Degradado_sin_nombre_5"/><linearGradient id="Degradado_sin_nombre_5-68" x1="5017.03" y1="-4858.2" x2="5025.54" y2="-4858.2" xlink:href="#Degradado_sin_nombre_5"/><linearGradient id="Degradado_sin_nombre_5-69" x1="5017.03" y1="-4854.33" x2="5025.54" y2="-4854.33" xlink:href="#Degradado_sin_nombre_5"/><linearGradient id="Degradado_sin_nombre_5-70" x1="5017.03" y1="-4850.46" x2="5025.54" y2="-4850.46" xlink:href="#Degradado_sin_nombre_5"/><linearGradient id="Degradado_sin_nombre_5-71" x1="5017.03" y1="-4869.71" x2="5025.54" y2="-4869.71" xlink:href="#Degradado_sin_nombre_5"/><linearGradient id="Degradado_sin_nombre_5-72" x1="5017.03" y1="-4865.89" x2="5025.54" y2="-4865.89" xlink:href="#Degradado_sin_nombre_5"/><linearGradient id="Degradado_sin_nombre_5-73" x1="5017.03" y1="-4873.61" x2="5025.54" y2="-4873.61" xlink:href="#Degradado_sin_nombre_5"/><linearGradient id="Degradado_sin_nombre_5-74" x1="5006.35" y1="-4858.2" x2="5015.03" y2="-4858.2" xlink:href="#Degradado_sin_nombre_5"/><linearGradient id="Degradado_sin_nombre_5-75" x1="5006.38" y1="-4861.94" x2="5015.06" y2="-4861.94" xlink:href="#Degradado_sin_nombre_5"/><linearGradient id="Degradado_sin_nombre_5-76" x1="5006.35" y1="-4854.33" x2="5015.03" y2="-4854.33" xlink:href="#Degradado_sin_nombre_5"/><linearGradient id="Degradado_sin_nombre_5-77" x1="5006.35" y1="-4850.46" x2="5015.03" y2="-4850.46" xlink:href="#Degradado_sin_nombre_5"/><linearGradient id="Degradado_sin_nombre_5-78" x1="5027.7" y1="-4862.02" x2="5036.27" y2="-4862.02" xlink:href="#Degradado_sin_nombre_5"/><linearGradient id="Degradado_sin_nombre_5-79" x1="5027.7" y1="-4858.2" x2="5036.27" y2="-4858.2" xlink:href="#Degradado_sin_nombre_5"/><linearGradient id="Degradado_sin_nombre_5-80" x1="5027.7" y1="-4854.33" x2="5036.27" y2="-4854.33" xlink:href="#Degradado_sin_nombre_5"/><linearGradient id="Degradado_sin_nombre_5-81" x1="5027.7" y1="-4850.46" x2="5036.27" y2="-4850.46" xlink:href="#Degradado_sin_nombre_5"/><linearGradient id="Degradado_sin_nombre_5-82" x1="5027.7" y1="-4865.89" x2="5036.27" y2="-4865.89" xlink:href="#Degradado_sin_nombre_5"/><linearGradient id="Degradado_sin_nombre_5-83" x1="5017.03" y1="-4862.02" x2="5025.54" y2="-4862.02" xlink:href="#Degradado_sin_nombre_5"/></defs><title>eqdecoration1</title><g id="Capa_2" data-name="Capa 2"><g id="Capa_1-2" data-name="Capa 1"><path class="cls-1" d="M17,11.23h0a.52.52,0,0,0-.55-.55.54.54,0,0,0-.5.55v7.58c0,.22.27.38.5.38S17,19,17,18.81Z"/><path class="cls-2" d="M20.91,11.23h0a.51.51,0,0,0-.5-.55.5.5,0,0,0-.55.55v7.58c0,.22.17.38.55.38s.5-.16.5-.38Z"/><path class="cls-3" d="M24.84,11.23h0a.55.55,0,0,0-.55-.55.56.56,0,0,0-.61.55v7.58c0,.22.27.38.61.38s.55-.16.55-.38Z"/><path class="cls-4" d="M5.53,11.23h0A.55.55,0,0,0,5,10.68a.48.48,0,0,0-.5.55v7.58c0,.22.17.38.5.38s.55-.16.55-.38Z"/><path class="cls-5" d="M9.35,11.23h0a.55.55,0,0,0-.44-.55.54.54,0,0,0-.61.55v7.58c0,.22.22.38.61.38.16,0,.44-.16.44-.38Z"/><path class="cls-6" d="M1.61,11.23h0a.51.51,0,0,0-.5-.55.54.54,0,0,0-.5.55v7.58c0,.22.27.38.5.38s.5-.16.5-.38Z"/><path class="cls-7" d="M19.86,8.08h0a.53.53,0,0,0,.55.6.56.56,0,0,0,.5-.6V.55c0-.39-.22-.55-.5-.55s-.55.16-.55.55Z"/><path class="cls-8" d="M23.68,8.08h0a.58.58,0,1,0,1.16,0V.55A.52.52,0,0,0,24.29,0c-.34,0-.61.16-.61.55Z"/><path class="cls-9" d="M12,8.08h0a.54.54,0,0,0,.56.6.55.55,0,0,0,.49-.6V.55c0-.39-.22-.55-.49-.55S12,.16,12,.55Z"/><path class="cls-10" d="M15.84,8.08h0a.58.58,0,1,0,1.16,0V.55A.52.52,0,0,0,16.45,0c-.34,0-.61.16-.61.55Z"/><path class="cls-11" d="M12.17,29.43h0a.45.45,0,0,0,.44.49.56.56,0,0,0,.61-.49V21.9a.61.61,0,0,0-.61-.55.51.51,0,0,0-.44.55Z"/><path class="cls-12" d="M16,29.43h0a.53.53,0,0,0,.5.49.51.51,0,0,0,.55-.49V21.9a.55.55,0,0,0-.55-.55.59.59,0,0,0-.5.55Z"/><path class="cls-13" d="M19.86,29.43h0a.48.48,0,0,0,.55.49.49.49,0,0,0,.5-.49V21.9a.55.55,0,0,0-.5-.55.52.52,0,0,0-.55.55Z"/><path class="cls-14" d="M23.68,29.43h0a.56.56,0,0,0,.61.49.55.55,0,0,0,.55-.49V21.9a.58.58,0,0,0-1.16,0Z"/><path class="cls-15" d="M8.3,29.43h0c0,.27.22.49.61.49a.53.53,0,0,0,.44-.49V21.9a.61.61,0,0,0-.44-.55.57.57,0,0,0-.61.55Z"/><path class="cls-16" d="M13.22,11.23a.57.57,0,0,0-.61-.55c-.27,0-.44.22-.44.55v7.58a.39.39,0,0,0,.44.38c.33,0,.61-.16.61-.38Z"/><path class="cls-17" d="M16.89,44.29h0a.53.53,0,0,0-.56-.55.54.54,0,0,0-.49.55v7.58c0,.22.27.39.49.39s.56-.17.56-.39Z"/><path class="cls-18" d="M20.76,44.29h0a.51.51,0,0,0-.5-.55.49.49,0,0,0-.55.55v7.58c0,.22.16.39.55.39a.45.45,0,0,0,.5-.39Z"/><path class="cls-19" d="M24.69,44.29h0a.56.56,0,0,0-.56-.55.57.57,0,0,0-.61.55v7.58c0,.22.28.39.61.39s.56-.17.56-.39Z"/><path class="cls-20" d="M5.38,44.29h0a.55.55,0,0,0-.55-.55c-.34,0-.5.22-.5.55v7.58c0,.22.16.39.5.39s.55-.17.55-.39Z"/><path class="cls-21" d="M9.2,44.29h0a.55.55,0,0,0-.44-.55.54.54,0,0,0-.61.55v7.58c0,.22.22.39.61.39.16,0,.44-.17.44-.39Z"/><path class="cls-22" d="M1.45,44.29h0a.51.51,0,0,0-.5-.55.54.54,0,0,0-.49.55v7.58c0,.22.27.39.49.39a.45.45,0,0,0,.5-.39Z"/><path class="cls-23" d="M15.84,41.14h0a.59.59,0,0,0,.49.6.57.57,0,0,0,.56-.6V33.61a.53.53,0,1,0-1.05,0Z"/><path class="cls-24" d="M19.71,41.14h0a.53.53,0,0,0,.55.6.56.56,0,0,0,.5-.6V33.61c0-.39-.22-.55-.5-.55s-.55.16-.55.55Z"/><path class="cls-25" d="M23.52,41.14h0a.61.61,0,0,0,.61.6.6.6,0,0,0,.56-.6V33.61a.52.52,0,0,0-.56-.55.54.54,0,0,0-.61.55Z"/><path class="cls-26" d="M12,62.49h0a.45.45,0,0,0,.44.49.56.56,0,0,0,.61-.49V55a.61.61,0,0,0-.61-.55A.51.51,0,0,0,12,55Z"/><path class="cls-27" d="M15.84,62.49h0a.53.53,0,0,0,.49.49.52.52,0,0,0,.56-.49V55a.56.56,0,0,0-.56-.55.59.59,0,0,0-.49.55Z"/><path class="cls-28" d="M19.71,62.49h0c0,.27.16.49.55.49a.49.49,0,0,0,.5-.49V55a.55.55,0,0,0-.5-.55.52.52,0,0,0-.55.55Z"/><path class="cls-29" d="M23.52,62.49h0a.56.56,0,0,0,.61.49.55.55,0,0,0,.56-.49V55a.6.6,0,0,0-.56-.55.61.61,0,0,0-.61.55Z"/><path class="cls-30" d="M8.15,62.49h0c0,.27.22.49.61.49a.53.53,0,0,0,.44-.49V55a.61.61,0,0,0-.44-.55.57.57,0,0,0-.61.55Z"/><path class="cls-31" d="M13.07,44.29a.57.57,0,0,0-.61-.55c-.27,0-.44.22-.44.55v7.58a.4.4,0,0,0,.44.39c.33,0,.61-.17.61-.39Z"/><path class="cls-32" d="M16.73,77.35h0a.52.52,0,0,0-.55-.55.55.55,0,0,0-.5.55v7.58c0,.22.28.39.5.39s.55-.17.55-.39Z"/><path class="cls-33" d="M20.6,77.35h0a.51.51,0,0,0-.49-.55.5.5,0,0,0-.56.55v7.58c0,.22.17.39.56.39a.45.45,0,0,0,.49-.39Z"/><path class="cls-34" d="M24.53,77.35h0A.55.55,0,0,0,24,76.8a.57.57,0,0,0-.61.55v7.58c0,.22.28.39.61.39s.55-.17.55-.39Z"/><path class="cls-35" d="M5.23,77.35h0a.56.56,0,0,0-.56-.55c-.33,0-.49.22-.49.55v7.58c0,.22.16.39.49.39s.56-.17.56-.39Z"/><path class="cls-36" d="M9,77.35H9a.53.53,0,1,0-1,0v7.58c0,.22.22.39.61.39.17,0,.44-.17.44-.39Z"/><path class="cls-37" d="M1.3,77.35h0a.51.51,0,0,0-.5-.55.54.54,0,0,0-.49.55v7.58c0,.22.27.39.49.39a.45.45,0,0,0,.5-.39Z"/><path class="cls-38" d="M15.68,74.2h0a.6.6,0,0,0,.5.6.56.56,0,0,0,.55-.6V66.67a.49.49,0,0,0-.55-.55.51.51,0,0,0-.5.55Z"/><path class="cls-39" d="M12,74.2h0a.59.59,0,0,0,.5.6.56.56,0,0,0,.55-.6V66.67a.49.49,0,0,0-.55-.55.5.5,0,0,0-.5.55Z"/><path class="cls-40" d="M19.55,74.2h0a.54.54,0,0,0,.56.6.55.55,0,0,0,.49-.6V66.67c0-.39-.22-.55-.49-.55s-.56.16-.56.55Z"/><path class="cls-41" d="M23.37,74.2h0a.61.61,0,0,0,.61.6.59.59,0,0,0,.55-.6V66.67a.51.51,0,0,0-.55-.55.54.54,0,0,0-.61.55Z"/><path class="cls-42" d="M11.87,95.55h0a.44.44,0,0,0,.44.49.56.56,0,0,0,.61-.49V88a.61.61,0,0,0-.61-.56.5.5,0,0,0-.44.56Z"/><path class="cls-43" d="M15.68,95.55h0a.54.54,0,0,0,.5.49.51.51,0,0,0,.55-.49V88a.56.56,0,0,0-.55-.56.6.6,0,0,0-.5.56Z"/><path class="cls-44" d="M19.55,95.55h0c0,.27.17.49.56.49a.49.49,0,0,0,.49-.49V88a.55.55,0,0,0-.49-.56.53.53,0,0,0-.56.56Z"/><path class="cls-45" d="M23.37,95.55h0A.56.56,0,0,0,24,96a.54.54,0,0,0,.55-.49V88a.59.59,0,0,0-.55-.56.61.61,0,0,0-.61.56Z"/><path class="cls-46" d="M8,95.55H8c0,.27.22.49.61.49A.52.52,0,0,0,9,95.55V88a.6.6,0,0,0-.44-.56A.57.57,0,0,0,8,88Z"/><path class="cls-47" d="M12.92,77.35a.57.57,0,0,0-.61-.55c-.28,0-.44.22-.44.55v7.58a.39.39,0,0,0,.44.39c.33,0,.61-.17.61-.39Z"/><path class="cls-48" d="M16.58,110.41h0a.52.52,0,0,0-.55-.55.55.55,0,0,0-.5.55V118c0,.22.28.39.5.39s.55-.17.55-.39Z"/><path class="cls-49" d="M20.45,110.41h0a.51.51,0,0,0-.49-.55.5.5,0,0,0-.56.55V118c0,.22.17.39.56.39a.45.45,0,0,0,.49-.39Z"/><path class="cls-50" d="M24.38,110.41h0a.55.55,0,0,0-.55-.55.56.56,0,0,0-.61.55V118c0,.22.27.39.61.39s.55-.17.55-.39Z"/><path class="cls-51" d="M5.07,110.41h0a.55.55,0,0,0-.55-.55.48.48,0,0,0-.5.55V118c0,.22.17.39.5.39s.55-.17.55-.39Z"/><path class="cls-52" d="M8.89,110.41h0a.55.55,0,0,0-.44-.55.54.54,0,0,0-.61.55V118c0,.22.22.39.61.39.16,0,.44-.17.44-.39Z"/><path class="cls-53" d="M1.15,110.41h0a.51.51,0,0,0-.5-.55.55.55,0,0,0-.5.55V118c0,.22.28.39.5.39a.45.45,0,0,0,.5-.39Z"/><path class="cls-54" d="M15.53,107.26h0a.6.6,0,0,0,.5.6.56.56,0,0,0,.55-.6V99.73a.5.5,0,0,0-.55-.55.51.51,0,0,0-.5.55Z"/><path class="cls-55" d="M19.4,107.26h0a.54.54,0,0,0,.56.6.55.55,0,0,0,.49-.6V99.73a.48.48,0,0,0-.49-.55c-.39,0-.56.17-.56.55Z"/><path class="cls-56" d="M23.22,107.26h0a.58.58,0,1,0,1.16,0V99.73a.52.52,0,0,0-.55-.55.54.54,0,0,0-.61.55Z"/><path class="cls-57" d="M11.71,128.61h0a.46.46,0,0,0,.45.5.56.56,0,0,0,.6-.5v-7.52a.6.6,0,0,0-.6-.56.51.51,0,0,0-.45.56Z"/><path class="cls-58" d="M15.53,128.61h0a.55.55,0,0,0,.5.5.51.51,0,0,0,.55-.5v-7.52a.56.56,0,0,0-.55-.56.6.6,0,0,0-.5.56Z"/><path class="cls-59" d="M19.4,128.61h0a.49.49,0,0,0,.56.5.5.5,0,0,0,.49-.5v-7.52a.55.55,0,0,0-.49-.56.53.53,0,0,0-.56.56Z"/><path class="cls-60" d="M23.22,128.61h0a.57.57,0,0,0,.61.5.55.55,0,0,0,.55-.5v-7.52a.58.58,0,0,0-1.16,0Z"/><path class="cls-61" d="M7.84,128.61h0c0,.27.22.5.61.5a.55.55,0,0,0,.44-.5v-7.52a.61.61,0,0,0-.44-.56.57.57,0,0,0-.61.56Z"/><path class="cls-62" d="M12.76,110.41a.56.56,0,0,0-.6-.55c-.28,0-.45.22-.45.55V118a.4.4,0,0,0,.45.39c.33,0,.6-.17.6-.39Z"/><path class="cls-63" d="M16.58,164.88h0a.53.53,0,0,0-.55-.56.56.56,0,0,0-.5.56v7.57c0,.23.28.39.5.39s.55-.16.55-.39Z"/><path class="cls-64" d="M20.45,164.88h0a.52.52,0,0,0-.49-.56.51.51,0,0,0-.56.56v7.57c0,.23.17.39.56.39a.44.44,0,0,0,.49-.39Z"/><path class="cls-65" d="M24.38,164.88h0a.56.56,0,0,0-.55-.56.57.57,0,0,0-.61.56v7.57c0,.23.27.39.61.39s.55-.16.55-.39Z"/><path class="cls-66" d="M20.45,175.55h0A.51.51,0,0,0,20,175a.5.5,0,0,0-.56.55v7.58c0,.22.17.39.56.39a.45.45,0,0,0,.49-.39Z"/><path class="cls-67" d="M24.38,175.55h0a.55.55,0,0,0-.55-.55.56.56,0,0,0-.61.55v7.58c0,.22.27.39.61.39s.55-.17.55-.39Z"/><path class="cls-68" d="M16.43,143.47h0a.52.52,0,0,0-.56-.55.54.54,0,0,0-.49.55v7.58c0,.22.27.39.49.39s.56-.17.56-.39Z"/><path class="cls-69" d="M20.3,143.47h0a.51.51,0,0,0-.5-.55.49.49,0,0,0-.55.55v7.58c0,.22.16.39.55.39a.45.45,0,0,0,.5-.39Z"/><path class="cls-70" d="M24.23,143.47h0a.55.55,0,0,0-.55-.55.56.56,0,0,0-.61.55v7.58c0,.22.27.39.61.39s.55-.17.55-.39Z"/><path class="cls-71" d="M4.92,143.47h0a.55.55,0,0,0-.55-.55.48.48,0,0,0-.5.55v7.58c0,.22.17.39.5.39s.55-.17.55-.39Z"/><path class="cls-72" d="M8.74,143.47h0a.55.55,0,0,0-.44-.55.54.54,0,0,0-.61.55v7.58c0,.22.22.39.61.39.16,0,.44-.17.44-.39Z"/><path class="cls-73" d="M1,143.47H1a.51.51,0,0,0-.5-.55.54.54,0,0,0-.49.55v7.58c0,.22.27.39.49.39a.45.45,0,0,0,.5-.39Z"/><path class="cls-74" d="M15.38,140.32h0a.61.61,0,0,0,.49.61.57.57,0,0,0,.56-.61V132.8a.5.5,0,0,0-.56-.56.51.51,0,0,0-.49.56Z"/><path class="cls-75" d="M11.65,140.35h0a.59.59,0,0,0,.49.6.56.56,0,0,0,.55-.6v-7.53a.49.49,0,0,0-.55-.55.5.5,0,0,0-.49.55Z"/><path class="cls-76" d="M19.25,140.32h0a.54.54,0,0,0,.55.61.56.56,0,0,0,.5-.61V132.8c0-.39-.22-.56-.5-.56s-.55.17-.55.56Z"/><path class="cls-77" d="M23.07,140.32h0a.58.58,0,1,0,1.16,0V132.8a.53.53,0,0,0-.55-.56.54.54,0,0,0-.61.56Z"/><path class="cls-78" d="M11.56,161.67h0a.45.45,0,0,0,.44.5.56.56,0,0,0,.61-.5v-7.52a.61.61,0,0,0-.61-.56c-.27,0-.44.28-.44.56Z"/><path class="cls-79" d="M15.38,161.67h0a.53.53,0,0,0,.49.5.51.51,0,0,0,.56-.5v-7.52a.56.56,0,0,0-.56-.56.59.59,0,0,0-.49.56Z"/><path class="cls-80" d="M19.25,161.67h0c0,.28.16.5.55.5a.5.5,0,0,0,.5-.5v-7.52a.55.55,0,0,0-.5-.56.52.52,0,0,0-.55.56Z"/><path class="cls-81" d="M23.07,161.67h0a.56.56,0,0,0,.61.5.55.55,0,0,0,.55-.5v-7.52a.58.58,0,0,0-1.16,0Z"/><path class="cls-82" d="M7.69,161.67h0c0,.28.22.5.61.5a.54.54,0,0,0,.44-.5v-7.52a.61.61,0,0,0-.44-.56.57.57,0,0,0-.61.56Z"/><path class="cls-83" d="M12.61,143.47a.57.57,0,0,0-.61-.55c-.27,0-.44.22-.44.55v7.58a.4.4,0,0,0,.44.39c.33,0,.61-.17.61-.39Z"/></g></g></svg>