<svg xmlns="http://www.w3.org/2000/svg" xmlns:xlink="http://www.w3.org/1999/xlink" viewBox="0 0 75.27 11.63"><defs><style>.cls-1,.cls-10,.cls-11,.cls-12,.cls-13,.cls-14,.cls-15,.cls-16,.cls-17,.cls-18,.cls-19,.cls-2,.cls-20,.cls-21,.cls-22,.cls-23,.cls-24,.cls-25,.cls-26,.cls-27,.cls-28,.cls-29,.cls-3,.cls-30,.cls-4,.cls-5,.cls-6,.cls-7,.cls-8,.cls-9{fill-rule:evenodd;}.cls-1{fill:url(#Degradado_sin_nombre_5);}.cls-2{fill:url(#Degradado_sin_nombre_5-2);}.cls-3{fill:url(#Degradado_sin_nombre_5-3);}.cls-4{fill:url(#Degradado_sin_nombre_5-4);}.cls-5{fill:url(#Degradado_sin_nombre_5-5);}.cls-6{fill:url(#Degradado_sin_nombre_5-6);}.cls-7{fill:url(#Degradado_sin_nombre_5-7);}.cls-8{fill:url(#Degradado_sin_nombre_5-8);}.cls-9{fill:url(#Degradado_sin_nombre_5-9);}.cls-10{fill:url(#Degradado_sin_nombre_5-10);}.cls-11{fill:url(#Degradado_sin_nombre_5-11);}.cls-12{fill:url(#Degradado_sin_nombre_5-12);}.cls-13{fill:url(#Degradado_sin_nombre_5-13);}.cls-14{fill:url(#Degradado_sin_nombre_5-14);}.cls-15{fill:url(#Degradado_sin_nombre_5-15);}.cls-16{fill:url(#Degradado_sin_nombre_5-16);}.cls-17{fill:url(#Degradado_sin_nombre_5-17);}.cls-18{fill:url(#Degradado_sin_nombre_5-18);}.cls-19,.cls-31{fill:#0a0d41;}.cls-20{fill:url(#Degradado_sin_nombre_17);}.cls-21{fill:url(#Degradado_sin_nombre_17-2);}.cls-22{fill:url(#Degradado_sin_nombre_17-3);}.cls-23{fill:url(#Degradado_sin_nombre_5-19);}.cls-24{fill:url(#Degradado_sin_nombre_5-20);}.cls-25{fill:url(#Degradado_sin_nombre_5-21);}.cls-26{fill:url(#Degradado_sin_nombre_11);}.cls-27{fill:url(#Degradado_sin_nombre_11-2);}.cls-28{fill:url(#Degradado_sin_nombre_5-22);}.cls-29{fill:url(#Degradado_sin_nombre_5-23);}.cls-30{fill:url(#Degradado_sin_nombre_5-24);}</style><linearGradient id="Degradado_sin_nombre_5" x1="57.14" y1="7.58" x2="60.37" y2="7.58" gradientUnits="userSpaceOnUse"><stop offset="0" stop-color="#04c2cb"/><stop offset="1" stop-color="#4b0bcf"/></linearGradient><linearGradient id="Degradado_sin_nombre_5-2" x1="57.14" y1="9.37" x2="60.37" y2="9.37" xlink:href="#Degradado_sin_nombre_5"/><linearGradient id="Degradado_sin_nombre_5-3" x1="57.14" y1="11.18" x2="60.37" y2="11.18" xlink:href="#Degradado_sin_nombre_5"/><linearGradient id="Degradado_sin_nombre_5-4" x1="57.14" y1="2.23" x2="60.37" y2="2.23" xlink:href="#Degradado_sin_nombre_5"/><linearGradient id="Degradado_sin_nombre_5-5" x1="57.14" y1="4" x2="60.37" y2="4" xlink:href="#Degradado_sin_nombre_5"/><linearGradient id="Degradado_sin_nombre_5-6" x1="57.14" y1="0.41" x2="60.37" y2="0.41" xlink:href="#Degradado_sin_nombre_5"/><linearGradient id="Degradado_sin_nombre_5-7" x1="53.09" y1="7.58" x2="56.38" y2="7.58" xlink:href="#Degradado_sin_nombre_5"/><linearGradient id="Degradado_sin_nombre_5-8" x1="53.09" y1="9.37" x2="56.38" y2="9.37" xlink:href="#Degradado_sin_nombre_5"/><linearGradient id="Degradado_sin_nombre_5-9" x1="53.09" y1="11.18" x2="56.38" y2="11.18" xlink:href="#Degradado_sin_nombre_5"/><linearGradient id="Degradado_sin_nombre_5-10" x1="61.19" y1="5.8" x2="64.44" y2="5.8" xlink:href="#Degradado_sin_nombre_5"/><linearGradient id="Degradado_sin_nombre_5-11" x1="61.19" y1="7.58" x2="64.44" y2="7.58" xlink:href="#Degradado_sin_nombre_5"/><linearGradient id="Degradado_sin_nombre_5-12" x1="61.19" y1="9.37" x2="64.44" y2="9.37" xlink:href="#Degradado_sin_nombre_5"/><linearGradient id="Degradado_sin_nombre_5-13" x1="61.19" y1="11.18" x2="64.44" y2="11.18" xlink:href="#Degradado_sin_nombre_5"/><linearGradient id="Degradado_sin_nombre_5-14" x1="61.19" y1="4" x2="64.44" y2="4" xlink:href="#Degradado_sin_nombre_5"/><linearGradient id="Degradado_sin_nombre_5-15" x1="57.14" y1="5.8" x2="60.37" y2="5.8" xlink:href="#Degradado_sin_nombre_5"/><linearGradient id="Degradado_sin_nombre_5-16" x1="43.28" y1="1.28" x2="47.43" y2="1.28" xlink:href="#Degradado_sin_nombre_5"/><linearGradient id="Degradado_sin_nombre_5-17" x1="43.28" y1="3.1" x2="47.43" y2="3.1" xlink:href="#Degradado_sin_nombre_5"/><linearGradient id="Degradado_sin_nombre_5-18" x1="41.78" y1="7.64" x2="48.93" y2="7.64" xlink:href="#Degradado_sin_nombre_5"/><linearGradient id="Degradado_sin_nombre_17" x1="27.6" y1="11.68" x2="36.3" y2="2.99" gradientUnits="userSpaceOnUse"><stop offset="0" stop-color="#04c2cb"/><stop offset="0.14" stop-color="#06becb"/><stop offset="0.29" stop-color="#0ab1cb"/><stop offset="0.44" stop-color="#129dcc"/><stop offset="0.59" stop-color="#1e80cc"/><stop offset="0.75" stop-color="#2c5acd"/><stop offset="0.9" stop-color="#3e2dce"/><stop offset="1" stop-color="#4b0bcf"/></linearGradient><linearGradient id="Degradado_sin_nombre_17-2" x1="33.27" y1="9.87" x2="36.21" y2="6.92" xlink:href="#Degradado_sin_nombre_17"/><linearGradient id="Degradado_sin_nombre_17-3" x1="27.68" y1="9.87" x2="30.63" y2="6.92" xlink:href="#Degradado_sin_nombre_17"/><linearGradient id="Degradado_sin_nombre_5-19" x1="69.89" y1="10.17" x2="74.43" y2="10.17" xlink:href="#Degradado_sin_nombre_5"/><linearGradient id="Degradado_sin_nombre_5-20" x1="69.08" y1="4.34" x2="75.27" y2="4.34" xlink:href="#Degradado_sin_nombre_5"/><linearGradient id="Degradado_sin_nombre_5-21" x1="70.11" y1="2.96" x2="74.17" y2="2.96" xlink:href="#Degradado_sin_nombre_5"/><linearGradient id="Degradado_sin_nombre_11" x1="2.56" y1="10.27" x2="7.7" y2="1.36" gradientUnits="userSpaceOnUse"><stop offset="0" stop-color="#04c2cb"/><stop offset="0.11" stop-color="#07b9cb"/><stop offset="0.29" stop-color="#11a1cc"/><stop offset="0.51" stop-color="#2079cd"/><stop offset="0.77" stop-color="#3542ce"/><stop offset="1" stop-color="#4b0bcf"/></linearGradient><linearGradient id="Degradado_sin_nombre_11-2" x1="2.98" y1="9.54" x2="7.28" y2="2.09" xlink:href="#Degradado_sin_nombre_11"/><linearGradient id="Degradado_sin_nombre_5-22" x1="11.57" y1="9.99" x2="16.38" y2="1.64" xlink:href="#Degradado_sin_nombre_5"/><linearGradient id="Degradado_sin_nombre_5-23" x1="20.61" y1="9.94" x2="25.43" y2="1.6" xlink:href="#Degradado_sin_nombre_5"/><linearGradient id="Degradado_sin_nombre_5-24" x1="16.25" y1="9.98" x2="21.07" y2="1.65" xlink:href="#Degradado_sin_nombre_5"/></defs><title>iconsdeco1</title><g id="Capa_2" data-name="Capa 2"><g id="Capa_1-2" data-name="Capa 1"><path class="cls-1" d="M57.35,7.82h0c-.13,0-.21-.1-.21-.26a.23.23,0,0,1,.21-.23h2.87c.09,0,.15.13.15.23s-.06.26-.15.26Z"/><path class="cls-2" d="M57.35,9.62h0a.21.21,0,0,1-.21-.23c0-.18.08-.26.21-.26h2.87c.09,0,.15.08.15.26s-.06.23-.15.23Z"/><path class="cls-3" d="M57.35,11.45h0a.24.24,0,0,1-.21-.26c0-.16.08-.28.21-.28h2.87c.09,0,.15.12.15.28s-.06.26-.15.26Z"/><path class="cls-4" d="M57.35,2.47h0a.24.24,0,0,1-.21-.26A.2.2,0,0,1,57.35,2h2.87c.09,0,.15.08.15.23s-.06.26-.15.26Z"/><path class="cls-5" d="M57.35,4.25h0A.22.22,0,0,1,57.14,4c0-.18.08-.28.21-.28h2.87c.09,0,.15.1.15.28s-.06.21-.15.21Z"/><path class="cls-6" d="M57.35.65h0a.22.22,0,0,1-.21-.24.23.23,0,0,1,.21-.23h2.87c.09,0,.15.13.15.23s-.06.24-.15.24Z"/><path class="cls-7" d="M56.15,7.33h0a.25.25,0,0,1,.23.23.23.23,0,0,1-.23.26H53.3c-.15,0-.21-.1-.21-.26a.21.21,0,0,1,.21-.23Z"/><path class="cls-8" d="M56.15,9.13h0c.13,0,.23.08.23.26a.23.23,0,0,1-.23.23H53.3c-.15,0-.21-.1-.21-.23s.06-.26.21-.26Z"/><path class="cls-9" d="M56.15,10.91h0a.27.27,0,0,1,0,.54H53.3c-.15,0-.21-.13-.21-.26s.06-.28.21-.28Z"/><path class="cls-10" d="M64.25,5.56h0a.19.19,0,0,1,.19.2c0,.16-.09.29-.19.29H61.4c-.11,0-.21-.13-.21-.29a.2.2,0,0,1,.21-.2Z"/><path class="cls-11" d="M64.25,7.33h0c.1,0,.19.13.19.23s-.09.26-.19.26H61.4a.23.23,0,0,1-.21-.26.25.25,0,0,1,.21-.23Z"/><path class="cls-12" d="M64.25,9.13h0c.1,0,.19.08.19.26a.21.21,0,0,1-.19.23H61.4a.22.22,0,0,1-.21-.23c0-.18.1-.26.21-.26Z"/><path class="cls-13" d="M64.25,10.91h0c.1,0,.19.12.19.28s-.09.26-.19.26H61.4a.28.28,0,0,1,0-.54Z"/><path class="cls-14" d="M64.25,3.76h0c.1,0,.19.1.19.28s-.09.21-.19.21H61.4A.24.24,0,0,1,61.19,4c0-.18.1-.28.21-.28Z"/><path class="cls-15" d="M57.35,6.05c-.13,0-.21-.13-.21-.29a.19.19,0,0,1,.21-.2h2.87c.09,0,.15.07.15.2s-.06.29-.15.29Z"/><path class="cls-16" d="M47.43,2.56h0v-.5a2.08,2.08,0,0,0-4.15,0v.5Z"/><polygon class="cls-17" points="47.43 3.25 47.43 3.25 47.43 2.94 43.28 2.94 43.28 3.25 47.43 3.25"/><path class="cls-18" d="M42.68,5.91V5.74a.26.26,0,0,0-.26-.24H42a.23.23,0,0,0-.23.24v.84a3.6,3.6,0,0,0,3.14,3.54v.61H43.05a.24.24,0,0,0-.24.25v.41a.24.24,0,0,0,.24.24h4.59a.24.24,0,0,0,.24-.24V11a.24.24,0,0,0-.24-.25H45.8v-.61a3.62,3.62,0,0,0,3.13-3.54V5.74a.23.23,0,0,0-.23-.24h-.43a.24.24,0,0,0-.24.24v.17h-.6V3.65H43.28V5.91Z"/><path class="cls-19" d="M45.34,8.81a2.06,2.06,0,0,0,2.09-2.06V6.3H48v.28a2.68,2.68,0,1,1-5.35,0V6.3h.6v.45a2.06,2.06,0,0,0,2.06,2.06Z"/><path class="cls-20" d="M28.43,11h-1a1.33,1.33,0,0,1-.92-.38h0a1.35,1.35,0,0,1-.39-.95V7.07A1.41,1.41,0,0,1,27,5.78,5.56,5.56,0,0,1,28.5,2.11,4.6,4.6,0,0,1,32,.65a4.69,4.69,0,0,1,3.46,1.46,5.59,5.59,0,0,1,1.44,3.67,1.22,1.22,0,0,1,.64.5,1.21,1.21,0,0,1,.26.79V9.65a1.35,1.35,0,0,1-.39.95h0a1.24,1.24,0,0,1-.9.38h-1V6a.22.22,0,0,1,0-.11,4.06,4.06,0,0,0-1-2.75h0A3.23,3.23,0,0,0,32,2.11a3.3,3.3,0,0,0-2.47,1.05,4.11,4.11,0,0,0-1,2.75V6h0v5Z"/><path class="cls-21" d="M34.09,10.47V6.3A.55.55,0,0,1,34.24,6a.56.56,0,0,1,.36-.15h.5V11h-.5a.51.51,0,0,1-.36-.15.48.48,0,0,1-.15-.36Z"/><path class="cls-22" d="M28.8,10.92V5.8h.51a.56.56,0,0,1,.35.15.46.46,0,0,1,.15.35v4.17a.42.42,0,0,1-.15.36.51.51,0,0,1-.35.15H28.8Z"/><path class="cls-23" d="M74.15,10.92H72.82V8.85c0-.06-.13-.14-.3-.14h-.69c-.17,0-.3.08-.3.14v2.07H70.2c-.15,0-.31.09-.31.17v.37c0,.1.16.17.31.17h4c.15,0,.28-.07.28-.17v-.37c0-.08-.13-.17-.28-.17Z"/><path class="cls-24" d="M69.81,0a.73.73,0,0,0-.73.73V8a.75.75,0,0,0,.73.73h4.73A.73.73,0,0,0,75.27,8V.73A.72.72,0,0,0,74.54,0Z"/><path class="cls-19" d="M72.15,5.55h0a2.54,2.54,0,0,1-1.82-.78A2.49,2.49,0,0,1,69.55,3a2.53,2.53,0,0,1,.78-1.83A2.54,2.54,0,0,1,72.15.37,2.66,2.66,0,0,1,74,1.12v0A2.63,2.63,0,0,1,74.73,3,2.55,2.55,0,0,1,74,4.77a2.6,2.6,0,0,1-1.83.78Z"/><path class="cls-19" d="M69.62,7.93h0a.2.2,0,1,0,0,.39.18.18,0,0,0,.17-.2.18.18,0,0,0-.17-.19Z"/><path class="cls-19" d="M74.67,7.93h0a.2.2,0,1,0,.19.19.2.2,0,0,0-.19-.19Z"/><path class="cls-19" d="M72.17,7.65h0A.69.69,0,1,1,72.86,7a.68.68,0,0,1-.69.69Z"/><path class="cls-25" d="M70.71,4.41h0a2.08,2.08,0,0,0,2.88,0A2.07,2.07,0,0,0,74.17,3a2,2,0,0,0-.58-1.44,2,2,0,0,0-2.88,0A2,2,0,0,0,70.11,3a2,2,0,0,0,.6,1.44Z"/><path class="cls-19" d="M74.58.49h0a.21.21,0,0,0-.21.2.2.2,0,0,0,.21.19.2.2,0,0,0,.19-.19.21.21,0,0,0-.19-.2Z"/><path class="cls-19" d="M69.62.49h0a.2.2,0,0,0-.2.2.19.19,0,0,0,.2.19.17.17,0,0,0,.17-.19.18.18,0,0,0-.17-.2Z"/><path class="cls-19" d="M72.15,4h0a1,1,0,0,1-1-1,1,1,0,0,1,1-1,1,1,0,0,1,1,1,1,1,0,0,1-1,1Z"/><path class="cls-26" d="M5.14.67A5.14,5.14,0,1,1,0,5.81,5.13,5.13,0,0,1,5.14.67Z"/><path class="cls-19" d="M5.14,1A4.79,4.79,0,1,1,.36,5.81,4.77,4.77,0,0,1,5.14,1Z"/><path class="cls-27" d="M5.14,1.52A4.3,4.3,0,1,1,.84,5.81a4.28,4.28,0,0,1,4.3-4.29Z"/><path class="cls-19" d="M8.09,6.24v0a.8.8,0,0,1-.25.64,1,1,0,0,1-.7.22.94.94,0,0,1-.74-.29,1,1,0,0,1-.28-.77V5.55a1,1,0,0,1,.26-.75,1,1,0,0,1,.73-.29,1,1,0,0,1,.73.22.76.76,0,0,1,.25.64H7.6A.42.42,0,0,0,7.47,5a.44.44,0,0,0-.36-.14.41.41,0,0,0-.35.2.77.77,0,0,0-.13.47v.51a.85.85,0,0,0,.13.49.42.42,0,0,0,.38.17.38.38,0,0,0,.33-.11.48.48,0,0,0,.13-.37ZM5.81,6H4.87V6.7H6v.38H4.37V4.53H6v.4H4.87v.64h.94ZM2.68,5.68H3a.54.54,0,0,0,.31-.09.32.32,0,0,0,.11-.28A.32.32,0,0,0,3.35,5,.4.4,0,0,0,3,4.93H2.68Zm0,.38v1H2.17V4.53H3a1.06,1.06,0,0,1,.68.2A.64.64,0,0,1,4,5.28a.71.71,0,0,1-.09.36,1.23,1.23,0,0,1-.31.22.53.53,0,0,1,.33.22A1.12,1.12,0,0,1,4,6.46v.2a.94.94,0,0,0,0,.22.4.4,0,0,0,.11.18v0H3.59A.21.21,0,0,1,3.5,6.9a1.1,1.1,0,0,1,0-.24V6.48a.48.48,0,0,0-.11-.31.38.38,0,0,0-.29-.11Z"/><path class="cls-28" d="M14.14,11.28V10a1.39,1.39,0,0,0,1.24-1.38,1.43,1.43,0,0,0-1.24-1.39V.35h-.33v6.9a1.42,1.42,0,0,0-1.23,1.39A1.38,1.38,0,0,0,13.81,10v1.26Z"/><path class="cls-29" d="M23.27,3.87a1.39,1.39,0,0,0,0-2.77V.35h-.33V1.1a1.39,1.39,0,0,0,0,2.77v7.41h.33Z"/><path class="cls-30" d="M18.81,7.05a1.38,1.38,0,0,0,1.24-1.39,1.4,1.4,0,0,0-1.24-1.39V.35h-.3V4.27a1.4,1.4,0,0,0-1.24,1.39,1.38,1.38,0,0,0,1.24,1.39v4.23h.3Z"/><circle class="cls-31" cx="13.98" cy="8.64" r="0.65"/><circle class="cls-31" cx="18.66" cy="5.65" r="0.65"/><circle class="cls-31" cx="23.1" cy="2.48" r="0.65"/></g></g></svg>