<svg xmlns="http://www.w3.org/2000/svg" viewBox="0 0 67.34 174.6"><defs><style>.cls-1{fill:#00cbce;}</style></defs><title>img2</title><g id="Capa_2" data-name="Capa 2"><g id="Capa_1-2" data-name="Capa 1"><path class="cls-1" d="M12.52,6.26A6.26,6.26,0,1,1,6.26,0,6.26,6.26,0,0,1,12.52,6.26Z"/><path class="cls-1" d="M67.34,6.26A6.26,6.26,0,1,1,61.08,0,6.26,6.26,0,0,1,67.34,6.26Z"/><path class="cls-1" d="M12.52,46.78a6.26,6.26,0,1,1-6.26-6.26A6.26,6.26,0,0,1,12.52,46.78Z"/><path class="cls-1" d="M67.34,46.78a6.26,6.26,0,1,1-6.26-6.26A6.26,6.26,0,0,1,67.34,46.78Z"/><path class="cls-1" d="M12.52,87.3A6.26,6.26,0,1,1,6.26,81,6.26,6.26,0,0,1,12.52,87.3Z"/><path class="cls-1" d="M67.34,87.3A6.26,6.26,0,1,1,61.08,81,6.26,6.26,0,0,1,67.34,87.3Z"/><path class="cls-1" d="M12.52,127.82a6.26,6.26,0,1,1-6.26-6.26A6.26,6.26,0,0,1,12.52,127.82Z"/><path class="cls-1" d="M67.34,127.82a6.26,6.26,0,1,1-6.26-6.26A6.26,6.26,0,0,1,67.34,127.82Z"/><path class="cls-1" d="M12.52,168.34a6.26,6.26,0,1,1-6.26-6.26A6.26,6.26,0,0,1,12.52,168.34Z"/><path class="cls-1" d="M67.34,168.34a6.26,6.26,0,1,1-6.26-6.26A6.26,6.26,0,0,1,67.34,168.34Z"/></g></g></svg>