<svg xmlns="http://www.w3.org/2000/svg" viewBox="0 0 924 18.61"><defs><style>.cls-1{fill:#04c2cb;}</style></defs><title>img3</title><g id="Capa_2" data-name="Capa 2"><g id="Capa_1-2" data-name="Capa 1"><path class="cls-1" d="M316.33,10.49c1.08-1,1.55-1,2.42,0l.27-.29a1.21,1.21,0,0,1,1.38-.37,1.12,1.12,0,0,1,.79,1.11c0,1.1,0,2.2,0,3.31,0,.46-.27.5-.63.51s-.53-.14-.52-.52c0-.86,0-1.72,0-2.58,0-.41-.05-.79-.56-.81s-.7.34-.71.79c0,.84,0,1.67,0,2.5,0,.45-.14.63-.6.62s-.55-.2-.54-.59c0-.84,0-1.67,0-2.5,0-.41-.08-.79-.57-.82s-.69.36-.7.8c0,.83,0,1.67,0,2.5,0,.45-.15.62-.61.61s-.53-.22-.53-.61c0-1.21,0-2.42,0-3.63,0-.26-.12-.64.37-.63S316.45,9.77,316.33,10.49Z"/><path class="cls-1" d="M310.27,13.45c0-.88.66-1.42,1.88-1.7.28-.06.76.2.82-.38a.65.65,0,0,0-.41-.72.75.75,0,0,0-1,.34.61.61,0,0,1-1,.14c-.28-.24,0-.59.22-.83a2.45,2.45,0,0,1,2.41-.4c.79.3.84.93.87,1.64a4.56,4.56,0,0,0,.25,2.36c.2.34-.23.47-.41.68s-.39.21-.53,0c-.28-.45-.51-.26-.83,0a1.59,1.59,0,0,1-1.67.11C310.42,14.39,310.4,13.88,310.27,13.45Zm2.71-.59c.06-.4-.12-.54-.5-.5-.57.06-1,.3-1,.94,0,.4.14.7.58.68C312.81,13.94,312.91,13.4,313,12.86Z"/><path class="cls-1" d="M315.41,15.91l-.2.22a1.58,1.58,0,0,1-.77-.67A1.63,1.63,0,0,1,315.41,15.91Z"/><path class="cls-1" d="M440.81,14.65c0-1.51,0-2.79,0-4.08a2.26,2.26,0,0,0-2.22-2.39A2.23,2.23,0,0,0,436,10.46c-.05,1.13,0,2.26,0,3.39,0,.15,0,.38-.1.44s-.34-.07-.47-.19c-1.82-1.68-3.7-3.29-5.44-5a5.21,5.21,0,0,1,.21-7.63,5.37,5.37,0,0,1,7.66.39c.45.49.64.57,1.12,0a5.4,5.4,0,0,1,7.73-.36A5.11,5.11,0,0,1,446.86,9C445,10.86,443,12.64,440.81,14.65Zm-2.36-7.58a1.55,1.55,0,1,0-1.64-1.51A1.53,1.53,0,0,0,438.45,7.07Zm8.17-1.46A6.06,6.06,0,0,0,445.38,2c-.19-.2-.45-.44-.68-.27s.08.4.19.56a5.18,5.18,0,0,1-.06,6.15c-.11.16-.39.36-.19.54s.45,0,.62-.21A5.43,5.43,0,0,0,446.62,5.61Zm-16.3,0a4.87,4.87,0,0,0,1.26,3.14c.16.19.38.41.61.24s0-.38-.13-.53A5.09,5.09,0,0,1,432,2.35c.11-.16.39-.35.19-.54s-.46,0-.61.21A5.05,5.05,0,0,0,430.32,5.65Zm12.2,2.67c1.45-.4,2.16-2.27,1.7-4-.35-1.28-.87-1.83-1.59-1.63C444.05,4.52,443.84,6.36,442.52,8.32ZM434,2.54c-.33,0-.49.22-.65.44a4.24,4.24,0,0,0,0,4.75,2.17,2.17,0,0,0,.31.36c.16.15.37.3.57.12s0-.33-.14-.48a3.88,3.88,0,0,1-.63-3.27A4.77,4.77,0,0,1,434,3C434.14,2.84,434.34,2.61,434,2.54Zm.76,2.83a3,3,0,0,0,.72,1.8c.11.12.27.22.43.12s.07-.27,0-.41a3,3,0,0,1,0-3.06c.07-.13.2-.29,0-.42s-.31,0-.42.12A2.94,2.94,0,0,0,434.72,5.37Zm6.08,1.91c.87-.11,1.31-.82,1.31-1.94s-.46-1.83-1.32-1.92A3.1,3.1,0,0,1,440.8,7.28Z"/><path class="cls-1" d="M535.83,15.44c-1.66.75-2.9.64-3.88-.3a3.57,3.57,0,0,1-.49-4.17,3.2,3.2,0,0,1,3.83-1.21c.27.1.43.26.69-.14s.81-.19,1.21-.09.22.45.22.7c0,1.67,0,3.33,0,5a3.41,3.41,0,0,1-5,2.91c-.34-.17-.36-.39-.17-.63s.07-1,.77-.78a3.38,3.38,0,0,0,1.34.19A1.64,1.64,0,0,0,535.83,15.44Zm.07-2.63a1.66,1.66,0,0,0-1.6-1.75,1.62,1.62,0,0,0-1.65,1.69,1.62,1.62,0,0,0,1.63,1.71A1.66,1.66,0,0,0,535.9,12.81Z"/><path class="cls-1" d="M516.15,9.49c-1.15,0-2.31-.05-3.46,0-.53,0-.7-.17-.68-.69q0-1.6,0-3.21c0-.45.13-.62.6-.62,1.63,0,3.26,0,4.9,0a.83.83,0,0,1,.89.53c.56,1.27,1.12,2.54,1.69,3.81v.19h-4Z"/><path class="cls-1" d="M527.48,11.74v3.15c0,1-.62,1.41-1.51.94a.57.57,0,0,0-.61,0,3.16,3.16,0,0,1-3.8-.8,3.32,3.32,0,0,1-.1-4.09,3.09,3.09,0,0,1,3.85-1.09c.53.24.59.07.57-.39a9.2,9.2,0,0,0,0-1.05c-.11-.76.26-.89.92-.87s.71.17.7.7C527.46,9.38,527.48,10.56,527.48,11.74Zm-5,1a1.72,1.72,0,1,0,3.43.16,1.78,1.78,0,0,0-1.64-1.83A1.71,1.71,0,0,0,522.48,12.73Z"/><path class="cls-1" d="M551.26,12.7v2.17c0,1-.56,1.43-1.48.94a.59.59,0,0,0-.62,0,3.14,3.14,0,0,1-3.83-.92,3.31,3.31,0,0,1,0-4.1,3.24,3.24,0,0,1,3.83-1c.3.13.36.18.58-.15s.84-.2,1.27-.14.22.44.23.68C551.27,11,551.26,11.87,551.26,12.7Zm-1.5.12a1.75,1.75,0,1,0-3.49,0,1.75,1.75,0,1,0,3.49,0Z"/><path class="cls-1" d="M575,13.5a5.5,5.5,0,0,1-4.33,4.26,5.81,5.81,0,0,1-7-3.93c.12-.31.35-.18.58-.19.46,0,1,.24,1.34-.3a3.14,3.14,0,0,0,3.12,1.32,4,4,0,0,0,2-1.19l.72.23-1.5,1.56a.7.7,0,0,0-.1,1.06.71.71,0,0,0,1.13,0,10.82,10.82,0,0,0,2.37-2.68Z"/><path class="cls-1" d="M611.17,12c.37-.87.69-1.54.93-2.24s.94-.69,1.54-.63.6.58.6,1.05c0,1.31,0,2.63,0,3.94,0,.56-.18.84-.79.84s-.8-.3-.79-.85V12c-.52.24-.45.68-.59,1s-.25.87-.88.87-.75-.38-.91-.83a2.09,2.09,0,0,0-.6-1.1c0,.83,0,1.49,0,2.16s-.07.94-.77.92-.87-.36-.86-1c0-1.28,0-2.57,0-3.86,0-.51.1-.95.68-1s1.2-.19,1.48.58S610.8,11.15,611.17,12Z"/><path class="cls-1" d="M476.67,14c0-.94,0-1.88,0-2.82,0-.45.13-.62.59-.6.78,0,1.56,0,2.34,0a3.4,3.4,0,0,1,3.5,3.37,3.55,3.55,0,0,1-3.46,3.56c-.8.05-1.61,0-2.42,0-.42,0-.56-.14-.55-.56C476.68,16,476.67,15,476.67,14Zm1.44.06v1.77c0,.25,0,.51.34.53a3.19,3.19,0,0,0,2.21-.48,2.26,2.26,0,0,0,.66-2.92,2.83,2.83,0,0,0-2.91-1.23c-.29.08-.3.26-.3.48Z"/><path class="cls-1" d="M595.63,12.91c0,.41,0,.81,0,1.21s.18.69-.25.84a1,1,0,0,1-1.07-.14c-.34-.4-.55-.28-.9,0a2.14,2.14,0,0,1-1.47.32,1.8,1.8,0,0,1-1.74-1.5,1.76,1.76,0,0,1,1.35-1.86,7,7,0,0,1,1.82-.28c.17,0,.4.06.47-.2a.61.61,0,0,0-.2-.58,1.31,1.31,0,0,0-1.81.07.65.65,0,0,1-1.08.07.71.71,0,0,1,.1-1.18,3.73,3.73,0,0,1,3.46-.35c1.06.31,1.27,1.21,1.32,2.16C595.65,11.94,595.63,12.43,595.63,12.91Zm-1.76-.07c.06-.34-.1-.48-.49-.48-.68,0-1.48.45-1.44.9s.4.68.84.69A1.14,1.14,0,0,0,593.87,12.84Z"/><path class="cls-1" d="M584,12V9.94c0-.59.31-.81.86-.81s.87.21.9.79a1.93,1.93,0,0,1,0,.48c-.16.85.24,1,1,1s1-.27,1-1.05c-.06-1,.22-1.3,1-1.23.44,0,.72.22.72.69v4.43c0,.52-.27.71-.76.72s-.87,0-1-.61a2.61,2.61,0,0,1,0-.4c0-1.17-.55-1.53-1.69-1.21a.34.34,0,0,0-.3.39c0,.33,0,.65,0,1,0,.61-.3.86-.9.87s-.9-.24-.88-.86,0-1.4,0-2.1Z"/><path class="cls-1" d="M607.25,12.72c0,.48,0,1,0,1.45,0,.27.17.63-.21.78A.93.93,0,0,1,606,14.8c-.33-.37-.52-.21-.84,0a2.38,2.38,0,0,1-2.38.05,1.48,1.48,0,0,1-.86-1.43,1.63,1.63,0,0,1,1-1.51,5,5,0,0,1,2.2-.41c.64,0,.51-.34.3-.67a1.28,1.28,0,0,0-1.91-.06c-.39.46-.74.44-1.07.08a.77.77,0,0,1,.11-1.2,3.78,3.78,0,0,1,4.21.16,1.71,1.71,0,0,1,.5,1.23v1.7Zm-1.65.2c0-.28,0-.51-.36-.56-.67-.08-1.49.31-1.56.8s.22.69.62.78A1.2,1.2,0,0,0,605.6,12.92Z"/><path class="cls-1" d="M493.87,17.45c-1.39.19-1.4.2-1.86-.95a.53.53,0,0,0-.58-.41c-.48,0-1,0-1.45,0-.84,0-1.53-.06-1.76,1.07-.15.77-1,.23-1.52.41a10.77,10.77,0,0,1,.77-2c.61-1.51,1.28-3,1.87-4.52a.56.56,0,0,1,.73-.41c.38.06.88-.24,1.12.33Zm-3.63-2.38a3.84,3.84,0,0,1,.48,0c.7.1.78-.19.52-.76s-.49-1.24-.72-1.87c0-.13-.11-.24-.27-.24s-.21.11-.26.24c-.17.48-.36,1-.54,1.42C488.87,15.34,489,15.05,490.24,15.07Z"/><path class="cls-1" d="M599,10.59h-1.86a.67.67,0,0,1-.78-.72c0-.47.29-.63.72-.66a24,24,0,0,1,3.39,0c.31,0,.71,0,.81.39a1.19,1.19,0,0,1-.25,1.2c-.61.64-1.21,1.3-1.79,2-.18.21-.6.37-.44.68s.54.08.82.1.7,0,1,0,.81.18.78.72-.35.68-.82.68q-1.7,0-3.39,0c-.36,0-.72-.05-.88-.43a1,1,0,0,1,.19-1l2.07-2.37C598.69,11,598.77,10.87,599,10.59Z"/><path class="cls-1" d="M581.06,9.08a3.2,3.2,0,0,1,1.56.3c.45.25.69.6.41,1.13s-.57.38-1,.13a1.7,1.7,0,0,0-1.37-.28c-.26.07-.56.14-.53.5s.28.33.53.39a7.56,7.56,0,0,1,1.61.45,1.54,1.54,0,0,1,1,1.59,1.62,1.62,0,0,1-1.16,1.57,4.77,4.77,0,0,1-2.92,0,1.1,1.1,0,0,1-.8-.62.85.85,0,0,1,.22-1c.29-.29.48,0,.7.13a2.85,2.85,0,0,0,1.62.37c.29,0,.56-.17.58-.46s-.25-.43-.52-.5-.79-.16-1.17-.28c-1.08-.35-1.4-.82-1.33-1.88a1.76,1.76,0,0,1,1.6-1.55C580.41,9.09,580.74,9.1,581.06,9.08Z"/><path class="cls-1" d="M362.89,13.32V9.63a.56.56,0,0,0,.49.3c2,.29,4-.17,5.94.33l.48.49a22.12,22.12,0,0,1-2.42,2.42,2.7,2.7,0,0,0-1.29.16h0c-.45,0-.9,0-1.34-.09A3.11,3.11,0,0,0,362.89,13.32Z"/><path class="cls-1" d="M542.49,7.52c.62-.14.68.25.67.79s-.26,1.2.75,1.22c.41,0,.18.59.22.91s0,.5-.38.47c-.63-.05-.61.35-.6.78s0,1.07,0,1.61a1.18,1.18,0,0,0,.71,1.3c.75.34.13.75,0,1.11s-.41.37-.75.2a2.42,2.42,0,0,1-1.6-2.52c0-.56,0-1.13,0-1.69,0-.37.09-.74-.49-.82-.32,0-.39-1.27-.09-1.32.81-.14.56-.71.58-1.16C541.57,7.5,541.55,7.5,542.49,7.52Z"/><path class="cls-1" d="M518.48,13.18c-.74,1.68-1.49,3.36-2.33,5.28l-2-4.34a.58.58,0,0,1,.07-.46,27.61,27.61,0,0,1,1.3-2.75,2.19,2.19,0,0,0,1.16,1.34A14.06,14.06,0,0,1,518.48,13.18Z"/><path class="cls-1" d="M552.19,11c0-.94,0-1.88,0-2.82,0-.72.39-.66.87-.68s.76.12.75.71c0,1.72,0,3.44,0,5.16a1.08,1.08,0,0,0,.64,1.17c.75.33.23.77.09,1.18s-.53.27-.83.13a2.37,2.37,0,0,1-1.51-2.43C552.23,12.63,552.19,11.82,552.19,11Z"/><path class="cls-1" d="M461.72,10.58c.75,0,1.5,0,2.25,0,.5,0,.56.22.58.63s-.19.52-.58.53c-1.6,0-1.6.06-1.6,1.69,0,1.18,0,2.37,0,3.55,0,.57-.29.58-.7.57s-.72,0-.71-.56c0-1.5,0-3,0-4.51,0-.62-.19-.84-.78-.75-.21,0-.43,0-.64,0-.41,0-.71,0-.71-.56s.22-.61.67-.59C460.26,10.59,461,10.58,461.72,10.58Z"/><path class="cls-1" d="M498.6,14c0-1,0-1.94,0-2.9,0-.61.33-.55.71-.55s.75-.08.73.53c0,1.53,0,3.06,0,4.58,0,.53.16.73.69.7s1.08,0,1.61,0,.51.27.53.65-.15.54-.56.53c-1,0-2.09,0-3.13,0-.43,0-.56-.13-.55-.55C498.61,16,498.6,15,498.6,14Z"/><path class="cls-1" d="M367.38,13.17a22.12,22.12,0,0,0,2.42-2.42l.16,0a4.42,4.42,0,0,0,.92,1,4.92,4.92,0,0,0,.86,1c-2.19,1.23-4.37,2.47-6.57,3.68a4.93,4.93,0,0,1-1.64.81c.2-.22.38-.46.58-.67Z"/><path class="cls-1" d="M369.32,10.26c-2-.5-4,0-5.94-.33a.56.56,0,0,1-.49-.3V6.57c.1.62.22,1.22,1.1.95h2.59l1,.81,1.29,1.44.17.17h0l.16.17h0l.17.17Z"/><path class="cls-1" d="M324.11,9.76c1.26,0,1.73.5,1.79,1.71a5,5,0,0,0,.24,2.45c.21.36-.29.5-.49.72s-.42,0-.52-.13c-.21-.35-.39-.23-.64,0a1.58,1.58,0,0,1-1.88.12,1.29,1.29,0,0,1-.48-1.43,1.51,1.51,0,0,1,1.37-1.28l.62-.14c.25,0,.58.08.62-.33a.72.72,0,0,0-.32-.7.69.69,0,0,0-.83,0,.15.15,0,0,0-.06,0c-.21.5-.62.5-1.07.43a.21.21,0,0,1-.18-.29,1.41,1.41,0,0,1,.86-1A2.16,2.16,0,0,1,324.11,9.76Zm-.82,3.52c0,.4.12.72.57.71.71,0,.83-.57.9-1.13,0-.37-.09-.55-.49-.51C323.68,12.4,323.31,12.65,323.29,13.28Z"/><path class="cls-1" d="M336.76,10.52a1.35,1.35,0,0,1,1.56-.69c.69.2.85.77.86,1.4,0,1,0,2,0,3,0,.48-.21.58-.64.58s-.52-.23-.52-.61c0-.86,0-1.72,0-2.58,0-.38-.07-.72-.55-.74s-.59.29-.67.67a14.7,14.7,0,0,0-.07,2.57c0,.42,0,.71-.59.69s-.55-.27-.55-.66q0-1.82,0-3.63c0-.31,0-.6.43-.59S336.82,9.89,336.76,10.52Z"/><path class="cls-1" d="M330.89,12.44a3.21,3.21,0,0,1,.14-1.19,1.87,1.87,0,0,1,3.65,0,3.43,3.43,0,0,1,0,2,1.88,1.88,0,0,1-2,1.57,2,2,0,0,1-1.77-1.9A3.1,3.1,0,0,1,330.89,12.44Zm2.76-.28c0-.21,0-.59-.13-.95a.64.64,0,0,0-.72-.6c-.36,0-.54.28-.62.63a4.65,4.65,0,0,0,0,2.13c.07.33.24.6.64.61s.56-.23.69-.55A5.16,5.16,0,0,0,333.65,12.16Z"/><path class="cls-1" d="M518.48,13.18a14.06,14.06,0,0,0-1.76-.93,2.19,2.19,0,0,1-1.16-1.34l.59-1.42h4A26,26,0,0,1,518.48,13.18Z"/><path class="cls-1" d="M315.41,15.91a17.37,17.37,0,0,0,5.87,1.51,15.11,15.11,0,0,0,6.07-.91c.29-.1.56-.32.91-.21-1.82,2.94-9.63,2.84-13.05-.17Z"/><path class="cls-1" d="M538.33,12.64c0-.86,0-1.71,0-2.57,0-.63.33-.62.76-.6s.88-.14.87.58c0,1.77,0,3.54,0,5.31,0,.66-.42.57-.81.56s-.84.13-.82-.54C538.36,14.47,538.33,13.55,538.33,12.64Z"/><path class="cls-1" d="M530.11,12.77c0,.86,0,1.72,0,2.57s-.46.56-.86.59-.78,0-.77-.61q0-2.61,0-5.22c0-.67.38-.63.83-.64s.83,0,.8.66C530.08,11,530.11,11.89,530.11,12.77Z"/><path class="cls-1" d="M367.38,13.17l-3.27,3.34c-.2.21-.38.45-.58.67-.57,0-.66-.44-.66-.9,0-1,0-2,0-3a3.11,3.11,0,0,1,1.86-.08c.44.07.89.06,1.34.09l-.06.05.06-.05A2.7,2.7,0,0,1,367.38,13.17Z"/><path class="cls-1" d="M397.34,9.6c-.34.3-.55.47-.32.85a1.16,1.16,0,0,1-.3,1.59c-.56.46-.56.84,0,1.27a1.35,1.35,0,0,1,.69,1.5A1.73,1.73,0,0,1,396,16.05a3.33,3.33,0,0,1-1.6,0,1.14,1.14,0,0,1-.25-2.2,7.51,7.51,0,0,1,.91-.31c.19-.06.49,0,.43-.33s0-.54-.42-.66c-1-.29-1.31-.77-1.22-1.52a1.65,1.65,0,0,1,1.56-1.38c.35,0,.7,0,1.05,0Zm-1.74,6.17c.79,0,1.28-.34,1.3-.89a1.38,1.38,0,0,0-1.31-1.17c-.79,0-1.41.44-1.42,1S394.74,15.76,395.6,15.77Zm-1-4.89c0,.8.46,1.43,1,1.4s.78-.4.78-.93c0-.8-.52-1.47-1.11-1.43S394.6,10.38,394.62,10.88Z"/><path class="cls-1" d="M471,14.13c0,.94,0,1.88,0,2.82,0,.55-.23.63-.67.59s-.82.13-.81-.55q0-2.94,0-5.88c0-.69.44-.5.81-.54s.7,0,.67.58C471,12.14,471,13.14,471,14.13Z"/><path class="cls-1" d="M344.45,12c-.31.7-.6,1.4-.93,2.09-.11.26-.16.63-.53.64s-.41-.38-.53-.63a21.7,21.7,0,0,0-1-2,6,6,0,0,0-.22,2c0,.23.12.63-.3.61s-.25-.36-.25-.58q0-1.82,0-3.63c0-.22-.07-.52.29-.57s.42.19.51.42l1.14,2.84c.07.17.11.39.35.4s.28-.23.35-.39l1.07-2.7c.1-.27.18-.62.57-.57s.3.45.31.71c0,1.18,0,2.37,0,3.55,0,.22.07.55-.31.53s-.23-.32-.24-.52A5.58,5.58,0,0,0,344.45,12Z"/><path class="cls-1" d="M328.57,13.08l1.39.4c.47.14.44.52.36.85-.11.49-.44.13-.63.07a3.26,3.26,0,0,0-2.2,0c-.54.22-.62,0-.61-.47a2.18,2.18,0,0,1,.57-1.2c.35-.51.69-1,1-1.52s.16-.54-.29-.51h-.08c-.36-.12-1.06.34-1-.46s.67-.31,1-.36a8.65,8.65,0,0,1,1.44,0c.77,0,.93.3.51,1-.22.37-.48.71-.72,1.06Z"/><path class="cls-1" d="M368.83,9.77l-1.29-1.44,1-1.46,3.55,1.94a4,4,0,0,0-2.1,2l-.16,0-.48-.49h0l-.17-.17h0L369,9.94h0Z"/><path class="cls-1" d="M381.9,13.47a4.78,4.78,0,0,1-1.92.06,2.94,2.94,0,0,1-2.47-2.44,3.11,3.11,0,0,1,1.33-3.22,4,4,0,0,1,3.92-.23c.19.08.46.16.38.43a.94.94,0,0,1-.42.46c-.28.14-.22-.22-.34-.32a2.37,2.37,0,0,0-2.48-.48,2.24,2.24,0,0,0-1.52,2,3.19,3.19,0,0,0,2.25,3.48Z"/><path class="cls-1" d="M346.28,12.34c0-.59,0-1.19,0-1.78s.22-.78.77-.73.91.05,1.36.09a1.32,1.32,0,0,1,1.33,1.25c0,.7-.42,1.46-1.12,1.44-1.36,0-2,.38-1.72,1.8a.27.27,0,0,1-.32.35c-.26,0-.28-.22-.28-.41,0-.67,0-1.34,0-2Zm1.54-.27c.63,0,1.19,0,1.17-.83s-.64-.76-1.21-.82-.86.2-.87.86S347.23,12.16,347.82,12.07Z"/><path class="cls-1" d="M364,7.52c-.88.27-1-.33-1.1-.95.07-.76-.3-1.58.3-2.27a16.17,16.17,0,0,1,3.06,2.9l.17.16h0l.16.16H364Z"/><path class="cls-1" d="M391.25,9.46a2,2,0,0,1,2.07,2,2.16,2.16,0,0,1-2.14,2.09,2.06,2.06,0,0,1-2.15-2A2.15,2.15,0,0,1,391.25,9.46ZM392.44,12a3,3,0,0,0-.43-1.67,1.15,1.15,0,0,0-2.13.47,2.81,2.81,0,0,0,.23,1.49c.26.64.66,1.15,1.44,1A1.13,1.13,0,0,0,392.44,12Z"/><path class="cls-1" d="M388.46,11.46a2.13,2.13,0,0,1-2.08,2.13,2.06,2.06,0,0,1-2.18-2,2.13,2.13,0,0,1,2.17-2.12A2,2,0,0,1,388.46,11.46Zm-.88.44a2.77,2.77,0,0,0-.42-1.58,1.09,1.09,0,0,0-1.24-.52,1.07,1.07,0,0,0-.86.94,2.78,2.78,0,0,0,.22,1.56c.24.61.63,1.11,1.37,1S387.62,12.55,387.58,11.9Z"/><path class="cls-1" d="M565.58,7.52a5.88,5.88,0,0,1,7.32,0Z"/><path class="cls-1" d="M574.6,9.45a.42.42,0,0,1,0,.16l.12.17.23.8c-.31,0-.62-.1-.93-.1s-.92-.17-1.23.32a3.23,3.23,0,0,0-4.8,0l-.5-.5a6.1,6.1,0,0,1,1.15-1.12l4.67.16h0c.37-.26.75,0,1.13,0h0Zm-.77,0Z"/><path class="cls-1" d="M370,10.77a4,4,0,0,1,2.1-2l1.76,1c-.4.59-1.09.79-1.61,1.22s-.72.78-1.33.71A4.42,4.42,0,0,1,370,10.77Z"/><path class="cls-1" d="M480.8,4.12a1.89,1.89,0,0,1,.7.57c1.14,1.14,1.11,1.11,0,2.27-.51.53-.81.44-1.28,0-1.11-1.13-1.13-1.11,0-2.22Z"/><path class="cls-1" d="M486.43,2.1c-.21.17-.55.43-.86.73-.81.81-.8.82-1.63,0s-.95-.94,0-1.91a4.78,4.78,0,0,0,.39-.39c.31-.41.58-.37.89,0s.64.64,1,1A.6.6,0,0,1,486.43,2.1Z"/><path class="cls-1" d="M478.77,2.08a7.19,7.19,0,0,0-.84.61c-1,1-1,1-1.92,0-.12-.11-.22-.24-.35-.34-.45-.32-.44-.58,0-1,1.3-1.27,1.29-1.29,2.58,0A2.16,2.16,0,0,1,478.77,2.08Z"/><path class="cls-1" d="M482.7,2a7.9,7.9,0,0,0-.74.54c-1.11,1.06-1.09,1-2.22.06-.58-.5-.65-.82,0-1.38C480.9.15,480.86.1,482,1.28Z"/><path class="cls-1" d="M565.58,7.52h7.32a1.08,1.08,0,0,1,.61.5c-.48.46-1.08.22-1.63.26a12.87,12.87,0,0,0-2.91.09c-.57-.66-.89-.69-1.52-.14l-.54.47a.77.77,0,0,0-.84-.44c-.44,0-.88,0-1.32.05A2.69,2.69,0,0,1,565.58,7.52Z"/><path class="cls-1" d="M350.41,13.64c.33-.15.41.15.56.32a1.07,1.07,0,0,0,1.26.22.76.76,0,0,0,.48-.85c-.06-.53-.43-.71-.9-.76-.2,0-.5,0-.51-.27s.27-.28.48-.31c.43-.06.78-.23.85-.71a.76.76,0,0,0-.39-.82,1,1,0,0,0-1.18.2c-.15.13-.3.44-.51.23s0-.44.2-.6a1.6,1.6,0,0,1,2-.12,1.15,1.15,0,0,1,.14,1.72.39.39,0,0,0,0,.56c.64.88.64,1.45.06,2a1.81,1.81,0,0,1-2.3,0c-.08-.07-.14-.16-.22-.24Z"/><path class="cls-1" d="M401.32,11.23l.86-.4c.22-.1.51-.15.45-.48a.71.71,0,0,0-.55-.54.94.94,0,0,0-1.16.91c-.19,1.56.74,2.5,2.38,2.41a1.81,1.81,0,0,1-2.45,0,2.25,2.25,0,0,1-.4-2.8,1.93,1.93,0,0,1,2.35-.72,1,1,0,0,1,.65.76c0,.38-.4.38-.65.49-.45.2-.93.37-1.4.55Z"/><path class="cls-1" d="M406.41,13c-.22.75.08,1.49-.36,2.14V9.26c.27.47.47.49.85.21a1.6,1.6,0,0,1,2.61,1.19,3.65,3.65,0,0,1-.07,1.36C409.06,13.41,407.94,13.77,406.41,13Zm2.77-1.81c0-1-.54-1.67-1.34-1.68s-1.51.74-1.51,1.9.54,1.72,1.38,1.73S409.18,12.31,409.18,11.15Z"/><path class="cls-1" d="M399.68,13.45l-.71,0c-.47,0-.64-.09-.62-.62.06-1.53,0-3.06.11-4.59,0-.29-.53-.63,0-.86s.88,0,.81.63c-.17,1.52,0,3-.11,4.58C399.16,13,399.49,13.15,399.68,13.45Z"/><path class="cls-1" d="M370.88,11.73c.61.07.94-.4,1.33-.71s1.21-.63,1.61-1.22c.15.07.3.12.44.2s.63.27.65.66-.33.52-.61.67a19.62,19.62,0,0,1-2.56,1.36A4.92,4.92,0,0,1,370.88,11.73Z"/><path class="cls-1" d="M569,8.36a12.87,12.87,0,0,1,2.91-.09c.55,0,1.15.2,1.63-.26a3.18,3.18,0,0,1,1,1.29c-.38,0-.76-.26-1.13,0h0l-4.67-.16A1.46,1.46,0,0,0,569,8.36Z"/><path class="cls-1" d="M412.35,9.83A1.64,1.64,0,0,1,414,9.15a1.09,1.09,0,0,1,1,.89,12.24,12.24,0,0,1,.11,3c0,.16-.2.39-.28.22-.27-.58-.48-.14-.7,0a1.45,1.45,0,0,1-1.6,0,1.08,1.08,0,0,1-.45-1.13c.08-.63.54-.89,1.09-1,.23-.06.47-.1.71-.14s.82,0,.77-.58a.84.84,0,0,0-1-.85A8.77,8.77,0,0,0,412.35,9.83Zm1.86,1.4c-1.1,0-1.78.39-1.77,1s.41.84,1,.84a1.38,1.38,0,0,0,1.3-1.37C414.71,11.34,414.59,11.15,414.21,11.23Z"/><path class="cls-1" d="M417.56,12.71,419,9.23c.15.13.18.16.18.17A33.42,33.42,0,0,1,417,14.83c-.2.4-.61.54-1.31.27a1.84,1.84,0,0,0,1.46-1.32c.24-.6-.07-1-.24-1.54A25.66,25.66,0,0,1,416,9.35C416.73,10.3,416.9,11.53,417.56,12.71Z"/><path class="cls-1" d="M564.75,8.3c.44,0,.88,0,1.32-.05a.77.77,0,0,1,.84.44l-1.12,1.14c-.65-.42-1.32,0-2-.05A3.36,3.36,0,0,1,564.75,8.3Z"/><path class="cls-1" d="M540.11,7.9c0,.68-.39,1-1,1a.91.91,0,0,1-1-1,1,1,0,0,1,1.92-.07Z"/><path class="cls-1" d="M366.25,7.2a16.17,16.17,0,0,0-3.06-2.9.65.65,0,0,1,.75,0l2.79,1.58a4.14,4.14,0,0,0-.32,1.29Z"/><path class="cls-1" d="M529.57,7c.37,0,.71.33.72.93a.9.9,0,0,1-.94,1,.93.93,0,0,1-1-1C528.37,7.42,528.69,7,529.57,7Z"/><path class="cls-1" d="M444.35,18.34c-.22.4-.57.28-.83.13s-.39-.67-.33-1.08.17-.66.56-.67.75,0,.7-.58c0-.15.14-.2.29-.19s.28.12.28.3c0,.64,0,1.29,0,1.93s-.45.15-.69.17a2.56,2.56,0,0,0,.1-.54c0-.25.11-.56-.2-.71a.28.28,0,0,0-.41.13,1,1,0,0,0,0,.92C444,18.33,444.18,18.28,444.35,18.34Z"/><path class="cls-1" d="M366.41,7.2a4.14,4.14,0,0,1,.32-1.29,9.84,9.84,0,0,1,1.78,1l-1,1.46-1-.81h0l-.16-.16h0A.81.81,0,0,1,366.41,7.2Z"/><path class="cls-1" d="M572.83,10.8c.31-.49.8-.31,1.23-.32s.62.07.93.1a1.73,1.73,0,0,1,.14,1c-.28.33-.67.24-1,.24s-.62.2-.62.61A5.91,5.91,0,0,0,572.83,10.8Z"/><path class="cls-1" d="M431.48,17.48c0,.34,0,.48,0,.61s0,.4-.27.39-.21-.19-.25-.34c-.1-.35.22-1-.33-1s-.24.64-.32,1c-.05.19-.07.38-.33.35s-.24-.18-.24-.35c0-.61,0-1.23,0-1.84,0-.16,0-.33.24-.35s.33.15.32.36c0,.36.08.48.5.42C431.54,16.61,431.47,17.21,431.48,17.48Z"/><path class="cls-1" d="M347.24,7.51h-1.6c-.21,0-.37-.1-.35-.34a.3.3,0,0,1,.33-.28h3.12a.27.27,0,0,1,.3.3c0,.24-.14.33-.36.33h-1.44Z"/><path class="cls-1" d="M347.22,8.81h-1.45c-.22,0-.47,0-.48-.3s.23-.33.45-.33h2.82c.22,0,.46,0,.47.32s-.3.31-.52.31h-1.29Z"/><path class="cls-1" d="M381.9,13.47l-1.27-.26c.3,0,.59,0,.88,0s.92.09.93-.58,0-1.07-.84-1a1.86,1.86,0,0,1,1.64-.15c.37.16.07.72.12,1.1s0,.61-.37.69Z"/><path class="cls-1" d="M342.63,6.23h-1.37c-.24,0-.51,0-.5-.37s.27-.28.47-.28h2.65c.23,0,.53,0,.55.31s-.28.33-.52.34Z"/><path class="cls-1" d="M342.57,7.51h-1.45c-.21,0-.38-.1-.36-.34a.31.31,0,0,1,.34-.28h3c.21,0,.38.1.35.34s-.22.28-.41.29h-1.45Z"/><path class="cls-1" d="M342.58,8.81h-1.45c-.19,0-.38,0-.37-.3s.17-.33.37-.33h3c.21,0,.37.11.34.35a.29.29,0,0,1-.33.27h-1.52Z"/><path class="cls-1" d="M351.63,6.88h1.29c.2,0,.38.05.4.29s-.17.33-.37.33h-2.73c-.2,0-.39-.06-.4-.3s.22-.33.44-.34Z"/><path class="cls-1" d="M351.51,8.81h-1.29c-.2,0-.39-.06-.4-.3s.16-.33.36-.33h2.73c.2,0,.4.05.41.29s-.23.33-.45.34Z"/><path class="cls-1" d="M351.51,6.22c-.43,0-.86,0-1.29,0-.2,0-.39,0-.4-.29s.15-.34.35-.34H353a.31.31,0,0,1,.33.29c0,.24-.16.33-.36.34-.48,0-1,0-1.45,0Z"/><path class="cls-1" d="M447.58,16.68a.87.87,0,0,1,.94,1,.86.86,0,0,1-1,.94.85.85,0,0,1-.93-1C446.62,17,447,16.7,447.58,16.68Zm-.4,1c.05.26,0,.59.42.54s.32-.36.32-.62,0-.51-.36-.5S447.22,17.4,447.18,17.65Z"/><path class="cls-1" d="M433.54,18.4a1.09,1.09,0,0,1-1.31,0,1,1,0,0,1-.24-1.11.77.77,0,0,1,.79-.56c.47,0,.8.14.88.62s-.39.42-.69.49c-.12,0-.27,0-.32.2C432.81,18.38,433.26,18.05,433.54,18.4Zm-.68-1.4c-.17,0-.3.08-.3.28s.11.22.26.23.33,0,.35-.23S433,17,432.86,17Z"/><path class="cls-1" d="M563.44,13a3,3,0,0,1-.08-1.3h.14c.27.19.58.07.87.08s.59-.12.75.24l.2.79A11.87,11.87,0,0,1,563.44,13Z"/><path class="cls-1" d="M441.72,16.7c.67-.07.94.21,1,.77,0,.35.06.7.09,1.05a6.88,6.88,0,0,0-1.28,0,.43.43,0,0,1-.48-.35.5.5,0,0,1,.31-.59,2.31,2.31,0,0,1,.47-.12c.13,0,.28-.05.26-.23s-.18-.14-.3-.2-.55.32-.54-.14C441.22,16.63,441.6,16.76,441.72,16.7Zm.06,1.05c-.08,0-.26.09-.25.29a.26.26,0,0,0,.32.26.28.28,0,0,0,.25-.34C442.09,17.81,442,17.72,441.78,17.75Z"/><path class="cls-1" d="M328.61,17.77c.15-.55.25-1,.37-1.36.2-.62-.06-.84-.66-.82H327a3,3,0,0,1,2.33-.46.4.4,0,0,1,.36.46A2.93,2.93,0,0,1,328.61,17.77Z"/><path class="cls-1" d="M565.12,12c-.16-.36-.47-.23-.75-.24s-.6.11-.87-.08v-.83a.28.28,0,0,1,0-.13h.15a1.76,1.76,0,0,1,1-.16h0c.23-.09.46-.28.67,0a.19.19,0,0,1,0,.12.74.74,0,0,0-.13.52Z"/><path class="cls-1" d="M410.87,7.39v5.79h-.17V7.39Z"/><path class="cls-1" d="M573.48,12.41c0-.41.19-.61.62-.61s.75.09,1-.24a2.69,2.69,0,0,1,0,1.13,1.52,1.52,0,0,1-1.61.16Z"/><path class="cls-1" d="M342.58,4.82h-1.44c-.19,0-.39-.06-.36-.32s.2-.23.36-.23h3c.17,0,.33.07.33.27s-.17.27-.33.27c-.51,0-1,0-1.52,0Z"/><path class="cls-1" d="M434.35,18.52c-.52-.43-.39-.74.18-1,.18-.07.54,0,.5-.25s-.38-.17-.6-.19a1.07,1.07,0,0,1-.25-.1c.3-.46.72-.31,1.08-.24s.38.34.4.62a1.35,1.35,0,0,1,0,.4c-.08.24.29.58-.05.71s-.43-.24-.49-.53a.25.25,0,0,0-.29-.21c-.33.07-.32.31-.28.57Z"/><path class="cls-1" d="M564.63,10.59a1.76,1.76,0,0,0-1,.16h-.15a1.68,1.68,0,0,1,.29-1c.66.05,1.33-.37,2,.05l-.49.8c-.21-.32-.44-.13-.67,0Z"/><path class="cls-1" d="M439,18.48c-.66.14-.91-.08-.94-.59a2.2,2.2,0,0,0-.09-.78c-.2-.4.09-.54.29-.73s.3-.12.34.11.64.25.11.69C438.37,17.46,438.54,18.07,439,18.48Z"/><path class="cls-1" d="M563.44,13a11.87,11.87,0,0,0,1.88-.2l.26.51c-.34.54-.88.29-1.34.3-.23,0-.46-.12-.58.19C563.44,13.6,563.5,13.3,563.44,13Z"/><path class="cls-1" d="M428.57,17.73c0-.3,0-.48,0-.67s.09-.31.29-.3a.28.28,0,0,1,.3.3,2.1,2.1,0,0,1,0,.56c-.07.3.25.83-.25.86C428.24,18.52,428.76,17.88,428.57,17.73Z"/><path class="cls-1" d="M446.16,17.58v.54c0,.19,0,.39-.27.4s-.35-.17-.34-.41a2.57,2.57,0,0,1,0-.48c.06-.32-.23-.9.36-.86S446.05,17.35,446.16,17.58Z"/><path class="cls-1" d="M439.5,17.54c.07-.23-.11-.77.11-.73a3.71,3.71,0,0,0,1.06-.07s.09.14.07.18-.13.21-.2.21c-.57,0-.5.42-.51.8,0,.21.13.55-.24.56s-.25-.36-.29-.59A2.14,2.14,0,0,1,439.5,17.54Z"/><path class="cls-1" d="M573.5,12.85a1.52,1.52,0,0,0,1.61-.16,1.06,1.06,0,0,1-.15.81l-1.62.16Z"/><path class="cls-1" d="M436.81,17.25s0,.06,0,.08c-.08.38.15.8-.18,1.13,0,0-.25,0-.27-.06a2.25,2.25,0,0,1,0-1.47c.13-.43.34-.08.48.09Z"/><path class="cls-1" d="M429.18,16.11a.26.26,0,0,1-.31.27.25.25,0,0,1-.29-.29c0-.16.13-.22.27-.23S429.17,15.9,429.18,16.11Z"/><path class="cls-1" d="M445.84,16.39c-.16,0-.3-.09-.29-.29s.18-.24.34-.23a.23.23,0,0,1,.24.24C446.14,16.3,446,16.39,445.84,16.39Z"/><path class="cls-1" d="M436.81,17.25V17l.25-.19c.13-.09.31-.21.41,0s0,.34-.25.38Z"/><path class="cls-1" d="M563.49,10.89v.83h-.14A1.08,1.08,0,0,1,563.49,10.89Z"/><path class="cls-1" d="M350.41,13.64v.51C350.26,14,350.08,13.81,350.41,13.64Z"/><path class="cls-1" d="M520.1,9.48V9.29C520.17,9.34,520.2,9.41,520.1,9.48Z"/><path class="cls-1" d="M574.6,9.45l-.12-.15Z"/><path class="cls-1" d="M574.76,9.78l-.12-.17Z"/><path class="cls-1" d="M446.62,5.61a5.43,5.43,0,0,1-1.36,3.2c-.17.17-.4.41-.62.21s.08-.38.19-.54a5.18,5.18,0,0,0,.06-6.15c-.11-.16-.5-.34-.19-.56s.49.07.68.27A6.06,6.06,0,0,1,446.62,5.61Z"/><path class="cls-1" d="M430.32,5.65A5.05,5.05,0,0,1,431.57,2c.15-.18.38-.42.61-.21s-.08.38-.19.54a5.09,5.09,0,0,0,.07,6.15c.11.15.4.34.13.53s-.45,0-.61-.24A4.87,4.87,0,0,1,430.32,5.65Z"/><path class="cls-1" d="M442.52,8.32c1.32-2,1.53-3.8.11-5.63.72-.2,1.24.35,1.59,1.63C444.68,6.05,444,7.92,442.52,8.32Z"/><path class="cls-1" d="M434,2.54c.38.07.18.3.07.46a4.77,4.77,0,0,0-.64,1.46A3.88,3.88,0,0,0,434,7.73c.1.15.33.3.14.48s-.41,0-.57-.12a2.17,2.17,0,0,1-.31-.36,4.24,4.24,0,0,1,0-4.75C433.47,2.76,433.63,2.54,434,2.54Z"/><path class="cls-1" d="M434.72,5.37a2.94,2.94,0,0,1,.74-1.85c.11-.12.27-.22.42-.12s.05.29,0,.42a3,3,0,0,0,0,3.06c.07.14.19.3,0,.41s-.32,0-.43-.12A3,3,0,0,1,434.72,5.37Z"/><path class="cls-1" d="M440.8,7.28a3.1,3.1,0,0,0,0-3.86c.86.09,1.32.81,1.32,1.92S441.67,7.17,440.8,7.28Z"/><path class="cls-1" d="M570.72,13.47l.38-.46c.21-.33.2-.79.64-1a1.23,1.23,0,0,1-.3,1.66Z"/><path class="cls-1" d="M369.15,10.1l.17.17Z"/><path class="cls-1" d="M368.83,9.77l.17.17Z"/><path class="cls-1" d="M369,9.94l.16.17Z"/><path class="cls-1" d="M366.09,13.33l-.06.05.06-.05Z"/><path class="cls-1" d="M366.41,7.2a.81.81,0,0,0,0,.16l-.17-.16Z"/><path class="cls-1" d="M364,7.52Z"/><path class="cls-1" d="M366.41,7.36l.16.16Z"/><path class="cls-1" d="M566.72,11.9c-.18-.77.31-1.21.81-1.64l.5.5a3.91,3.91,0,0,0-.66,1A1,1,0,0,0,566.72,11.9Z"/><path class="cls-1" d="M573.35,9.3Z"/><path class="cls-1" d="M573.83,9.46Z"/><path class="cls-1" d="M573.83,9.46Z"/><path class="cls-1" d="M565.26,10.75a.74.74,0,0,1-.13.52A.74.74,0,0,1,565.26,10.75Z"/><path class="cls-1" d="M564.63,10.59Z"/><path class="cls-1" d="M563.67,10.75h0Z"/><path class="cls-1" d="M566.72,11.9a1,1,0,0,1,.65-.18c.39.85.63.93,1.44.48L569,12h0l.18-.17h0l.18-.16h0l.17-.15h0c.21.26.56.12.8.3l-.06,0h-.06L570,12h0l-.14.13,0,0-.13.14a1.66,1.66,0,0,1-1.85.82A1.31,1.31,0,0,1,566.72,11.9Z"/><path class="cls-1" d="M570.28,11.87c-.24-.18-.59,0-.8-.3a1.38,1.38,0,0,1,2.26.47c-.44.18-.43.64-.64,1C571.25,12.32,571,12,570.28,11.87Z"/><path class="cls-1" d="M569.48,11.57l-.17.15Z"/><path class="cls-1" d="M569.31,11.72l-.18.16Z"/><path class="cls-1" d="M569.15,11.87,569,12Z"/><path class="cls-1" d="M569,12l-.17.17Z"/><path class="cls-1" d="M570,12l.21-.13Z"/><path class="cls-1" d="M569.79,12.16l.14-.13Z"/><path class="cls-1" d="M569.63,12.33l.13-.14Z"/><path class="cls-1" d="M8.15,8.65A6.86,6.86,0,0,1,9.21,7.06a4.17,4.17,0,0,1,6.47.8c.35.61.48.71.88,0a4.11,4.11,0,0,1,7.09,0c.41.69.53.54.88,0A4.07,4.07,0,0,1,29.13,6a4.39,4.39,0,0,1,3.16,3.79,4.42,4.42,0,0,1-2.41,3.91,4.07,4.07,0,0,1-4.57-.64c-.31-.28-.58-.61-.93-1a3.14,3.14,0,0,0-.13,1.4c0,.49-.19.7-.67.66a2.61,2.61,0,0,0-.56,0c-.66.07-.92-.17-.89-.86,0-1.07,0-2.15,0-3.22a2,2,0,1,0-4.06,0c0,1.13,0,2.26,0,3.38,0,.52-.2.7-.72.72C16,14.21,16,14.22,16,12.9a1,1,0,0,0-.19-.8,4.34,4.34,0,0,1-4,2,4.24,4.24,0,0,1-3.6-2.74A8.47,8.47,0,0,1,7.1,12.9a4,4,0,0,1-4.16,1c-.66-.21-.82,0-.77.59,0,.19,0,.38,0,.57,0,1.3-.53,1.68-1.78,1.32A.46.46,0,0,1,0,15.88c0-2.13-.07-4.26,0-6.37A4,4,0,0,1,3.22,6,4.14,4.14,0,0,1,7.77,8C7.87,8.15,8,8.33,8.15,8.65ZM14.21,10A2.12,2.12,0,0,0,12.15,7.9,2.17,2.17,0,0,0,10.06,10a2.08,2.08,0,0,0,4.15,0ZM26,9.9a2,2,0,0,0,2,2.15,2.1,2.1,0,0,0,2.11-2,2.16,2.16,0,0,0-2-2.13A2.08,2.08,0,0,0,26,9.9ZM2.12,10a2,2,0,1,0,2-2.06A2,2,0,0,0,2.12,10Z"/><path class="cls-1" d="M169,10.59c-.9-.86-.89-.85-1.83-.12-.79.6-1.62,1.13-2.63.41-.24-.18-.38,0-.56.15a2.9,2.9,0,0,1-.74.47.91.91,0,0,1-1.32-.9,3.58,3.58,0,0,1,.3-1.25c.1-.3.42-.73,0-.92s-.67.26-.84.64c-.35.81-.69,1.63-1,2.44q-.09.22-.18.42a.67.67,0,0,1-.46-.36c-.26-.37-.49-.33-.78,0a3.92,3.92,0,0,1-1.26.86,1.45,1.45,0,0,1-1.66-.21c-.32-.31-.51-.27-.78,0a3,3,0,0,1-1,.72c-.27.11-.6.16-.72-.11-.28-.61-.44-.43-.83-.07s-1.15,1-1.89.24c-.15-.15-.29,0-.43,0s-.46.29-.7.41c-.39.2-.8.36-1.2,0a1.25,1.25,0,0,1-.36-1.18c0-.28.37-.7-.05-.82s-.78.2-.91.69a3.29,3.29,0,0,1-2.64,2.62,1.47,1.47,0,0,1-1.76-.8,1,1,0,0,1,.62-1.47l2.05-.71c.74-.27.89-.65.48-1.34a3.74,3.74,0,0,0-.51-.62,1.94,1.94,0,0,1,.52-3.27,2.43,2.43,0,0,1,2.39-.12,1.1,1.1,0,0,1,.62,1.27c-.08.57-.55.49-.92.59s-.58,0-.45-.47c.09-.3.18-.68-.23-.84s-.65.14-.85.43c-.56.82-.8,1.76.19,2.49a4.93,4.93,0,0,1,.42.49c.21.19.09.76.58.61s1-.17,1.23-.78c.49-1.25,1-2.48,1.56-3.71a2.22,2.22,0,0,1,.23-.52,1,1,0,0,1,1.14-.33c.32.14,0,.51-.12.75-.72,1.77-1.48,3.52-2.19,5.29-.13.31-.58.84,0,1a1,1,0,0,0,1.14-.79,18.15,18.15,0,0,1,1.24-3.14c.49-1.12,1.05-1.34,2.21-1a.42.42,0,0,0,.42-.1,2.59,2.59,0,0,1,1.35-.32c-.54,1.29-1.05,2.48-1.54,3.68-.1.25-.43.54-.08.78s.54-.09.76-.28a2.41,2.41,0,0,0,.68-1c.34-.88.73-1.74,1.09-2.6a1.82,1.82,0,0,1,1.18-1.13c.89-.26,1.75,0,1.83.62.11.82,0,1.39-1.33,1.5.1-.37.2-.72.3-1.06s.09-.45-.17-.55a.37.37,0,0,0-.46.23,15.12,15.12,0,0,0-1.36,3.34c-.14.59.26.9.81.65a4,4,0,0,0,2.33-2.1c.66-1.64,1.42-3.25,2-4.91.31-.81.83-.94,1.64-.86-.45,1.08-.89,2.12-1.31,3.15-.08.19-.29.43-.09.59s.43-.09.59-.24a1.16,1.16,0,0,0,.38-.51c.19-.73.72-.86,1.35-.85a.18.18,0,0,1,0,.28c-.87,1-.75,2.32-1.2,3.45-.12.28-.31.69.09.83s.54-.2.65-.6a19.3,19.3,0,0,1,1.42-3.5,1.86,1.86,0,0,1,2.25-.78.8.8,0,0,1,.62.84c0,.48,0,1.07-.6,1.31s-1,.36-1.52.52a.92.92,0,0,0-.67.52c-.18.49-.6,1-.08,1.49s.93,0,1.31-.3a5.33,5.33,0,0,0,2.37-2.75c.25-.76.62-1.49.94-2.23.2-.44.47-.49.78-.12.5.6,1,1.21,1.47,1.82a.78.78,0,0,1,.09.91c-.13.26-.23.54-.34.82-.36.9-.25,1.07.7,1.07-.38.64-1.16,1-1.63.73-.68-.4-.58-1-.33-1.62l.57-1.34a.7.7,0,0,0,0-.76c-.11-.15-.17-.39-.38-.39s-.25.26-.32.42C170.11,7.81,169.54,9.17,169,10.59Zm-16.84,1.73a.81.81,0,0,0,.57-.42c.44-1,.86-2,1.28-2.94a.41.41,0,0,0-.2-.55.41.41,0,0,0-.61.2c-.46,1.05-.91,2.11-1.34,3.17A.37.37,0,0,0,152.11,12.32Zm-6.38-.15-1.32.45c-.37.13-.42.44-.41.78a.53.53,0,0,0,.39.54.71.71,0,0,0,.77-.32A3.32,3.32,0,0,0,145.73,12.17ZM167.3,6.52c0-.22,0-.53-.22-.49-.7.09-.66.81-.92,1.27-.07.14-.07.35.18.32C167,7.56,167.22,7.1,167.3,6.52Z"/><path class="cls-1" d="M236.65,9.09a14,14,0,0,0,0,1.45,1.5,1.5,0,0,1-1,1.7c-.88.39-1.74.85-2.59,1.31a1.5,1.5,0,0,1-1.53,0c-1-.51-2-1-2.94-1.51a1.31,1.31,0,0,1-.78-1.3c0-1.13,0-2.26,0-3.38A1.4,1.4,0,0,1,228.52,6c1.21-.71,2.42-1.4,3.62-2.12.5-.29.6-.06.6.4,0,1.1,0,2.2,0,3.3,0,.43-.1.69-.6.77a1.71,1.71,0,0,0-1.39,1.21,1.1,1.1,0,0,0,.22,1.27,1.12,1.12,0,0,0,1.29.1,1.7,1.7,0,0,0,1-1.59c0-1.13,0-2.26,0-3.39s0-1.11,1-.68c.54.25,1.08.48,1.63.71a1.1,1.1,0,0,1,.73,1.13c0,.65,0,1.29,0,1.94Z"/><path class="cls-1" d="M117.5,13.86c.87-2.35,1.66-4.48,2.43-6.62.18-.48.32-.79,1-.8s.8.34,1,.81c.72,2,1.43,4,2.19,6,.22.56.09.67-.46.65s-1.33.14-1.42-.83c0-.3-.33-.3-.58-.3-.43,0-.86,0-1.29,0a.66.66,0,0,0-.8.58c-.08.43-.3.57-.73.55-.94,0-1.88,0-2.82,0a.73.73,0,0,1-.78-.53c-.27-.62-.59-1.21-.86-1.82a.57.57,0,0,0-.68-.42c-.41.07-.27.4-.28.64s0,.7,0,1c0,1-.48,1.36-1.47,1.07-.26-.08-.24-.25-.24-.43,0-2.18,0-4.36,0-6.54,0-.31.12-.43.43-.42,1,0,1.93,0,2.89,0a2.1,2.1,0,0,1,2,1.57,2.08,2.08,0,0,1-.73,2.45c-.2.15-.41.25-.23.57C116.5,11.94,116.94,12.8,117.5,13.86Zm-3.37-4.24c.66.09,1.23-.11,1.23-.8S114.82,8,114.22,8s-.89.14-.88.83S113.49,9.76,114.13,9.62Zm6.76-.31c-.23.63-.4,1.1-.56,1.57,0,.15-.12.34.07.41a1.77,1.77,0,0,0,1,0c.17,0,.18-.2.13-.33A5.4,5.4,0,0,0,120.89,9.31Z"/><path class="cls-1" d="M105.77,6.77c-.61,2.27-1.47,4.47-2.18,6.72-.18.54-.6.31-.94.36s-.55-.11-.67-.49c-.66-2-1.35-4.07-2-6.1a.78.78,0,0,0-.38-.56V10c0,.38,0,.75,0,1.13a2.53,2.53,0,0,1-1.43,2.5A3.08,3.08,0,0,1,95,13.42a2.2,2.2,0,0,1-1-1.89c0-1.51,0-3,0-4.52,0-.87.59-.47.95-.52s.8-.14.77.55c-.06,1.34,0,2.69,0,4,0,.6.15,1.14.83,1.3s1.33-.3,1.35-1.18c0-1.32,0-2.63,0-3.95,0-.66.21-.81.82-.77a20.12,20.12,0,0,0,2.33,0c.44,0,.61.16.72.54.33,1.15.69,2.29,1.1,3.64.67-1.44.81-2.85,1.41-4.08h1.18l.17,0Z"/><path class="cls-1" d="M40.47,9.61a4.86,4.86,0,0,0,2.91,4.81,4.67,4.67,0,0,0,5.33-.77A4.79,4.79,0,0,0,50.2,8.39c-.28-1-.38-1-1.26-.45-.23.15-.4.26-.61,0s-.11-.48.15-.66L48.87,7c1.21-.87,1.29-.86,1.88.54a5.53,5.53,0,0,1-.52,5.67,5.72,5.72,0,0,1-5.42,2.55,6.1,6.1,0,0,1-5.21-5.37,6.06,6.06,0,0,1,4.25-6.06,5.6,5.6,0,0,1,4.27.46c.2.1.65.14.45.51a.59.59,0,0,1-.84.2,5,5,0,0,0-7.26,4.13Z"/><path class="cls-1" d="M92,9.58c1.57,0,1.57,0,1.36,1.93a2.53,2.53,0,0,1-2.2,2.33c-1.65.22-2.89-.33-3.32-1.61a6.82,6.82,0,0,1,0-4.35,2.63,2.63,0,0,1,2.86-1.63,2.67,2.67,0,0,1,2.56,1.86c.14.43.06.6-.41.56s-1.14.14-1.6-.55a1,1,0,0,0-1.77.45,6.64,6.64,0,0,0,0,3,.91.91,0,0,0,.93.74,1.08,1.08,0,0,0,1.15-.7c.17-.42.13-.72-.4-.67-.78.09-.59-.45-.63-.88s.29-.53.66-.52Z"/><path class="cls-1" d="M106.09,6.57a34.08,34.08,0,0,1,4.63-.07c.72,0,.28.6.36.92s0,.63-.47.61c-.75,0-1.51,0-2.26,0-.45,0-.57.18-.51.57s-.17.81.48.8,1.18,0,1.77,0,.53.43.54.8.11.84-.57.77-1.18,0-1.77,0-.48.31-.44.64-.22.81.45.8,1.5,0,2.25,0,.53.42.54.79.09.74-.53.72c-1.31,0-2.63,0-3.94,0-.42,0-.57-.11-.56-.54,0-2.25,0-4.51,0-6.76Z"/><path class="cls-1" d="M125.62,9.11h2.08a.8.8,0,0,0,.93-.67c.2-.69.47-1.36.74-2.13a7.71,7.71,0,0,1,.83,2.11.85.85,0,0,0,1,.7c.68,0,1.37,0,2.05,0l.06.21c-.54.4-1.06.85-1.64,1.21a.85.85,0,0,0-.39,1.2c.25.64.41,1.31.69,2.2-.79-.54-1.41-.93-2-1.37a.77.77,0,0,0-1.12,0A7.49,7.49,0,0,1,127,13.67c.19-.66.36-1.33.6-2a.83.83,0,0,0-.35-1.16c-.57-.37-1.1-.82-1.65-1.23Z"/><path class="cls-1" d="M251,8.2c0-.89,0-1.77,0-2.66a1.15,1.15,0,0,1,1.19-1.09c.3,0,.26.22.26.4,0,.46,0,.91,0,1.37s.18.6.58.38a2.31,2.31,0,0,1,2.94.46,2.55,2.55,0,0,1,.52,2.84,2.84,2.84,0,0,1-2.61,1.82c-.37,0-.65,0-.63-.49s-.14-.74.48-.81a1.66,1.66,0,0,0,1.61-2A1.07,1.07,0,0,0,254,7.46a1.87,1.87,0,0,0-1.54,1.81c0,.62,0,1.24,0,1.85s-.35.61-.79.62-.68-.15-.67-.64C251,10.13,251,9.16,251,8.2Z"/><path class="cls-1" d="M299.77,5.76a2.29,2.29,0,0,1,1.47.32c-.61.09-.38,1-1.27,1,1,.43,1.09.53,1.4,1.06.47.79,1.12.75,1.64-.09a2.32,2.32,0,0,1,.13,1.79c-.27.08-.56.14-.83.23s-.65.34-.53.75a1.43,1.43,0,0,1-.39,1.3,3.26,3.26,0,0,1-4.73-1.14c.22-.26,0-.5,0-.75s-.08-.39.12-.41c1-.09.43-1,.31-1.06-.86-.7-.14-1,.27-1.4A4.64,4.64,0,0,1,299,6.38C299.3,6.25,299.64,6.14,299.77,5.76Zm-.49,4.88,1,0c.07.09-.18.36.14.32A1.47,1.47,0,0,0,301.24,9c-.52-1.14-1.26-1.54-2.15-1.16s-1.07,1.22-.6,2.28c-.14.36,0,.8-.41,1.09-.2.13,0,.35.14.45a2.27,2.27,0,0,0,2.18.21,1.41,1.41,0,0,0-.81-.43C299.15,11.28,299.05,11,299.28,10.64Z"/><path class="cls-1" d="M262.85,8.91a2.81,2.81,0,0,1-2.73,2.82A3,3,0,0,1,257.35,9a2.88,2.88,0,0,1,2.74-2.75A2.75,2.75,0,0,1,262.85,8.91Zm-1.34,0a1.34,1.34,0,0,0-1.38-1.36A1.4,1.4,0,0,0,258.72,9a1.43,1.43,0,0,0,1.41,1.37A1.36,1.36,0,0,0,261.51,8.92Z"/><path class="cls-1" d="M250.39,6.36c-.78.78-1.44,1.51-2.17,2.15-.46.41-.4.68,0,1a20.57,20.57,0,0,1,2.06,2,1.83,1.83,0,0,1-2.12-.44c-.4-.43-.83-.84-1.25-1.25-.12-.11-.25-.24-.42-.16s-.13.27-.13.42a5.48,5.48,0,0,0,0,.81c.05.55-.11.83-.74.83s-.73-.34-.73-.86c0-1.31,0-2.63,0-3.94,0-.52.17-.72.7-.72s.79.14.78.72-.23,1.12.14,1.26.76-.46,1.08-.79A2.66,2.66,0,0,1,250.39,6.36Z"/><path class="cls-1" d="M244.4,11.61a2.38,2.38,0,0,1-2.62-.83c-.43-.45-.81-1.27-1.42-1.12-.37.09-.11,1-.14,1.56s-.35.52-.72.52-.63-.05-.63-.51c0-1.5,0-3,0-4.51,0-.49.33-.47.67-.47s.66,0,.67.48,0,.86,0,1.29c0,.13,0,.3.11.36s.3,0,.42-.14c.42-.41.87-.8,1.26-1.25a2.12,2.12,0,0,1,2.15-.69c-.14.54-.62.78-.94,1.14a8.68,8.68,0,0,1-.92.9c-.57.45-.54.84,0,1.3C243,10.23,243.62,10.87,244.4,11.61Z"/><path class="cls-1" d="M262.94,6.32a1.78,1.78,0,0,1,2.05.73c.72,1.08.82,1.08,1.5,0a1.69,1.69,0,0,1,2-.74,9.71,9.71,0,0,1-1.52,2.07.76.76,0,0,0,0,1.17c.48.55.91,1.13,1.36,1.7.08.09.18.24.16.34s-.26.13-.41.15a1.61,1.61,0,0,1-1.54-.81c-.72-1-.79-1-1.49.06a1.52,1.52,0,0,1-1.48.75c-.42,0-.57-.11-.25-.5s.73-1,1.15-1.44a1,1,0,0,0,0-1.6C263.92,7.65,263.48,7,262.94,6.32Z"/><path class="cls-1" d="M290.58,7.86c.15.28.29.57.46.85s.21.81.57.79.4-.52.56-.82c.43-.78.81-1.58,1.24-2.35s.8-.82,1.59-.36.63.86.29,1.42c-.89,1.47-1.77,2.94-2.69,4.39-.47.75-1,.83-1.86.43,1.23-.35,1.23-.35.68-1.53a.3.3,0,0,1,0-.08,1.69,1.69,0,0,0,1.3-1.72c-.28.16-.37.45-.54.69-.41.57-.78.57-1.18,0-.2-.28-.37-.59-.55-.88-.16-.47-.47-.92-.17-1.45h0l.17.32h0Z"/><path class="cls-1" d="M277.64,7.38a.22.22,0,0,1,.05.11l.11.21,1.07,2c.71-1.29,1.36-2.45,2-3.61.49-.27,1,.14,1.5,0l.12.06.15.15a.9.9,0,0,1-.06,1.12c-.88,1.46-1.76,2.93-2.66,4.38-.47.75-1,.86-1.93.46,1.11-.32,1.11-.32.83-1.45a.94.94,0,0,1,0-.16,2,2,0,0,0,1.27-2c-.25.4-.43.72-.65,1-.38.54-.76.53-1.11,0-.23-.35-.43-.73-.64-1.09s-.47-.92-.18-1.44a.49.49,0,0,1,0,.11Z"/><path class="cls-1" d="M45.48,12A2.22,2.22,0,0,1,43.31,10a2.11,2.11,0,0,1,2.07-2.14A2.14,2.14,0,0,1,47.61,9.9,2.24,2.24,0,0,1,45.48,12Zm-.07-2.86c-.44.07-.7.3-.68.75a.66.66,0,0,0,.73.69.65.65,0,0,0,.71-.77C46.15,9.37,45.81,9.22,45.41,9.17Z"/><path class="cls-1" d="M194.68,9.16a13.84,13.84,0,0,0,0,2.32c0,.15.16.34-.08.38a1.71,1.71,0,0,1-.78,0c-.22-.06-.06-.26,0-.4a26.45,26.45,0,0,0,0-3.21c0-.22-.4-.52.07-.65a.74.74,0,0,1,.86.25c.64.85,1.31,1.68,2.07,2.64a7.81,7.81,0,0,0,0-2.41c0-.18-.19-.4.07-.47a1.62,1.62,0,0,1,.79,0c.24.08.05.31,0,.48,0,1,0,2-.08,3.05,0,.26.18.63-.23.75s-.57-.18-.77-.44c-.5-.66-1-1.31-1.53-2C195.07,9.33,195,9.07,194.68,9.16Z"/><path class="cls-1" d="M209.53,9.52a5,5,0,0,0-.09-1.59c-.12-.3.08-.38.33-.37a20.78,20.78,0,0,1,2.09,0,1.23,1.23,0,0,1,1.2.92,1.19,1.19,0,0,1-.41,1.44c-.6.33-.4.61-.11,1a3.57,3.57,0,0,1,.31.37c.12.18.55.29.29.53a.63.63,0,0,1-.87-.1,8.56,8.56,0,0,1-.66-.92.8.8,0,0,0-1.05-.33c-.4.14-.18.55-.21.84s.31.43,0,.55a1.25,1.25,0,0,1-.79,0c-.3-.12,0-.37,0-.56Zm1.62-1.32c-.55-.08-.87,0-.84.71s.05.94.77.86c.57-.06,1.25,0,1.29-.76S211.71,8.23,211.15,8.2Z"/><path class="cls-1" d="M206.31,7.51a2.17,2.17,0,0,1,2.26,2.21,2.3,2.3,0,0,1-2.32,2.3A2.26,2.26,0,0,1,204,9.68,2.17,2.17,0,0,1,206.31,7.51Zm1.47,2.25a1.52,1.52,0,0,0-1.47-1.59,1.49,1.49,0,0,0-1.55,1.58,1.48,1.48,0,0,0,1.52,1.53A1.44,1.44,0,0,0,207.78,9.76Z"/><path class="cls-1" d="M199.14,7.56a8.94,8.94,0,0,1,2.63.14,2.14,2.14,0,0,1-.51,4.18c-.69,0-1.39,0-2.09,0A13.12,13.12,0,0,0,199.14,7.56ZM200,9.77h0v1c0,.19,0,.35.26.43a1.82,1.82,0,0,0,2-.73,1.51,1.51,0,0,0-.13-1.73,1.64,1.64,0,0,0-1.82-.53c-.58.19-.18.85-.29,1.28A1,1,0,0,0,200,9.77Z"/><path class="cls-1" d="M188.38,9c0,.88-.62,1.42-1.66,1.47s-1,0-.85,1.06c0,.14.1.3-.07.33a3.06,3.06,0,0,1-.8,0c-.17,0-.15-.17-.13-.31a10,10,0,0,0,0-3.66c-.05-.27.09-.34.31-.34a15,15,0,0,1,2,.05A1.33,1.33,0,0,1,188.38,9Zm-1.95.82c.61,0,1.14,0,1.17-.75s-.58-.82-1.16-.88-.69.27-.69.77S185.77,10,186.43,9.82Z"/><path class="cls-1" d="M188.43,11.81l1.36-3.15a3.35,3.35,0,0,0,.19-.53c0-.2-.35-.55.19-.57s.79-.1,1,.43c.46,1.14,1,2.26,1.47,3.39.07.16.25.37,0,.48s-.54.11-.63-.18c-.4-1.27-1.44-.65-2.22-.75-.34,0-.39.31-.49.55C189.16,11.88,188.89,12,188.43,11.81Zm2.15-3.2c-.05.08-.11.13-.15.2-.12.27-.21.55-.35.81-.29.52-.08.64.43.64.85,0,.9,0,.54-.83C190.92,9.15,190.9,8.8,190.58,8.61Z"/><path class="cls-1" d="M218.42,11.79c-.44.18-.76.16-.87-.29-.16-.65-.65-.65-1.14-.59s-1.23-.29-1.49.54c-.1.32-.31.56-.65.42s-.05-.47,0-.66c.33-.82.71-1.62,1.06-2.42a2.9,2.9,0,0,0,.24-.68c0-.2-.27-.51.17-.54s.76-.17,1,.32C217.28,9.19,217.85,10.48,218.42,11.79Zm-2.2-3.33c-.21.46-.33.76-.48,1-.33.59-.17.77.5.78s.72-.28.45-.8C216.54,9.19,216.42,8.89,216.22,8.46Z"/><path class="cls-1" d="M59.93,11.45c-.12.42.28,1.08-.43,1.35a3.17,3.17,0,0,1-3.15-.23,3.39,3.39,0,0,1-.64-4.26A3.08,3.08,0,0,1,59.36,7c.17.07.43.09.37.33s-.31.08-.47.05c-2.38-.54-3.93.88-3.52,3.29.29,1.76,1.71,2.4,3.34,1.88.87-.27.4-1.1.46-1.69s-.42-.43-.76-.46-.53.06-.54-.2.36-.23.57-.24C59.93,9.92,59.93,9.92,59.93,11.45Z"/><path class="cls-1" d="M284.13,9.8a23.11,23.11,0,0,1,0-3.53.7.7,0,0,1,.84.61,1.28,1.28,0,0,0,.67.88,1.44,1.44,0,0,1,.71.91v.64c-.48-.24-.69.06-.83.44s-.3.89-.44,1.34C285,10.52,284.38,10.29,284.13,9.8Z"/><path class="cls-1" d="M278.79,10.6a.94.94,0,0,0,0,.16c.28,1.13.28,1.13-.83,1.45-1.16-1.72-2.09-3.59-3.09-5.4,0-.06,0-.16,0-.24l.55.8a1.76,1.76,0,0,0,1.7,1l.32.49a4.86,4.86,0,0,0,.81,1.44l.17.16h0l.32.16Z"/><path class="cls-1" d="M80.55,12.44a1.77,1.77,0,0,1-3-.5c-.69-1.66.33-3.42,1.92-3.3a1.65,1.65,0,0,1,1.48,1.78c0,.42-.29.46-.6.46-.67,0-1.35,0-2,0-.5,0-.61.15-.5.62a1.52,1.52,0,0,0,2,1.18C80.07,12.62,80.31,12.52,80.55,12.44Zm-1.36-1.89a2.67,2.67,0,0,0,.4,0c.32-.05.81.17.89-.3a1.05,1.05,0,0,0-.67-1.17,1.41,1.41,0,0,0-1.52.22,1,1,0,0,0-.43,1c.12.41.54.23.84.27A4,4,0,0,0,79.19,10.55Z"/><path class="cls-1" d="M70.7,8.63a2,2,0,0,1,1.94,2.26,2,2,0,0,1-2.12,2.2,2.07,2.07,0,0,1-2-2.24A2.06,2.06,0,0,1,70.7,8.63Zm1.5,2.25c0-1.26-.52-1.89-1.55-1.9s-1.71.64-1.7,1.93.58,1.83,1.65,1.82S72.2,12.09,72.2,10.88Z"/><path class="cls-1" d="M291.38,10.6a.3.3,0,0,0,0,.08c.55,1.18.55,1.18-.68,1.53a21,21,0,0,1-1.95-3.34l-.13-.2a.29.29,0,0,1-.05-.13c.67.19,1.11.8,1.81.93.28.31.4.76.8,1l.16.15Z"/><path class="cls-1" d="M65.72,13.08a2,2,0,0,1-2.08-2.18,2.09,2.09,0,0,1,2.08-2.28,2,2,0,0,1,2.08,2.26A2.08,2.08,0,0,1,65.72,13.08Zm-1.63-2.26c0,1.23.53,1.89,1.57,1.91s1.68-.62,1.68-1.88S66.82,9,65.82,9,64.1,9.59,64.09,10.82Z"/><path class="cls-1" d="M303,8c-.52.84-1.17.88-1.64.09-.31-.53-.43-.63-1.4-1.06.89.07.66-.87,1.27-1A3,3,0,0,1,303,8Z"/><path class="cls-1" d="M290.24,7.22c-.3.53,0,1,.17,1.45l-.17.17c-.13-.2-.22-.48-.41-.59a6,6,0,0,1-2.14-1.83c1.23-1.1,1.63-1,2.26.15A5.37,5.37,0,0,1,290.24,7.22Z"/><path class="cls-1" d="M277.49,8.84c-.1-.17-.21-.33-.32-.49-.55-.82-1.48-1.24-2.15-1.93h-.08c1-1.24,1.79-1,2.54.65-.29.52,0,1,.18,1.44Z"/><path class="cls-1" d="M299.77,5.76c-.13.38-.47.49-.79.62a4.64,4.64,0,0,0-1.66.94c-.41.39-1.13.7-.27,1.4.12.09.73,1-.31,1.06-.2,0-.15.25-.12.41s.26.49,0,.75a3.36,3.36,0,0,1,.44-4.16c.14-.15.28-.44.57-.21h0c.43,0,.65-.4,1-.62A1.47,1.47,0,0,1,299.77,5.76Z"/><path class="cls-1" d="M285.09,11.09c.14-.45.28-.9.44-1.34s.35-.68.83-.44a8.62,8.62,0,0,1-.15,2.91h-1l-.46,0,.14-.46h0c.12-.08.22-.17.17-.33Z"/><path class="cls-1" d="M73.43,8.72c.66,1.08.88,2.36,1.51,3.57.71-1.15.91-2.49,1.67-3.72a1.47,1.47,0,0,1-.21,1.22c-.35.92-.72,1.84-1.09,2.76-.07.16-.13.37-.35.39s-.24-.12-.29-.24l-1.5-3.86Z"/><path class="cls-1" d="M286.36,8.67a1.44,1.44,0,0,0-.71-.91,1.28,1.28,0,0,1-.67-.88.7.7,0,0,0-.84-.61c.34-.72,1-.54,1.53-.45s.7.59.7,1.1S286.36,8.09,286.36,8.67Z"/><path class="cls-1" d="M174,14.35a1.1,1.1,0,0,1-1.2,1.11,1.23,1.23,0,0,1-1.2-1.18,1.28,1.28,0,0,1,1.26-1.21A1.14,1.14,0,0,1,174,14.35Zm-.48-.15c-.08-.32-.22-.67-.69-.66a.67.67,0,0,0-.66.75c0,.41.22.74.68.73S173.51,14.7,173.54,14.2Z"/><path class="cls-1" d="M285.09,2.07c1.39.13,1.87,1.09,1.11,2.23-1,.15-1-.89-1.5-1.33S285.05,2.42,285.09,2.07Z"/><path class="cls-1" d="M168,13.15c.8,0,1.25.37,1.24,1.13s-.49,1.14-1.4,1.17-.64-.59-.59-1S166.76,13.1,168,13.15Zm-.25,1.13c.07.26-.13.67.35.66a.6.6,0,0,0,.6-.69.59.59,0,0,0-.65-.65C167.57,13.63,167.82,14.05,167.73,14.28Z"/><path class="cls-1" d="M163.06,15.36c-.68.24-.66-.43-1-.57-.23.07-.12.27-.16.4a.28.28,0,0,1-.3.21c-.16,0-.2-.16-.2-.29a7.74,7.74,0,0,1,0-1.6c.14-.66.73-.36,1.12-.3s.7.54.43.83C162.48,14.56,162.74,14.92,163.06,15.36Zm-.92-1.8c-.21,0-.23.18-.23.35s.07.32.28.29a.3.3,0,0,0,.27-.34A.32.32,0,0,0,162.14,13.56Z"/><path class="cls-1" d="M285.09,2.07c0,.35-.79.53-.39.9s.48,1.48,1.5,1.33a1.24,1.24,0,0,1-1.55.24A1.22,1.22,0,0,1,284,3.35,1.34,1.34,0,0,1,285.09,2.07Z"/><path class="cls-1" d="M166.19,15.14c0,.07,0,.2-.1.25a.27.27,0,0,1-.35-.09.73.73,0,0,0-1.26,0,.27.27,0,0,1-.36.07c-.14-.09-.07-.23,0-.36a16.45,16.45,0,0,1,.57-1.58.46.46,0,0,1,.87-.06A11.07,11.07,0,0,1,166.19,15.14Zm-1.08-1.67c-.14.52-.44.76-.17,1.1a.36.36,0,0,0,.36,0C165.6,14.25,165.3,14,165.11,13.47Z"/><path class="cls-1" d="M287.69,6.42a6,6,0,0,0,2.14,1.83c.19.11.28.39.41.59l.18.63c-.7-.13-1.14-.74-1.81-.93C288.23,7.86,287.57,7.31,287.69,6.42Z"/><path class="cls-1" d="M61.38,12.85v-4c.28.38.47.51.8.08s.62-.34,1.21-.07c-1.68.21-1.73,1.3-1.73,2.44A2.23,2.23,0,0,1,61.38,12.85Z"/><path class="cls-1" d="M284.78,12.2l.46,0,.52.34c-1.45.18-1.64,0-1.64-1.41,0-.45,0-.9,0-1.35.25.49.82.72,1,1.29v.32l-.17.33h0c-.13.07-.33.12-.38.23S284.67,12.15,284.78,12.2Z"/><path class="cls-1" d="M301.39,12.08a1.43,1.43,0,0,0,.39-1.3c-.12-.41.16-.64.53-.75s.56-.15.83-.23A3.14,3.14,0,0,1,301.39,12.08Z"/><path class="cls-1" d="M274.94,6.42H275c.67.69,1.6,1.11,2.15,1.93a1.76,1.76,0,0,1-1.7-1l-.55-.8A.26.26,0,0,1,274.94,6.42Z"/><path class="cls-1" d="M170.73,14.31c-.17.35.24,1-.32,1s-.25-.67-.23-1-.3-1.09.27-1.1S170.56,13.94,170.73,14.31Z"/><path class="cls-1" d="M282.38,6c-.5.19-1-.22-1.5,0C281.32,5.46,281.52,5.46,282.38,6Z"/><path class="cls-1" d="M285.76,12.56l-.52-.34h1A.48.48,0,0,1,285.76,12.56Z"/><path class="cls-1" d="M105.77,6.77l-.24-.23c.2-.16.37,0,.56,0h0C105.91,6.5,105.86,6.67,105.77,6.77Z"/><path class="cls-1" d="M105.36,6.56h-.51A.44.44,0,0,1,105.36,6.56Z"/><path class="cls-1" d="M290.58,7.86l-.17-.32Z"/><path class="cls-1" d="M290.41,7.54l-.17-.32Z"/><path class="cls-1" d="M104.55,6.56h-.37C104.3,6.42,104.42,6.47,104.55,6.56Z"/><path class="cls-1" d="M104.87,6.56h-.34A.25.25,0,0,1,104.87,6.56Z"/><path class="cls-1" d="M288.66,8.67l.13.2Z"/><path class="cls-1" d="M277.8,7.7l-.11-.21Z"/><path class="cls-1" d="M282.65,6.25l-.15-.15Z"/><path class="cls-1" d="M277.64,7.38l-.12-.2Z"/><path class="cls-1" d="M298.65,10.28l.63.36c-.23.39-.13.64.31.79a1.41,1.41,0,0,1,.81.43,2.27,2.27,0,0,1-2.18-.21c-.17-.1-.34-.32-.14-.45.42-.29.27-.73.41-1.09h0Z"/><path class="cls-1" d="M300.74,10.28a2.12,2.12,0,0,0,.5-1.29,1.47,1.47,0,0,1-.85,1.93c-.32,0-.07-.23-.14-.32l.49-.32Z"/><path class="cls-1" d="M290.42,9.47l-.18-.63.17-.17c.18.29.35.6.55.88.4.59.77.59,1.18,0,.17-.24.26-.53.54-.69a1.69,1.69,0,0,1-1.3,1.72h0l-.16-.15C290.82,10.23,290.7,9.78,290.42,9.47Z"/><path class="cls-1" d="M277.49,8.84l.17-.33c.21.36.41.74.64,1.09.35.56.73.57,1.11,0,.22-.29.4-.61.65-1a2,2,0,0,1-1.27,2h0l-.32-.16h0l-.17-.16A4.86,4.86,0,0,1,277.49,8.84Z"/><path class="cls-1" d="M278.47,10.44l.32.16Z"/><path class="cls-1" d="M278.3,10.28l.17.16Z"/><path class="cls-1" d="M291.22,10.45l.16.15Z"/><path class="cls-1" d="M284.78,12.2c-.11,0-.31-.08-.24-.23s.25-.16.38-.23Z"/><path class="cls-1" d="M284.92,11.74l.17-.33C285.14,11.57,285,11.66,284.92,11.74Z"/><path class="cls-1" d="M298.65,10.28l-.17-.17Z"/><path class="cls-1" d="M300.74,10.28Z"/><path class="cls-1" d="M759.76,16.72a7.82,7.82,0,1,1,7.79-7.81A7.8,7.8,0,0,1,759.76,16.72ZM758.57,5.24a10.6,10.6,0,0,0-3.6.42c-.45.14-.79.44-.61,1s.53.6,1,.49a14.27,14.27,0,0,1,2.14-.36A12.3,12.3,0,0,1,764.25,8a.75.75,0,0,0,1.12-.24c.26-.47,0-.82-.38-1.08a5.36,5.36,0,0,0-.79-.41A13.39,13.39,0,0,0,758.57,5.24Zm-.21,3.92a10.18,10.18,0,0,1,4.87,1.2c.4.23.79.32,1-.15s0-.76-.42-1l-.14-.08a11.35,11.35,0,0,0-8.13-.89c-.42.1-.83.27-.71.79s.57.55,1,.44A9,9,0,0,1,758.36,9.16Zm.2,1.28a10.63,10.63,0,0,0-2.32.24c-.43.08-1.17,0-1,.69s.83.36,1.28.29a8.92,8.92,0,0,1,5.86.74c.34.18.73.4,1-.07s-.18-.68-.51-.86A9.06,9.06,0,0,0,758.56,10.44Z"/><path class="cls-1" d="M722.69,11.56a29.32,29.32,0,0,1,.13-5.3c.25-1.69.92-2.37,2.62-2.48a93.64,93.64,0,0,1,12.31,0,2.37,2.37,0,0,1,2.52,2.31,22.21,22.21,0,0,1,.16,4.82c-1.31.33-1.11-.67-1.19-1.43-.19,1.59-.19,1.59-1.84,1.59h-.48a3.14,3.14,0,0,1,1.49-.12c.44,0,.66-.15.63-.6,0-.24,0-.49,0-.73,0-1.12-.45-1.75-1.23-1.93s-1.47.12-2,1.15c-.48-.11-.66,0-.67.56A16.79,16.79,0,0,1,735,13c0-.16,0-.32,0-.48,0-1.26,0-2.52-.05-3.78-.07-1.07-.74-1.37-1.67-.86-.11.06-.2.19-.42.1V6.43c0-.38,0-.75-.54-.75s-.56.34-.56.74l0,4.34c-.05.17-.11.35-.15.53s.06.59-.26.58-.21-.38-.22-.6c0-.38,0-.75,0-1.12a6.16,6.16,0,0,0-.18-2.3c-1.09-.27-1.17-.21-1.18.86s0,2.25,0,3.38c0,.39-.21.74-.61.72s-.27-.45-.27-.71c0-1.45,0-2.9,0-4.35a.84.84,0,0,0-1.11,0l0,5.29c-.35-1.35.06-2.76-.23-4.11-.56.11-.09,1-.85.88V7c.43,0,.89.11,1.27-.21,0-1.14,0-1.14-1.08-1.15h-1.6c-1.17,0-1.18,0-1,1.18.88.14,1,.73,1,1.5a14.78,14.78,0,0,0,0,1.76c0,.68-.25,1-.94,1A1.77,1.77,0,0,0,722.69,11.56ZM727.46,8v0l0,0Z"/><path class="cls-1" d="M647.74,8.4A4.07,4.07,0,0,1,649,5.34a2.38,2.38,0,0,1,2.69-.47,2.39,2.39,0,0,0,2.15,0,2.77,2.77,0,0,1,3.08.47c.32.25.34.43,0,.76a2.85,2.85,0,0,0,.28,4.47.58.58,0,0,1,.22.85,9.52,9.52,0,0,1-1.13,1.86,1.57,1.57,0,0,1-2.1.6,3.14,3.14,0,0,0-2.58,0,1.39,1.39,0,0,1-1.79-.4A8.18,8.18,0,0,1,647.74,8.4Z"/><path class="cls-1" d="M735,13a16.79,16.79,0,0,0,.13-3.61c0-.52.19-.67.67-.56,0,1.05,0,2.09,0,3.13s.45,1.7,1.28,1.87,1.51-.14,2-1.17c.13-.33.25-.71-.06-1a.85.85,0,0,0-1.1,0l-.05.77-.12.16h0l-.17.12-.34,0-.12-.11,0,0-.14-.62v-1h.48c1.65,0,1.65,0,1.84-1.59.08.76-.12,1.76,1.19,1.43a10,10,0,0,1-.3,3.27,2.16,2.16,0,0,1-2,1.76,67.58,67.58,0,0,1-8.05.21,42.35,42.35,0,0,1-4.91-.21,2.29,2.29,0,0,1-2.23-2.07,8.19,8.19,0,0,1-.2-2.32,1.77,1.77,0,0,1,1.47-.48c.69.05,1-.28.94-1a14.78,14.78,0,0,1,0-1.76c.06-.77-.09-1.36-1-1.5,1.36,0,1.14-.07,1.15,1.15,0,1.71,0,3.43,0,5.14,0,.46.11.68.63.68s.63-.21.62-.67c0-1.12,0-2.25,0-3.37.76.16.29-.77.85-.88.29,1.35-.12,2.76.23,4.11.36,1,.73,1.12,1.6.58.24-.14.33-.25.54.07s.59.18.89.1.18-.41.19-.63c0-1.76,0-3.52,0-5.29a6.16,6.16,0,0,1,.18,2.3c0,.37,0,.74,0,1.12,0,.22-.07.59.22.6s.21-.36.26-.58.1-.36.15-.53c0,.8,0,1.61,0,2.41,0,.59.55.93,1,.57.22-.18.27-.24.54-.1C734.16,14.11,734.53,14,735,13Z"/><path class="cls-1" d="M823.42,7.15a8,8,0,0,1-.07,1c-.11.77-.47.93-1.07.44A13.78,13.78,0,0,0,819,6.72a3.46,3.46,0,0,0-2-.4c-1.19.23-1.85,1.14-2,2.76a4.93,4.93,0,0,0,.24,2,2.38,2.38,0,0,0,3.39,1.67,10.92,10.92,0,0,0,3.6-2.36c.19-.16.35-.51.65-.34s.05.51,0,.72a9.11,9.11,0,0,1-1.33,2.64,3.23,3.23,0,0,1-4,1.22,7.2,7.2,0,0,1-4.69-5.1,3,3,0,0,1,.91-2.77,8.69,8.69,0,0,1,3.77-2.07,15.48,15.48,0,0,1,2.87-.73c2-.28,3,.51,3,2.49Z"/><path class="cls-1" d="M667.65,8c-.44,1-.89,2-1.33,3-.17.4-.36.79-.5,1.19a.69.69,0,0,1-.75.56.79.79,0,0,1-.85-.56c-.46-1.09-.93-2.18-1.42-3.25a1.56,1.56,0,0,0-.42-.75c-.35.15-.21.43-.21.64,0,1.47,0,2.95,0,4.43,0,.42.05.81-.6.76s-1,.07-1-.72c0-1.51,0-3,0-4.52,0-1.1,0-2.2,0-3.3,0-.54.2-.65.7-.7a1.4,1.4,0,0,1,1.68,1.06c.52,1.41,1.16,2.77,1.76,4.15.08.16.11.41.32.43s.3-.26.38-.44c.67-1.52,1.33-3.05,2-4.57a1.73,1.73,0,0,1,1.93-.56c.18.14.13.34.13.52,0,2.69,0,5.38,0,8.07,0,.65-.38.58-.79.57s-.89.13-.86-.59c.05-1.61-.08-3.22.07-4.83,0-.16,0-.31,0-.47Z"/><path class="cls-1" d="M671.49,8.27c0-.91,0-1.83,0-2.74-.05-.7.28-.79.85-.76s1-.11,1,.74c-.06,1.66,0,3.33,0,5,0,1.37.68,2.13,1.86,2.12s1.83-.79,1.84-2.16c0-1.7,0-3.39,0-5.08,0-.72.41-.63.82-.6s1-.23,1,.61c0,1.86,0,3.71,0,5.57a3.47,3.47,0,0,1-4.34,3.15,3.21,3.21,0,0,1-2.94-3.59Z"/><path class="cls-1" d="M684.15,4.62a3.22,3.22,0,0,1,3.18,1.89c.17.5.15.78-.52.75s-1,0-1.3-.64a1.89,1.89,0,0,0-2.61-.23,1.06,1.06,0,0,0,.47,1.84c.73.25,1.51.36,2.25.59a2.41,2.41,0,0,1,1.9,1.77,2.6,2.6,0,0,1-1.27,3,4.55,4.55,0,0,1-4.33.06,2,2,0,0,1-.93-.87c-.22-.42-.71-.88-.24-1.34s1.4,0,1.69.49a2.28,2.28,0,0,0,3,.41,1.09,1.09,0,0,0-.44-1.95c-.73-.25-1.5-.39-2.25-.6A2.38,2.38,0,0,1,680.84,8c-.44-1.69.83-3.22,2.82-3.4Z"/><path class="cls-1" d="M693.59,9.2A4.71,4.71,0,0,1,694.38,6a3.57,3.57,0,0,1,3.73-1.3,3.18,3.18,0,0,1,2.74,2.59c.13.54,0,.71-.57.72s-1.14,0-1.32-.86a1.48,1.48,0,0,0-1.5-1,1.57,1.57,0,0,0-1.66.91,6.27,6.27,0,0,0-.09,4.55,1.63,1.63,0,0,0,1.83,1,1.61,1.61,0,0,0,1.56-1.29c.1-.4,1-.66,1.57-.43s.19.53.11.81a3.36,3.36,0,0,1-3.47,2.45,3.52,3.52,0,0,1-3.54-2.62A8.6,8.6,0,0,1,693.59,9.2Z"/><path class="cls-1" d="M799.62,10.54c.34-.95.68-1.9,1-2.85.09-.25.13-.56.46-.59s.69-.14.94.06,0,.55-.11.8c-.63,1.66-1.25,3.31-1.93,5A1.77,1.77,0,0,1,797.52,14c-.24-.08-.59-.12-.41-.52s.14-.63.61-.62c1.14,0,1.25-.14.83-1.16s-.81-1.88-1.17-2.83a.82.82,0,0,0-1.07-.57c-.54.1-.33.55-.34.85,0,.89,0,1.78,0,2.66,0,.47-.13.69-.64.69s-.72-.19-.71-.71c0-.78,0-1.56,0-2.34,0-.49.18-1-.56-1.32a.61.61,0,0,1,.13-1c.39-.17.41-.41.47-.73a1.71,1.71,0,0,1,2.39-1.28c.37.16.33.45.32.74s-.21.38-.48.38a1.94,1.94,0,0,0-.64.08.42.42,0,0,0-.26.45.29.29,0,0,0,.39.29c1.69-.4,2.08.77,2.45,2a15.84,15.84,0,0,0,.58,1.49Z"/><path class="cls-1" d="M898.47,8.34c0-1.29,0-2.58,0-3.86,0-.67.22-.85.83-.79s1.33,0,2,.08a1.43,1.43,0,0,1,1.37,1.42,31.19,31.19,0,0,1,0,6.11,1.59,1.59,0,0,1-1.53,1.58c-2.58.45-2.66.39-2.66-2.13Zm1.16,0c0,1,0,2,0,3,0,.5.18.67.67.64.85-.07,1.19-.44,1.22-1.55,0-1.44,0-2.89,0-4.33a2.11,2.11,0,0,0-.18-.86c-.27-.6-.86-.61-1.38-.54s-.3.55-.31.86C899.61,6.48,899.63,7.39,899.63,8.3Z"/><path class="cls-1" d="M922.86,8.34A1.43,1.43,0,0,1,924,10c0,.78,0,1.56,0,2.34,0,.4,0,.65-.54.64s-.64-.21-.63-.68c0-.83,0-1.66,0-2.49a.77.77,0,0,0-.66-.87c-.8-.15-.94,0-.95.76s0,1.82,0,2.74c0,.44-.17.54-.57.53s-.59-.06-.59-.52c0-2.74,0-5.48,0-8.22,0-.34,0-.57.47-.55.78.05,1.55,0,2.33.08a1.1,1.1,0,0,1,1,1,9,9,0,0,1,0,2.49C923.86,7.7,923.56,8.05,922.86,8.34Zm-1.64-2V7c0,.82.3,1,1.07.77a.72.72,0,0,0,.54-.71c0-.48,0-1,0-1.45,0-.71-.35-.91-1-1s-.63.45-.64.89Z"/><path class="cls-1" d="M776,10.62c0-.94,0-1.88,0-2.82,0-.28-.07-.66.35-.7s.81-.24,1,.19.32.18.52.08a2.43,2.43,0,0,1,3.08.45,3.31,3.31,0,0,1,.12,3.83,2.38,2.38,0,0,1-3.09.68c-.47-.25-.61-.19-.59.33,0,.24,0,.49,0,.73.05.54-.14.76-.72.76s-.75-.27-.7-.79V10.62Zm1.4-.79a1.44,1.44,0,0,0,1.42,1.59,1.47,1.47,0,0,0,1.46-1.58,1.53,1.53,0,0,0-1.49-1.65A1.5,1.5,0,0,0,777.37,9.83Z"/><path class="cls-1" d="M772.82,5.28a3.49,3.49,0,0,1,1.91.53c.26.16.73.27.34.76-.26.33-.4.79-1,.38a2.37,2.37,0,0,0-1.61-.4.86.86,0,0,0-.85.62c-.12.46.21.7.58.84.63.22,1.29.38,1.91.61a1.8,1.8,0,0,1,1.35,2.11,2.06,2.06,0,0,1-1.61,1.79,4.23,4.23,0,0,1-3.51-.72c-.28-.17-.48-.4-.14-.69s.35-.78.87-.39a3,3,0,0,0,1.93.67c.52,0,1-.17,1.1-.75s-.38-.72-.79-.86-.93-.26-1.39-.4c-1.3-.41-1.81-1.12-1.66-2.29a2.15,2.15,0,0,1,2.22-1.81Z"/><path class="cls-1" d="M782.06,9.83A2.73,2.73,0,0,1,784.91,7a2.79,2.79,0,0,1,2.89,2.8,2.89,2.89,0,0,1-2.88,2.86A2.82,2.82,0,0,1,782.06,9.83Zm2.84,1.59a1.49,1.49,0,0,0,1.55-1.57,1.62,1.62,0,0,0-1.52-1.66,1.58,1.58,0,0,0-1.55,1.61A1.51,1.51,0,0,0,784.9,11.42Z"/><path class="cls-1" d="M903.33,8.25c0-1.31,0-2.63,0-3.95,0-.45.14-.63.6-.61q1.17,0,2.34,0c.37,0,.53.11.54.5s-.18.52-.53.5a.11.11,0,0,0-.08,0c-.55.07-1.38-.28-1.59.19a6.05,6.05,0,0,0-.09,2.62c0,.29.3.25.51.26a9.2,9.2,0,0,0,1.05,0c.37,0,.53.09.52.49s-.14.5-.52.53c-1.59.1-1.59.12-1.59,1.7S904.48,12,906,12c.34,0,.79-.16.76.5s-.45.48-.79.48c-.68,0-1.35,0-2,0s-.68-.19-.67-.71C903.35,10.94,903.33,9.6,903.33,8.25Z"/><path class="cls-1" d="M826.31,9.27c0-.94,0-1.88,0-2.82,0-.5.09-.74.65-.71.92,0,1.83,0,2.75,0A2,2,0,0,1,831.6,7a1.84,1.84,0,0,1-.24,2.11c-.28.33-.31.49,0,.83.68.76.44,1.73.44,2.63,0,.26-.24.24-.42.24s-.38-.06-.38-.31,0-.7,0-1A1.37,1.37,0,0,0,829.54,10h-.08c-2.26-.1-2.26-.1-2.32,2.14,0,.28.15.69-.39.7s-.43-.43-.44-.73C826.29,11.16,826.31,10.21,826.31,9.27Zm2.33-.13c.35,0,.7,0,1.05,0A1.33,1.33,0,0,0,831,7.9a1.26,1.26,0,0,0-1.21-1.26c-.51,0-1,0-1.53,0-1.06,0-1.06,0-1.06,1C827.14,9.14,827.14,9.14,828.64,9.14Z"/><path class="cls-1" d="M907.38,8.33c0-1.31,0-2.63,0-3.94,0-.51.11-.74.66-.71.75,0,1.5,0,2.25,0,.4,0,.5.18.5.54s-.16.48-.49.46a.43.43,0,0,0-.16,0c-.51.08-1.31-.27-1.49.19a6.44,6.44,0,0,0-.08,2.63c0,.23.26.24.45.24h1.12c.32,0,.5.09.5.45s-.09.58-.5.55h-.08c-1.53.09-1.53.09-1.53,1.69s0,1.5,1.53,1.54c.31,0,.72-.15.73.45s-.35.54-.74.54c-.64,0-1.29,0-1.93,0s-.76-.21-.74-.79C907.41,10.91,907.38,9.62,907.38,8.33Z"/><path class="cls-1" d="M916.05,8.3c0-1.31,0-2.63,0-4,0-.55.18-.69.69-.67.72,0,1.45,0,2.17,0,.34,0,.55.05.56.47s-.19.56-.58.53a.11.11,0,0,0-.08,0c-.52.06-1.39-.24-1.5.16a9.78,9.78,0,0,0-.08,2.71c0,.23.28.19.47.2.37,0,.75,0,1.12,0s.51,0,.49.43,0,.61-.45.57h-.08c-1.58.1-1.58.1-1.58,1.69v.08c0,1.44,0,1.43,1.44,1.46.27,0,.67-.17.78.19s.2.83-.49.8-1.56,0-2.34,0c-.44,0-.54-.17-.53-.57C916.06,11,916.05,9.67,916.05,8.3Z"/><path class="cls-1" d="M689.69,9.34c0-1.31,0-2.63,0-3.94,0-.7.39-.65.83-.62s1-.22,1,.62q0,4,0,8c0,.85-.58.57-1,.6s-.85.08-.83-.61C689.72,12,689.69,10.69,689.69,9.34Z"/><path class="cls-1" d="M913.4,13h-1c-1,0-1.2-.28-.82-1.29.65-1.7,1.38-3.37,2-5.07.23-.61.89-1.32.54-1.81s-1.21-.07-1.85-.13c-.34,0-.87.22-.84-.5,0-.32.11-.49.47-.49q1.53,0,3.06,0c.33,0,.49.1.48.46a3,3,0,0,1-.19,1.1c-.8,2-1.58,4-2.39,6-.23.56-.23.85.5.78.53,0,1.07,0,1.61,0,.34,0,.48.11.47.47s-.09.55-.49.53S913.91,13,913.4,13Z"/><path class="cls-1" d="M863.52,8.53c0-.86,0-1.57,0-2.29,0-.31,0-.51.43-.5s.47.12.47.47c0,1.45,0,2.9,0,4.35a2.6,2.6,0,0,1-2,2.28,2.57,2.57,0,0,1-2.8-1.3,2.64,2.64,0,0,1,.58-3.09,2.34,2.34,0,0,1,3-.14Zm-3.31,1.81a1.69,1.69,0,0,0,1.58,1.7,1.67,1.67,0,0,0,1.74-1.62,1.76,1.76,0,0,0-1.68-1.72A1.69,1.69,0,0,0,860.21,10.34Z"/><path class="cls-1" d="M633.79,18a8.33,8.33,0,0,1-7-.64,9.06,9.06,0,0,1-4.63-10.52c.3.26-.16.89.48,1V9.3a.43.43,0,0,0,0,.16v.33a7.46,7.46,0,0,0,1.16,3.89l.13.13h0a7.89,7.89,0,0,0,3,2.89,8.77,8.77,0,0,0,6.62.66c.13.07.66-.11.2.33C633.64,17.8,633.54,17.94,633.79,18Z"/><path class="cls-1" d="M790.66,11.39c.25,0,.69-.39.75.28s-.19.77-.7.9a1.52,1.52,0,0,1-2.09-1.33,16.26,16.26,0,0,1-.06-1.85c0-.45.13-.9-.48-1.21a.63.63,0,0,1,0-1,.73.73,0,0,0,.43-.83c0-.53.2-.71.71-.71s.77.15.7.69.2.83.79.77.67.16.66.65-.24.64-.65.59c-.67-.08-.84.24-.8.84s0,1.07,0,1.61S790.21,11.4,790.66,11.39Z"/><path class="cls-1" d="M843.89,12.29c0-.65,0-1.29,0-1.94a2.52,2.52,0,1,1,4.34,1.78,2.35,2.35,0,0,1-2.88.46c-.63-.34-.65-.06-.63.44s0,1,0,1.53c0,.26-.1.39-.38.39s-.45-.09-.45-.41C843.9,13.79,843.89,13,843.89,12.29Zm4.19-1.92a1.75,1.75,0,0,0-1.74-1.66,1.67,1.67,0,1,0,1.74,1.66Z"/><path class="cls-1" d="M721.6,10.8c0,.84,0,1.67,0,2.5,0,.21,0,.49-.27.49s-.62.18-.71-.14c-.15-.52-.32-.23-.54-.09-1,.58-1.55.27-1.57-.85,0-1.48,0-3,0-4.44,0-.36,0-.6.51-.59s.63.08.62.58c0,1.34,0,2.69,0,4,0,.2-.11.47.17.56s.49-.14.66-.36a1.08,1.08,0,0,0,.13-.7c0-1.18,0-2.37,0-3.55,0-.33,0-.56.47-.55s.59.09.58.53C721.58,9.08,721.6,9.94,721.6,10.8Z"/><path class="cls-1" d="M866.64,10.83c.87-.79,1.73-1.51,2.51-2.33A1.48,1.48,0,0,1,870.72,8c0,.31-.26.42-.42.59-1.65,1.69-3.29,3.39-4.94,5.07a4.56,4.56,0,0,1-3.16,1.39c-.25,0-.55.09-.56-.35s.16-.42.47-.47c2.57-.4,3.61-1.63,3.61-4.24,0-.53,0-1.07,0-1.61,0-.37.19-.44.5-.44s.43.13.43.44C866.64,9.24,866.64,10.07,866.64,10.83Z"/><path class="cls-1" d="M712.61,8.51c.21-.76.46-1.51.6-2.28s.63-.7,1.07-.57.1.53,0,.79a14.16,14.16,0,0,1-.58,1.92,10.88,10.88,0,0,0-.65,4.89c0,.42-.13.56-.55.56s-.63-.11-.57-.54c.32-2.43-.59-4.64-1.25-6.89-.08-.25-.45-.63.13-.74.41-.08.84-.1,1,.52.16.78.4,1.55.61,2.32Z"/><path class="cls-1" d="M833.73,8.19a2.17,2.17,0,0,1,2.61.21,2.21,2.21,0,0,1,.78,1.7c0,.7,0,1.39,0,2.09,0,.31.08.66-.45.65s-.5-.27-.49-.62c0-.73,0-1.45,0-2.18A1.23,1.23,0,0,0,835,8.71,1.3,1.3,0,0,0,833.74,10c0,.75,0,1.5,0,2.26,0,.25.06.55-.37.56s-.53-.14-.53-.51q0-3.06,0-6.12c0-.35.15-.46.49-.46s.41.24.41.52C833.72,6.88,833.73,7.49,833.73,8.19Z"/><path class="cls-1" d="M714.45,10.7c0-.51,0-1,0-1.53a1.46,1.46,0,0,1,1.47-1.49,1.42,1.42,0,0,1,1.6,1.42,17.35,17.35,0,0,1,0,3.38A1.42,1.42,0,0,1,716,13.86a1.48,1.48,0,0,1-1.5-1.47C714.42,11.83,714.45,11.26,714.45,10.7Zm2.08.06c0-.48,0-1,0-1.45s-.14-.65-.55-.64-.49.32-.5.62q0,1.48,0,3c0,.33.13.66.55.64s.49-.36.5-.7S716.53,11.24,716.53,10.76Z"/><path class="cls-1" d="M856.17,12.86a2.4,2.4,0,0,1-2.45-2.52,2.5,2.5,0,0,1,2.6-2.49,2.56,2.56,0,0,1,2.43,2.59A2.48,2.48,0,0,1,856.17,12.86Zm-1.61-2.52a1.69,1.69,0,0,0,1.67,1.7,1.72,1.72,0,0,0,1.68-1.63,1.78,1.78,0,0,0-1.7-1.71A1.7,1.7,0,0,0,854.56,10.34Z"/><path class="cls-1" d="M842.94,11.12c0,.54,0,.91,0,1.29s-.11.43-.43.43-.41-.17-.41-.45c0-.65,0-1.29,0-1.94a1.69,1.69,0,0,0-2.22-1.63,1.67,1.67,0,0,0-1.11,1.84A1.76,1.76,0,0,0,840.5,12c.23,0,.6-.31.59.29s-.25.52-.61.54A2.42,2.42,0,0,1,838,11.19a2.5,2.5,0,0,1,1-2.9,2.46,2.46,0,0,1,3,.14A2.9,2.9,0,0,1,842.94,11.12Z"/><path class="cls-1" d="M849.44,12c.35-.38.65-.51,1.12-.21a1.35,1.35,0,0,0,1.24.15c.22-.09.48-.15.49-.46a.57.57,0,0,0-.43-.53c-.5-.19-1-.35-1.51-.53a1.18,1.18,0,0,1-.86-1.22,1.33,1.33,0,0,1,1-1.23,2.44,2.44,0,0,1,2,.17c.22.11.6.17.35.55s-.33.49-.71.25a1.47,1.47,0,0,0-1.16-.2c-.26.07-.56.1-.6.44s.26.44.5.53c.44.18.91.31,1.36.48a1.25,1.25,0,0,1,.91,1.35A1.29,1.29,0,0,1,852,12.81,2.54,2.54,0,0,1,849.44,12Z"/><path class="cls-1" d="M817,9.58c0-.45,0-.91,0-1.36s.3-.83.85-.52c.82.45,1.63.92,2.43,1.4.51.31.5.68,0,1-.77.47-1.55.94-2.36,1.37-.57.3-.9.07-.93-.59,0-.43,0-.86,0-1.29Z"/><path class="cls-1" d="M793.36,9.8c0,.7,0,1.4,0,2.09s-.29.65-.75.65-.69-.14-.68-.64c0-1.39,0-2.79,0-4.18,0-.56.27-.67.75-.67s.69.17.67.66C793.34,8.41,793.36,9.11,793.36,9.8Z"/><path class="cls-1" d="M624.71,2.7A8.73,8.73,0,0,1,634.89,1c-.07.4.52.48.41.89-.54-.23-1.06-.51-1.62-.69a8.53,8.53,0,0,0-8.64,2Z"/><path class="cls-1" d="M638.47,4.12a8.76,8.76,0,0,1,1.61,6.75c-.05.34-.15.68-.23,1-.46.28-.5.84-.81,1.23-.18.21-.28.44-.48,0l0-.3a8,8,0,0,0,.63-5.49l0-.18a1.81,1.81,0,0,0-.3-1,10.39,10.39,0,0,0-1-1.94Z"/><path class="cls-1" d="M638.56,13.16c.2.4.3.17.48,0,.31-.39.35-.95.81-1.23a9.17,9.17,0,0,1-5.08,5.85,2,2,0,0,1-1,.3c-.25-.1-.15-.24,0-.35.46-.44-.07-.26-.2-.33.62-.31,1.25-.62,1.86-.95A9.57,9.57,0,0,0,638.56,13.16Z"/><path class="cls-1" d="M624.71,2.7l.33.48a9.65,9.65,0,0,0-2.29,4l-.13.51a.59.59,0,0,1,0,.13c-.64-.08-.18-.71-.48-1A7.84,7.84,0,0,1,624.71,2.7Z"/><path class="cls-1" d="M655.09,2a2.82,2.82,0,0,1-1.64,2.25c-.54.16-.78,0-.61-.58a2.76,2.76,0,0,1,1.74-2C654.92,1.58,655.17,1.54,655.09,2Z"/><path class="cls-1" d="M638.47,4.12l-.55.18a11.69,11.69,0,0,0-2.62-2.39c.11-.41-.48-.49-.41-.89A8,8,0,0,1,638.47,4.12Z"/><path class="cls-1" d="M793.53,5.55c-.1.49-.35.82-.85.82a.79.79,0,0,1-.86-.85.78.78,0,0,1,.82-.82C793.18,4.69,793.45,5.05,793.53,5.55Z"/><path class="cls-1" d="M896,7.51c-.29,0-.59,0-.88,0s-.43-.1-.44-.37.18-.38.42-.39h1.76c.24,0,.44.1.44.37s-.17.38-.41.39H896Z"/><path class="cls-1" d="M896,10h.89a.38.38,0,0,1,.41.4.38.38,0,0,1-.43.38h-1.77c-.23,0-.43-.09-.45-.37s.19-.41.46-.42H896Z"/><path class="cls-1" d="M883.52,11.1h1c.24,0,.4.07.41.36s-.14.43-.44.43h-1.85c-.24,0-.41-.07-.42-.36s.16-.42.44-.42Z"/><path class="cls-1" d="M896,11.11h1a.34.34,0,0,1,.37.34c0,.22-.1.39-.31.39-.67,0-1.34,0-2,0a.33.33,0,0,1-.33-.38.34.34,0,0,1,.35-.36Z"/><path class="cls-1" d="M883.5,13h-1c-.28,0-.34-.2-.34-.45s.15-.33.36-.33h2c.23,0,.33.12.33.35s-.07.42-.35.43Z"/><path class="cls-1" d="M895.89,13H895a.35.35,0,0,1-.37-.35.35.35,0,0,1,.38-.41c.65,0,1.29,0,1.94,0a.37.37,0,0,1,0,.74c-.35,0-.7,0-1.05,0Z"/><path class="cls-1" d="M896,5.59c.32,0,.65,0,1,0a.35.35,0,0,1,.33.38.34.34,0,0,1-.36.36h-1.84c-.24,0-.43-.12-.42-.39s.21-.36.44-.37.59,0,.88,0Z"/><path class="cls-1" d="M886.56,11.87c-.3,0-.59,0-.88,0a.36.36,0,0,1-.4-.39c0-.26.18-.37.42-.37h1.75c.26,0,.49.08.48.4s-.24.38-.5.38h-.87Z"/><path class="cls-1" d="M896,7.85h.79c.25,0,.51,0,.52.37s-.24.39-.49.39c-.53,0-1.06,0-1.59,0-.25,0-.52-.07-.52-.38s.3-.38.57-.39Z"/><path class="cls-1" d="M886.69,10h.88a.35.35,0,0,1,.36.36.33.33,0,0,1-.31.39c-.67,0-1.34,0-2,0a.33.33,0,0,1-.33-.38.38.38,0,0,1,.36-.37c.35,0,.7,0,1.05-.05Z"/><path class="cls-1" d="M886.57,13c-.32,0-.64,0-1-.06a.35.35,0,0,1-.33-.39.35.35,0,0,1,.37-.35h1.84c.24,0,.43.09.44.37s-.2.4-.47.41h-.88Z"/><path class="cls-1" d="M883.54,10.76h-1c-.25,0-.41-.07-.4-.36s.12-.36.34-.37h2.07c.24,0,.31.16.31.38s-.08.35-.32.35Z"/><path class="cls-1" d="M895.92,5.25H895a.34.34,0,0,1-.37-.34.36.36,0,0,1,.35-.38c.61,0,1.22,0,1.84,0a.37.37,0,0,1,.41.39c0,.28-.23.34-.46.35h-.88Z"/><path class="cls-1" d="M892.9,12.22h.81c.26,0,.49.08.49.4s-.21.36-.44.36H892c-.24,0-.43-.08-.44-.36s.2-.39.47-.4Z"/><path class="cls-1" d="M892.85,11.87c-.27,0-.54,0-.8,0s-.49,0-.51-.36.19-.41.46-.42h1.76c.23,0,.42.09.44.36s-.21.4-.47.41-.59,0-.88,0Z"/><path class="cls-1" d="M889.69,10.76h-.88c-.2,0-.36-.07-.37-.32s.1-.41.36-.41h1.91c.22,0,.33.13.34.36s-.16.37-.4.37Z"/><path class="cls-1" d="M889.79,12.21h.8c.28,0,.47.08.45.41s-.18.37-.42.37h-1.77c-.25,0-.4-.11-.41-.38s.19-.4.46-.4Z"/><path class="cls-1" d="M889.74,11.88h-.89c-.24,0-.41-.08-.41-.36s.12-.41.38-.41h1.85c.27,0,.38.15.37.41s-.18.36-.42.36Z"/><path class="cls-1" d="M892.92,10.76H892c-.21,0-.45,0-.47-.31s.19-.36.42-.36c.59,0,1.17,0,1.76,0,.23,0,.44.07.44.36s-.25.31-.46.32Z"/><path class="cls-1" d="M895.92,9.66c-.4-.17-1.18.27-1.17-.39s.76-.3,1.17-.28,1.25-.34,1.25.35S896.36,9.51,895.92,9.66Z"/><path class="cls-1" d="M883.44,8.51c-.28-.13-1,.28-1-.33s.73-.25,1.12-.32a4.31,4.31,0,0,1,.88,0c.2,0,.37.08.37.32s-.17.32-.37.32S883.83,8.51,883.44,8.51Z"/><path class="cls-1" d="M892.94,9.64c-.32,0-.65,0-1-.05s-.33-.09-.32-.29S891.82,9,892,9c.59,0,1.17,0,1.76,0,.2,0,.38.08.38.33s-.19.29-.39.29h-.8Z"/><path class="cls-1" d="M883.52,9.63c-.33-.13-1.09.26-1.09-.3s.77-.25,1.19-.35a2,2,0,0,1,.64,0c.23,0,.54,0,.52.33s-.31.31-.54.32Z"/><path class="cls-1" d="M892.91,8.53c-.4-.16-1.16.22-1.16-.32s.77-.33,1.2-.34,1.14-.22,1.12.36S893.3,8.36,892.91,8.53Z"/><path class="cls-1" d="M889.75,8.48h-.88c-.16,0-.32-.08-.32-.28a.31.31,0,0,1,.31-.31c.56,0,1.12,0,1.68,0,.19,0,.38.07.39.31s-.19.29-.38.3h-.8Z"/><path class="cls-1" d="M889.79,9.66c-.44-.15-1.18.21-1.18-.37s.74-.29,1.13-.29,1.12-.29,1.12.34S890.14,9.51,889.79,9.66Z"/><path class="cls-1" d="M889.77,5.72c.39.11,1.08-.16,1.07.24s-.68.26-1.06.27-1.15.17-1.13-.2C888.69,5.44,889.4,5.9,889.77,5.72Z"/><path class="cls-1" d="M889.73,7.4c-.37-.14-1.08.2-1.09-.28s.72-.24,1.11-.24,1.1-.21,1.09.25S890.12,7.27,889.73,7.4Z"/><path class="cls-1" d="M726.56,7c.37-.4.86-.09,1.27-.21C727.45,7.15,727,7,726.56,7Z"/><path class="cls-1" d="M728.8,7.75l-1.11,0A.84.84,0,0,1,728.8,7.75Z"/><polygon class="cls-1" points="727.46 7.95 727.41 7.94 727.45 7.9 727.46 7.95"/><path class="cls-1" d="M739,12.68c0-1.07,0-1.07-1.16-.91a.85.85,0,0,1,1.1,0C739.27,12,739.15,12.35,739,12.68Z"/><path class="cls-1" d="M737.05,12.67a.66.66,0,0,1-.14-.62Z"/><path class="cls-1" d="M737.7,12.7l-.17.12Z"/><path class="cls-1" d="M737.81,12.54l-.12.16Z"/><path class="cls-1" d="M737.19,12.8l-.12-.11Z"/><path class="cls-1" d="M623.76,13.68l.13.13Z"/><path class="cls-1" d="M622.75,7.21c0,.17-.09.34-.13.51C622.66,7.55,622.71,7.38,622.75,7.21Z"/><path class="cls-1" d="M732.85,10.71c0-.46,0-.92,0-1.37s.13-.59.47-.63.51.24.52.56c0,1,0,2,0,3,0,.31-.09.61-.49.59s-.51-.25-.5-.6c0-.51,0-1,0-1.53Z"/><path class="cls-1" d="M737.89,9.6c0,.21,0,.46-.51.47s-.54-.24-.51-.61,0-.76.5-.77S737.85,9.09,737.89,9.6Z"/><path class="cls-1" d="M635,3.33a2.64,2.64,0,0,1,.12,1.47c0,.87-.46,1.21-1.26,1.25-1.25.27-2.49.58-3.75.81A.93.93,0,0,0,629.25,8c0,.61,0,1.22,0,1.84a1,1,0,0,1-.48-1c0-.75,0-1.49,0-2.24a1.69,1.69,0,0,1,.82-.74C631.42,5.06,633,3.74,635,3.33Z"/><path class="cls-1" d="M633.89,6.05c.8,0,1.3-.38,1.26-1.25l.06,1.92c0,.81,0,1.62,0,2.43,0,1,0,2,0,3l0,.33c-.93,1.55-2.27,1.68-3.4.33l0-.18v-.46c.23-1,1-1.17,1.8-1.34.49-.11.95-.25.94-.89,0-1.09,0-2.19,0-3.28A.59.59,0,0,0,633.89,6.05Z"/><path class="cls-1" d="M628.74,6.54c0,.75,0,1.49,0,2.24a1,1,0,0,0,.48,1,15.65,15.65,0,0,0,.15,2.56,2.82,2.82,0,0,0-.12.62,1.65,1.65,0,0,1-1,1.77,1.8,1.8,0,0,1-2.25-.47L626,14,626,13a2.36,2.36,0,0,1,1.71-.94.92.92,0,0,0,.88-1.1c0-.72,0-1.44,0-2.16V5.45a1.44,1.44,0,0,1,.15-.86C628.72,5.24,628.73,5.89,628.74,6.54Z"/><path class="cls-1" d="M628.74,6.54c0-.65,0-1.3,0-1.95a.65.65,0,0,1,.46-.29l4.34-.83.53-.13.28,0,.7,0h0c-2,.41-3.61,1.73-5.47,2.47A1.69,1.69,0,0,0,628.74,6.54Z"/><path class="cls-1" d="M635,3.33l-.7,0A.54.54,0,0,1,635,3.33Z"/><path class="cls-1" d="M634.05,3.34l-.53.13Z"/><path class="cls-1" d="M635.83,11.89Z"/><path class="cls-1" d="M626.11,12.87,626,14.29A1.22,1.22,0,0,1,626.11,12.87Z"/><path class="cls-1" d="M631.77,12.68a.39.39,0,0,1,0-.46Z"/></g></g></svg>