<svg xmlns="http://www.w3.org/2000/svg" viewBox="0 0 206.49 203.7"><defs><style>.cls-1{fill:#4b0bd0;}</style></defs><title>img4</title><g id="Capa_2" data-name="Capa 2"><g id="Capa_1-2" data-name="Capa 1"><path class="cls-1" d="M14.61,7.3A7.31,7.31,0,1,1,7.3,0,7.31,7.31,0,0,1,14.61,7.3Z"/><path class="cls-1" d="M78.57,7.3A7.31,7.31,0,1,1,71.26,0,7.31,7.31,0,0,1,78.57,7.3Z"/><path class="cls-1" d="M142.53,7.3A7.31,7.31,0,1,1,135.22,0,7.31,7.31,0,0,1,142.53,7.3Z"/><path class="cls-1" d="M206.49,7.3A7.31,7.31,0,1,1,199.18,0,7.31,7.31,0,0,1,206.49,7.3Z"/><path class="cls-1" d="M14.61,54.58A7.31,7.31,0,1,1,7.3,47.27,7.3,7.3,0,0,1,14.61,54.58Z"/><path class="cls-1" d="M78.57,54.58a7.31,7.31,0,1,1-7.31-7.31A7.3,7.3,0,0,1,78.57,54.58Z"/><path class="cls-1" d="M142.53,54.58a7.31,7.31,0,1,1-7.31-7.31A7.3,7.3,0,0,1,142.53,54.58Z"/><path class="cls-1" d="M206.49,54.58a7.31,7.31,0,1,1-7.31-7.31A7.3,7.3,0,0,1,206.49,54.58Z"/><path class="cls-1" d="M14.61,101.85a7.31,7.31,0,1,1-7.31-7.3A7.31,7.31,0,0,1,14.61,101.85Z"/><path class="cls-1" d="M78.57,101.85a7.31,7.31,0,1,1-7.31-7.3A7.31,7.31,0,0,1,78.57,101.85Z"/><path class="cls-1" d="M142.53,101.85a7.31,7.31,0,1,1-7.31-7.3A7.31,7.31,0,0,1,142.53,101.85Z"/><path class="cls-1" d="M206.49,101.85a7.31,7.31,0,1,1-7.31-7.3A7.31,7.31,0,0,1,206.49,101.85Z"/><path class="cls-1" d="M14.61,149.13a7.31,7.31,0,1,1-7.31-7.31A7.3,7.3,0,0,1,14.61,149.13Z"/><path class="cls-1" d="M78.57,149.13a7.31,7.31,0,1,1-7.31-7.31A7.3,7.3,0,0,1,78.57,149.13Z"/><path class="cls-1" d="M142.53,149.13a7.31,7.31,0,1,1-7.31-7.31A7.3,7.3,0,0,1,142.53,149.13Z"/><path class="cls-1" d="M206.49,149.13a7.31,7.31,0,1,1-7.31-7.31A7.3,7.3,0,0,1,206.49,149.13Z"/><path class="cls-1" d="M14.61,196.4a7.31,7.31,0,1,1-7.31-7.3A7.3,7.3,0,0,1,14.61,196.4Z"/><path class="cls-1" d="M78.57,196.4a7.31,7.31,0,1,1-7.31-7.3A7.3,7.3,0,0,1,78.57,196.4Z"/><path class="cls-1" d="M142.53,196.4a7.31,7.31,0,1,1-7.31-7.3A7.3,7.3,0,0,1,142.53,196.4Z"/><path class="cls-1" d="M206.49,196.4a7.31,7.31,0,1,1-7.31-7.3A7.3,7.3,0,0,1,206.49,196.4Z"/></g></g></svg>