<svg xmlns="http://www.w3.org/2000/svg" viewBox="0 0 8.08 7.78"><defs><style>.cls-1{fill:#fff;}</style></defs><title>menuicon</title><g id="Capa_2" data-name="Capa 2"><g id="Capa_1-2" data-name="Capa 1"><rect class="cls-1" x="1.57" y="3.24" width="1.3" height="0.56" rx="0.17"/><rect class="cls-1" x="1.57" y="4.83" width="1.3" height="0.56" rx="0.17"/><rect class="cls-1" x="1.57" y="4.04" width="1.3" height="0.56" rx="0.17"/><rect class="cls-1" x="1.57" y="5.63" width="1.3" height="0.56" rx="0.17"/><rect class="cls-1" x="1.57" y="7.22" width="1.3" height="0.56" rx="0.17"/><rect class="cls-1" x="1.57" y="6.43" width="1.3" height="0.56" rx="0.17"/><rect class="cls-1" x="5.24" y="4.85" width="1.3" height="0.56" rx="0.17"/><rect class="cls-1" x="5.24" y="4.06" width="1.3" height="0.56" rx="0.17"/><rect class="cls-1" x="5.24" y="3.25" width="1.3" height="0.56" rx="0.17"/><rect class="cls-1" x="5.24" y="5.64" width="1.3" height="0.56" rx="0.17"/><rect class="cls-1" x="5.24" y="7.22" width="1.3" height="0.56" rx="0.17"/><rect class="cls-1" x="5.24" y="6.43" width="1.3" height="0.56" rx="0.17"/><rect class="cls-1" x="3.41" y="6.38" width="1.3" height="0.56" rx="0.17"/><rect class="cls-1" x="3.41" y="5.57" width="1.3" height="0.56" rx="0.17"/><rect class="cls-1" x="3.41" y="7.19" width="1.3" height="0.56" rx="0.17"/><polygon class="cls-1" points="4.04 0.5 7.83 4.29 8.08 4.04 4.04 0 0 4.04 0.25 4.29 4.04 0.5"/></g></g></svg>