<svg xmlns="http://www.w3.org/2000/svg" viewBox="0 0 4.53 4.98"><defs><style>.cls-1{fill:#fff;}</style></defs><title>menuicon2</title><g id="Capa_2" data-name="Capa 2"><g id="Capa_1-2" data-name="Capa 1"><rect class="cls-1" y="3.68" width="0.56" height="1.3" rx="0.17"/><rect class="cls-1" x="1.6" y="3.68" width="0.56" height="1.3" rx="0.17"/><rect class="cls-1" x="0.8" y="3.68" width="0.56" height="1.3" rx="0.17"/><rect class="cls-1" x="2.39" y="3.68" width="0.56" height="1.3" rx="0.17"/><rect class="cls-1" x="3.97" y="3.68" width="0.56" height="1.3" rx="0.17"/><rect class="cls-1" x="3.19" y="3.68" width="0.56" height="1.3" rx="0.17"/><rect class="cls-1" x="1.6" width="0.56" height="1.3" rx="0.17"/><rect class="cls-1" x="0.8" width="0.56" height="1.3" rx="0.17"/><rect class="cls-1" width="0.56" height="1.3" rx="0.17"/><rect class="cls-1" x="2.39" width="0.56" height="1.3" rx="0.17"/><rect class="cls-1" x="3.97" width="0.56" height="1.3" rx="0.17"/><rect class="cls-1" x="3.19" width="0.56" height="1.3" rx="0.17"/><rect class="cls-1" x="3.19" y="1.84" width="0.56" height="1.3" rx="0.17"/><rect class="cls-1" x="2.39" y="1.84" width="0.56" height="1.3" rx="0.17"/><rect class="cls-1" x="1.6" y="1.84" width="0.56" height="1.3" rx="0.17"/><rect class="cls-1" x="3.97" y="1.84" width="0.56" height="1.3" rx="0.17"/></g></g></svg>