<svg xmlns="http://www.w3.org/2000/svg" viewBox="0 0 8.08 8.02"><defs><style>.cls-1{fill:#fff;}</style></defs><title>menu</title><g id="Capa_2" data-name="Capa 2"><g id="Capa_1-2" data-name="Capa 1"><rect class="cls-1" x="1.55" y="3.49" width="1.3" height="0.56" rx="0.17"/><rect class="cls-1" x="1.55" y="5.09" width="1.3" height="0.56" rx="0.17"/><rect class="cls-1" x="1.55" y="4.29" width="1.3" height="0.56" rx="0.17"/><rect class="cls-1" x="1.55" y="5.88" width="1.3" height="0.56" rx="0.17"/><rect class="cls-1" x="1.55" y="7.46" width="1.3" height="0.56" rx="0.17"/><rect class="cls-1" x="1.55" y="6.67" width="1.3" height="0.56" rx="0.17"/><rect class="cls-1" x="5.23" y="5.09" width="1.3" height="0.56" rx="0.17"/><rect class="cls-1" x="5.23" y="4.29" width="1.3" height="0.56" rx="0.17"/><rect class="cls-1" x="5.23" y="3.49" width="1.3" height="0.56" rx="0.17"/><rect class="cls-1" x="5.23" y="5.88" width="1.3" height="0.56" rx="0.17"/><rect class="cls-1" x="5.23" y="7.46" width="1.3" height="0.56" rx="0.17"/><rect class="cls-1" x="5.23" y="6.67" width="1.3" height="0.56" rx="0.17"/><rect class="cls-1" x="3.39" y="6.67" width="1.3" height="0.56" rx="0.17"/><rect class="cls-1" x="3.39" y="5.88" width="1.3" height="0.56" rx="0.17"/><rect class="cls-1" x="3.39" y="5.09" width="1.3" height="0.56" rx="0.17"/><rect class="cls-1" x="3.39" y="7.46" width="1.3" height="0.56" rx="0.17"/><polygon class="cls-1" points="4.04 0.5 7.83 4.29 8.08 4.04 4.04 0 0 4.04 0.25 4.29 4.04 0.5"/></g></g></svg>