<svg xmlns="http://www.w3.org/2000/svg" viewBox="0 0 15.3 16.68"><defs><style>.cls-1{fill:#fff;fill-rule:evenodd;}</style></defs><title>movilmenu</title><g id="Capa_2" data-name="Capa 2"><g id="_25" data-name="25"><path class="cls-1" d="M15.3,14.49H13.54a2,2,0,0,0-1.95-1.72,2,2,0,0,0-1.94,1.72H0V15H9.65a2,2,0,0,0,1.94,1.72A2,2,0,0,0,13.54,15H15.3Z"/><path class="cls-1" d="M4.93,1.73a2,2,0,0,0-3.88,0H0v.46H1.05a2,2,0,0,0,3.88,0H15.3V1.73Z"/><path class="cls-1" d="M9.37,8A1.91,1.91,0,0,0,7.43,6.23,2,2,0,0,0,5.49,8H0v.43H5.49a2,2,0,0,0,1.94,1.72A1.91,1.91,0,0,0,9.37,8.39H15.3V8Z"/></g></g></svg>