<svg xmlns="http://www.w3.org/2000/svg" xmlns:xlink="http://www.w3.org/1999/xlink" viewBox="0 0 529.11 381.78"><defs><style>.cls-1{fill:url(#linear-gradient);}.cls-2{fill:url(#linear-gradient-2);}.cls-3{fill:url(#New_Gradient_Swatch_1);}.cls-4{isolation:isolate;}.cls-5{fill:url(#New_Gradient_Swatch_copy_34);}.cls-6{fill:url(#New_Gradient_Swatch_copy_23);}.cls-7{fill:url(#New_Gradient_Swatch_copy_24);}.cls-8{fill:url(#linear-gradient-3);}.cls-9{fill:url(#linear-gradient-4);}.cls-10{fill:url(#linear-gradient-5);}.cls-103,.cls-106,.cls-107,.cls-11,.cls-12,.cls-63,.cls-70,.cls-73,.cls-75,.cls-76,.cls-77,.cls-78,.cls-79,.cls-83,.cls-84,.cls-90,.cls-91,.cls-94,.cls-97,.cls-99{mix-blend-mode:color-dodge;}.cls-11{fill:url(#radial-gradient);}.cls-12{fill:url(#radial-gradient-2);}.cls-107,.cls-13,.cls-87{opacity:0.3;}.cls-13,.cls-86,.cls-87{mix-blend-mode:multiply;}.cls-13{fill:url(#radial-gradient-3);}.cls-14{mask:url(#mask);}.cls-15,.cls-51{opacity:0;}.cls-16{fill:#45108a;}.cls-17{opacity:0.09;}.cls-18{fill:#481291;}.cls-19{opacity:0.18;}.cls-20{fill:#4c1498;}.cls-21{opacity:0.27;}.cls-22{fill:#4f159f;}.cls-23{opacity:0.36;}.cls-24{fill:#5317a6;}.cls-25{opacity:0.45;}.cls-26{fill:#5619ad;}.cls-27{opacity:0.55;}.cls-28{fill:#5a1bb3;}.cls-29{opacity:0.64;}.cls-30{fill:#5d1dba;}.cls-31{opacity:0.73;}.cls-32{fill:#611fc1;}.cls-33{opacity:0.82;}.cls-34{fill:#6420c8;}.cls-35{opacity:0.91;}.cls-36{fill:#6822cf;}.cls-37{fill:#6b24d6;}.cls-38{mask:url(#mask-2);}.cls-39,.cls-81{opacity:0.7;}.cls-40,.cls-52{opacity:0.09;}.cls-41,.cls-53{opacity:0.18;}.cls-42,.cls-54{opacity:0.27;}.cls-43,.cls-55{opacity:0.36;}.cls-44,.cls-56{opacity:0.45;}.cls-45,.cls-57{opacity:0.55;}.cls-46,.cls-58{opacity:0.64;}.cls-47,.cls-59{opacity:0.73;}.cls-48,.cls-60{opacity:0.82;}.cls-49,.cls-61{opacity:0.91;}.cls-50{opacity:0.2;}.cls-62{fill:url(#linear-gradient-6);}.cls-63{fill:url(#radial-gradient-4);}.cls-64{opacity:0.6;mix-blend-mode:screen;fill:url(#radial-gradient-5);}.cls-65{fill:#32084f;}.cls-66{fill:url(#linear-gradient-7);}.cls-67{fill:url(#linear-gradient-8);}.cls-68{fill:url(#linear-gradient-9);}.cls-69{fill:url(#linear-gradient-10);}.cls-70{fill:url(#radial-gradient-6);}.cls-71{fill:url(#linear-gradient-11);}.cls-72{fill:url(#linear-gradient-12);}.cls-73{fill:url(#radial-gradient-7);}.cls-74,.cls-80,.cls-81{fill:#fff;}.cls-75{fill:url(#Radial_Gradient_1);}.cls-76{fill:#9f19ab;}.cls-76,.cls-80,.cls-83,.cls-84{opacity:0.5;}.cls-77{fill:url(#radial-gradient-8);}.cls-78{fill:url(#radial-gradient-9);}.cls-79{fill:url(#radial-gradient-10);}.cls-82{mask:url(#mask-3);}.cls-106,.cls-107,.cls-83,.cls-85{fill:#7c1dc9;}.cls-86,.cls-96{fill:#b086cc;}.cls-87{fill:url(#radial-gradient-11);}.cls-88{fill:url(#linear-gradient-13);}.cls-89{fill:url(#linear-gradient-14);}.cls-90{fill:url(#radial-gradient-12);}.cls-91{fill:url(#radial-gradient-13);}.cls-92{fill:url(#New_Gradient_Swatch_copy_24-2);}.cls-93{fill:url(#New_Gradient_Swatch_copy_9);}.cls-94{fill:url(#radial-gradient-14);}.cls-95{fill:url(#New_Gradient_Swatch_copy_23-2);}.cls-97{fill:url(#radial-gradient-15);}.cls-98{opacity:0.8;fill:url(#New_Gradient_Swatch_copy_34-2);}.cls-99{fill:url(#radial-gradient-16);}.cls-100{fill:url(#radial-gradient-17);}.cls-101{fill:url(#New_Gradient_Swatch_copy_23-3);}.cls-102{fill:url(#linear-gradient-15);}.cls-104{fill:url(#radial-gradient-18);}.cls-105{fill:url(#radial-gradient-19);}.cls-106{opacity:0.4;}</style><linearGradient id="linear-gradient" x1="15.61" y1="17.5" x2="507.2" y2="280.04" gradientUnits="userSpaceOnUse"><stop offset="0"/><stop offset="0.21" stop-color="#606060"/><stop offset="0.31" stop-color="#888"/><stop offset="0.5" stop-color="#555354"/><stop offset="0.63" stop-color="#2f2b2c"/><stop offset="0.74" stop-color="#231f20"/><stop offset="0.75" stop-color="#2a2627"/><stop offset="0.77" stop-color="#3e3a3b"/><stop offset="0.79" stop-color="#5e5c5c"/><stop offset="0.81" stop-color="#8a8989"/><stop offset="0.82" stop-color="#a9a9a9"/><stop offset="0.84" stop-color="#a4a4a4"/><stop offset="0.87" stop-color="#969696"/><stop offset="0.9" stop-color="#7e7e7e"/><stop offset="0.93" stop-color="#5d5d5d"/><stop offset="0.97" stop-color="#323232"/><stop offset="1"/></linearGradient><linearGradient id="linear-gradient-2" x1="8645.19" y1="10584.08" x2="9136.78" y2="10846.61" gradientTransform="translate(-8631.19 -10513.24)" gradientUnits="userSpaceOnUse"><stop offset="0" stop-color="#090909"/><stop offset="0.2" stop-color="#414042"/><stop offset="0.35" stop-color="#151415"/><stop offset="0.52" stop-color="#bcbec0"/><stop offset="0.6" stop-color="#231f20"/><stop offset="0.6" stop-color="#2e2b2c"/><stop offset="0.61" stop-color="#474647"/><stop offset="0.62" stop-color="#5c5c5e"/><stop offset="0.64" stop-color="#6c6d70"/><stop offset="0.66" stop-color="#78797c"/><stop offset="0.68" stop-color="#7e8083"/><stop offset="0.74" stop-color="#808285"/><stop offset="0.9" stop-color="#231f20"/><stop offset="0.94" stop-color="#1c1919"/><stop offset="0.99" stop-color="#080707"/><stop offset="1"/></linearGradient><linearGradient id="New_Gradient_Swatch_1" x1="349.38" y1="239.63" x2="298.21" y2="331.73" gradientUnits="userSpaceOnUse"><stop offset="0" stop-color="#fff"/><stop offset="1"/></linearGradient><linearGradient id="New_Gradient_Swatch_copy_34" x1="275.48" y1="74.58" x2="367.58" y2="44.45" gradientUnits="userSpaceOnUse"><stop offset="0" stop-color="#9f79c8"/><stop offset="0.14" stop-color="#a27dca"/><stop offset="0.27" stop-color="#ac88cf"/><stop offset="0.4" stop-color="#bc9bd7"/><stop offset="0.52" stop-color="#d1b4e3"/><stop offset="0.65" stop-color="#dbc4e9"/><stop offset="0.9" stop-color="#f4edf8"/><stop offset="1" stop-color="#fff"/></linearGradient><linearGradient id="New_Gradient_Swatch_copy_23" x1="261.69" y1="116.8" x2="282.04" y2="89.62" gradientUnits="userSpaceOnUse"><stop offset="0.01" stop-color="#c1a1d5"/><stop offset="0.05" stop-color="#c8abda"/><stop offset="0.11" stop-color="#dac6e6"/><stop offset="0.2" stop-color="#f7f2f9"/><stop offset="0.22" stop-color="#fff"/><stop offset="0.25" stop-color="#f9f5fb"/><stop offset="0.3" stop-color="#e9dbf2"/><stop offset="0.36" stop-color="#d1b4e3"/><stop offset="0.43" stop-color="#b395d6"/><stop offset="0.49" stop-color="#9c7dcb"/><stop offset="0.56" stop-color="#8e6ec5"/><stop offset="0.61" stop-color="#8969c3"/><stop offset="0.76" stop-color="#9471c6"/><stop offset="1" stop-color="#b086cc"/></linearGradient><linearGradient id="New_Gradient_Swatch_copy_24" x1="264.82" y1="137.94" x2="293.32" y2="84.27" gradientUnits="userSpaceOnUse"><stop offset="0" stop-color="#c211a1"/><stop offset="0.05" stop-color="#c518a5"/><stop offset="0.13" stop-color="#ce2daf"/><stop offset="0.14" stop-color="#cf30b1"/><stop offset="0.23" stop-color="#ff63ce"/><stop offset="0.28" stop-color="#eb48bf"/><stop offset="0.38" stop-color="#c211a1"/><stop offset="0.54" stop-color="#a919ab"/><stop offset="0.62" stop-color="#ac1bab"/><stop offset="0.7" stop-color="#b723ab"/><stop offset="0.77" stop-color="#c92faa"/><stop offset="0.82" stop-color="#dc3daa"/><stop offset="0.93" stop-color="#cd24a5"/><stop offset="1" stop-color="#c211a1"/></linearGradient><linearGradient id="linear-gradient-3" x1="268.75" y1="145.42" x2="303.41" y2="84.08" gradientUnits="userSpaceOnUse"><stop offset="0.06" stop-color="#200041"/><stop offset="0.11" stop-color="#210243"/><stop offset="0.14" stop-color="#25084b"/><stop offset="0.16" stop-color="#2c1358"/><stop offset="0.17" stop-color="#311b61"/><stop offset="0.19" stop-color="#351f65"/><stop offset="0.21" stop-color="#422c73"/><stop offset="0.23" stop-color="#584188"/><stop offset="0.25" stop-color="#765fa7"/><stop offset="0.26" stop-color="#8770b8"/><stop offset="0.28" stop-color="#7e67ae"/><stop offset="0.35" stop-color="#5c468d"/><stop offset="0.41" stop-color="#442e75"/><stop offset="0.47" stop-color="#362066"/><stop offset="0.52" stop-color="#311b61"/><stop offset="0.59" stop-color="#2a1155"/><stop offset="0.71" stop-color="#230446"/><stop offset="0.81" stop-color="#200041"/><stop offset="1" stop-color="#200041"/></linearGradient><linearGradient id="linear-gradient-4" x1="268.04" y1="118.49" x2="317.84" y2="118.49" gradientTransform="translate(247.39 -194.2) rotate(59.69)" gradientUnits="userSpaceOnUse"><stop offset="0" stop-color="#311b61"/><stop offset="0.2" stop-color="#290f52"/><stop offset="0.49" stop-color="#200041"/><stop offset="1" stop-color="#0f001f"/></linearGradient><linearGradient id="linear-gradient-5" x1="332.05" y1="147.42" x2="286.66" y2="114.65" gradientTransform="translate(248.38 -194.04) rotate(59.69)" xlink:href="#linear-gradient-4"/><radialGradient id="radial-gradient" cx="30710.52" cy="12977.75" r="16.7" gradientTransform="matrix(-0.49, -0.32, -0.36, 0.56, 20099.7, 2681.76)" gradientUnits="userSpaceOnUse"><stop offset="0" stop-color="#972a74"/><stop offset="0.04" stop-color="#8a266a"/><stop offset="0.19" stop-color="#601b4a"/><stop offset="0.35" stop-color="#3d112f"/><stop offset="0.51" stop-color="#230a1b"/><stop offset="0.67" stop-color="#0f040c"/><stop offset="0.83" stop-color="#040103"/><stop offset="1"/></radialGradient><radialGradient id="radial-gradient-2" cx="8772.04" cy="117.72" r="26.71" gradientTransform="matrix(-1, 0, 0, 1, 9060.25, 0)" xlink:href="#New_Gradient_Swatch_1"/><radialGradient id="radial-gradient-3" cx="-3147.57" cy="-3172.55" r="30.69" gradientTransform="matrix(0.87, 0.5, -0.86, 0.5, 315.04, 3271.81)" gradientUnits="userSpaceOnUse"><stop offset="0.55" stop-color="#311b61"/><stop offset="0.59" stop-color="#372266"/><stop offset="0.65" stop-color="#483472"/><stop offset="0.72" stop-color="#635388"/><stop offset="0.81" stop-color="#8a7da5"/><stop offset="0.89" stop-color="#bbb4cb"/><stop offset="0.99" stop-color="#f6f5f8"/><stop offset="1" stop-color="#fff"/></radialGradient><mask id="mask" x="8.79" y="-17.11" width="520.67" height="340" maskUnits="userSpaceOnUse"><rect class="cls-1" x="8.79" y="-17.11" width="520.67" height="340"/></mask><mask id="mask-2" x="0" y="36.23" width="527.84" height="345.55" maskUnits="userSpaceOnUse"><rect class="cls-2" x="7.18" y="36.23" width="520.67" height="340" transform="translate(535.02 412.46) rotate(180)"/></mask><linearGradient id="linear-gradient-6" x1="265.52" y1="71.83" x2="362.44" y2="239.7" gradientUnits="userSpaceOnUse"><stop offset="0.06" stop-color="#200041"/><stop offset="0.26" stop-color="#210243"/><stop offset="0.36" stop-color="#25084b"/><stop offset="0.43" stop-color="#2c1358"/><stop offset="0.47" stop-color="#311b61"/><stop offset="0.48" stop-color="#351f65"/><stop offset="0.5" stop-color="#422c73"/><stop offset="0.51" stop-color="#584188"/><stop offset="0.52" stop-color="#765fa7"/><stop offset="0.53" stop-color="#8770b8"/><stop offset="0.54" stop-color="#7e67ae"/><stop offset="0.56" stop-color="#5c468d"/><stop offset="0.59" stop-color="#442e75"/><stop offset="0.61" stop-color="#362066"/><stop offset="0.63" stop-color="#311b61"/><stop offset="0.67" stop-color="#2a1155"/><stop offset="0.75" stop-color="#230446"/><stop offset="0.81" stop-color="#200041"/><stop offset="1" stop-color="#200041"/></linearGradient><radialGradient id="radial-gradient-4" cx="416.13" cy="140.03" r="181.88" gradientUnits="userSpaceOnUse"><stop offset="0" stop-color="#711f56"/><stop offset="0.16" stop-color="#6c1e52"/><stop offset="0.36" stop-color="#5c1946"/><stop offset="0.58" stop-color="#431233"/><stop offset="0.82" stop-color="#200918"/><stop offset="1"/></radialGradient><radialGradient id="radial-gradient-5" cx="385.71" cy="127.04" r="107.15" gradientUnits="userSpaceOnUse"><stop offset="0" stop-color="#af8afc"/><stop offset="1" stop-color="#10054d"/></radialGradient><linearGradient id="linear-gradient-7" x1="398.21" y1="341.28" x2="247.78" y2="23.42" gradientTransform="matrix(1, 0, 0, 1, 0, 0)" xlink:href="#linear-gradient-4"/><linearGradient id="linear-gradient-8" x1="287.95" y1="208.12" x2="382.42" y2="208.12" gradientTransform="matrix(1, 0, 0, 1, 0, 0)" xlink:href="#linear-gradient-4"/><linearGradient id="linear-gradient-9" x1="266.99" y1="78.07" x2="410.72" y2="352.14" gradientUnits="userSpaceOnUse"><stop offset="0.01" stop-color="#9f19ab"/><stop offset="0.43" stop-color="#5f27bd"/><stop offset="0.9" stop-color="#3d065f"/></linearGradient><linearGradient id="linear-gradient-10" x1="294.83" y1="177.57" x2="384.89" y2="369.74" xlink:href="#linear-gradient-9"/><radialGradient id="radial-gradient-6" cx="335.19" cy="216.76" r="39.03" xlink:href="#radial-gradient-4"/><linearGradient id="linear-gradient-11" x1="-725.05" y1="10112.27" x2="-708.15" y2="10112.27" gradientTransform="matrix(-0.5, 1.44, -0.87, 0.5, 8790.68, -3844.6)" xlink:href="#linear-gradient-4"/><linearGradient id="linear-gradient-12" x1="396.1" y1="177.39" x2="384.44" y2="176.89" gradientUnits="userSpaceOnUse"><stop offset="0" stop-color="#3d065f"/><stop offset="1" stop-color="#5f27bd"/></linearGradient><radialGradient id="radial-gradient-7" cx="390.24" cy="172.41" r="6.84" xlink:href="#radial-gradient-4"/><radialGradient id="Radial_Gradient_1" cx="330.37" cy="105.63" r="8.6" xlink:href="#New_Gradient_Swatch_1"/><radialGradient id="radial-gradient-8" cx="155.96" cy="1547.13" r="13.51" gradientTransform="matrix(-0.1, 0.99, 0.99, 0.1, -1226.79, -224.34)" gradientUnits="userSpaceOnUse"><stop offset="0.09" stop-color="#fff"/><stop offset="0.1" stop-color="#e2dee7"/><stop offset="0.12" stop-color="#b0a5bf"/><stop offset="0.14" stop-color="#86749c"/><stop offset="0.16" stop-color="#634c80"/><stop offset="0.17" stop-color="#482d69"/><stop offset="0.19" stop-color="#35175a"/><stop offset="0.21" stop-color="#290a50"/><stop offset="0.23" stop-color="#25054d"/><stop offset="0.27" stop-color="#1d043c"/><stop offset="0.34" stop-color="#120226"/><stop offset="0.42" stop-color="#0a0115"/><stop offset="0.51" stop-color="#040109"/><stop offset="0.65" stop-color="#010002"/><stop offset="1"/></radialGradient><radialGradient id="radial-gradient-9" cx="146.62" cy="1541.29" r="10.23" gradientTransform="matrix(-0.45, 0.89, 0.89, 0.45, -1022.09, -744.99)" xlink:href="#radial-gradient-8"/><radialGradient id="radial-gradient-10" cx="139.04" cy="1536.7" r="7.67" gradientTransform="matrix(-0.71, 0.71, 0.71, 0.71, -711.29, -1105.9)" xlink:href="#radial-gradient-8"/><mask id="mask-3" x="290.26" y="192.29" width="88.75" height="147.75" maskUnits="userSpaceOnUse"><rect class="cls-3" x="290.26" y="192.29" width="88.75" height="147.75"/></mask><radialGradient id="radial-gradient-11" cx="-3055.68" cy="-3077.68" r="30.69" gradientTransform="matrix(0.87, 0.5, -0.86, 0.5, 396.18, 3227.06)" xlink:href="#radial-gradient-3"/><linearGradient id="linear-gradient-13" x1="364.89" y1="197.62" x2="399.72" y2="136.78" xlink:href="#linear-gradient-3"/><linearGradient id="linear-gradient-14" x1="364.22" y1="171.02" x2="414.02" y2="171.02" gradientTransform="translate(340.38 -251.22) rotate(59.69)" xlink:href="#linear-gradient-4"/><radialGradient id="radial-gradient-12" cx="30525.57" cy="12963.83" r="16.7" gradientTransform="matrix(0, -0.59, -0.66, 0, 8969.77, 18111.21)" xlink:href="#radial-gradient"/><radialGradient id="radial-gradient-13" cx="8675.86" cy="170.25" r="26.71" gradientTransform="matrix(-1, 0, 0, 1, 9060.25, 0)" xlink:href="#New_Gradient_Swatch_1"/><linearGradient id="New_Gradient_Swatch_copy_24-2" x1="376.7" y1="198.96" x2="406.2" y2="145.46" xlink:href="#New_Gradient_Swatch_copy_24"/><linearGradient id="New_Gradient_Swatch_copy_9" x1="383.72" y1="172.11" x2="455.33" y2="192.33" gradientTransform="translate(350.7 -257.82) rotate(59.69)" gradientUnits="userSpaceOnUse"><stop offset="0.04" stop-color="#9f19ab"/><stop offset="0.24" stop-color="#ae25b1"/><stop offset="0.65" stop-color="#d744bf"/><stop offset="1" stop-color="#ff63ce"/></linearGradient><radialGradient id="radial-gradient-14" cx="8664.35" cy="176.04" r="23.31" gradientTransform="matrix(-1, 0, 0, 1, 9060.25, 0)" xlink:href="#New_Gradient_Swatch_1"/><linearGradient id="New_Gradient_Swatch_copy_23-2" x1="391.96" y1="192.76" x2="420.46" y2="144.51" xlink:href="#New_Gradient_Swatch_copy_23"/><radialGradient id="radial-gradient-15" cx="8658.2" cy="179.44" r="15.64" gradientTransform="matrix(-1, 0, 0, 1, 9060.25, 0)" xlink:href="#New_Gradient_Swatch_1"/><linearGradient id="New_Gradient_Swatch_copy_34-2" x1="384.9" y1="204.67" x2="441.9" y2="140" gradientTransform="translate(357.07 -261.12) rotate(59.69)" xlink:href="#New_Gradient_Swatch_copy_34"/><radialGradient id="radial-gradient-16" cx="8656.11" cy="180.3" r="11.03" gradientTransform="matrix(-1, 0, 0, 1, 9060.25, 0)" xlink:href="#New_Gradient_Swatch_1"/><radialGradient id="radial-gradient-17" cx="282.16" cy="52.79" r="0.1" gradientTransform="matrix(1, 0, 0, 1, 0, 0)" xlink:href="#radial-gradient-3"/><linearGradient id="New_Gradient_Swatch_copy_23-3" x1="307.21" y1="27.84" x2="400.35" y2="158.01" xlink:href="#New_Gradient_Swatch_copy_23"/><linearGradient id="linear-gradient-15" x1="280.94" y1="157.02" x2="366.03" y2="91.21" gradientUnits="userSpaceOnUse"><stop offset="0" stop-color="#9f79c8"/><stop offset="0.14" stop-color="#a27dca"/><stop offset="0.27" stop-color="#ac88cf"/><stop offset="0.4" stop-color="#bc9bd7"/><stop offset="0.52" stop-color="#d1b4e3"/><stop offset="0.73" stop-color="#dbc4e9"/><stop offset="1" stop-color="#ebdff3"/></linearGradient><radialGradient id="radial-gradient-18" cx="279.07" cy="72.2" r="14.79" xlink:href="#New_Gradient_Swatch_1"/><radialGradient id="radial-gradient-19" cx="341.86" cy="109.28" r="58.44" xlink:href="#New_Gradient_Swatch_1"/></defs><title>movilmusic</title><g class="cls-4"><g id="Capa_2" data-name="Capa 2"><g id="Layer_1" data-name="Layer 1"><path class="cls-5" d="M286.38,88.34V75.45c0-14.14,3.5-23.49,9.55-28.8l-9.53,5.51A19.51,19.51,0,0,0,284,53.54l-.25.14h0c-7.18,5-11.4,13.27-11.4,28.8V96.83Z"/><path class="cls-6" d="M257.86,114.6c0,4.51,1.56,7.71,4.1,9.26l1.57,1c2.64,1.47,1-1.87,5-4.18,8.05-4.65,14.58-15.92,14.58-25.16,0-4.57,4.23-4.61,1.64-6.14l-2.08-1.11c-2.63-1.42-6.22-1.16-10.18,1.13C264.4,94.09,257.86,105.35,257.86,114.6Z"/><path class="cls-7" d="M257.6,124.06c0,6.73,2.32,11.5,6.1,13.8.11.07,7.55,4,7.66,4.11,3.93,2.2,1.42-2.78,7.38-6.22,12-6.93,21.73-23.72,21.73-37.49,0-6.81,6.66-6.43,2.8-8.7-.11-.07-8.66-4.6-8.77-4.65-3.91-2.13-9.26-1.73-15.17,1.67C267.33,93.51,257.6,110.29,257.6,124.06Z"/><path class="cls-8" d="M264.28,130.9c0,7.71,2.66,13.17,7,15.81l3.14,1.77c4.49,2.52,1.62-3.19,8.45-7.13,13.75-7.95,24.08-24.9,24.08-40.68,0-7.8,7.2-10,4.52-12.08-.12-.09-4.76-2.5-4.89-2.57-4.48-2.43-10.62-2-17.38,1.93C275.43,95.89,264.28,115.12,264.28,130.9Z"/><ellipse class="cls-9" cx="292.94" cy="118.49" rx="35.11" ry="20.27" transform="translate(42.8 311.59) rotate(-59.69)"/><ellipse class="cls-10" cx="293.29" cy="119.44" rx="24.14" ry="13.94" transform="translate(42.16 312.35) rotate(-59.69)"/><path class="cls-11" d="M261.23,119.24c-3.32,5.14-2.32,11.7,2.23,14.64s10.94,1.16,14.26-4,2.33-11.69-2.22-14.64S264.56,114.1,261.23,119.24Z"/><path class="cls-12" d="M292.54,89.74c6.59-3.81,11.79-4.74,16.24-2.51-4.15-1.16-9.3-.3-14.88,2.93-13.76,7.94-24.91,27.17-24.91,43,0,8.22,3,13.87,7.87,16.29-6.08-1.7-9.22-7.33-9.22-16.71C267.64,116.91,278.79,97.68,292.54,89.74Z"/><ellipse class="cls-13" cx="302.6" cy="121.68" rx="38.48" ry="22.22" transform="matrix(0.5, -0.86, 0.86, 0.5, 44.84, 321.51)"/><g class="cls-14"><g class="cls-15"><polygon class="cls-16" points="528.87 278.44 274.44 139.77 20 1.11 20.24 0.67 274.68 139.33 529.11 278 528.87 278.44"/></g><g class="cls-17"><path class="cls-18" d="M21.39.61C25.6,2.68,66.6,28.39,66.25,30.91,66,32.82,86.8,45.8,88.61,46.32c3.57,1,42.46,18.95,43.92,16.58.93-1.5,22.61,8.41,24,8.11.85-.19,15.85,7.72,17,8.46,3.25,2.1,48.1,30.69,47.24,34.23s40.18,29.6,43.5,31c.68.29,10.41,5.31,11.05,5.2,2.24-.39,43.26,18.28,45.35,15.56,3.06-4,64.91,23.92,69.07,26.73,1.41.95,20.55,12,20.76,13.19.38,2.16,30.33,21.56,28.9,23.51-1.14,1.56,17.92,13.83,18.17,14.84.1.42,7,4.34,7.54,4.61.88.44,11,5.7,11.52,5.45.75-.38,14.17,5.69,14.35,4.59s11.12,4,11.67,3.71c.29-.14,6.08,2.86,6.57,3.1,1.66.86,19.69,12.91,19.65,13.37,0,.05-.23.48-.23.48l-.21-.09s-17.86-12.51-19.69-13.45c-.47-.24-6-3.12-6.31-3-.53.26-11.28-4.6-11.45-3.64s-13.82-5.07-14.6-4.67c-.18.09-3.25-1.42-3.48-1.42-.4,0-7.63-3.82-8.19-4.1s-7.64-4.3-7.74-4.74c-.26-1-19.45-13.38-18.3-14.95,1.42-1.94-28.33-21.22-28.7-23.36-.21-1.18-19.17-12.12-20.56-13.06-4.14-2.79-65.73-30.56-68.76-26.61-1.36,1.76-29.85-11.41-31.22-10.3-.81.65-13.55-5.47-14.32-5.34s-10.53-5-11.19-5.25c-3.35-1.45-44.69-27.74-43.84-31.25s-43.75-32-47-34c-1.12-.73-16-8.56-16.79-8.37-1.33.3-22.9-9.57-23.82-8.07-.72,1.16-19.62-7.53-20.64-6.74s-22-9.51-23.61-10c-1.85-.53-22.88-13.72-22.62-15.59.35-2.5-40.24-28-44.42-30Z"/></g><g class="cls-19"><path class="cls-20" d="M22.54.55C31,4.69,67.37,31.27,66.67,36.3c-.53,3.83,18,17.17,21.6,18.22,7.14,2,43.8,15.49,46.73,10.76,1.85-3,22.33,4.34,25,3.74,1.7-.38,16.26,7,18.52,8.5,6.49,4.22,45.89,34,44.18,41.06s34.36,34.12,41,37c1.37.59,10.85,5.18,12.12,5,4.49-.77,43.61,13.17,47.79,7.73,6.11-7.93,65.24,12.66,73.58,18.29,2.8,1.89,20.9,13,21.31,15.36.76,4.31,25.94,24.2,23.09,28.09-2.28,3.13,13.79,15.65,14.28,17.67.21.85,6.77,4.75,7.86,5.29,1.76.87,11.62,5.7,12.59,5.21,1.51-.77,13.8,3.44,14.17,1.24.34-1.95,10.36,1.51,11.46,1,.58-.29,6.21,2.46,7.18,3,3.33,1.7,19.44,14.94,19.36,15.86a4.29,4.29,0,0,1-.22.53l-.24-.1c0-.05-15.7-14.1-19.36-16-.94-.48-6.34-3.13-6.9-2.85-1.05.53-10.9-2.85-11.23-.93-.38,2.22-12.86-2.07-14.41-1.28-.37.18-3.36-1.13-3.83-1.13-.8,0-7.83-3.58-8.95-4.14s-7.85-4.56-8.07-5.43c-.5-2.06-16.68-14.67-14.39-17.82,2.84-3.87-22.17-23.64-22.92-27.91-.41-2.36-18.33-13.35-21.11-15.22-8.27-5.58-67.16-26.09-73.23-18.19-2.71,3.52-29.76-6.5-32.5-4.29-1.62,1.31-13.95-3.77-15.48-3.5-1.36.24-11-4.43-12.28-5-6.7-2.89-43-30.21-41.33-37.24s-37.48-36.66-43.92-40.84c-2.24-1.46-16.63-8.79-18.3-8.42-2.67.6-23-6.72-24.89-3.73-1.44,2.33-19.26-4.17-21.3-2.58-2.31,1.8-22.55-7.34-25.77-8.27C84.18,53.81,65.5,40.17,66,36.44,66.71,31.44,30.66,5.1,22.31,1Z"/></g><g class="cls-21"><path class="cls-22" d="M23.69.49C36.3,6.7,68.15,34.15,67.1,41.69c-.8,5.75,15.39,19.46,20.82,21,10.71,3.08,45.15,12,49.54,4.93,2.78-4.52,22.06.29,26.12-.62,2.54-.57,16.65,6.34,20,8.55,9.74,6.32,43.68,37.25,41.12,47.88s28.54,38.64,38.49,42.93c2.05.89,11.27,5.05,13.18,4.72,6.74-1.15,44,8.06,50.23-.1,9.16-11.89,65.58,1.4,78.08,9.84,4.21,2.84,21.25,14,21.88,17.55,1.12,6.46,21.54,26.83,17.27,32.67-3.42,4.68,9.66,17.47,10.4,20.49.31,1.28,6.53,5.16,8.18,6,2.63,1.3,12.2,5.71,13.66,5,2.26-1.15,13.42,1.2,14-2.1.5-2.91,9.61-1,11.25-1.79.87-.44,6.34,2.07,7.79,2.81,5,2.56,19.19,17,19.07,18.36a2.59,2.59,0,0,1-.21.57l-.26-.09c0-.07-13.55-15.69-19-18.5-1.41-.72-6.66-3.14-7.5-2.72-1.58.79-10.52-1.1-11,1.78-.57,3.33-11.91.92-14.23,2.11-.55.28-3.47-.83-4.17-.83-1.2,0-8-3.36-9.71-4.19s-8.06-4.81-8.39-6.13c-.76-3.09-13.93-16-10.48-20.67,4.24-5.81-16-26.07-17.14-32.48-.62-3.54-17.5-14.56-21.67-17.38-12.4-8.37-68.58-21.6-77.7-9.76-4.07,5.29-29.67-1.59-33.78,1.72-2.43,2-14.35-2.07-16.64-1.66-2,.36-11.39-3.89-13.37-4.75-10.05-4.34-41.37-32.68-38.83-43.23S192.9,82.2,183.24,75.93c-3.37-2.18-17.32-9-19.83-8.46-4,.9-23.17-3.88-25.94.61-2.16,3.49-18.91-.82-22,1.56-3.47,2.7-23.1-5.17-27.94-6.55C82,61.49,65.68,47.4,66.46,41.81,67.5,34.31,36,7.1,23.46.93Z"/></g><g class="cls-23"><path class="cls-24" d="M24.84.43C41.66,8.71,68.92,37,67.53,47.08c-1.07,7.67,12.8,21.75,20,23.84,14.28,4.1,46.49,8.57,52.34-.9,3.72-6,21.79-3.77,27.2-5,3.39-.76,17.06,5.65,21.59,8.59,13,8.43,41.47,40.54,38.06,54.71-3.37,14,22.72,43.16,36,48.89,2.73,1.17,11.71,4.91,14.25,4.48,9-1.54,44.3,2.94,52.67-7.93,12.21-15.86,65.92-9.87,82.59,1.38,5.61,3.79,21.59,15,22.43,19.73,1.5,8.61,17.15,29.47,11.46,37.25-4.56,6.25,5.52,19.29,6.52,23.33.42,1.7,6.29,5.56,8.49,6.64,3.5,1.73,12.79,5.71,14.73,4.72,3-1.54,13.05-1,13.8-5.44.67-3.89,8.85-3.45,11-4.55,1.17-.58,6.47,1.68,8.4,2.67,6.66,3.41,18.94,19,18.78,20.85a3.37,3.37,0,0,1-.19.62l-.3-.09c0-.1-11.38-17.29-18.69-21-1.88-1-7-3.14-8.09-2.59-2.11,1.06-10.15.65-10.8,4.49-.76,4.45-10.95,3.91-14,5.5-.73.37-3.57-.53-4.5-.53-1.6,0-8.23-3.13-10.48-4.24s-8.28-5.07-8.71-6.83c-1-4.12-11.17-17.24-6.58-23.53,5.66-7.75-9.86-28.49-11.36-37-.82-4.72-16.66-15.78-22.22-19.53-16.53-11.16-70-17.13-82.17-1.33-5.42,7-29.59,3.31-35,7.72-3.25,2.62-14.75-.37-17.81.18-2.72.48-11.81-3.36-14.46-4.5-13.4-5.79-39.7-35.15-36.32-49.22s-24.92-46-37.8-54.42c-4.48-2.91-18-9.25-21.34-8.51-5.34,1.2-23.32-1-27,5-2.87,4.66-18.55,2.54-22.63,5.71-4.63,3.6-23.66-3-30.1-4.84-7.4-2.13-21.38-16.67-20.35-24.12C68.29,37.18,41.31,9.09,24.61.87Z"/></g><g class="cls-25"><path class="cls-26" d="M26,.37C47,10.71,69.7,39.91,68,52.47c-1.33,9.59,10.23,24,19.29,26.65,17.85,5.13,47.83,5.11,55.14-6.72,4.65-7.53,21.51-7.83,28.28-9.35,4.24-.95,17.47,5,23.13,8.64,16.23,10.54,39.26,43.81,35,61.53-4.21,17.49,16.91,47.68,33.49,54.84,3.41,1.47,12.13,4.78,15.31,4.24,11.23-1.92,44.65-2.17,55.11-15.76,15.26-19.83,66.25-21.14,87.09-7.07,7,4.74,22,15.94,23,21.91,1.88,10.77,12.76,32.11,5.65,41.84-5.7,7.81,1.39,21.1,2.63,26.15.53,2.13,6.06,6,8.81,7.32,4.38,2.16,13.38,5.71,15.8,4.48,3.78-1.93,12.68-3.29,13.62-8.79.83-4.86,8.09-5.93,10.82-7.3,1.47-.73,6.6,1.29,9,2.52,8.33,4.27,18.69,21.06,18.49,23.35a3.93,3.93,0,0,1-.18.66l-.32-.08c0-.13-9.23-18.88-18.37-23.56-2.35-1.21-7.29-3.15-8.68-2.45-2.63,1.31-9.76,2.39-10.58,7.2-1,5.55-10,6.9-13.87,8.87-.92.47-3.67-.23-4.84-.23-2,0-8.43-2.89-11.24-4.28s-8.49-5.33-9-7.52c-1.27-5.16-8.42-18.54-2.68-26.39,7.08-9.69-3.71-30.93-5.57-41.6-1-5.9-15.83-17-22.78-21.7-20.67-14-71.44-12.65-86.64,7.1-6.77,8.8-29.5,8.22-36.33,13.74-4.06,3.27-15.15,1.33-19,2-3.39.6-12.23-2.82-15.54-4.25-16.75-7.23-38-37.62-33.81-55.21s-18.65-50.75-34.75-61.2c-5.6-3.64-18.68-9.5-22.86-8.56-6.67,1.5-23.45,1.8-28.07,9.28-3.59,5.82-18.2,5.9-23.29,9.86-5.78,4.5-24.21-.81-32.26-3.13-9.26-2.66-20.89-17.65-19.59-27C69.09,40.05,46.64,11.09,25.76.81Z"/></g><g class="cls-27"><path class="cls-28" d="M27.15.3C52.37,12.72,70.48,42.79,68.38,57.87,66.77,69.37,76,84.19,86.9,87.32c21.42,6.15,49.18,1.65,57.94-12.55,5.58-9,21.24-11.89,29.36-13.71,5.08-1.14,17.87,4.27,24.66,8.68,19.48,12.65,37.06,47.1,31.94,68.36-5.05,21,11.09,52.2,31,60.79,4.1,1.77,12.57,4.66,16.39,4,13.47-2.3,45-7.28,57.54-23.59,18.31-23.79,66.59-32.4,91.6-15.51,8.41,5.68,22.29,16.92,23.54,24.08,2.26,12.92,8.37,34.75-.16,46.43-6.85,9.37-2.74,22.92-1.25,29,.63,2.55,5.82,6.37,9.12,8,5.26,2.59,14,5.72,16.88,4.23,4.53-2.31,12.3-5.53,13.43-12.12,1-5.84,7.33-8.42,10.61-10.06,1.76-.88,6.73.89,9.63,2.38,10,5.11,18.44,23.09,18.2,25.84a4,4,0,0,1-.17.71l-.35-.08c0-.16-7.07-20.48-18-26.09-2.82-1.45-7.6-3.16-9.27-2.32-3.16,1.58-9.39,4.14-10.38,9.91-1.13,6.66-9,9.89-13.68,12.26-1.1.57-3.78.07-5.18.07-2.4,0-8.63-2.67-12-4.33s-8.7-5.59-9.35-8.22c-1.52-6.18-5.66-19.82,1.22-29.24,8.5-11.63,2.45-33.36.22-46.17-1.24-7.08-15-18.22-23.34-23.85-24.8-16.74-72.87-8.17-91.1,15.52-8.14,10.57-29.42,13.13-37.62,19.75-4.87,3.93-15.55,3-20.14,3.84-4.08.73-12.66-2.28-16.63-4-20.11-8.68-36.38-40.09-31.3-61.2s-12.37-55.44-31.69-68c-6.73-4.37-19.37-9.73-24.38-8.6-8,1.79-23.59,4.64-29.13,13.62-4.31,7-17.85,9.25-24,14-6.94,5.4-24.76,1.37-34.43-1.41-11.1-3.19-20.39-18.64-18.83-29.81C69.88,42.92,52,13.08,26.92.75Z"/></g><g class="cls-29"><path class="cls-30" d="M28.3.24c29.42,14.49,43,45.42,40.5,63-1.87,13.42,5.07,28.61,17.76,32.26,25,7.18,50.52-1.8,60.75-18.37,6.5-10.54,21-16,30.43-18.08,5.93-1.33,18.28,3.58,26.2,8.73,22.73,14.75,34.85,50.37,28.88,75.17-5.89,24.49,5.27,56.73,28.48,66.75,4.78,2.07,13,4.53,17.45,3.77,15.72-2.69,45.34-12.39,60-31.43,21.36-27.75,66.93-43.66,96.1-24,9.82,6.63,22.64,17.91,24.1,26.26,2.63,15.08,4,37.39-6,51-8,10.93-6.87,24.74-5.13,31.81.73,3,5.59,6.78,9.43,8.67,6.14,3,14.57,5.72,17.95,4,5.29-2.7,11.93-7.77,13.25-15.47,1.16-6.81,6.57-10.89,10.4-12.81,2.05-1,6.86.5,10.24,2.23,11.66,6,18.2,25.14,17.9,28.34a3.7,3.7,0,0,1-.15.76l-.38-.08c0-.18-4.9-22.08-17.69-28.63-3.29-1.68-7.92-3.16-9.87-2.18-3.69,1.85-9,5.89-10.16,12.62-1.32,7.77-8.07,12.88-13.5,15.65-1.28.66-3.88.36-5.51.36-2.8,0-8.84-2.43-12.77-4.37s-8.92-5.84-9.67-8.92c-1.78-7.21-2.91-21.1,5.12-32.1,9.92-13.57,8.61-35.78,6-50.72-1.44-8.26-14.15-19.44-23.89-26C405.6,139,360.23,154.81,339,182.45c-9.49,12.33-29.33,18-38.9,25.76-5.68,4.58-15.95,4.73-21.3,5.68-4.76.85-13.09-1.74-17.72-3.74C237.58,200,226.32,167.58,232.25,143s-6.1-60.15-28.64-74.79c-7.85-5.09-20.05-10-25.89-8.65-9.34,2.1-23.73,7.49-30.2,18-5,8.15-17.49,12.61-24.62,18.16-8.1,6.3-25.32,3.53-36.59.29-13-3.72-19.89-19.62-18.08-32.66C70.67,45.79,57.29,15.08,28.07.69Z"/></g><g class="cls-31"><path class="cls-32" d="M29.45.18C63.08,16.74,72,48.54,69.23,68.65c-2.14,15.34,2.48,30.9,17,35.07,28.55,8.21,51.86-5.26,63.55-24.2,7.43-12,20.69-20,31.52-22.44C188.06,55.56,200,60,209,65.85c26,16.87,32.64,53.66,25.82,82-6.74,28-.56,61.25,26,72.71,5.47,2.35,13.43,4.39,18.52,3.52,18-3.07,45.68-17.5,62.42-39.25,24.41-31.72,67.27-54.93,100.6-32.42,11.22,7.58,23,18.9,24.66,28.44,3,17.24-.41,40-11.78,55.6-9.13,12.49-11,26.56-9,34.63.83,3.41,5.35,7.19,9.74,9.35,7,3.45,15.16,5.72,19,3.75,6-3.09,11.56-10,13.06-18.81,1.33-7.79,5.82-13.38,10.19-15.57,2.35-1.17,7,.11,10.86,2.09,13.32,6.82,17.94,27.17,17.6,30.83a5.48,5.48,0,0,1-.13.8l-.41-.08c0-.2-2.75-23.66-17.37-31.15-3.76-1.92-8.23-3.17-10.46-2-4.21,2.11-8.63,7.64-9.94,15.33-1.51,8.89-7.11,15.88-13.31,19-1.47.75-4,.66-5.86.66-3.2,0-9-2.21-13.53-4.42s-9.13-6.1-10-9.62c-2-8.24-.16-22.39,9-35,11.33-15.51,14.76-38.21,11.78-55.29-1.65-9.44-13.32-20.66-24.45-28.17-33.06-22.32-75.73.79-100,32.37-10.84,14.09-29.24,22.95-40.18,31.77-6.5,5.24-16.34,6.44-22.46,7.52-5.44,1-13.52-1.2-18.81-3.49-26.81-11.57-33.06-45-26.28-73.17S234.46,83,208.7,66.25c-9-5.83-20.73-10.2-27.41-8.7C170.62,60,157.43,67.87,150,79.85c-5.75,9.31-17.14,16-25.29,22.3-9.26,7.2-25.87,5.71-38.76,2C71.19,99.9,66.6,83.56,68.68,68.65c2.78-20-6.06-51.58-39.46-68Z"/></g><g class="cls-33"><path class="cls-34" d="M30.6.12C68.43,18.75,72.8,51.42,69.65,74c-2.4,17.26-.09,33.19,16.22,37.88,32.13,9.23,53.21-8.72,66.36-30,8.36-13.55,20.42-24.08,32.6-26.81,7.62-1.71,19.09,2.2,29.27,8.81,29.22,19,30.43,56.94,22.75,88.83-7.57,31.48-6.37,65.78,23.48,78.66,6.14,2.65,13.86,4.26,19.58,3.28,20.21-3.45,46-22.61,64.86-47.08,27.46-35.69,67.6-66.19,105.11-40.86,12.62,8.52,23.34,19.88,25.21,30.61,3.39,19.39-4.8,42.68-17.59,60.18-10.27,14.06-15.13,28.38-12.9,37.47.94,3.82,5.12,7.59,10.07,10,7.89,3.88,15.74,5.73,20.09,3.5,6.8-3.47,11.19-12.26,12.87-22.15,1.5-8.76,5.07-15.85,10-18.32,2.64-1.32,7.11-.28,11.47,1.94,15,7.68,17.69,29.21,17.31,33.33,0,.47-.12.82-.12.85l-.44-.08c0-.23-.58-25.26-17-33.68-4.23-2.16-8.55-3.17-11.05-1.92-4.74,2.38-8.25,9.4-9.73,18-1.71,10-6.16,18.86-13.13,22.42-1.65.85-4.1,1-6.2,1-3.6,0-9.23-2-14.29-4.47s-9.34-6.36-10.32-10.31c-2.28-9.27,2.61-23.68,12.94-37.82,12.74-17.44,20.92-40.63,17.56-59.85-1.85-10.62-12.48-21.87-25-30.33C412.4,122,372.43,152.4,345.08,187.94c-12.19,15.85-29.16,27.85-41.46,37.78-7.31,5.89-16.74,8.13-23.63,9.35-6.11,1.08-13.94-.67-19.89-3.24-30.16-13-31.39-47.51-23.77-79.16s6.44-69.54-22.53-88.36c-10.09-6.55-21.42-10.43-28.93-8.74-12,2.69-24,13.16-32.32,26.63-6.47,10.47-16.78,19.32-26,26.45-10.41,8.1-26.42,7.89-40.92,3.72C69,107.58,66.79,90.79,69.12,74,72.25,51.53,67.94,19.07,30.37.57Z"/></g><g class="cls-35"><path class="cls-36" d="M31.75.06c42,20.7,41.83,54.24,38.33,79.38-2.67,19.17-2.68,35.47,15.45,40.68,35.7,10.26,54.55-12.18,69.16-35.85,9.29-15,20.15-28.13,33.68-31.17,8.47-1.9,19.49,1.51,30.81,8.86,32.47,21.09,28.22,60.22,19.69,95.65-8.42,35-12.19,70.3,21,84.61,6.82,2.95,14.28,4.14,20.64,3.05,22.46-3.85,46.38-27.73,67.3-54.92C378.31,150.7,415.73,112.9,457.4,141c14,9.46,23.69,20.87,25.77,32.79,3.77,21.55-9.19,45.32-23.4,64.77-11.41,15.62-19.26,30.19-16.78,40.29,1.05,4.25,4.88,8,10.38,10.7,8.76,4.32,16.33,5.73,21.17,3.26,7.55-3.86,10.81-14.5,12.68-25.5,1.66-9.73,4.31-18.33,9.78-21.07,2.93-1.46,7.24-.68,12.08,1.8,16.65,8.52,17.44,31.25,17,35.82,0,.53-.11.87-.11.89l-.47-.07c0-.26,1.58-26.85-16.7-36.21-4.69-2.41-8.85-3.18-11.64-1.78-5.26,2.63-7.87,11.14-9.51,20.75-1.9,11.1-5.2,21.85-12.95,25.81a14.69,14.69,0,0,1-6.53,1.25c-4,0-9.44-1.74-15.06-4.51s-9.56-6.62-10.64-11c-2.53-10.3,5.36-25,16.84-40.67,14.16-19.38,27.08-43.06,23.35-64.41-2.06-11.8-11.65-23.1-25.56-32.49-41.33-27.9-78.59,9.74-109,49.23a266.61,266.61,0,0,1-42.74,43.79,55,55,0,0,1-24.79,11.19c-6.79,1.2-14.37-.13-21-3-33.51-14.46-29.73-50-21.27-85.15s12.73-74.24-19.47-95.15c-11.21-7.28-22.1-10.66-30.45-8.79-13.34,3-24.14,16-33.38,31-7.18,11.64-16.42,22.68-26.61,30.6-11.57,9-27,10.06-43.08,5.43C66.86,115.26,67,98,69.56,79.39c3.48-25,3.71-58.33-38-78.88Z"/></g><path class="cls-37" d="M467.67,299.18c-4.4,0-9.64-1.52-15.82-4.56s-9.77-6.87-11-11.71c-2.79-11.33,8.12-26.25,20.74-43.53,15.58-21.32,33.24-45.48,29.13-69-2.26-13-10.81-24.31-26.11-34.65-45.46-30.69-80,14.23-113.44,57.66-14.91,19.37-29,37.67-44,49.8-16.86,13.6-32.57,17-48,10.3-36.86-15.92-28.07-52.46-18.76-91.15S259.4,83.44,224,60.43c-12.33-8-22.79-10.89-32-8.83-14.68,3.29-24.28,18.84-34.44,35.31-7.9,12.8-16.08,26-27.28,34.75-12.73,9.89-27.53,12.23-45.25,7.14-20.36-5.85-17.89-23.55-15-44C73.83,57.27,78.6,23.06,32.68.45L32.9,0C79.14,22.77,74.35,57.18,70.5,84.83c-2.93,21.09-5.25,37.75,14.69,43.49,39.27,11.29,55.89-15.64,72-41.68C167.37,70.09,177,54.45,191.91,51.11c9.32-2.09,19.9.82,32.35,8.9,35.71,23.2,26,63.5,16.63,102.48-9.26,38.47-18,74.82,18.47,90.57,34,14.68,61.92-21.57,91.45-59.94,33.57-43.62,68.28-88.72,114.12-57.77,15.42,10.41,24,21.85,26.32,35,4.14,23.69-13.58,47.95-29.21,69.35-12.55,17.17-23.39,32-20.66,43.12,1.15,4.67,4.65,8.39,10.69,11.37,9.64,4.75,16.92,5.73,22.24,3,8.31-4.23,10.44-16.74,12.5-28.83,1.83-10.71,3.55-20.82,9.57-23.83,3.22-1.61,7.37-1.07,12.69,1.65,20.42,10.46,16.67,39,16.63,39.26l-.49-.07c0-.28,3.73-28.45-16.37-38.74-5.17-2.65-9.17-3.19-12.23-1.65-5.79,2.9-7.5,12.89-9.3,23.46-2.09,12.22-4.24,24.85-12.77,29.2A14.88,14.88,0,0,1,467.67,299.18Z"/></g><g class="cls-38"><g class="cls-39"><g class="cls-15"><polygon class="cls-16" points="493.33 381.78 246.67 244.78 0 107.78 0.24 107.34 246.91 244.34 493.58 381.34 493.33 381.78"/></g><g class="cls-40"><path class="cls-18" d="M1.23,104.26S30,117,31.86,117.92C33.39,118.7,56,132.86,56,134.58c0,2,31.71,21.87,34.27,23.13.63.31,7.9,4.16,8.17,4,.54-.39,15.68,6.81,15.5,5.43s17.27,6.76,18,6.31c.58-.36,19.36,9.83,21,11,4.12,2.78,60.77,39.57,59.21,43.41-.7,1.73,22.56,16.64,22.46,18,0,.35,4.73,3.31,4.79,3.62.18,1,15.26,9.72,16.36,10.2,3.11,1.34,28.17,13.88,28.84,13.15.31-.35,6.74,2.77,7.2,2.75l.2.09c.74,0,23.67,12.86,25.51,14.6.83.79,14.54,8.3,15.31,8.21,1.63-.18,34.31,15.12,35.78,12.91,2.07-3.11,55.26,21.6,58.86,22.64,1.85.53,22.6,13.61,22.32,15.26-.38,2.23,40.52,28,44.7,30l-.24.44c-4.21-2.08-45.51-28.07-45.12-30.32.29-1.69-20.19-14.53-22-15-3.58-1-56.41-25.57-58.48-22.47-1.47,2.21-34.38-13.2-36-13-.79.09-14.72-7.55-15.56-8.34-1.81-1.71-24.55-14.48-25.27-14.48l-.18-.08c-.45,0-6.72-3-7-2.68-.68.74-26.05-12-29.2-13.32-1.08-.46-16-9.1-16.22-10.06-.07-.33-5.29-3.58-5.26-4,.09-1.38-23.23-16.34-22.53-18.07,1.55-3.82-54.79-40.43-58.88-43.19-1.65-1.11-20.14-11.15-20.7-10.81-.72.44-18-7.71-17.76-6.22s-15.17-5.91-15.73-5.51c-.29.21-7.8-3.76-8.44-4.08-2.59-1.27-34.57-21.31-34.62-23.34,0-1.71-22.44-15.75-24-16.52C29.49,117.26,1.06,104.69,1,104.7Z"/></g><g class="cls-41"><path class="cls-20" d="M2.21,101.19c.07,0,29.52,9.84,33.22,11.74,3.06,1.56,23.42,16.09,23.49,19.53.08,4,28.64,24.43,33.76,26.95,1.26.62,8.28,4.14,8.83,3.74,1.09-.77,14.52,4.27,14.16,1.51-.4-3,15.1,2.73,16.58,1.82,1.16-.72,19.26,8.87,22.59,11.12,8.24,5.56,57.28,43.46,54.16,51.13-1.4,3.46,18.8,18.68,18.61,21.42-.05.72,4.25,3.74,4.36,4.34.35,2,14.61,10.62,16.8,11.56,6.23,2.69,29.69,13,31,11.51.63-.7,6.72,1.77,7.64,1.74,0,0,.19.08.22.08,1.49,0,23.35,12.4,27,15.88,1.66,1.57,14.85,8.7,16.41,8.53,3.26-.37,34.19,11.11,37.13,6.7,4.14-6.22,54.6,12.14,61.81,14.21,3.7,1.07,22.1,14.4,21.54,17.7-.77,4.46,35.52,30.7,43.88,34.82l-.24.44c-8.41-4.15-45.06-30.62-44.29-35.12.58-3.38-17.6-16.41-21.22-17.45-7.14-2-57.27-20.27-61.4-14.08-2.95,4.43-34.1-7.15-37.4-6.77-1.58.18-15-7.07-16.66-8.66-3.63-3.42-25.34-15.75-26.79-15.75l-.2-.07c-.89,0-6.83-2.38-7.45-1.7-1.35,1.49-25.12-8.93-31.4-11.64-2.17-.93-16.3-9.46-16.7-11.38-.14-.66-4.86-4-4.8-4.77.19-2.76-20.07-18-18.67-21.48,3.11-7.64-45.67-45.35-53.84-50.86-3.3-2.23-21.13-11.68-22.25-11-1.43.88-16.72-4.76-16.33-1.79.36,2.79-13.26-2.34-14.39-1.53-.58.42-7.84-3.21-9.13-3.85-5.17-2.55-34-23.12-34.09-27.18-.07-3.42-20.28-17.83-23.29-19.37-3.66-1.87-32.8-11.62-32.87-11.59Z"/></g><g class="cls-42"><path class="cls-22" d="M3.2,98.11c.1,0,30.25,7,35.8,9.83,4.58,2.34,22.72,17.24,22.83,22.4.12,6.06,25.56,27,33.24,30.76,1.9.94,8.68,4.13,9.5,3.54,1.63-1.17,13.36,1.72,12.82-2.42-.59-4.5,12.94-1.3,15.15-2.67,1.74-1.07,19.17,7.91,24.17,11.28,12.34,8.34,53.78,47.34,49.1,58.85-2.1,5.19,15.05,20.71,14.76,24.83-.08,1.07,3.76,4.16,3.92,5.06.54,3,14,11.5,17.26,12.92,9.34,4,31.21,12.06,33.21,9.86,1-1,6.7.78,8.08.73,0,0,.2.07.25.07,2.23,0,23,11.94,28.54,17.16,2.49,2.35,15.17,9.11,17.5,8.84,4.89-.55,34.08,7.11,38.49.5,6.22-9.33,53.94,2.68,64.75,5.79,5.55,1.59,21.61,15.19,20.77,20.13-1.15,6.7,30.53,33.41,43.07,39.59l-.24.44c-12.63-6.22-44.61-33.17-43.46-39.91.87-5.08-15-18.29-20.44-19.85-10.72-3.08-58.14-15-64.33-5.69-4.43,6.63-33.82-1.11-38.77-.54-2.37.27-15.25-6.59-17.77-9-5.43-5.13-26.12-17-28.29-17,0,0-.2-.07-.23-.07-1.32,0-6.94-1.73-7.87-.71-2,2.23-24.18-5.89-33.61-10-3.24-1.4-16.57-9.82-17.17-12.71-.21-1-4.42-4.37-4.34-5.55.29-4.14-16.91-19.7-14.8-24.89,4.65-11.47-36.55-50.28-48.81-58.55-4.95-3.34-22.11-12.2-23.8-11.16-2.14,1.32-15.49-1.82-14.9,2.64.55,4.18-11.35,1.24-13,2.45-.87.62-7.88-2.67-9.82-3.63-7.76-3.82-33.45-24.92-33.57-31-.1-5.12-18.1-19.9-22.61-22.21-5.5-2.82-35.36-9.74-35.45-9.7Z"/></g><g class="cls-43"><path class="cls-24" d="M4.18,95c.13-.06,31,4.12,38.39,7.92,6.11,3.12,22,18.39,22.17,25.28.16,8.07,22.48,29.52,32.73,34.57,2.52,1.24,9.06,4.11,10.16,3.32,2.17-1.55,12.2-.81,11.48-6.33-.79-6,10.77-5.34,13.72-7.16,2.32-1.43,19.07,6.93,25.74,11.43,16.46,11.12,50.28,51.23,44.05,66.58-2.81,6.91,11.29,22.73,10.91,28.22-.1,1.43,3.27,4.58,3.49,5.79.72,4,13.32,12.39,17.71,14.28,12.45,5.37,32.73,11.14,35.39,8.21,1.27-1.39,6.68-.21,8.51-.27a2.74,2.74,0,0,1,.28.05c3,0,22.69,11.48,30.07,18.44,3.31,3.13,15.48,9.51,18.58,9.16,6.53-.74,34,3.1,39.85-5.71,8.29-12.44,53.28-6.78,67.7-2.64,7.39,2.13,21.11,16,20,22.57-1.53,8.93,25.53,36.13,42.25,44.36l-.23.44c-16.84-8.29-44.17-35.72-42.63-44.71,1.15-6.77-12.43-20.17-19.66-22.25-14.3-4.11-59-9.69-67.27,2.7-5.89,8.84-33.52,5-40.13,5.7-3.16.36-15.52-6.12-18.88-9.29-7.24-6.84-26.91-18.3-29.8-18.3-.05,0-.2-.06-.25-.06-1.76.07-7-1.09-8.28.28-2.71,3-23.26-2.87-35.82-8.29-4.33-1.87-16.85-10.17-17.65-14-.27-1.3-4-4.76-3.88-6.34.39-5.52-13.75-21.39-10.94-28.31,6.21-15.28-27.43-55.2-43.77-66.23-6.6-4.46-23.1-12.72-25.35-11.33-2.85,1.76-14.25,1.13-13.47,7.07.73,5.58-9.45,4.81-11.71,6.43-1.16.83-7.92-2.13-10.51-3.4-10.34-5.09-32.88-26.72-33.05-34.85-.13-6.83-15.93-22-21.94-25.06-7.33-3.75-37.9-7.85-38-7.79Z"/></g><g class="cls-44"><path class="cls-26" d="M5.17,92c.16-.08,31.71,1.25,41,6,7.64,3.91,21.33,19.56,21.51,28.16.2,10.1,19.41,32.08,32.21,38.38,3.16,1.56,9.46,4.11,10.84,3.12,2.71-1.94,11-3.36,10.13-10.26-1-7.5,8.61-9.37,12.29-11.65,2.9-1.79,19,6,27.31,11.6,20.58,13.89,46.79,55.1,39,74.29-3.51,8.63,7.53,24.76,7,31.63-.12,1.78,2.79,5,3.07,6.5.9,5,12.67,13.28,18.15,15.65,15.56,6.71,34.25,10.23,37.59,6.56,1.58-1.74,6.64-1.2,8.94-1.28.07,0,.23.05.3.05,3.72,0,22.37,11,31.59,19.71,4.14,3.92,15.8,9.91,19.68,9.47C334,319,359.66,319,367,308c10.36-15.56,52.62-16.24,70.65-11.06,9.24,2.65,20.62,16.76,19.21,25C455,333.07,477.4,360.75,498.29,371l-.23.44c-21.05-10.36-43.72-38.27-41.8-49.5,1.45-8.47-9.83-22.05-18.88-24.65-17.87-5.14-59.87-4.41-70.19,11.08-7.37,11.06-33.24,11-41.5,11.94-3.95.45-15.79-5.64-20-9.6-9.05-8.55-27.69-19.59-31.31-19.59l-.27,0c-2.2.08-7.15-.45-8.7,1.26-3.39,3.72-22.32.17-38-6.61-5.41-2.34-17.11-10.53-18.12-15.35-.34-1.63-3.56-5.16-3.42-7.13.48-6.9-10.59-23.07-7.08-31.72,7.76-19.11-18.3-60.13-38.73-73.92-8.25-5.57-24.08-13.24-26.9-11.5-3.56,2.2-13,4.08-12,11.5.91,7-7.54,8.38-10.36,10.4-1.46,1-8-1.57-11.2-3.17C86.61,158.52,67.21,136.36,67,126.2c-.17-8.54-13.76-24-21.28-27.9-9.16-4.69-40.44-6-40.6-5.9Z"/></g><g class="cls-45"><path class="cls-28" d="M6.15,88.88c.2-.09,32.45-1.61,43.56,4.08,9.17,4.69,20.64,20.71,20.85,31,.24,12.12,16.33,34.63,31.7,42.2,3.78,1.86,9.84,4.09,11.5,2.9,3.25-2.33,9.88-5.9,8.79-14.18-1.18-9,6.44-13.4,10.86-16.13,3.48-2.15,18.88,5,28.88,11.75,24.7,16.67,43.3,59,34,82-4.21,10.36,3.78,26.79,3.2,35-.15,2.14,2.31,5.43,2.64,7.23,1.08,5.95,12,14.16,18.6,17,18.67,8.07,35.77,9.32,39.77,4.93,1.9-2.1,6.62-2.2,9.38-2.3.08,0,.24,0,.33,0,4.46,0,22,10.55,33.1,21,5,4.7,16.11,10.31,20.77,9.79,9.78-1.11,33.75-4.91,42.56-18.12,12.44-18.67,52-25.71,73.59-19.49,11.09,3.19,20.13,17.56,18.44,27.44-2.3,13.39,15.54,41.55,40.62,53.9l-.23.44c-25.26-12.44-43.28-40.82-41-54.3,1.74-10.15-7.25-23.93-18.1-27.05-21.44-6.16-60.73.88-73.12,19.47-8.85,13.27-33,17-42.87,18.18-4.74.54-16.05-5.16-21.09-9.92C292,305.54,274.37,294.94,270,294.94c-.08,0-.23,0-.3,0-2.64.11-7.26.2-9.12,2.25-4.06,4.46-21.38,3.2-40.24-4.94-6.49-2.8-17.38-10.88-18.59-16.66-.41-2-3.13-5.56-3-7.93.58-8.28-7.43-24.74-3.22-35.13,9.32-22.92-9.18-65.05-33.69-81.6-9.9-6.68-25.07-13.75-28.45-11.66-4.27,2.64-11.78,7-10.61,15.93,1.09,8.36-5.63,12-9,14.37-1.74,1.25-8-1-11.89-2.94-15.52-7.64-31.76-30.33-32-42.52-.2-10.24-11.59-26.13-20.61-30.75-11-5.63-43-4.08-43.18-4Z"/></g><g class="cls-46"><path class="cls-30" d="M7.14,85.8c.22-.1,33.18-4.47,46.14,2.17,10.7,5.47,20,21.86,20.19,33.9.28,14.14,13.25,37.19,31.18,46,4.42,2.18,10.24,4.08,12.17,2.7,3.79-2.72,8.72-8.45,7.45-18.1a20.52,20.52,0,0,1,9.43-20.63c4.07-2.51,18.79,4,30.45,11.91C193,163.21,204,206.63,193.05,233.5c-4.91,12.08,0,28.82-.65,38.43-.18,2.49,1.82,5.84,2.2,7.95,1.26,6.94,11.38,15.05,19.05,18.36,21.79,9.41,37.29,8.41,42,3.28,2.22-2.45,6.6-3.2,9.82-3.31l.35,0c5.21,0,21.71,10.09,34.62,22.27,5.8,5.48,16.43,10.72,21.87,10.1,11.41-1.3,33.63-8.91,43.91-24.33,14.51-21.77,51.3-35.16,76.54-27.9,12.94,3.72,19.63,18.34,17.65,29.87-2.67,15.62,10.56,44.26,39.81,58.66l-.23.45c-29.47-14.51-42.83-43.36-40.14-59.09,2-11.85-4.65-25.81-17.32-29.45-25-7.19-61.59,6.17-76,27.85-10.32,15.48-32.68,23.1-44.24,24.42-5.52.63-16.32-4.68-22.2-10.24-12.68-12-29.27-22.13-34.33-22.13l-.32,0c-3.08.12-7.37.85-9.54,3.24-4.74,5.2-20.45,6.23-42.44-3.27-7.58-3.27-17.66-11.24-19.07-18-.48-2.29-2.69-6-2.5-8.72.68-9.66-4.27-26.43.65-38.54,10.86-26.75-.06-70-28.66-89.29-11.55-7.8-26.05-14.27-30-11.83a20.24,20.24,0,0,0-9.19,20.36c1.27,9.75-3.73,15.52-7.68,18.35-2,1.46-8-.48-12.58-2.72-18.1-8.91-31.2-32.13-31.48-46.35-.24-12-9.42-28.21-19.95-33.59C40.1,81.78,7.4,86.15,7.18,86.25Z"/></g><g class="cls-47"><path class="cls-32" d="M8.12,82.73c.26-.12,33.92-7.34,48.74.25,12.22,6.25,19.24,23,19.52,36.78.32,16.15,10.18,39.73,30.67,49.82,5,2.49,10.62,4.06,12.83,2.48,4.34-3.11,7.56-11,6.12-22-1.58-12,2.1-21.47,8-25.11,4.64-2.87,18.68,3.06,32,12.06,32.93,22.23,36.32,66.76,23.85,97.46-5.61,13.81-3.74,30.85-4.5,41.83-.2,2.86,1.33,6.27,1.77,8.68,1.44,7.93,10.72,15.93,19.5,19.72,24.9,10.75,38.81,7.49,44.14,1.63A14.82,14.82,0,0,1,261,302l.37,0c6,0,21.39,9.63,36.14,23.55,6.64,6.26,16.75,11.12,23,10.42,13-1.49,33.52-12.92,45.27-30.54,16.58-24.88,50.63-44.62,79.48-36.33,14.79,4.25,19.14,19.13,16.88,32.31-3.05,17.86,5.56,47,39,63.43l-.22.45c-33.68-16.58-42.39-45.91-39.31-63.89,2.32-13.54-2.06-27.69-16.54-31.85-28.59-8.22-62.46,11.46-79,36.24-11.79,17.69-32.39,29.16-45.6,30.66-6.31.72-16.59-4.21-23.31-10.55-14.49-13.68-30.05-23.41-35.84-23.41l-.34,0a14.47,14.47,0,0,0-10,4.22c-5.41,5.95-19.51,9.26-44.65-1.59-8.65-3.74-17.93-11.6-19.54-19.3-.54-2.62-2.26-6.36-2-9.51.77-11-1.11-28.11,4.51-42,12.42-30.57,9.06-74.9-23.62-97-13.2-8.91-27-14.79-31.54-12-5.7,3.52-9.32,12.9-7.76,24.79,1.46,11.15-1.82,19.09-6.34,22.33-2.32,1.67-8.08.06-13.27-2.49-20.69-10.19-30.64-33.93-31-50.19-.28-13.66-7.25-30.28-19.27-36.44-14.67-7.5-48.08-.31-48.34-.19Z"/></g><g class="cls-48"><path class="cls-34" d="M9.1,79.65c.3-.13,34.66-10.2,51.33-1.66C74.17,85,79,102.16,79.29,117.64c.36,18.17,7.1,42.29,30.15,53.64,5.68,2.79,11,4,13.5,2.27,4.88-3.5,6.4-13.53,4.78-26-1.77-13.5-.07-25.5,6.57-29.6,5.22-3.22,18.59,2.09,33.58,12.22,37,25,32.83,70.65,18.8,105.18-6.31,15.54-7.49,32.88-8.36,45.24-.22,3.21.86,6.68,1.35,9.39,1.62,8.93,10.07,16.83,19.94,21.09,28,12.09,40.33,6.57,46.33,0a15.22,15.22,0,0,1,10.69-5.32c.13,0,.28,0,.4,0,6.7,0,21.07,9.16,37.66,24.82,7.47,7.05,17.07,11.52,24.05,10.73,14.68-1.67,33.41-16.91,46.63-36.74,18.66-28,50-54.08,82.43-44.75,16.63,4.78,18.64,19.91,16.1,34.74-3.43,20.09.56,49.69,38.18,68.2l-.23.45c-37.88-18.65-41.93-48.46-38.47-68.68,2.6-15.24.52-29.57-15.76-34.25-32.17-9.25-63.33,16.74-81.91,44.62-13.27,19.91-32.1,35.21-47,36.9-7.11.81-16.87-3.73-24.43-10.87C278,315.58,263.47,306.28,257,306.28c-.12,0-.26,0-.37,0a14.94,14.94,0,0,0-10.38,5.2c-6.09,6.69-18.58,12.3-46.85.09-9.74-4.21-18.21-11.95-20-20.62-.61-2.94-1.83-6.76-1.58-10.3.87-12.42,2-29.8,8.37-45.37,14-34.39,18.19-79.83-18.58-104.65-14.85-10-28-15.32-33.09-12.18-6.41,4-8.09,15.85-6.33,29.22,1.64,12.54.09,22.67-5,26.31-2.62,1.87-8.13.61-14-2.27-23.28-11.45-30.08-35.73-30.45-54-.31-15.36-5.07-32.36-18.6-39.28C43.64,70,9.52,80,9.23,80.1Z"/></g><g class="cls-49"><path class="cls-36" d="M10.09,76.57C10.42,76.43,45.48,63.51,64,73c15.27,7.82,17.85,25.33,18.2,42.53.4,20.2,4,44.84,29.64,57.45,6.31,3.11,11.4,4,14.16,2.06,5.42-3.88,5.24-16.07,3.44-29.86-2-15-2.23-29.54,5.14-34.09,5.8-3.59,18.49,1.12,35.15,12.37,41.16,27.79,29.34,74.53,13.75,112.9-7,17.27-11.25,34.91-12.21,48.64a40.73,40.73,0,0,0,.92,10.12c1.8,9.92,9.42,17.71,20.39,22.45,31.12,13.43,41.85,5.66,48.52-1.67,3.17-3.49,6.53-6.17,11.12-6.33h.43c7.44,0,20.74,8.7,39.17,26.1,8.3,7.83,17.38,11.92,25.15,11,16.3-1.86,33.3-20.92,48-42.95,20.73-31.11,49.31-63.54,85.37-53.18,18.49,5.32,18.15,20.71,15.33,37.18-3.82,22.32-4.43,52.4,37.36,73l-.22.45c-42.1-20.73-41.49-51-37.65-73.48,2.9-16.93,3.12-31.45-15-36.65-35.74-10.27-64.19,22-84.83,53-14.74,22.12-31.82,41.26-48.33,43.14-7.9.9-17.13-3.25-25.54-11.18-18.11-17.1-31.62-26-38.85-26h-.39c-4.4.17-7.69,2.78-10.79,6.19-6.77,7.44-17.65,15.33-49.07,1.77-10.82-4.68-18.47-12.31-20.48-21.94a40.66,40.66,0,0,1-1.13-11.1c1-13.8,5.21-31.47,12.23-48.78,15.53-38.21,27.31-84.75-13.54-112.33-16.5-11.14-29-15.83-34.64-12.35-7.12,4.4-6.85,18.79-4.9,33.65,1.82,13.94,2,26.24-3.65,30.29-2.91,2.08-8.17,1.15-14.65-2-25.86-12.73-29.52-37.54-29.92-57.86-.35-17.07-2.91-34.43-17.94-42.13C45.41,64,10.58,76.88,10.25,77Z"/></g><path class="cls-37" d="M503.73,359.12c-46.3-22.8-41-53.56-36.81-78.27,3.19-18.62,5.7-33.33-14.2-39.05-39.31-11.3-65.05,27.32-87.77,61.4-16.21,24.32-31.53,47.3-49.69,49.37-8.69,1-17.4-2.77-26.64-11.5-19.92-18.8-32.41-27.24-40.37-27.24h-.41c-4.84.18-7.8,3.42-11.21,7.18-7.45,8.18-16.71,18.35-51.27,3.43-16-6.88-22.82-18.05-21.63-35.14,1.06-15.18,8.37-33.16,16.1-52.19,17.07-42,36.42-89.68-8.52-120-18.14-12.26-30-16.35-36.18-12.52-7.83,4.84-5.62,21.74-3.47,38.08,2,15.33,3.9,29.81-2.31,34.26-3.2,2.29-8.21,1.7-15.34-1.81-28.45-14-28.95-39.34-29.4-61.69-.38-18.78-.73-36.51-17.27-45C47.18,58.13,11.64,73.8,11.28,74l-.21-.45c.36-.16,36.13-15.93,56.5-5.5,16.8,8.6,17.16,26.48,17.54,45.41.44,22.21,1,47.39,29.12,61.26,7,3.42,11.8,4,14.83,1.85,6-4.28,4.09-18.61,2.1-33.79-2.16-16.5-4.4-33.57,3.71-38.58,6.38-3.94,18.4.16,36.72,12.53,45.28,30.57,25.85,78.42,8.7,120.63-7.72,19-15,36.94-16.06,52-1.18,16.85,5.6,27.86,21.32,34.64,34.24,14.78,43.37,4.75,50.71-3.31,3.49-3.84,6.51-7.15,11.56-7.34h.45c8.18,0,20.41,8.24,40.69,27.38,9.13,8.61,17.7,12.32,26.24,11.36,17.93-2,33.19-24.92,49.34-49.15,22.81-34.22,48.65-73,88.32-61.6,20.33,5.84,17.65,21.49,14.55,39.61C463.21,305.48,458,336,504,358.67Z"/></g></g><g class="cls-50"><path class="cls-51" d="M385.83,359.77a15.71,15.71,0,0,1-7.82-1.89l-47.43-27-47.44-27a8.27,8.27,0,0,1-4.48-7.14c0-3.17,2-6.12,5.4-8.1l31-17.47a19.3,19.3,0,0,1,9.49-2.41,15.57,15.57,0,0,1,7.81,1.89l47.43,27,47.44,27a8.27,8.27,0,0,1,4.48,7.14c0,3.17-2,6.13-5.4,8.11l-31,17.46A19.16,19.16,0,0,1,385.83,359.77Z"/><path class="cls-52" d="M284.9,289.32l8.42-4.7c.34-.2,16.14-8.81,16.44-8.64l5.43-2.66c2.44-1.42,6-1.88,9.15-1.88a16,16,0,0,1,7.54,2l38,21.63,8.11,4.62,46.08,26.25a10,10,0,0,1,3.58,3.48,7.38,7.38,0,0,1,.94,3.33c.09,3-1.79,5.93-5.16,7.88L415,345.28c-.34.2-16.13,8.82-16.43,8.65l-5.43,2.66c-2.45,1.41-6.05,1.88-9.16,1.88a16,16,0,0,1-7.54-2l-38-21.63-8.1-4.61L284.27,304a9.84,9.84,0,0,1-3.58-3.49,7.22,7.22,0,0,1-.94-3.32C279.65,294.15,281.53,291.26,284.9,289.32Z"/><path class="cls-53" d="M285.74,290l8.19-4.53c.69-.4,15.48-8.18,16.07-7.83l5.27-2.18c2.2-1.27,6-1.35,8.83-1.35a16.6,16.6,0,0,1,7.27,2l36.86,21,7.87,4.49,44.72,25.5a10.7,10.7,0,0,1,3.54,3.32,7.1,7.1,0,0,1,1,3.16c.18,2.92-1.6,5.74-4.91,7.66l-8.19,4.52c-.69.4-15.47,8.18-16.07,7.84L391,355.82c-2.21,1.27-6,1.35-8.84,1.35a16.77,16.77,0,0,1-7.27-2l-36.86-21-7.86-4.49-44.73-25.5a10.66,10.66,0,0,1-3.53-3.32,7.24,7.24,0,0,1-1-3.16C280.65,294.72,282.43,291.9,285.74,290Z"/><path class="cls-54" d="M286.58,290.65l8-4.35c1-.6,14.8-7.54,15.69-7l5.11-1.68c2-1.13,6-.83,8.51-.83a17.47,17.47,0,0,1,7,2.13L366.6,299.3l7.63,4.35L417.6,328.4a11.69,11.69,0,0,1,3.48,3.15,7.09,7.09,0,0,1,1.12,3c.27,2.8-1.41,5.56-4.67,7.43l-8,4.36c-1,.6-14.81,7.54-15.7,7l-5.11,1.69c-2,1.13-6,.83-8.5.83a17.47,17.47,0,0,1-7-2.13l-35.75-20.41L329.89,329l-43.38-24.75a11.83,11.83,0,0,1-3.48-3.15,7.13,7.13,0,0,1-1.12-3C281.65,295.28,283.33,292.53,286.58,290.65Z"/><path class="cls-55" d="M287.42,291.32l7.74-4.19c1.37-.79,14.14-6.89,15.33-6.21l4.94-1.2c1.72-1,6-.3,8.18-.3,1.9,0,5.37,1.43,6.73,2.22L365,301.43l7.39,4.22,42,24a13.32,13.32,0,0,1,3.43,3,7.13,7.13,0,0,1,1.21,2.85c.35,2.68-1.23,5.36-4.43,7.2l-7.74,4.19c-1.37.8-14.14,6.9-15.33,6.21l-4.94,1.2c-1.71,1-6,.3-8.18.3-1.89,0-5.37-1.43-6.73-2.21L337,332.58l-7.39-4.22-42-24a13.06,13.06,0,0,1-3.44-3,7.15,7.15,0,0,1-1.21-2.84C282.64,295.85,284.23,293.17,287.42,291.32Z"/><path class="cls-56" d="M288.26,292l7.51-4c1.72-1,13.48-6.26,15-5.4l4.79-.71c1.47-.85,6,.23,7.85.23,1.62,0,5.29,1.62,6.46,2.29l33.51,19.18,7.15,4.09,40.66,23.26a15.29,15.29,0,0,1,3.39,2.81,6.91,6.91,0,0,1,1.29,2.68c.45,2.56-1,5.17-4.18,7l-7.51,4c-1.72,1-13.48,6.26-15,5.4l-4.78.72c-1.47.84-6-.23-7.86-.23-1.62,0-5.29-1.63-6.45-2.3l-33.52-19.17-7.15-4.09-40.66-23.27a15.24,15.24,0,0,1-3.39-2.81,6.91,6.91,0,0,1-1.29-2.68C283.63,296.42,285.13,293.8,288.26,292Z"/><path class="cls-57" d="M289.1,292.66l7.29-3.85c2.06-1.19,12.81-5.62,14.59-4.59l4.62-.23c1.22-.71,6,.76,7.52.76,1.36,0,5.22,1.82,6.19,2.38l32.4,18.56,6.91,4,39.31,22.51a18.26,18.26,0,0,1,3.34,2.64,7.19,7.19,0,0,1,1.38,2.53c.54,2.43-.86,5-3.94,6.75l-7.29,3.85c-2.05,1.19-12.8,5.62-14.59,4.59l-4.62.23c-1.22.71-6-.76-7.52-.76-1.36,0-5.22-1.82-6.19-2.38l-32.4-18.56-6.91-4-39.31-22.51a18.61,18.61,0,0,1-3.34-2.64,7.19,7.19,0,0,1-1.38-2.53C284.63,297,286,294.43,289.1,292.66Z"/><path class="cls-58" d="M289.94,293.33l7.06-3.69c2.4-1.38,12.14-5,14.22-3.77l4.46.26c1-.57,6,1.28,7.2,1.28,1.08,0,5.14,2,5.92,2.46l31.28,17.95,6.67,3.82,38,21.78a22.6,22.6,0,0,1,3.29,2.47,7.48,7.48,0,0,1,1.47,2.36c.62,2.31-.68,4.79-3.7,6.53l-7.06,3.68c-2.4,1.39-12.14,5-14.22,3.78L380,352c-1,.57-5.95-1.29-7.2-1.29-1.08,0-5.14-2-5.91-2.46l-31.29-17.94L329,326.46l-38-21.77a22.6,22.6,0,0,1-3.29-2.47,7.66,7.66,0,0,1-1.47-2.36C285.62,297.55,286.93,295.07,289.94,293.33Z"/><path class="cls-59" d="M290.78,294l6.83-3.51c2.75-1.58,11.48-4.33,13.86-3l4.29.74c.74-.42,5.94,1.82,6.88,1.82s5.06,2.2,5.64,2.54L358.45,310l6.43,3.69,36.61,21a20.83,20.83,0,0,1,3.24,2.3,4.8,4.8,0,0,1,1.55,2.2c.72,2.19-.49,4.6-3.45,6.31L396,349c-2.75,1.59-11.48,4.34-13.86,3l-4.29-.75c-.74.43-5.94-1.81-6.88-1.81s-5.06-2.21-5.64-2.54l-30.17-17.34-6.43-3.69-36.6-21a20.28,20.28,0,0,1-3.25-2.3,4.88,4.88,0,0,1-1.55-2.2C286.61,298.12,287.82,295.7,290.78,294Z"/><path class="cls-60" d="M291.63,294.66l6.6-3.34c3.08-1.79,10.81-3.7,13.48-2.15l4.14,1.22c.49-.28,5.92,2.35,6.54,2.35a45.35,45.35,0,0,1,5.38,2.62l29.05,16.72,6.19,3.56,35.25,20.28a30.13,30.13,0,0,1,3.2,2.13,4.75,4.75,0,0,1,1.64,2.05c.82,2.06-.31,4.4-3.21,6.08l-6.61,3.34c-3.08,1.79-10.81,3.7-13.48,2.16l-4.14-1.23c-.49.28-5.92-2.35-6.54-2.35a45.35,45.35,0,0,1-5.38-2.62l-29.05-16.72-6.19-3.56-35.25-20.28a30.13,30.13,0,0,1-3.2-2.13,4.75,4.75,0,0,1-1.64-2.05C287.6,298.68,288.72,296.34,291.63,294.66Z"/><path class="cls-61" d="M292.47,295.33l6.37-3.18c3.43-2,10.15-3,13.12-1.34l4,1.72c.25-.14,5.91,2.87,6.22,2.87s4.91,2.6,5.1,2.71l27.94,16.1,5.95,3.43L395,337.18c.15.08,3.08,1.82,3.15,2a4.7,4.7,0,0,1,1.73,1.88c.91,1.94-.13,4.22-3,5.86l-6.38,3.17c-3.43,2-10.15,3.06-13.11,1.34l-4-1.71c-.24.14-5.91-2.87-6.22-2.87s-4.91-2.6-5.1-2.71L334.22,328l-6-3.43L294.37,305c-.15-.08-3.08-1.83-3.15-2a4.77,4.77,0,0,1-1.73-1.88C288.58,299.25,289.62,297,292.47,295.33Z"/><path d="M375.11,351.11l-41.36-23.88-41.36-23.88c-3.27-1.88-2.86-5.18.92-7.35l6.15-3c3.77-2.18,9.47-2.41,12.74-.53l41.36,23.88,41.36,23.88c3.27,1.89,2.86,5.18-.92,7.36l-6.15,3C384.08,352.76,378.38,353,375.11,351.11Z"/></g><path class="cls-62" d="M379.37,345.19l-74.2-42.84c-8.37-4.83-15.15-17.79-15.15-29V75.8c0-5.67-4.67-6.93-1.84-9,.11-.07,6.62-3,6.75-3.08,3-1.17,6.29-1.69,10.24.6l74.2,42.83c8.37,4.84,15.15,17.8,15.15,29V333.73c0,5.93-1.91,10.16-5,12.09-.18.12-8,3.85-8.23,3.92C378.62,350.64,383,347.3,379.37,345.19Z"/><path class="cls-63" d="M378.69,107.41l-74.2-42.84c-3.95-2.28,70.1,44.21,70.1,44.21,8.36,4.83,15.15,17.79,15.15,28.95,0,0,4.1,202.16,4.1,196.23V136.37C393.84,125.21,387.06,112.24,378.69,107.41Z"/><path class="cls-64" d="M373.61,347.83,299.41,305c-8.37-4.83-15.15-17.8-15.15-29V78.44c0-11.16,6.78-16.29,15.15-11.46l74.2,42.84c8.37,4.83,15.15,17.79,15.15,29v197.6C388.76,347.53,382,352.66,373.61,347.83Z"/><path class="cls-65" d="M372.29,348.54l-74.2-42.84c-8.37-4.83-15.15-17.79-15.15-28.95V79.15c0-11.16,6.78-16.29,15.15-11.46l74.2,42.84c8.37,4.83,15.15,17.8,15.15,29V337.08C387.44,348.24,380.66,353.37,372.29,348.54Z"/><path class="cls-66" d="M285,278.06V80.22c0-9.78,5.95-14.28,13.29-10l73.8,42.61c7.34,4.24,13.29,15.6,13.29,25.38V336c0,9.78-5.95,14.28-13.29,10l-73.8-42.61C291,299.21,285,287.84,285,278.06Z"/><path class="cls-67" d="M288,279.26V82.43c0-8.19,5-12,11.12-8.41l72.23,41.7c6.14,3.55,11.12,13.06,11.12,21.25V333.81c0,8.18-5,11.95-11.12,8.4l-72.23-41.7C292.93,297,288,287.45,288,279.26Z"/><path class="cls-68" d="M299.91,76.2c-5.79-3.34-10.48-.67-10.48,6V281.22c0,6.64,4.69,14.74,10.48,18.08L370.47,340c5.78,3.34,10.48.66,10.48-6V135c0-6.64-4.7-14.73-10.48-18.08Z"/><path class="cls-69" d="M299.91,187.34c-5.79-3.34-10.48-.67-10.48,6v87.9c0,6.64,4.69,14.74,10.48,18.08L370.47,340c5.78,3.34,10.48.66,10.48-6V246.15c0-6.64-4.7-14.73-10.48-18.07Z"/><path class="cls-70" d="M370.47,228.08l-70.56-40.74c-5.79-3.34-10.48-.67-10.48,6v1.46c0-6.64,4.69-9.31,10.48-6l70.56,40.73C376.25,232.89,381,241,381,247.62v-1.47C381,239.51,376.25,231.42,370.47,228.08Z"/><path class="cls-71" d="M389.43,185.21V171.87a5.55,5.55,0,0,1,2.32-4.43h0c1.28-.74,2.32.05,2.32,1.75v13.34a5.55,5.55,0,0,1-2.32,4.43h0C390.47,187.7,389.43,186.91,389.43,185.21Z"/><path class="cls-72" d="M390.83,186.73c-.66,0-.9-.82-.9-1.52V171.87a5.07,5.07,0,0,1,2.07-4,1.36,1.36,0,0,1,.67-.21c.66,0,.9.82.9,1.52v13.34a5.07,5.07,0,0,1-2.07,4A1.36,1.36,0,0,1,390.83,186.73Z"/><path class="cls-73" d="M390.62,185.55V172.21a5.06,5.06,0,0,1,2.06-4,1.42,1.42,0,0,1,.6-.2.72.72,0,0,0-.61-.36,1.39,1.39,0,0,0-.67.22,5.07,5.07,0,0,0-2.07,4v13.34c0,.7.24,1.52.9,1.52h.08A2.14,2.14,0,0,1,390.62,185.55Z"/><path class="cls-74" d="M362.49,124.13l9,5.19c.34.19.61,0,.61-.36a1.34,1.34,0,0,0-.61-1.06l-9-5.19c-.34-.2-.61,0-.61.35A1.36,1.36,0,0,0,362.49,124.13Zm9,7-9-5.18c-.34-.2-.61,0-.61.35a1.37,1.37,0,0,0,.61,1.07l9,5.19c.34.19.61,0,.61-.36A1.37,1.37,0,0,0,371.48,131.09Zm0,3.2-9-5.18c-.34-.2-.61,0-.61.35a1.37,1.37,0,0,0,.61,1.07l9,5.18c.34.2.61,0,.61-.35A1.37,1.37,0,0,0,371.48,134.29Z"/><path class="cls-74" d="M307.47,93.12c0,.94-.67,1.33-1.5.85a3.31,3.31,0,0,1-1.49-2.58c0-1,.67-1.33,1.49-.85A3.28,3.28,0,0,1,307.47,93.12Z"/><path class="cls-74" d="M303,90.49c0,1-.67,1.33-1.5.86A3.31,3.31,0,0,1,300,88.77c0-1,.67-1.33,1.49-.85A3.27,3.27,0,0,1,303,90.49Z"/><ellipse class="cls-74" cx="296.95" cy="87.01" rx="1.22" ry="2.11" transform="translate(-3.32 161.76) rotate(-30.31)"/><path class="cls-75" d="M324.23,110.7c0-6.43,4.54-9,10.15-5.78a21.59,21.59,0,0,1,8,9.14,22,22,0,0,0-8.55-10.32c-5.6-3.23-10.15-.64-10.15,5.79a19.65,19.65,0,0,0,2.13,8.36A18.82,18.82,0,0,1,324.23,110.7Z"/><path class="cls-76" d="M333.84,103.74c-5.6-3.23-10.15-.64-10.15,5.79,0,6.14,4.15,13.56,9.41,17v5.73l4.39-3.94c3.8.51,6.5-2.15,6.5-7.1C344,114.82,339.45,107,333.84,103.74Zm5.11,7.37v11.75c0,.9-.89,1.28-2.16.84a4.21,4.21,0,0,1-2.74-2.67c-.16-1,.8-1.45,2.15-1a5.1,5.1,0,0,1,2.12,1.47v-10l-6-1.41v10.28c0,.89-.88,1.27-2.16.83a4.19,4.19,0,0,1-2.73-2.67c-.16-1,.8-1.45,2.15-1a5,5,0,0,1,2.11,1.47V108.11l7.23,1.71Z"/><circle class="cls-77" cx="296.69" cy="86.88" r="13.51" transform="translate(2.14 180.76) rotate(-34)"/><circle class="cls-78" cx="287.12" cy="81.41" r="10.23" transform="translate(55.87 270.06) rotate(-55.04)"/><circle class="cls-79" cx="279.49" cy="76.9" r="7.67" transform="translate(124.61 321.94) rotate(-73.09)"/><path class="cls-74" d="M334.19,173.18c-5.71-3.3-10.35-.65-10.35,5.91s4.64,14.56,10.35,17.86,10.36.65,10.36-5.91S339.9,176.48,334.19,173.18Zm0,22.28c-5-2.88-9.06-9.89-9.06-15.63s4.07-8.05,9.06-5.16,9.07,9.89,9.07,15.63S339.19,198.35,334.19,195.46Zm-2.55-18.69c-.69-.4-1.25-.08-1.25.71v10.77a2.77,2.77,0,0,0,1.25,2.17c.69.4,1.26.07,1.26-.72V178.93A2.78,2.78,0,0,0,331.64,176.77Zm5.1,2.94c-.69-.4-1.25-.07-1.25.72V191.2a2.77,2.77,0,0,0,1.25,2.16c.69.4,1.26.08,1.26-.71V181.88A2.78,2.78,0,0,0,336.74,179.71Z"/><path class="cls-74" d="M283.68,121.6c-.19-.11-.34,0-.34.19v.88a.71.71,0,0,0,.34.57c.18.11.33,0,.33-.18v-.89A.74.74,0,0,0,283.68,121.6Z"/><path class="cls-74" d="M285,122.38c-.18-.11-.33,0-.33.19v.88a.73.73,0,0,0,.33.57c.19.11.33,0,.33-.19V123A.7.7,0,0,0,285,122.38Z"/><path class="cls-74" d="M286.37,121.3c-.19-.11-.34,0-.34.19v4.59a.71.71,0,0,0,.34.57c.18.11.33,0,.33-.19v-4.59A.73.73,0,0,0,286.37,121.3Z"/><path class="cls-74" d="M287.71,122.05c-.18-.11-.33,0-.33.19v4.64a.73.73,0,0,0,.33.57c.18.11.33,0,.33-.19v-4.64A.74.74,0,0,0,287.71,122.05Z"/><path class="cls-74" d="M289.06,120.88c-.19-.11-.34,0-.34.19v8.53a.74.74,0,0,0,.34.58c.18.1.33,0,.33-.19v-8.54A.74.74,0,0,0,289.06,120.88Z"/><path class="cls-74" d="M290.4,123.57c-.18-.11-.33,0-.33.19v4.71a.74.74,0,0,0,.33.57c.19.11.33,0,.33-.19v-4.71A.71.71,0,0,0,290.4,123.57Z"/><path class="cls-74" d="M291.75,121.28c-.19-.11-.34,0-.34.19v10.84a.71.71,0,0,0,.34.57c.18.11.33,0,.33-.19V121.85A.74.74,0,0,0,291.75,121.28Z"/><path class="cls-74" d="M293.09,120.1c-.18-.1-.33,0-.33.19V135a.73.73,0,0,0,.33.57c.18.11.33,0,.33-.19V120.68A.76.76,0,0,0,293.09,120.1Z"/><path class="cls-74" d="M294.44,118.86c-.19-.1-.34,0-.34.19v18.78a.74.74,0,0,0,.34.58c.18.1.33-1.11.33-1.32V119.44A.76.76,0,0,0,294.44,118.86Z"/><path class="cls-74" d="M295.78,121.08c-.18-.11-.33,0-.33.19v15.9a.76.76,0,0,0,.33.58c.18.1.33,0,.33-.19V121.65A.73.73,0,0,0,295.78,121.08Z"/><path class="cls-74" d="M297.13,121.19c-.19-.1-.34,0-.34.19v17.23a.72.72,0,0,0,.34.57c.18.11.33,0,.33-.19V121.77A.76.76,0,0,0,297.13,121.19Z"/><path class="cls-74" d="M298.47,120.4c-.18-.11-.33,0-.33.19V141a.73.73,0,0,0,.33.57c.18.11.33,0,.33-.19V121A.73.73,0,0,0,298.47,120.4Z"/><path class="cls-74" d="M299.82,118.66c-.19-.1-.34,0-.34.19v25.39a.74.74,0,0,0,.34.58c.18.1.33,0,.33-.19V119.24A.76.76,0,0,0,299.82,118.66Z"/><path class="cls-74" d="M301.16,121.64c-.18-.1-.33,0-.33.19v21a.74.74,0,0,0,.33.57c.18.11.33,0,.33-.19v-21A.76.76,0,0,0,301.16,121.64Z"/><path class="cls-74" d="M302.51,123.67c-.19-.1-.34,0-.34.19v18.48a.71.71,0,0,0,.34.57c.18.11.33,0,.33-.19V124.25A.74.74,0,0,0,302.51,123.67Z"/><path class="cls-74" d="M303.85,122.59c-.18-.11-.33,0-.33.19V145a.73.73,0,0,0,.33.57c.18.11.33,0,.33-.19v-22.2A.73.73,0,0,0,303.85,122.59Z"/><path class="cls-74" d="M305.2,125.29c-.19-.11-.34,0-.34.19v18.35a.74.74,0,0,0,.34.58c.18.1.33,0,.33-.19V125.86A.73.73,0,0,0,305.2,125.29Z"/><path class="cls-74" d="M306.54,127.08c-.18-.1-.33,0-.33.19v16.32a.76.76,0,0,0,.33.58c.18.1.33,0,.33-.19V127.66A.74.74,0,0,0,306.54,127.08Z"/><path class="cls-74" d="M307.89,128.68c-.19-.1-.34,0-.34.19v14.67a.74.74,0,0,0,.34.58c.18.1.33,0,.33-.19V129.26A.76.76,0,0,0,307.89,128.68Z"/><path class="cls-74" d="M309.23,130c-.18-.11-.33,0-.33.19v13.53a.73.73,0,0,0,.33.57c.18.11.33,0,.33-.19V130.6A.73.73,0,0,0,309.23,130Z"/><path class="cls-74" d="M310.58,130.06c-.19-.1-.34,0-.34.19v15a.72.72,0,0,0,.34.57c.18.11.33,0,.33-.19v-15A.76.76,0,0,0,310.58,130.06Z"/><path class="cls-74" d="M311.92,132.23c-.18-.11-.33,0-.33.19v12.24a.73.73,0,0,0,.33.57c.18.11.33,0,.33-.19V132.8A.73.73,0,0,0,311.92,132.23Z"/><path class="cls-74" d="M313.27,134.3c-.19-.11-.34,0-.34.19v9.65a.71.71,0,0,0,.34.57c.18.11.33,0,.33-.19v-9.65A.73.73,0,0,0,313.27,134.3Z"/><path class="cls-74" d="M314.61,134.05c-.18-.11-.33,0-.33.19v11.7a.76.76,0,0,0,.33.58c.18.1.33,0,.33-.19V134.62A.73.73,0,0,0,314.61,134.05Z"/><path class="cls-74" d="M316,138.41c-.19-.11-.34,0-.34.19v4.54a.72.72,0,0,0,.34.57c.18.11.33,0,.33-.19V139A.73.73,0,0,0,316,138.41Z"/><path class="cls-74" d="M317.3,140.26c-.18-.1-.33,0-.33.19v2.38a.74.74,0,0,0,.33.58c.18.1.33,0,.33-.19v-2.38A.74.74,0,0,0,317.3,140.26Z"/><path class="cls-74" d="M318.64,135.86c-.18-.11-.33,0-.33.19v12.74a.76.76,0,0,0,.33.58c.19.1.34,0,.34-.19V136.43A.71.71,0,0,0,318.64,135.86Z"/><path class="cls-74" d="M320,137.61c-.18-.11-.33,0-.33.19v10.8a.74.74,0,0,0,.33.57c.18.11.33,0,.33-.19v-10.8A.73.73,0,0,0,320,137.61Z"/><path class="cls-74" d="M321.34,134.3c-.19-.11-.34,0-.34.19v19a.71.71,0,0,0,.34.57c.18.11.33,0,.33-.19v-19A.73.73,0,0,0,321.34,134.3Z"/><path class="cls-74" d="M322.68,134.31c-.18-.1-.33,0-.33.19V155a.76.76,0,0,0,.33.58c.18.1.33,0,.33-.19V134.89A.76.76,0,0,0,322.68,134.31Z"/><path class="cls-74" d="M324,133c-.18-.11-.33,0-.33.19v24.65a.76.76,0,0,0,.33.58c.19.1.34,0,.34-.19V133.58A.71.71,0,0,0,324,133Z"/><path class="cls-74" d="M325.37,132.17c-.18-.1-.33,0-.33.19v27.88a.73.73,0,0,0,.33.57c.18.11.33,0,.33-.19V132.75A.76.76,0,0,0,325.37,132.17Z"/><path class="cls-80" d="M326.71,133.86c-.18-.1-.33,0-.33.19v26.06a.74.74,0,0,0,.33.57c.19.11.34,0,.34-.19V134.44A.74.74,0,0,0,326.71,133.86Z"/><path class="cls-80" d="M328.06,135.72c-.18-.1-.33,0-.33.19V159.8a.74.74,0,0,0,.33.57c.18.11.33,0,.33-.19V136.3A.76.76,0,0,0,328.06,135.72Z"/><path class="cls-80" d="M329.4,135.58c-.18-.11-.33,0-.33.19V161.5a.74.74,0,0,0,.33.57c.19.11.34,0,.34-.19V136.15A.71.71,0,0,0,329.4,135.58Z"/><path class="cls-80" d="M330.75,134.6c-.18-.1-.33,0-.33.19V164a.76.76,0,0,0,.33.58c.18.1.33,0,.33-.19V135.18A.76.76,0,0,0,330.75,134.6Z"/><path class="cls-80" d="M332.09,139.59c-.18-.11-.33,0-.33.19v20.81a.76.76,0,0,0,.33.58c.19.1.34,0,.34-.19V140.16A.71.71,0,0,0,332.09,139.59Z"/><path class="cls-80" d="M333.44,140.41c-.18-.11-.33,0-.33.19v20.72a.74.74,0,0,0,.33.58c.18.1.33,0,.33-.19V141A.73.73,0,0,0,333.44,140.41Z"/><path class="cls-80" d="M334.78,142.63c-.18-.1-.33,0-.33.19v17.83a.73.73,0,0,0,.33.57c.19.11.34,0,.34-.19V143.21A.74.74,0,0,0,334.78,142.63Z"/><path class="cls-80" d="M336.13,145.83c-.18-.11-.33,0-.33.19v14.12a.73.73,0,0,0,.33.57c.18.11.33,0,.33-.19V146.4A.73.73,0,0,0,336.13,145.83Z"/><path class="cls-80" d="M337.47,145.84c-.18-.11-.33,0-.33.19v14.53a.74.74,0,0,0,.33.57c.19.11.34,0,.34-.19V146.41A.71.71,0,0,0,337.47,145.84Z"/><path class="cls-80" d="M338.82,149.46c-.19-.1-.33,0-.33.19v8.83a.7.7,0,0,0,.33.57c.18.11.33,0,.33-.19V150A.76.76,0,0,0,338.82,149.46Z"/><path class="cls-80" d="M340.16,146.56c-.18-.11-.33,0-.33.19v16.19a.74.74,0,0,0,.33.57c.19.11.34,0,.34-.19V147.13A.72.72,0,0,0,340.16,146.56Z"/><path class="cls-80" d="M341.51,146.82c-.18-.11-.33,0-.33.19v17.22a.74.74,0,0,0,.33.58c.18.1.33,0,.33-.19V147.39A.73.73,0,0,0,341.51,146.82Z"/><path class="cls-80" d="M342.85,146.21c-.18-.11-.33,0-.33.19v20a.74.74,0,0,0,.33.58c.19.1.34,0,.34-.19v-20A.71.71,0,0,0,342.85,146.21Z"/><path class="cls-80" d="M344.2,148.31c-.19-.1-.33,0-.33.19v17.34a.72.72,0,0,0,.33.58c.18.1.33,0,.33-.19V148.89A.76.76,0,0,0,344.2,148.31Z"/><path class="cls-80" d="M345.54,149.72c-.18-.1-.33,0-.33.19V166a.74.74,0,0,0,.33.57c.19.11.34,0,.34-.19V150.3A.73.73,0,0,0,345.54,149.72Z"/><path class="cls-80" d="M346.89,152.54c-.19-.11-.33,0-.33.19v12a.73.73,0,0,0,.33.58c.18.1.33,0,.33-.19v-12A.74.74,0,0,0,346.89,152.54Z"/><path class="cls-80" d="M348.23,153.11c-.18-.11-.33,0-.33.19v12.4a.74.74,0,0,0,.33.58c.19.1.34,0,.34-.19V153.68A.72.72,0,0,0,348.23,153.11Z"/><path class="cls-80" d="M349.58,157.87c-.18-.1-.33,0-.33.19v4.43a.76.76,0,0,0,.33.58c.18.1.33,0,.33-.19v-4.43A.76.76,0,0,0,349.58,157.87Z"/><path class="cls-80" d="M350.92,156.52c-.18-.11-.33,0-.33.19v8.69a.73.73,0,0,0,.33.57c.19.11.34,0,.34-.18v-8.7A.72.72,0,0,0,350.92,156.52Z"/><path class="cls-80" d="M352.27,156.21c-.19-.11-.33,0-.33.19v10.87a.71.71,0,0,0,.33.57c.18.11.33,0,.33-.19V156.78A.73.73,0,0,0,352.27,156.21Z"/><path class="cls-80" d="M353.61,155.66c-.18-.1-.33,0-.33.19v13.51a.76.76,0,0,0,.33.58c.19.1.34,0,.34-.19V156.24A.74.74,0,0,0,353.61,155.66Z"/><path class="cls-80" d="M355,158.35c-.19-.11-.33,0-.33.19v9.69a.73.73,0,0,0,.33.58c.18.1.33,0,.33-.19v-9.7A.73.73,0,0,0,355,158.35Z"/><path class="cls-80" d="M356.3,157.43c-.18-.1-.33,0-.33.19V170.7a.76.76,0,0,0,.33.58c.19.1.34,0,.34-.19V158A.74.74,0,0,0,356.3,157.43Z"/><path class="cls-80" d="M357.65,158.5c-.19-.1-.33,0-.33.19v12.49a.73.73,0,0,0,.33.58c.18.1.33,0,.33-.19V159.08A.76.76,0,0,0,357.65,158.5Z"/><path class="cls-80" d="M359,157.22c-.18-.11-.33,0-.33.19V174a.76.76,0,0,0,.33.58c.19.1.34,0,.34-.19V157.79A.71.71,0,0,0,359,157.22Z"/><path class="cls-80" d="M360.34,158.37c-.19-.1-.33,0-.33.19v15.86a.7.7,0,0,0,.33.57c.18.11.33,0,.33-.19V159A.76.76,0,0,0,360.34,158.37Z"/><path class="cls-80" d="M361.68,157.52c-.18-.11-.33,0-.33.19v19.12a.74.74,0,0,0,.33.57c.19.11.34,0,.34-.19V158.09A.71.71,0,0,0,361.68,157.52Z"/><path class="cls-80" d="M363,155.72c-.19-.1-.33,0-.33.19v24.27a.7.7,0,0,0,.33.57c.18.11.33,0,.33-.19V156.3A.74.74,0,0,0,363,155.72Z"/><path class="cls-80" d="M364.37,158.56c-.18-.11-.33,0-.33.19v20.14a.73.73,0,0,0,.33.57c.19.11.34,0,.34-.19V159.13A.72.72,0,0,0,364.37,158.56Z"/><path class="cls-80" d="M365.72,158.11c-.19-.11-.33,0-.33.19v22.6a.71.71,0,0,0,.33.57c.18.11.33,0,.33-.19v-22.6A.73.73,0,0,0,365.72,158.11Z"/><path class="cls-80" d="M367.06,160c-.18-.11-.33,0-.33.19v20.41a.76.76,0,0,0,.33.58c.19.1.34,0,.34-.19V160.55A.71.71,0,0,0,367.06,160Z"/><path class="cls-80" d="M368.41,163.18c-.19-.11-.34,0-.34.19v15.56a.71.71,0,0,0,.34.57c.18.11.33,0,.33-.19V163.75A.74.74,0,0,0,368.41,163.18Z"/><path class="cls-80" d="M369.75,162.6c-.18-.1-.33,0-.33.19v18.27a.73.73,0,0,0,.33.57c.19.11.34,0,.34-.19V163.18A.74.74,0,0,0,369.75,162.6Z"/><path class="cls-80" d="M371.1,165c-.19-.11-.33,0-.33.19v15.11a.71.71,0,0,0,.33.57c.18.11.33,0,.33-.19V165.53A.74.74,0,0,0,371.1,165Z"/><path class="cls-80" d="M372.44,166.92c-.18-.1-.33,0-.33.19v12.74a.73.73,0,0,0,.33.57c.19.11.34,0,.34-.19V167.5A.73.73,0,0,0,372.44,166.92Z"/><path class="cls-80" d="M373.79,168.4c-.19-.1-.34,0-.34.19v11.33a.71.71,0,0,0,.34.57c.18.11.33,0,.33-.19V169A.76.76,0,0,0,373.79,168.4Z"/><path class="cls-81" d="M358.27,193.16c-3.43-2-6.21-.39-6.21,3.54a13.66,13.66,0,0,0,6.21,10.7c3.42,2,6.2.39,6.2-3.53A13.71,13.71,0,0,0,358.27,193.16Zm4.16,10-3.2.74c-.29.06-.69-.4-.69-.81V201.8l-2.45.57c-.29.07-.69-.4-.69-.81v-5.17c0-.41.4-.42.69,0l2.45,3.41v-1.86c0-.41.4-.42.69,0l3.2,4.44C362.68,202.68,362.68,203.1,362.43,203.16Z"/><path class="cls-81" d="M310.84,180.75c3.42,2,6.2.38,6.2-3.54a13.71,13.71,0,0,0-6.2-10.71c-3.43-2-6.21-.39-6.21,3.54A13.69,13.69,0,0,0,310.84,180.75Zm-4.17-10,3.2-.74c.29-.07.69.4.69.8v1.29l2.45-.56c.29-.07.69.4.69.8v5.18c0,.4-.4.41-.69,0l-2.45-3.41V176c0,.4-.4.41-.69,0l-3.2-4.44C306.42,171.22,306.42,170.8,306.67,170.75Z"/><g class="cls-82"><path class="cls-83" d="M304.34,204.86l-4.14.95c-.38.09-.89-.51-.89-1v-6.7c0-.53.51-.54.89,0l4.14,5.75C304.66,204.24,304.66,204.78,304.34,204.86Zm-3-9.3c-3.39-2-6.15-.39-6.15,3.51a13.58,13.58,0,0,0,6.15,10.61c3.4,2,6.16.38,6.16-3.51A13.57,13.57,0,0,0,301.38,195.56Z"/><path class="cls-83" d="M304.34,226.73l-4.14,1c-.38.09-.89-.52-.89-1v-6.71c0-.52.51-.53.89,0l4.14,5.74C304.66,226.11,304.66,226.66,304.34,226.73Zm-3-9.3c-3.39-2-6.15-.38-6.15,3.51a13.58,13.58,0,0,0,6.15,10.61c3.4,2,6.16.39,6.16-3.5A13.57,13.57,0,0,0,301.38,217.43Z"/><path class="cls-83" d="M304.34,248.61l-4.14.95c-.38.09-.89-.51-.89-1v-6.7c0-.53.51-.54.89,0l4.14,5.75C304.66,248,304.66,248.53,304.34,248.61Zm-3-9.3c-3.39-2-6.15-.39-6.15,3.51a13.58,13.58,0,0,0,6.15,10.61c3.4,2,6.16.38,6.16-3.51A13.57,13.57,0,0,0,301.38,239.31Z"/><path class="cls-83" d="M304.34,270.48l-4.14,1c-.38.09-.89-.52-.89-1v-6.71c0-.52.51-.53.89,0l4.14,5.74C304.66,269.86,304.66,270.41,304.34,270.48Zm-3-9.3c-3.39-1.95-6.15-.38-6.15,3.51a13.58,13.58,0,0,0,6.15,10.61c3.4,2,6.16.39,6.16-3.5A13.57,13.57,0,0,0,301.38,261.18Z"/><path class="cls-83" d="M304.34,292.36l-4.14.95c-.38.09-.89-.51-.89-1v-6.7c0-.53.51-.54.89,0l4.14,5.75C304.66,291.74,304.66,292.28,304.34,292.36Zm-3-9.3c-3.39-2-6.15-.39-6.15,3.51a13.58,13.58,0,0,0,6.15,10.61c3.4,2,6.16.38,6.16-3.51A13.57,13.57,0,0,0,301.38,283.06Z"/><g class="cls-84"><path class="cls-85" d="M311.33,203.71l1.58.91.7,6.19,0,0,.71-5.38,1.58.91v8.08l-1.05-.6v-6.12h0l-.81,5.65-.92-.53-.81-6.59h0v6.12l-1-.56Z"/><path class="cls-85" d="M317.12,214.73a3.59,3.59,0,0,1-.42-1.75v-6.17l1.11.64v6.26a1.46,1.46,0,0,0,.14.68,1.09,1.09,0,0,0,.42.43.4.4,0,0,0,.42.06c.1-.07.14-.24.14-.52V208.1l1.07.62v6.16c0,.66-.14,1.08-.42,1.27s-.69.12-1.23-.19A3.23,3.23,0,0,1,317.12,214.73Z"/><path class="cls-85" d="M321,217a3.56,3.56,0,0,1-.42-1.74v-.46l1.05.6v.55a1.18,1.18,0,0,0,.57,1.12c.19.11.34.13.43.06s.15-.25.15-.54a2.79,2.79,0,0,0-.2-1,10.25,10.25,0,0,0-.75-1.36,10.75,10.75,0,0,1-.95-1.8,4,4,0,0,1-.28-1.42c0-.64.15-1.06.43-1.24s.69-.13,1.22.18a3.08,3.08,0,0,1,1.21,1.22,3.66,3.66,0,0,1,.4,1.74v.34l-1-.61v-.41a1.54,1.54,0,0,0-.14-.69,1.13,1.13,0,0,0-.41-.43c-.37-.21-.56-.06-.56.45a2.4,2.4,0,0,0,.21.94,9.65,9.65,0,0,0,.75,1.36,9.77,9.77,0,0,1,.95,1.81,4.4,4.4,0,0,1,.27,1.48c0,.66-.15,1.09-.43,1.28s-.7.12-1.25-.19A3.11,3.11,0,0,1,321,217Z"/><path class="cls-85" d="M324.53,211.33l1.11.64v8.08l-1.11-.64Z"/><path class="cls-85" d="M326.81,220.33a3.49,3.49,0,0,1-.42-1.71v-4.34q0-.94.42-1.23c.28-.18.68-.12,1.21.18a3.22,3.22,0,0,1,1.21,1.22,3.49,3.49,0,0,1,.42,1.71V217l-1-.6v-.94a1.11,1.11,0,0,0-.55-1.06c-.37-.22-.55-.07-.55.43v4.51a1.12,1.12,0,0,0,.55,1.06c.37.21.55.07.55-.42v-1.24l1,.61v1.14q0,.94-.42,1.23c-.28.18-.68.12-1.21-.18A3.22,3.22,0,0,1,326.81,220.33Z"/><path class="cls-85" d="M332.79,217.26l-1.16-.67v-1.16l3.42,2v1.15l-1.15-.66v6.92l-1.11-.64Z"/><path class="cls-85" d="M335.59,217.72l1.64.94a3.29,3.29,0,0,1,1.24,1.18,3.15,3.15,0,0,1,.4,1.63v.5c0,.83-.25,1.23-.73,1.17v0a2,2,0,0,1,.57.9,4.13,4.13,0,0,1,.17,1.24v1.42a4.71,4.71,0,0,0,0,.57,1.79,1.79,0,0,0,.1.48l-1.13-.65a2.76,2.76,0,0,1-.08-.42c0-.12,0-.33,0-.63v-1.48a1.9,1.9,0,0,0-.16-.87,1.34,1.34,0,0,0-.53-.53l-.39-.22v3.47l-1.1-.64Zm1.51,4.33c.22.13.38.16.49.09s.17-.25.17-.56V221a1.68,1.68,0,0,0-.14-.72,1,1,0,0,0-.42-.44l-.51-.29v2.31Z"/><path class="cls-85" d="M340.5,220.55l1.5.87,1.14,8.74-1.1-.64-.21-1.72v0l-1.25-.72-.2,1.46-1-.59Zm1.2,6.1-.49-4.28h0l-.48,3.72Z"/><path class="cls-85" d="M344,230.25a3.42,3.42,0,0,1-.41-1.7v-4.34c0-.64.13-1,.41-1.23s.69-.13,1.22.18a3.22,3.22,0,0,1,1.21,1.22,3.38,3.38,0,0,1,.41,1.71v.85l-1-.6v-.94a1.16,1.16,0,0,0-.55-1.07c-.37-.21-.56-.07-.56.43v4.52a1.14,1.14,0,0,0,.56,1.06c.36.21.55.07.55-.42v-1.24l1.05.61v1.14c0,.63-.14,1-.42,1.22s-.69.13-1.22-.18A3.15,3.15,0,0,1,344,230.25Z"/><path class="cls-85" d="M347.51,224.6l1.11.64v3.41l1.4-2.6,1.11.64-1.32,2.21,1.34,5.89-1.16-.67-.93-4.15-.44.78v2.57l-1.11-.64Z"/><path class="cls-85" d="M360.06,239.52a3.49,3.49,0,0,1-.42-1.73v-.65l1.05.6v.72a1.18,1.18,0,0,0,.57,1.12c.19.11.33.13.43,0s.15-.29.15-.63v-.66a1.86,1.86,0,0,0-.18-.88,1.29,1.29,0,0,0-.55-.56l-.37-.22v-1.15l.4.23c.22.13.39.16.5.09s.17-.25.17-.56v-.59a1.39,1.39,0,0,0-.16-.7,1,1,0,0,0-.4-.43c-.35-.2-.53,0-.53.45v.53l-1.05-.61v-.42c0-.65.14-1.07.42-1.25s.68-.13,1.2.17a3.19,3.19,0,0,1,1.21,1.21,3.62,3.62,0,0,1,.41,1.73v.28a1.76,1.76,0,0,1-.19,1,.55.55,0,0,1-.59.23v0a2.64,2.64,0,0,1,.62,1,3.36,3.36,0,0,1,.19,1.18v.71c0,.65-.14,1.06-.41,1.24s-.69.12-1.24-.19A3.25,3.25,0,0,1,360.06,239.52Z"/><path class="cls-85" d="M363.75,236.44l1.06.61v1.22l-1.06-.61Zm0,4.39,1.06.62v1.22l-1.06-.61Z"/><path class="cls-85" d="M367.19,237.88l-1.16-.67v-.9a3.59,3.59,0,0,0,.76.35.58.58,0,0,0,.46,0,1,1,0,0,0,.3-.45l.75.43v8.08l-1.11-.64Z"/><path class="cls-85" d="M369.64,244.58a2.91,2.91,0,0,1,.25-1.34,2.22,2.22,0,0,1,.86-.87,2.63,2.63,0,0,0,.85-.79,1.84,1.84,0,0,0,.24-1,1.77,1.77,0,0,0-.15-.81,1.1,1.1,0,0,0-.43-.45c-.38-.22-.57-.06-.57.47v.87l-1.05-.61v-.78c0-.66.14-1.08.43-1.27s.69-.12,1.22.19a3.16,3.16,0,0,1,1.23,1.23,3.59,3.59,0,0,1,.42,1.75,2.54,2.54,0,0,1-.3,1.27,3.22,3.22,0,0,1-1.06,1,2.26,2.26,0,0,0-.67.59,1.38,1.38,0,0,0-.17.71v.17l2.1,1.21v1.16l-3.2-1.85Z"/><path class="cls-85" d="M311.33,226.57l1.58.91.7,6.19h0l.71-5.38,1.58.92v8.08l-1.05-.61v-6.12h0l-.81,5.66-.92-.54-.81-6.58h0v6.12l-1-.56Z"/><path class="cls-85" d="M317.12,237.58a3.57,3.57,0,0,1-.42-1.75v-6.16l1.11.64v6.25a1.54,1.54,0,0,0,.14.69,1.15,1.15,0,0,0,.42.43c.18.1.32.12.42,0s.14-.24.14-.51V231l1.07.61v6.17q0,1-.42,1.26t-1.23-.18A3.19,3.19,0,0,1,317.12,237.58Z"/><path class="cls-85" d="M321,239.83a3.57,3.57,0,0,1-.42-1.75v-.46l1.05.6v.56a1.18,1.18,0,0,0,.57,1.11c.19.11.33.13.43.06s.15-.25.15-.53a2.75,2.75,0,0,0-.2-1,9.65,9.65,0,0,0-.75-1.36,11.17,11.17,0,0,1-.95-1.81,4,4,0,0,1-.28-1.42,1.43,1.43,0,0,1,.43-1.24c.28-.19.69-.12,1.23.18a3.19,3.19,0,0,1,1.2,1.22,3.67,3.67,0,0,1,.4,1.75v.33l-1-.6V235a1.57,1.57,0,0,0-.14-.69,1,1,0,0,0-.41-.42c-.37-.22-.56-.07-.56.45a2.47,2.47,0,0,0,.21.94,10.26,10.26,0,0,0,.75,1.35,9.8,9.8,0,0,1,.95,1.82,3.9,3.9,0,0,1,.26,1.47c0,.67-.14,1.09-.42,1.28s-.7.13-1.25-.19A3.08,3.08,0,0,1,321,239.83Z"/><path class="cls-85" d="M324.53,234.19l1.11.64v8.08l-1.11-.64Z"/><path class="cls-85" d="M326.81,243.18a3.49,3.49,0,0,1-.42-1.71v-4.34c0-.63.14-1,.42-1.22s.68-.13,1.21.18a3.09,3.09,0,0,1,1.21,1.22,3.43,3.43,0,0,1,.42,1.7v.86l-1-.6v-.94a1.13,1.13,0,0,0-.55-1.07c-.37-.21-.55-.07-.55.43v4.52a1.11,1.11,0,0,0,.55,1c.37.22.55.08.55-.42v-1.23l1,.6v1.15c0,.63-.14,1-.42,1.22s-.68.13-1.21-.18A3.15,3.15,0,0,1,326.81,243.18Z"/><path class="cls-85" d="M332.79,240.11l-1.16-.67v-1.15l3.42,2v1.16l-1.15-.67v6.93l-1.11-.64Z"/><path class="cls-85" d="M335.59,240.57l1.64,1a3.27,3.27,0,0,1,1.24,1.17,3.15,3.15,0,0,1,.4,1.63v.5c0,.84-.25,1.23-.73,1.18v0a2,2,0,0,1,.57.89,4.13,4.13,0,0,1,.17,1.24v1.42a4.71,4.71,0,0,0,0,.57,1.79,1.79,0,0,0,.1.48l-1.13-.65a2.45,2.45,0,0,1-.08-.41c0-.13,0-.34,0-.64v-1.48a1.86,1.86,0,0,0-.16-.86,1.28,1.28,0,0,0-.53-.53l-.39-.22v3.46l-1.1-.64Zm1.51,4.34c.22.12.38.15.49.09s.17-.26.17-.56v-.63a1.6,1.6,0,0,0-.14-.71,1,1,0,0,0-.42-.44l-.51-.3v2.31Z"/><path class="cls-85" d="M340.5,243.41l1.5.86,1.14,8.75-1.1-.64-.21-1.72v0l-1.25-.73-.2,1.47-1-.59Zm1.2,6.1-.49-4.28h0l-.48,3.71Z"/><path class="cls-85" d="M344,253.11a3.61,3.61,0,0,1-.42-1.71v-4.34c0-.63.13-1,.41-1.23s.69-.12,1.22.19a3.2,3.2,0,0,1,1.21,1.21,3.49,3.49,0,0,1,.42,1.71v.86l-1.05-.61v-.93a1.15,1.15,0,0,0-.55-1.07c-.37-.22-.56-.07-.56.43v4.51a1.12,1.12,0,0,0,.56,1.06c.36.21.55.07.55-.42v-1.23l1.05.6v1.14c0,.63-.14,1-.42,1.23s-.69.12-1.22-.18A3.22,3.22,0,0,1,344,253.11Z"/><path class="cls-85" d="M347.51,247.46l1.11.63v3.41l1.4-2.59,1.11.64-1.32,2.2,1.34,5.89L350,257l-.93-4.14-.44.77v2.58l-1.11-.64Z"/><path class="cls-85" d="M360.11,262.39a3.53,3.53,0,0,1-.44-1.75v-4.18c0-1.4.57-1.77,1.69-1.12a3.16,3.16,0,0,1,1.23,1.23,3.62,3.62,0,0,1,.42,1.75v.15l-1-.6v-.23a1.19,1.19,0,0,0-.58-1.13c-.2-.12-.36-.14-.46-.05s-.15.32-.15.69v1.55h0c.19-.36.53-.4,1-.13a2.29,2.29,0,0,1,.91,1,3.51,3.51,0,0,1,.31,1.55v1.44c0,.65-.14,1.07-.43,1.25s-.7.13-1.25-.18A3.26,3.26,0,0,1,360.11,262.39Zm1.82-.35v-1.43a1.18,1.18,0,0,0-.58-1.13c-.38-.22-.57-.07-.57.46v1.43a1.18,1.18,0,0,0,.57,1.12C361.74,262.71,361.93,262.56,361.93,262Z"/><path class="cls-85" d="M363.75,259.29l1.06.62v1.22l-1.06-.62Zm0,4.4,1.06.61v1.23l-1.06-.62Z"/><path class="cls-85" d="M366,265.79a3.52,3.52,0,0,1-.43-1.75v-4.25c0-.64.14-1.06.43-1.25s.71-.12,1.25.19a3.26,3.26,0,0,1,1.25,1.25,3.66,3.66,0,0,1,.43,1.75V266c0,.65-.15,1.07-.43,1.25s-.71.13-1.25-.19A3.26,3.26,0,0,1,366,265.79Zm1.82-.37V261a1.18,1.18,0,0,0-.57-1.12c-.38-.23-.57-.07-.57.46v4.41a1.2,1.2,0,0,0,.57,1.13C367.62,266.11,367.81,266,367.81,265.42Z"/><path class="cls-85" d="M370.06,268.14a3.47,3.47,0,0,1-.43-1.75v-.63l1.05.6v.73a1.19,1.19,0,0,0,.57,1.12c.39.22.58.07.58-.46v-1.81a1.19,1.19,0,0,0-.58-1.13c-.38-.22-.57-.06-.57.47v.07l-1.05-.61.2-4.39,2.92,1.68v1.15l-1.93-1.11-.09,1.87,0,0c.21-.28.53-.29,1,0a2.27,2.27,0,0,1,.91,1,3.56,3.56,0,0,1,.31,1.56v1.82q0,1-.42,1.26t-1.23-.18A3.16,3.16,0,0,1,370.06,268.14Z"/><path class="cls-85" d="M311.33,292.43l1.58.92.7,6.19h0l.71-5.38,1.58.91v8.08l-1.05-.6v-6.12h0l-.81,5.65-.92-.53-.81-6.58,0,0v6.12l-1-.55Z"/><path class="cls-85" d="M317.12,303.45a3.57,3.57,0,0,1-.42-1.75v-6.16l1.11.63v6.26a1.54,1.54,0,0,0,.14.69,1.06,1.06,0,0,0,.42.42q.27.16.42.06c.1-.07.14-.24.14-.52v-6.25l1.07.61v6.17q0,1-.42,1.26t-1.23-.18A3.25,3.25,0,0,1,317.12,303.45Z"/><path class="cls-85" d="M321,305.69a3.56,3.56,0,0,1-.42-1.74v-.46l1.05.6v.56a1.18,1.18,0,0,0,.57,1.11c.19.11.33.13.43.06s.15-.25.15-.54a2.84,2.84,0,0,0-.2-1,10.92,10.92,0,0,0-.75-1.36,10.75,10.75,0,0,1-.95-1.8,4,4,0,0,1-.28-1.42,1.43,1.43,0,0,1,.43-1.24q.42-.29,1.23.18a3.19,3.19,0,0,1,1.2,1.22,3.66,3.66,0,0,1,.4,1.74v.34l-1-.61v-.41a1.54,1.54,0,0,0-.14-.69,1.13,1.13,0,0,0-.41-.43c-.37-.21-.56-.06-.56.46a2.47,2.47,0,0,0,.21.94,10.26,10.26,0,0,0,.75,1.35,9.77,9.77,0,0,1,.95,1.81,4,4,0,0,1,.26,1.48c0,.66-.14,1.09-.42,1.28s-.7.13-1.25-.19A3.11,3.11,0,0,1,321,305.69Z"/><path class="cls-85" d="M324.53,300.05l1.11.64v8.09l-1.11-.64Z"/><path class="cls-85" d="M326.81,309.05a3.49,3.49,0,0,1-.42-1.71V303q0-.94.42-1.23c.28-.18.68-.12,1.21.18a3.22,3.22,0,0,1,1.21,1.22,3.49,3.49,0,0,1,.42,1.71v.86l-1-.61v-.93a1.13,1.13,0,0,0-.55-1.07c-.37-.22-.55-.07-.55.43v4.51a1.12,1.12,0,0,0,.55,1.06c.37.21.55.07.55-.42v-1.23l1,.6v1.14q0,.94-.42,1.23c-.28.18-.68.12-1.21-.18A3.15,3.15,0,0,1,326.81,309.05Z"/><path class="cls-85" d="M332.79,306l-1.16-.67v-1.15l3.42,2v1.16l-1.15-.67v6.92l-1.11-.63Z"/><path class="cls-85" d="M335.59,306.44l1.64.95a3.2,3.2,0,0,1,1.24,1.17,3.15,3.15,0,0,1,.4,1.63v.5c0,.84-.25,1.23-.73,1.17v0a2,2,0,0,1,.57.89,4.13,4.13,0,0,1,.17,1.24v1.42a4.71,4.71,0,0,0,0,.57,1.79,1.79,0,0,0,.1.48l-1.13-.65a2.37,2.37,0,0,1-.08-.42c0-.12,0-.33,0-.63v-1.48a1.83,1.83,0,0,0-.16-.86,1.23,1.23,0,0,0-.53-.53l-.39-.22v3.46l-1.1-.64Zm1.51,4.33c.22.13.38.16.49.1s.17-.26.17-.57v-.62a1.6,1.6,0,0,0-.14-.71,1,1,0,0,0-.42-.45l-.51-.29v2.31Z"/><path class="cls-85" d="M340.5,309.27l1.5.87,1.14,8.74-1.1-.64-.21-1.72v0l-1.25-.73-.2,1.47-1-.6Zm1.2,6.1-.49-4.28h0l-.48,3.72Z"/><path class="cls-85" d="M344,319a3.61,3.61,0,0,1-.42-1.71v-4.34c0-.63.13-1,.41-1.23s.69-.12,1.22.18a3.22,3.22,0,0,1,1.21,1.22,3.49,3.49,0,0,1,.42,1.71v.85l-1.05-.6v-.94a1.16,1.16,0,0,0-.55-1.07c-.37-.21-.56-.06-.56.44V318a1.13,1.13,0,0,0,.56,1.06c.36.21.55.07.55-.42V317.4l1.05.61v1.14c0,.63-.14,1-.42,1.23s-.69.12-1.22-.18A3.29,3.29,0,0,1,344,319Z"/><path class="cls-85" d="M347.51,313.32l1.11.64v3.41l1.4-2.6,1.11.64-1.32,2.21,1.34,5.89-1.16-.67-.93-4.14-.44.77V322l-1.11-.64Z"/><path class="cls-85" d="M360.11,328.26a3.53,3.53,0,0,1-.44-1.75v-4.18c0-1.4.57-1.78,1.69-1.12a3.16,3.16,0,0,1,1.23,1.23,3.59,3.59,0,0,1,.42,1.75v.15l-1-.6v-.23a1.18,1.18,0,0,0-.58-1.13c-.2-.12-.36-.14-.46-.05s-.15.32-.15.69v1.54h0c.19-.35.53-.39,1-.12a2.27,2.27,0,0,1,.91,1A3.59,3.59,0,0,1,363,327v1.44c0,.65-.14,1.06-.43,1.25s-.7.13-1.25-.19A3.17,3.17,0,0,1,360.11,328.26Zm1.82-.36v-1.43a1.2,1.2,0,0,0-.58-1.13c-.38-.22-.57-.06-.57.47v1.43a1.18,1.18,0,0,0,.57,1.12C361.74,328.58,361.93,328.43,361.93,327.9Z"/><path class="cls-85" d="M363.75,325.16l1.06.61V327l-1.06-.62Zm0,4.4,1.06.61v1.23l-1.06-.62Z"/><path class="cls-85" d="M366,331.66a3.52,3.52,0,0,1-.43-1.75v-4.25c0-.65.14-1.06.43-1.25s.71-.13,1.25.19a3.26,3.26,0,0,1,1.25,1.25,3.63,3.63,0,0,1,.43,1.75v4.25c0,.65-.15,1.06-.43,1.25s-.71.12-1.25-.19A3.26,3.26,0,0,1,366,331.66Zm1.82-.37v-4.41a1.2,1.2,0,0,0-.57-1.13c-.38-.22-.57-.06-.57.47v4.41a1.2,1.2,0,0,0,.57,1.13C367.62,332,367.81,331.82,367.81,331.29Z"/><path class="cls-85" d="M370.06,334a3.47,3.47,0,0,1-.43-1.75v-.63l1.05.6V333a1.18,1.18,0,0,0,.57,1.11c.39.22.58.07.58-.45v-1.81a1.19,1.19,0,0,0-.58-1.13c-.38-.22-.57-.07-.57.47v.06l-1.05-.6.2-4.4,2.92,1.69v1.15l-1.93-1.11-.09,1.87h0q.31-.4,1,0a2.21,2.21,0,0,1,.91,1,3.51,3.51,0,0,1,.31,1.55v1.83q0,1-.42,1.26t-1.23-.18A3.16,3.16,0,0,1,370.06,334Z"/><path class="cls-85" d="M311.33,249.42l1.58.91.7,6.19,0,0,.71-5.38,1.58.91v8.08l-1.05-.6v-6.12h0l-.81,5.65-.92-.53-.81-6.59h0v6.12l-1-.56Z"/><path class="cls-85" d="M317.12,260.44a3.59,3.59,0,0,1-.42-1.75v-6.17l1.11.64v6.26a1.46,1.46,0,0,0,.14.68,1.09,1.09,0,0,0,.42.43q.27.15.42.06c.1-.07.14-.24.14-.52v-6.26l1.07.62v6.16c0,.66-.14,1.08-.42,1.27s-.69.12-1.23-.19A3.23,3.23,0,0,1,317.12,260.44Z"/><path class="cls-85" d="M321,262.68a3.56,3.56,0,0,1-.42-1.74v-.47l1.05.61v.55a1.18,1.18,0,0,0,.57,1.12c.19.11.34.13.43.06s.15-.25.15-.54a2.79,2.79,0,0,0-.2-1,10.25,10.25,0,0,0-.75-1.36,10.75,10.75,0,0,1-.95-1.8,4,4,0,0,1-.28-1.42c0-.64.15-1.06.43-1.24s.69-.13,1.22.18a3.08,3.08,0,0,1,1.21,1.22,3.66,3.66,0,0,1,.4,1.74v.34l-1-.61v-.41a1.54,1.54,0,0,0-.14-.69,1.06,1.06,0,0,0-.41-.43c-.37-.21-.56-.06-.56.45a2.4,2.4,0,0,0,.21.94,9.65,9.65,0,0,0,.75,1.36,9.77,9.77,0,0,1,.95,1.81,4.4,4.4,0,0,1,.27,1.48c0,.66-.15,1.09-.43,1.28s-.7.12-1.25-.19A3.11,3.11,0,0,1,321,262.68Z"/><path class="cls-85" d="M324.53,257l1.11.64v8.08l-1.11-.64Z"/><path class="cls-85" d="M326.81,266a3.49,3.49,0,0,1-.42-1.71V260q0-.94.42-1.23c.28-.18.68-.12,1.21.18a3.15,3.15,0,0,1,1.21,1.22,3.49,3.49,0,0,1,.42,1.71v.85l-1-.6v-.94a1.14,1.14,0,0,0-.55-1.07c-.37-.21-.55-.06-.55.44v4.51a1.12,1.12,0,0,0,.55,1.06c.37.21.55.07.55-.42v-1.24l1,.61v1.14q0,.94-.42,1.23c-.28.18-.68.12-1.21-.18A3.22,3.22,0,0,1,326.81,266Z"/><path class="cls-85" d="M332.79,263l-1.16-.67v-1.16l3.42,2v1.15l-1.15-.67v6.93l-1.11-.64Z"/><path class="cls-85" d="M335.59,263.43l1.64.94a3.22,3.22,0,0,1,1.24,1.18,3.13,3.13,0,0,1,.4,1.63v.5c0,.83-.25,1.23-.73,1.17v0a2,2,0,0,1,.57.9,4.13,4.13,0,0,1,.17,1.24v1.42a4.71,4.71,0,0,0,0,.57,1.79,1.79,0,0,0,.1.48l-1.13-.65a2.76,2.76,0,0,1-.08-.42c0-.12,0-.33,0-.63V270.3a1.9,1.9,0,0,0-.16-.87,1.34,1.34,0,0,0-.53-.53l-.39-.22v3.47l-1.1-.64Zm1.51,4.33c.22.13.38.16.49.09s.17-.25.17-.56v-.62a1.65,1.65,0,0,0-.14-.72,1,1,0,0,0-.42-.44l-.51-.29v2.31Z"/><path class="cls-85" d="M340.5,266.26l1.5.87,1.14,8.74-1.1-.64-.21-1.72v0l-1.25-.72-.2,1.46-1-.59Zm1.2,6.1-.49-4.28h0l-.48,3.72Z"/><path class="cls-85" d="M344,276a3.54,3.54,0,0,1-.42-1.7v-4.35c0-.63.13-1,.41-1.22s.69-.13,1.21.18a3.18,3.18,0,0,1,1.22,1.22,3.49,3.49,0,0,1,.42,1.71v.85l-1.05-.6v-.94a1.16,1.16,0,0,0-.55-1.07c-.37-.21-.56-.07-.56.43V275a1.14,1.14,0,0,0,.56,1.06c.36.21.55.07.55-.42v-1.24l1.05.61v1.14c0,.63-.13,1-.41,1.22s-.69.13-1.22-.18A3.09,3.09,0,0,1,344,276Z"/><path class="cls-85" d="M347.51,270.31l1.11.64v3.41l1.4-2.6,1.11.64-1.32,2.21,1.34,5.88-1.16-.66-.93-4.15-.44.78V279l-1.11-.64Z"/><path class="cls-85" d="M361.57,285.05l-2.11-1.22v-1.16l2-4.3,1.21.7v5.46l.52.3V286l-.52-.3v1.46l-1.11-.64Zm0-1.16v-3.15h0l-1.08,2.52Z"/><path class="cls-85" d="M363.75,282.14l1.06.62V284l-1.06-.61Zm0,4.4,1.06.62v1.22l-1.06-.61Z"/><path class="cls-85" d="M366,288.65a3.55,3.55,0,0,1-.43-1.75v-4.25c0-.65.14-1.07.43-1.25s.71-.13,1.25.19a3.26,3.26,0,0,1,1.25,1.25,3.63,3.63,0,0,1,.43,1.75v4.25a1.45,1.45,0,0,1-.43,1.25c-.29.19-.71.12-1.25-.19A3.33,3.33,0,0,1,366,288.65Zm1.82-.37v-4.41a1.2,1.2,0,0,0-.57-1.13c-.38-.22-.57-.07-.57.47v4.41a1.18,1.18,0,0,0,.57,1.12C367.62,289,367.81,288.81,367.81,288.28Z"/><path class="cls-85" d="M369.64,290.29a2.91,2.91,0,0,1,.25-1.34,2.22,2.22,0,0,1,.86-.87,2.63,2.63,0,0,0,.85-.79,1.84,1.84,0,0,0,.24-1,1.77,1.77,0,0,0-.15-.81,1.1,1.1,0,0,0-.43-.45c-.38-.22-.57-.06-.57.47v.87l-1.05-.61V285c0-.66.14-1.08.43-1.27s.69-.12,1.22.19a3.16,3.16,0,0,1,1.23,1.23,3.59,3.59,0,0,1,.42,1.75,2.54,2.54,0,0,1-.3,1.27,3.22,3.22,0,0,1-1.06,1,2.26,2.26,0,0,0-.67.59,1.38,1.38,0,0,0-.17.71v.17l2.1,1.21V293l-3.2-1.85Z"/><path class="cls-85" d="M311.33,272.28l1.58.91.7,6.19h0l.71-5.38,1.58.91V283l-1.05-.61v-6.12h0l-.81,5.66-.92-.54-.81-6.58h0v6.12l-1-.56Z"/><path class="cls-85" d="M317.12,283.29a3.57,3.57,0,0,1-.42-1.75v-6.16l1.11.64v6.25a1.54,1.54,0,0,0,.14.69,1.06,1.06,0,0,0,.42.42q.27.17.42.06c.1-.07.14-.24.14-.52v-6.25l1.07.61v6.17q0,1-.42,1.26t-1.23-.18A3.19,3.19,0,0,1,317.12,283.29Z"/><path class="cls-85" d="M321,285.54a3.57,3.57,0,0,1-.42-1.75v-.46l1.05.6v.56a1.18,1.18,0,0,0,.57,1.11c.19.11.33.13.43.06s.15-.25.15-.53a2.75,2.75,0,0,0-.2-1,9.65,9.65,0,0,0-.75-1.36,11.17,11.17,0,0,1-.95-1.81,4,4,0,0,1-.28-1.42,1.43,1.43,0,0,1,.43-1.24q.42-.29,1.23.18a3.19,3.19,0,0,1,1.2,1.22,3.67,3.67,0,0,1,.4,1.75v.33l-1-.6v-.42a1.54,1.54,0,0,0-.14-.69,1.08,1.08,0,0,0-.42-.43c-.36-.21-.55-.06-.55.46a2.47,2.47,0,0,0,.21.94,10.26,10.26,0,0,0,.75,1.35,10.09,10.09,0,0,1,.95,1.81,4,4,0,0,1,.26,1.48c0,.67-.14,1.09-.42,1.28s-.7.13-1.25-.19A3.08,3.08,0,0,1,321,285.54Z"/><path class="cls-85" d="M324.53,279.9l1.11.64v8.08l-1.11-.64Z"/><path class="cls-85" d="M326.81,288.89a3.49,3.49,0,0,1-.42-1.71v-4.34c0-.63.14-1,.42-1.22s.68-.13,1.21.18a3.09,3.09,0,0,1,1.21,1.22,3.43,3.43,0,0,1,.42,1.7v.86l-1-.61V284a1.13,1.13,0,0,0-.55-1.07c-.37-.21-.55-.07-.55.43v4.51a1.11,1.11,0,0,0,.55,1.06c.37.22.55.08.55-.42v-1.23l1,.6v1.15c0,.63-.14,1-.42,1.22s-.68.13-1.21-.18A3.15,3.15,0,0,1,326.81,288.89Z"/><path class="cls-85" d="M332.79,285.82l-1.16-.67V284l3.42,2v1.16l-1.15-.67v6.93l-1.11-.64Z"/><path class="cls-85" d="M335.59,286.28l1.64,1a3.27,3.27,0,0,1,1.24,1.17,3.15,3.15,0,0,1,.4,1.63v.5c0,.84-.25,1.23-.73,1.18v0a2,2,0,0,1,.57.89,4.13,4.13,0,0,1,.17,1.24v1.42a4.71,4.71,0,0,0,0,.57,1.79,1.79,0,0,0,.1.48l-1.13-.65a2.45,2.45,0,0,1-.08-.41c0-.13,0-.34,0-.64v-1.48a1.86,1.86,0,0,0-.16-.86,1.28,1.28,0,0,0-.53-.53l-.39-.22V295l-1.1-.64Zm1.51,4.34c.22.12.38.15.49.09s.17-.26.17-.56v-.63a1.6,1.6,0,0,0-.14-.71,1,1,0,0,0-.42-.44l-.51-.3v2.31Z"/><path class="cls-85" d="M340.5,289.12l1.5.86,1.14,8.75-1.1-.64-.21-1.72v0l-1.25-.73-.2,1.47-1-.59Zm1.2,6.1-.49-4.28h0l-.48,3.71Z"/><path class="cls-85" d="M344,298.82a3.49,3.49,0,0,1-.41-1.71v-4.34c0-.63.13-1,.41-1.23s.69-.12,1.21.18a3.25,3.25,0,0,1,1.22,1.22,3.61,3.61,0,0,1,.42,1.71v.86l-1.05-.61V294a1.15,1.15,0,0,0-.55-1.07c-.37-.22-.56-.07-.56.43v4.51a1.13,1.13,0,0,0,.56,1.06c.36.21.55.07.55-.42v-1.23l1,.6V299c0,.63-.13,1-.41,1.23s-.69.12-1.22-.18A3.15,3.15,0,0,1,344,298.82Z"/><path class="cls-85" d="M347.51,293.16l1.11.64v3.41l1.4-2.59,1.11.64-1.32,2.2,1.34,5.89-1.16-.67-.93-4.14-.44.77v2.58l-1.11-.64Z"/><path class="cls-85" d="M360.06,308.09a3.52,3.52,0,0,1-.42-1.73v-.66l1.05.6V307a1.2,1.2,0,0,0,.57,1.13c.19.11.33.12.43,0s.15-.28.15-.62v-.66a2,2,0,0,0-.17-.89,1.43,1.43,0,0,0-.56-.56l-.37-.21v-1.16l.4.24c.22.12.39.15.5.09s.17-.26.17-.56v-.59a1.48,1.48,0,0,0-.15-.7,1.13,1.13,0,0,0-.41-.43c-.35-.21-.53-.06-.53.44v.53l-1.05-.6v-.43c0-.65.14-1.06.42-1.25s.68-.12,1.2.18a3.13,3.13,0,0,1,1.21,1.21,3.45,3.45,0,0,1,.41,1.72v.29a1.72,1.72,0,0,1-.19.94.54.54,0,0,1-.59.23v0a2.64,2.64,0,0,1,.62,1,3.34,3.34,0,0,1,.19,1.17v.72c0,.64-.14,1.06-.41,1.24s-.69.11-1.24-.2A3.16,3.16,0,0,1,360.06,308.09Z"/><path class="cls-85" d="M363.75,305l1.06.62v1.22l-1.06-.62Zm0,4.4,1.06.61v1.23l-1.06-.62Z"/><path class="cls-85" d="M367.19,306.44l-1.16-.66v-.91a3.14,3.14,0,0,0,.76.35.55.55,0,0,0,.46,0,1,1,0,0,0,.3-.44l.75.43v8.08l-1.11-.64Z"/><path class="cls-85" d="M370.06,313.85a3.47,3.47,0,0,1-.43-1.75v-.63l1.05.6v.73a1.19,1.19,0,0,0,.57,1.12c.39.22.58.07.58-.46v-1.81a1.19,1.19,0,0,0-.58-1.13c-.38-.22-.57-.06-.57.47v.07l-1.05-.61.2-4.4,2.92,1.69v1.15l-1.93-1.11-.09,1.87,0,0c.21-.28.53-.29,1,0a2.27,2.27,0,0,1,.91,1,3.54,3.54,0,0,1,.31,1.55V314q0,1-.42,1.26t-1.23-.18A3.16,3.16,0,0,1,370.06,313.85Z"/></g></g><polygon class="cls-86" points="377.4 258.92 377.4 257.66 292.98 208.92 292.98 210.18 377.4 258.92"/><polygon class="cls-86" points="292.98 231.77 377.4 280.5 377.4 279.24 292.98 230.5 292.98 231.77"/><polygon class="cls-86" points="292.98 253.35 377.4 302.09 377.4 300.82 292.98 252.09 292.98 253.35"/><polygon class="cls-86" points="377.4 323.67 377.4 322.41 292.98 273.67 292.98 274.93 377.4 323.67"/><ellipse class="cls-87" cx="382.18" cy="170.02" rx="38.48" ry="22.22" transform="translate(42.52 414.15) rotate(-59.69)"/><path class="cls-88" d="M360.46,183.43c0,7.71,2.66,13.17,7,15.81l3.13,1.77c4.5,2.52,1.63-3.19,8.46-7.14,13.75-7.94,24.08-24.89,24.08-40.67,0-7.81,7.2-10,4.51-12.09-.11-.08-4.75-2.49-4.88-2.56-4.49-2.43-10.62-2-17.38,1.92C371.61,148.41,360.46,167.64,360.46,183.43Z"/><ellipse class="cls-89" cx="389.12" cy="171.02" rx="35.11" ry="20.27" transform="translate(45.09 420.63) rotate(-59.69)"/><ellipse class="cls-90" cx="365.76" cy="175.79" rx="11.09" ry="9.82" transform="translate(19.62 387.61) rotate(-57.13)"/><path class="cls-91" d="M388.72,142.27c6.59-3.81,11.79-4.74,16.24-2.51-4.15-1.17-9.3-.3-14.89,2.92-13.75,7.94-24.9,27.18-24.9,43,0,8.21,3,13.87,7.87,16.29-6.08-1.7-9.22-7.33-9.22-16.71C363.82,169.44,375,150.21,388.72,142.27Z"/><path class="cls-92" d="M370.09,185c0,6.73,2.32,11.49,6.09,13.8l7.67,4.11c3.92,2.19,1.41-2.79,7.38-6.23,12-6.93,21.73-23.71,21.73-37.48,0-6.81,6.65-6.44,2.8-8.71L407,145.82c-3.92-2.12-9.27-1.73-15.17,1.68C379.82,154.43,370.09,171.21,370.09,185Z"/><ellipse class="cls-93" cx="400.03" cy="176.72" rx="30.64" ry="17.69" transform="translate(45.58 432.88) rotate(-59.69)"/><path class="cls-94" d="M399.68,151.63c5.75-3.32,10.29-4.14,14.17-2.2-3.62-1-8.12-.25-13,2.56-12,6.93-21.73,23.71-21.73,37.48,0,7.17,2.64,12.11,6.87,14.22-5.31-1.49-8.05-6.4-8.05-14.58C378,175.34,387.68,158.56,399.68,151.63Z"/><path class="cls-95" d="M388.29,187.16c0,4.52,1.56,7.71,4.09,9.26.08.05,1.5,1,1.58,1,2.63,1.47,1-1.87,5-4.18,8.06-4.65,14.59-15.92,14.59-25.16,0-4.57,4.22-4.61,1.63-6.13-.07-.05-2-1.07-2.07-1.11-2.63-1.43-6.22-1.17-10.18,1.12C394.82,166.65,388.29,177.92,388.29,187.16Z"/><ellipse class="cls-96" cx="404.82" cy="179.89" rx="20.56" ry="11.87" transform="translate(45.21 438.58) rotate(-59.69)"/><path class="cls-97" d="M404.58,163.05c3.87-2.23,6.91-2.77,9.52-1.47-2.43-.68-5.45-.17-8.72,1.72-8.06,4.65-14.59,15.91-14.59,25.16,0,4.81,1.78,8.12,4.61,9.54-3.56-1-5.4-4.3-5.4-9.79C390,179,396.53,167.7,404.58,163.05Z"/><ellipse class="cls-98" cx="406.09" cy="180.62" rx="14.5" ry="8.37" transform="translate(45.21 440.05) rotate(-59.69)"/><path class="cls-99" d="M405.93,168.74c2.72-1.57,4.87-2,6.71-1a8.1,8.1,0,0,0-6.15,1.21c-5.68,3.28-10.29,11.23-10.29,17.75,0,3.39,1.25,5.73,3.25,6.73-2.51-.7-3.81-3-3.81-6.9C395.64,180,400.25,172,405.93,168.74Z"/><path class="cls-100" d="M282,52.86h0l.22-.16Z"/><path class="cls-101" d="M348.55,53.59h0C328.6,42.07,310.79,37.47,299.08,43v0l-14.5,8.38c11.7-5.77,29.67-1.2,49.83,10.43h0c35.25,20.36,63.83,54.61,63.83,95.06v12.8l.06,0,14.09-8.12V148.65C412.38,108.19,383.8,73.94,348.55,53.59Z"/><path class="cls-102" d="M334.4,61.76h0c-35.26-20.35-63.84-19.1-63.84,21.35V90.7l1.89,1.09V83.11c0-21.49,8-32.39,23.9-32.39,9.91,0,22.74,4.38,37.1,12.68,39.39,22.73,62,57.62,62,93.39v11.8l2.8,1.12V156.82C398.23,116.37,369.65,82.12,334.4,61.76Z"/><g class="cls-103"><path class="cls-104" d="M271.75,83.45v7.87l.8.47V83.11c0-16.33,4.65-26.54,13.83-30.5C276.66,56.32,271.75,66.64,271.75,83.45Z"/><path class="cls-105" d="M334.4,61.76h0c-19.64-11.33-37.2-16-48.91-10.85,11.7-4.57,28.91.1,48.11,11.19h0c35.25,20.35,63.83,54.6,63.83,95.06v12.26l.8.29V156.82C398.23,116.37,369.65,82.12,334.4,61.76Z"/></g><path class="cls-106" d="M236.07,104.51l-16.92.23a4.57,4.57,0,0,0-.77-2.65c-1-1.68-2.53-2.87-3.43-2.65s-.83,1.75.16,3.43,2.37,2.74,3.28,2.67l12.22-.16s.35.56-.61,1.77c-1.6,2-6.44-.09-6.44-.09s1.68,2.09,5.55,2S231.59,104.57,236.07,104.51Z"/><path class="cls-106" d="M462.75,143.1,443.3,161.55a8.68,8.68,0,0,0-3.73-3.14c-2.94-1.46-6-1.6-6.82-.32s.91,3.51,3.85,5,5.68,1.58,6.67.51l14.05-13.33s1,.48,1.18,3.31c.27,4.72-7.6,6.76-7.6,6.76s4.19,1.34,8.64-2.88S457.6,148,462.75,143.1Z"/><path class="cls-107" d="M233.5,128.5l9.52,2.3.09-.57-8.71-2.11a2.83,2.83,0,0,0,.49-1.88c-.07-1.28-.74-2.35-1.5-2.39s-1.33,1-1.27,2.27S232.79,128.36,233.5,128.5Z"/><path class="cls-83" d="M443.43,206.46l18.16-1.28-.34-1.1-16.62,1.17a5.82,5.82,0,0,0-.76-3.72c-1.21-2.31-3.26-3.88-4.59-3.5s-1.43,2.56-.22,4.88S442.11,206.63,443.43,206.46Z"/><path class="cls-107" d="M462.69,224.12l-10.35-3.76-.17.85,9.47,3.44a5.49,5.49,0,0,0-.79,2.77c-.09,1.92.53,3.53,1.38,3.6s1.61-1.41,1.7-3.32S463.47,224.34,462.69,224.12Z"/><path class="cls-83" d="M226.25,88.87l14.95-3,.69-.14,1.72-.35L233,76.73l-.16,0-2.25.45L218.5,79.64a5.43,5.43,0,0,0-1.84-2.79c-1.79-1.65-4.09-2.62-5.15-2.17s-.46,2.16,1.33,3.81,3.86,2.52,5,2.23L231.5,78l8.77,7.13-13.34,2.69A5.39,5.39,0,0,0,225.09,85c-1.79-1.65-4.09-2.62-5.15-2.17s-.45,2.16,1.33,3.81S225.13,89.16,226.25,88.87Z"/><path class="cls-83" d="M472.08,193l16.57.61.77,0,1.9.07L482,178.41h-.18l-2.5-.1L466,177.82a9.34,9.34,0,0,0-1.31-4.44c-1.52-2.86-3.74-4.93-5-4.65s-1,2.84.53,5.7c1.44,2.7,3.51,4.71,4.76,4.66l15.17.56,7.66,12.66-14.79-.55a9.33,9.33,0,0,0-1.3-4.44c-1.52-2.85-3.74-4.93-5-4.64s-1,2.84.53,5.69S470.82,193.08,472.08,193Z"/><path class="cls-107" d="M195.92,56.39,189,67l.64.38L196,57.67a3.66,3.66,0,0,0,2,1.5c1.56.54,3.12.22,3.5-.7s-.58-2.1-2.14-2.64S196.39,55.58,195.92,56.39Z"/><path class="cls-83" d="M261.07,191.78l-7.3,12a6.18,6.18,0,0,0-2.54-1.65c-1.83-.7-3.5-.61-3.72.2s1.09,2,2.92,2.72,3.32.61,3.67-.08l5.27-8.68s.63.23,1.2,1.89c.95,2.78-2.93,4.43-2.93,4.43a4,4,0,0,0,4.15-2.19C263.47,197.68,259.14,195,261.07,191.78Z"/><path class="cls-83" d="M456.78,280.26l6.66-10.12-.61-.33-6.1,9.27a3.25,3.25,0,0,0-1.91-1.32c-1.48-.44-3-.08-3.34.79s.55,1.94,2,2.37S456.32,281,456.78,280.26Z"/><path class="cls-106" d="M268.22,244.79l3.46-12.13.16-.57.39-1.39-11.61-3.3,0,.13-.52,1.83-2.79,9.79a7.83,7.83,0,0,0-3.11-2c-2.12-.77-3.87-.49-3.91.63s1.65,2.66,3.77,3.43,3.69.51,3.89-.46l3.17-11.1,9.58,2.72-3.08,10.82a7.83,7.83,0,0,0-3.11-2c-2.12-.77-3.88-.49-3.91.63s1.65,2.66,3.77,3.43S268,245.77,268.22,244.79Z"/><path class="cls-107" d="M475.43,292l-.8-7.78,0-.37-.09-.89-6.73,1.39v.09l.12,1.17.65,6.28a3.88,3.88,0,0,0-2-.25c-1.27.16-2.12.81-1.9,1.45s1.43,1,2.69.87,2-.74,1.92-1.35l-.74-7.12,5.56-1.15.72,6.94a3.88,3.88,0,0,0-2-.25c-1.27.16-2.12.8-1.9,1.45s1.43,1,2.69.87S475.54,292.65,475.43,292Z"/></g></g></g></svg>